<?xml version="1.0" encoding="UTF-8" standalone="no"?><svg xmlns="http://www.w3.org/2000/svg" xmlns:xlink="http://www.w3.org/1999/xlink" contentScriptType="application/ecmascript" contentStyleType="text/css" height="320px" preserveAspectRatio="none" style="width:1315px;height:320px;" version="1.1" viewBox="0 0 1315 320" width="1315px" zoomAndPan="magnify"><defs><filter height="300%" id="f1x7yy2vh1d4z9" width="300%" x="-1" y="-1"><feGaussianBlur result="blurOut" stdDeviation="2.0"/><feColorMatrix in="blurOut" result="blurOut2" type="matrix" values="0 0 0 0 0 0 0 0 0 0 0 0 0 0 0 0 0 0 .4 0"/><feOffset dx="4.0" dy="4.0" in="blurOut2" result="blurOut3"/><feBlend in="SourceGraphic" in2="blurOut3" mode="normal"/></filter></defs><g><!--MD5=[5d1ab724c50d81e7fd2e67537350aa20]
class Adjudicacao--><rect fill="#FEFECE" filter="url(#f1x7yy2vh1d4z9)" height="104.0234" id="Adjudicacao" style="stroke: #A80036; stroke-width: 1.5;" width="150" x="6" y="127"/><ellipse cx="41.25" cy="143" fill="#ADD1B2" rx="11" ry="11" style="stroke: #A80036; stroke-width: 1.0;"/><path d="M43.5938,138.6719 C42.6563,138.2344 42.0625,138.0938 41.1875,138.0938 C38.5625,138.0938 36.5625,140.1719 36.5625,142.8906 L36.5625,144.0156 C36.5625,146.5938 38.6719,148.4844 41.5625,148.4844 C42.7813,148.4844 43.9375,148.1875 44.6875,147.6406 C45.2656,147.2344 45.5938,146.7813 45.5938,146.3906 C45.5938,145.9375 45.2031,145.5469 44.7344,145.5469 C44.5156,145.5469 44.3125,145.625 44.125,145.8125 C43.6719,146.2969 43.6719,146.2969 43.4844,146.3906 C43.0625,146.6563 42.375,146.7813 41.6094,146.7813 C39.5625,146.7813 38.2656,145.6875 38.2656,143.9844 L38.2656,142.8906 C38.2656,141.1094 39.5156,139.7969 41.25,139.7969 C41.8281,139.7969 42.4375,139.9531 42.9063,140.2031 C43.3906,140.4844 43.5625,140.7031 43.6563,141.1094 C43.7188,141.5156 43.75,141.6406 43.8906,141.7656 C44.0313,141.9063 44.2656,142.0156 44.4844,142.0156 C44.75,142.0156 45.0156,141.875 45.1875,141.6563 C45.2969,141.5 45.3281,141.3125 45.3281,140.8906 L45.3281,139.4688 C45.3281,139.0313 45.3125,138.9063 45.2188,138.75 C45.0625,138.4844 44.7813,138.3438 44.4844,138.3438 C44.1875,138.3438 43.9844,138.4375 43.7656,138.75 L43.5938,138.6719 Z "/><text fill="#000000" font-family="sans-serif" font-size="12" lengthAdjust="spacingAndGlyphs" textLength="73" x="59.75" y="147.1543">Adjudicacao</text><line style="stroke: #A80036; stroke-width: 1.5;" x1="7" x2="155" y1="159" y2="159"/><text fill="#000000" font-family="sans-serif" font-size="11" lengthAdjust="spacingAndGlyphs" textLength="138" x="12" y="173.2104">-Double valorPretendido</text><text fill="#000000" font-family="sans-serif" font-size="11" lengthAdjust="spacingAndGlyphs" textLength="131" x="12" y="186.0151">-Periodo perRealizacao</text><text fill="#000000" font-family="sans-serif" font-size="11" lengthAdjust="spacingAndGlyphs" textLength="79" x="12" y="198.8198">-String anunId</text><text fill="#000000" font-family="sans-serif" font-size="11" lengthAdjust="spacingAndGlyphs" textLength="95" x="12" y="211.6245">-String descricao</text><text fill="#000000" font-family="sans-serif" font-size="11" lengthAdjust="spacingAndGlyphs" textLength="123" x="12" y="224.4292">-Date perAdjudicacao</text><!--MD5=[ecaed46f78f8cfe1e9ce18477649be18]
class Plataforma--><rect fill="#FEFECE" filter="url(#f1x7yy2vh1d4z9)" height="52.8047" id="Plataforma" style="stroke: #A80036; stroke-width: 1.5;" width="118" x="22" y="37.5"/><ellipse cx="47.8" cy="53.5" fill="#ADD1B2" rx="11" ry="11" style="stroke: #A80036; stroke-width: 1.0;"/><path d="M50.1438,49.1719 C49.2063,48.7344 48.6125,48.5938 47.7375,48.5938 C45.1125,48.5938 43.1125,50.6719 43.1125,53.3906 L43.1125,54.5156 C43.1125,57.0938 45.2219,58.9844 48.1125,58.9844 C49.3313,58.9844 50.4875,58.6875 51.2375,58.1406 C51.8156,57.7344 52.1438,57.2813 52.1438,56.8906 C52.1438,56.4375 51.7531,56.0469 51.2844,56.0469 C51.0656,56.0469 50.8625,56.125 50.675,56.3125 C50.2219,56.7969 50.2219,56.7969 50.0344,56.8906 C49.6125,57.1563 48.925,57.2813 48.1594,57.2813 C46.1125,57.2813 44.8156,56.1875 44.8156,54.4844 L44.8156,53.3906 C44.8156,51.6094 46.0656,50.2969 47.8,50.2969 C48.3781,50.2969 48.9875,50.4531 49.4563,50.7031 C49.9406,50.9844 50.1125,51.2031 50.2063,51.6094 C50.2688,52.0156 50.3,52.1406 50.4406,52.2656 C50.5813,52.4063 50.8156,52.5156 51.0344,52.5156 C51.3,52.5156 51.5656,52.375 51.7375,52.1563 C51.8469,52 51.8781,51.8125 51.8781,51.3906 L51.8781,49.9688 C51.8781,49.5313 51.8625,49.4063 51.7688,49.25 C51.6125,48.9844 51.3313,48.8438 51.0344,48.8438 C50.7375,48.8438 50.5344,48.9375 50.3156,49.25 L50.1438,49.1719 Z "/><text fill="#000000" font-family="sans-serif" font-size="12" lengthAdjust="spacingAndGlyphs" textLength="62" x="64.2" y="57.6543">Plataforma</text><line style="stroke: #A80036; stroke-width: 1.5;" x1="23" x2="139" y1="69.5" y2="69.5"/><text fill="#000000" font-family="sans-serif" font-size="11" lengthAdjust="spacingAndGlyphs" textLength="106" x="28" y="83.7104">-String designacao</text><!--MD5=[807977ceb130c090ed5febfb6de2bdea]
class Organizacao--><rect fill="#FEFECE" filter="url(#f1x7yy2vh1d4z9)" height="104.0234" id="Organizacao" style="stroke: #A80036; stroke-width: 1.5;" width="108" x="344" y="15"/><ellipse cx="359" cy="31" fill="#ADD1B2" rx="11" ry="11" style="stroke: #A80036; stroke-width: 1.0;"/><path d="M361.3438,26.6719 C360.4063,26.2344 359.8125,26.0938 358.9375,26.0938 C356.3125,26.0938 354.3125,28.1719 354.3125,30.8906 L354.3125,32.0156 C354.3125,34.5938 356.4219,36.4844 359.3125,36.4844 C360.5313,36.4844 361.6875,36.1875 362.4375,35.6406 C363.0156,35.2344 363.3438,34.7813 363.3438,34.3906 C363.3438,33.9375 362.9531,33.5469 362.4844,33.5469 C362.2656,33.5469 362.0625,33.625 361.875,33.8125 C361.4219,34.2969 361.4219,34.2969 361.2344,34.3906 C360.8125,34.6563 360.125,34.7813 359.3594,34.7813 C357.3125,34.7813 356.0156,33.6875 356.0156,31.9844 L356.0156,30.8906 C356.0156,29.1094 357.2656,27.7969 359,27.7969 C359.5781,27.7969 360.1875,27.9531 360.6563,28.2031 C361.1406,28.4844 361.3125,28.7031 361.4063,29.1094 C361.4688,29.5156 361.5,29.6406 361.6406,29.7656 C361.7813,29.9063 362.0156,30.0156 362.2344,30.0156 C362.5,30.0156 362.7656,29.875 362.9375,29.6563 C363.0469,29.5 363.0781,29.3125 363.0781,28.8906 L363.0781,27.4688 C363.0781,27.0313 363.0625,26.9063 362.9688,26.75 C362.8125,26.4844 362.5313,26.3438 362.2344,26.3438 C361.9375,26.3438 361.7344,26.4375 361.5156,26.75 L361.3438,26.6719 Z "/><text fill="#000000" font-family="sans-serif" font-size="12" lengthAdjust="spacingAndGlyphs" textLength="76" x="373" y="35.1543">Organizacao</text><line style="stroke: #A80036; stroke-width: 1.5;" x1="345" x2="451" y1="47" y2="47"/><text fill="#000000" font-family="sans-serif" font-size="11" lengthAdjust="spacingAndGlyphs" textLength="74" x="350" y="61.2104">-String nome</text><text fill="#000000" font-family="sans-serif" font-size="11" lengthAdjust="spacingAndGlyphs" textLength="58" x="350" y="74.0151">-String NIF</text><text fill="#000000" font-family="sans-serif" font-size="11" lengthAdjust="spacingAndGlyphs" textLength="86" x="350" y="86.8198">-String website</text><text fill="#000000" font-family="sans-serif" font-size="11" lengthAdjust="spacingAndGlyphs" textLength="90" x="350" y="99.6245">-String telefone</text><text fill="#000000" font-family="sans-serif" font-size="11" lengthAdjust="spacingAndGlyphs" textLength="73" x="350" y="112.4292">-String email</text><!--MD5=[27c2d4bbe9f7b9d3b0ea2797cc54308a]
class Tarefa--><rect fill="#FEFECE" filter="url(#f1x7yy2vh1d4z9)" height="116.8281" id="Tarefa" style="stroke: #A80036; stroke-width: 1.5;" width="126" x="614" y="8.5"/><ellipse cx="654.2" cy="24.5" fill="#ADD1B2" rx="11" ry="11" style="stroke: #A80036; stroke-width: 1.0;"/><path d="M656.5438,20.1719 C655.6063,19.7344 655.0125,19.5938 654.1375,19.5938 C651.5125,19.5938 649.5125,21.6719 649.5125,24.3906 L649.5125,25.5156 C649.5125,28.0938 651.6219,29.9844 654.5125,29.9844 C655.7313,29.9844 656.8875,29.6875 657.6375,29.1406 C658.2156,28.7344 658.5438,28.2813 658.5438,27.8906 C658.5438,27.4375 658.1531,27.0469 657.6844,27.0469 C657.4656,27.0469 657.2625,27.125 657.075,27.3125 C656.6219,27.7969 656.6219,27.7969 656.4344,27.8906 C656.0125,28.1563 655.325,28.2813 654.5594,28.2813 C652.5125,28.2813 651.2156,27.1875 651.2156,25.4844 L651.2156,24.3906 C651.2156,22.6094 652.4656,21.2969 654.2,21.2969 C654.7781,21.2969 655.3875,21.4531 655.8563,21.7031 C656.3406,21.9844 656.5125,22.2031 656.6063,22.6094 C656.6688,23.0156 656.7,23.1406 656.8406,23.2656 C656.9813,23.4063 657.2156,23.5156 657.4344,23.5156 C657.7,23.5156 657.9656,23.375 658.1375,23.1563 C658.2469,23 658.2781,22.8125 658.2781,22.3906 L658.2781,20.9688 C658.2781,20.5313 658.2625,20.4063 658.1688,20.25 C658.0125,19.9844 657.7313,19.8438 657.4344,19.8438 C657.1375,19.8438 656.9344,19.9375 656.7156,20.25 L656.5438,20.1719 Z "/><text fill="#000000" font-family="sans-serif" font-size="12" lengthAdjust="spacingAndGlyphs" textLength="38" x="673.8" y="28.6543">Tarefa</text><line style="stroke: #A80036; stroke-width: 1.5;" x1="615" x2="739" y1="40.5" y2="40.5"/><text fill="#000000" font-family="sans-serif" font-size="11" lengthAdjust="spacingAndGlyphs" textLength="100" x="620" y="54.7104">-String referencia</text><text fill="#000000" font-family="sans-serif" font-size="11" lengthAdjust="spacingAndGlyphs" textLength="106" x="620" y="67.5151">-String designacao</text><text fill="#000000" font-family="sans-serif" font-size="11" lengthAdjust="spacingAndGlyphs" textLength="114" x="620" y="80.3198">-String descInformal</text><text fill="#000000" font-family="sans-serif" font-size="11" lengthAdjust="spacingAndGlyphs" textLength="112" x="620" y="93.1245">-String descTecnica</text><text fill="#000000" font-family="sans-serif" font-size="11" lengthAdjust="spacingAndGlyphs" textLength="111" x="620" y="105.9292">-Integer duracaoEst</text><text fill="#000000" font-family="sans-serif" font-size="11" lengthAdjust="spacingAndGlyphs" textLength="96" x="620" y="118.7339">-Double custoEst</text><!--MD5=[19db0db7353a4bf63eefc676e5ba9b80]
class Anuncio--><rect fill="#FEFECE" filter="url(#f1x7yy2vh1d4z9)" height="78.4141" id="Anuncio" style="stroke: #A80036; stroke-width: 1.5;" width="129" x="864" y="104"/><ellipse cx="901.5" cy="120" fill="#ADD1B2" rx="11" ry="11" style="stroke: #A80036; stroke-width: 1.0;"/><path d="M903.8438,115.6719 C902.9063,115.2344 902.3125,115.0938 901.4375,115.0938 C898.8125,115.0938 896.8125,117.1719 896.8125,119.8906 L896.8125,121.0156 C896.8125,123.5938 898.9219,125.4844 901.8125,125.4844 C903.0313,125.4844 904.1875,125.1875 904.9375,124.6406 C905.5156,124.2344 905.8438,123.7813 905.8438,123.3906 C905.8438,122.9375 905.4531,122.5469 904.9844,122.5469 C904.7656,122.5469 904.5625,122.625 904.375,122.8125 C903.9219,123.2969 903.9219,123.2969 903.7344,123.3906 C903.3125,123.6563 902.625,123.7813 901.8594,123.7813 C899.8125,123.7813 898.5156,122.6875 898.5156,120.9844 L898.5156,119.8906 C898.5156,118.1094 899.7656,116.7969 901.5,116.7969 C902.0781,116.7969 902.6875,116.9531 903.1563,117.2031 C903.6406,117.4844 903.8125,117.7031 903.9063,118.1094 C903.9688,118.5156 904,118.6406 904.1406,118.7656 C904.2813,118.9063 904.5156,119.0156 904.7344,119.0156 C905,119.0156 905.2656,118.875 905.4375,118.6563 C905.5469,118.5 905.5781,118.3125 905.5781,117.8906 L905.5781,116.4688 C905.5781,116.0313 905.5625,115.9063 905.4688,115.75 C905.3125,115.4844 905.0313,115.3438 904.7344,115.3438 C904.4375,115.3438 904.2344,115.4375 904.0156,115.75 L903.8438,115.6719 Z "/><text fill="#000000" font-family="sans-serif" font-size="12" lengthAdjust="spacingAndGlyphs" textLength="47" x="920.5" y="124.1543">Anuncio</text><line style="stroke: #A80036; stroke-width: 1.5;" x1="865" x2="992" y1="136" y2="136"/><text fill="#000000" font-family="sans-serif" font-size="11" lengthAdjust="spacingAndGlyphs" textLength="117" x="870" y="150.2104">-Periodo publicitacao</text><text fill="#000000" font-family="sans-serif" font-size="11" lengthAdjust="spacingAndGlyphs" textLength="116" x="870" y="163.0151">-Periodo candidatura</text><text fill="#000000" font-family="sans-serif" font-size="11" lengthAdjust="spacingAndGlyphs" textLength="98" x="870" y="175.8198">-Periodo seriacao</text><!--MD5=[84d1b9922499e034344dac4e4526a697]
class Seriacao--><rect fill="#FEFECE" filter="url(#f1x7yy2vh1d4z9)" height="52.8047" id="Seriacao" style="stroke: #A80036; stroke-width: 1.5;" width="135" x="1161.5" y="116.5"/><ellipse cx="1199" cy="132.5" fill="#ADD1B2" rx="11" ry="11" style="stroke: #A80036; stroke-width: 1.0;"/><path d="M1201.3438,128.1719 C1200.4063,127.7344 1199.8125,127.5938 1198.9375,127.5938 C1196.3125,127.5938 1194.3125,129.6719 1194.3125,132.3906 L1194.3125,133.5156 C1194.3125,136.0938 1196.4219,137.9844 1199.3125,137.9844 C1200.5313,137.9844 1201.6875,137.6875 1202.4375,137.1406 C1203.0156,136.7344 1203.3438,136.2813 1203.3438,135.8906 C1203.3438,135.4375 1202.9531,135.0469 1202.4844,135.0469 C1202.2656,135.0469 1202.0625,135.125 1201.875,135.3125 C1201.4219,135.7969 1201.4219,135.7969 1201.2344,135.8906 C1200.8125,136.1563 1200.125,136.2813 1199.3594,136.2813 C1197.3125,136.2813 1196.0156,135.1875 1196.0156,133.4844 L1196.0156,132.3906 C1196.0156,130.6094 1197.2656,129.2969 1199,129.2969 C1199.5781,129.2969 1200.1875,129.4531 1200.6563,129.7031 C1201.1406,129.9844 1201.3125,130.2031 1201.4063,130.6094 C1201.4688,131.0156 1201.5,131.1406 1201.6406,131.2656 C1201.7813,131.4063 1202.0156,131.5156 1202.2344,131.5156 C1202.5,131.5156 1202.7656,131.375 1202.9375,131.1563 C1203.0469,131 1203.0781,130.8125 1203.0781,130.3906 L1203.0781,128.9688 C1203.0781,128.5313 1203.0625,128.4063 1202.9688,128.25 C1202.8125,127.9844 1202.5313,127.8438 1202.2344,127.8438 C1201.9375,127.8438 1201.7344,127.9375 1201.5156,128.25 L1201.3438,128.1719 Z "/><text fill="#000000" font-family="sans-serif" font-size="12" lengthAdjust="spacingAndGlyphs" textLength="53" x="1218" y="136.6543">Seriacao</text><line style="stroke: #A80036; stroke-width: 1.5;" x1="1162.5" x2="1295.5" y1="148.5" y2="148.5"/><text fill="#000000" font-family="sans-serif" font-size="11" lengthAdjust="spacingAndGlyphs" textLength="123" x="1167.5" y="162.7104">-Date dataRealizacao</text><!--MD5=[475c5b924ed41035684e2831311827d2]
class Candidatura--><rect fill="#FEFECE" filter="url(#f1x7yy2vh1d4z9)" height="104.0234" id="Candidatura" style="stroke: #A80036; stroke-width: 1.5;" width="150" x="1154" y="205"/><ellipse cx="1190.15" cy="221" fill="#ADD1B2" rx="11" ry="11" style="stroke: #A80036; stroke-width: 1.0;"/><path d="M1192.4938,216.6719 C1191.5563,216.2344 1190.9625,216.0938 1190.0875,216.0938 C1187.4625,216.0938 1185.4625,218.1719 1185.4625,220.8906 L1185.4625,222.0156 C1185.4625,224.5938 1187.5719,226.4844 1190.4625,226.4844 C1191.6813,226.4844 1192.8375,226.1875 1193.5875,225.6406 C1194.1656,225.2344 1194.4938,224.7813 1194.4938,224.3906 C1194.4938,223.9375 1194.1031,223.5469 1193.6344,223.5469 C1193.4156,223.5469 1193.2125,223.625 1193.025,223.8125 C1192.5719,224.2969 1192.5719,224.2969 1192.3844,224.3906 C1191.9625,224.6563 1191.275,224.7813 1190.5094,224.7813 C1188.4625,224.7813 1187.1656,223.6875 1187.1656,221.9844 L1187.1656,220.8906 C1187.1656,219.1094 1188.4156,217.7969 1190.15,217.7969 C1190.7281,217.7969 1191.3375,217.9531 1191.8063,218.2031 C1192.2906,218.4844 1192.4625,218.7031 1192.5563,219.1094 C1192.6188,219.5156 1192.65,219.6406 1192.7906,219.7656 C1192.9313,219.9063 1193.1656,220.0156 1193.3844,220.0156 C1193.65,220.0156 1193.9156,219.875 1194.0875,219.6563 C1194.1969,219.5 1194.2281,219.3125 1194.2281,218.8906 L1194.2281,217.4688 C1194.2281,217.0313 1194.2125,216.9063 1194.1188,216.75 C1193.9625,216.4844 1193.6813,216.3438 1193.3844,216.3438 C1193.0875,216.3438 1192.8844,216.4375 1192.6656,216.75 L1192.4938,216.6719 Z "/><text fill="#000000" font-family="sans-serif" font-size="12" lengthAdjust="spacingAndGlyphs" textLength="71" x="1208.85" y="225.1543">Candidatura</text><line style="stroke: #A80036; stroke-width: 1.5;" x1="1155" x2="1303" y1="237" y2="237"/><text fill="#000000" font-family="sans-serif" font-size="11" lengthAdjust="spacingAndGlyphs" textLength="129" x="1160" y="251.2104">-Date dataCandidatura</text><text fill="#000000" font-family="sans-serif" font-size="11" lengthAdjust="spacingAndGlyphs" textLength="138" x="1160" y="264.0151">-Double valorPretendido</text><text fill="#000000" font-family="sans-serif" font-size="11" lengthAdjust="spacingAndGlyphs" textLength="99" x="1160" y="276.8198">-Integer numDias</text><text fill="#000000" font-family="sans-serif" font-size="11" lengthAdjust="spacingAndGlyphs" textLength="135" x="1160" y="289.6245">-String txtApresentacao</text><text fill="#000000" font-family="sans-serif" font-size="11" lengthAdjust="spacingAndGlyphs" textLength="113" x="1160" y="302.4292">-String txtMotivacao</text><!--MD5=[1f687b5315377fe49fca59b457947463]
class Freelancer--><rect fill="#FEFECE" filter="url(#f1x7yy2vh1d4z9)" height="78.4141" id="Freelancer" style="stroke: #A80036; stroke-width: 1.5;" width="102" x="482" y="219"/><ellipse cx="499.25" cy="235" fill="#ADD1B2" rx="11" ry="11" style="stroke: #A80036; stroke-width: 1.0;"/><path d="M501.5938,230.6719 C500.6563,230.2344 500.0625,230.0938 499.1875,230.0938 C496.5625,230.0938 494.5625,232.1719 494.5625,234.8906 L494.5625,236.0156 C494.5625,238.5938 496.6719,240.4844 499.5625,240.4844 C500.7813,240.4844 501.9375,240.1875 502.6875,239.6406 C503.2656,239.2344 503.5938,238.7813 503.5938,238.3906 C503.5938,237.9375 503.2031,237.5469 502.7344,237.5469 C502.5156,237.5469 502.3125,237.625 502.125,237.8125 C501.6719,238.2969 501.6719,238.2969 501.4844,238.3906 C501.0625,238.6563 500.375,238.7813 499.6094,238.7813 C497.5625,238.7813 496.2656,237.6875 496.2656,235.9844 L496.2656,234.8906 C496.2656,233.1094 497.5156,231.7969 499.25,231.7969 C499.8281,231.7969 500.4375,231.9531 500.9063,232.2031 C501.3906,232.4844 501.5625,232.7031 501.6563,233.1094 C501.7188,233.5156 501.75,233.6406 501.8906,233.7656 C502.0313,233.9063 502.2656,234.0156 502.4844,234.0156 C502.75,234.0156 503.0156,233.875 503.1875,233.6563 C503.2969,233.5 503.3281,233.3125 503.3281,232.8906 L503.3281,231.4688 C503.3281,231.0313 503.3125,230.9063 503.2188,230.75 C503.0625,230.4844 502.7813,230.3438 502.4844,230.3438 C502.1875,230.3438 501.9844,230.4375 501.7656,230.75 L501.5938,230.6719 Z "/><text fill="#000000" font-family="sans-serif" font-size="12" lengthAdjust="spacingAndGlyphs" textLength="65" x="513.75" y="239.1543">Freelancer</text><line style="stroke: #A80036; stroke-width: 1.5;" x1="483" x2="583" y1="251" y2="251"/><text fill="#000000" font-family="sans-serif" font-size="11" lengthAdjust="spacingAndGlyphs" textLength="74" x="488" y="265.2104">-String nome</text><text fill="#000000" font-family="sans-serif" font-size="11" lengthAdjust="spacingAndGlyphs" textLength="73" x="488" y="278.0151">-String email</text><text fill="#000000" font-family="sans-serif" font-size="11" lengthAdjust="spacingAndGlyphs" textLength="90" x="488" y="290.8198">-String telefone</text><!--MD5=[ac8682ea5466d223e49472789fb200d2]
class Colaborador--><rect fill="#FEFECE" filter="url(#f1x7yy2vh1d4z9)" height="40" id="Colaborador" style="stroke: #A80036; stroke-width: 1.5;" width="107" x="1175.5" y="41"/><ellipse cx="1190.5" cy="57" fill="#ADD1B2" rx="11" ry="11" style="stroke: #A80036; stroke-width: 1.0;"/><path d="M1192.8438,52.6719 C1191.9063,52.2344 1191.3125,52.0938 1190.4375,52.0938 C1187.8125,52.0938 1185.8125,54.1719 1185.8125,56.8906 L1185.8125,58.0156 C1185.8125,60.5938 1187.9219,62.4844 1190.8125,62.4844 C1192.0313,62.4844 1193.1875,62.1875 1193.9375,61.6406 C1194.5156,61.2344 1194.8438,60.7813 1194.8438,60.3906 C1194.8438,59.9375 1194.4531,59.5469 1193.9844,59.5469 C1193.7656,59.5469 1193.5625,59.625 1193.375,59.8125 C1192.9219,60.2969 1192.9219,60.2969 1192.7344,60.3906 C1192.3125,60.6563 1191.625,60.7813 1190.8594,60.7813 C1188.8125,60.7813 1187.5156,59.6875 1187.5156,57.9844 L1187.5156,56.8906 C1187.5156,55.1094 1188.7656,53.7969 1190.5,53.7969 C1191.0781,53.7969 1191.6875,53.9531 1192.1563,54.2031 C1192.6406,54.4844 1192.8125,54.7031 1192.9063,55.1094 C1192.9688,55.5156 1193,55.6406 1193.1406,55.7656 C1193.2813,55.9063 1193.5156,56.0156 1193.7344,56.0156 C1194,56.0156 1194.2656,55.875 1194.4375,55.6563 C1194.5469,55.5 1194.5781,55.3125 1194.5781,54.8906 L1194.5781,53.4688 C1194.5781,53.0313 1194.5625,52.9063 1194.4688,52.75 C1194.3125,52.4844 1194.0313,52.3438 1193.7344,52.3438 C1193.4375,52.3438 1193.2344,52.4375 1193.0156,52.75 L1192.8438,52.6719 Z "/><text fill="#000000" font-family="sans-serif" font-size="12" lengthAdjust="spacingAndGlyphs" textLength="75" x="1204.5" y="61.1543">Colaborador</text><line style="stroke: #A80036; stroke-width: 1.5;" x1="1176.5" x2="1281.5" y1="73" y2="73"/><!--MD5=[1c2ad462e362697fcdc859a6327d55c7]
link Plataforma to Organizacao--><path d="M140.143,64.554 C198.451,65.109 287.466,65.957 343.915,66.494 " fill="none" id="Plataforma-Organizacao" style="stroke: #A80036; stroke-width: 1.0;"/><text fill="#000000" font-family="sans-serif" font-size="13" lengthAdjust="spacingAndGlyphs" textLength="97" x="195" y="61.0669">tem registadas</text><polygon fill="#000000" points="295,55.0664,301,58.0664,295,61.0664,295,55.0664" style="stroke: #000000; stroke-width: 1.0;"/><text fill="#000000" font-family="sans-serif" font-size="13" lengthAdjust="spacingAndGlyphs" textLength="8" x="147.8386" y="77.6225">1</text><text fill="#000000" font-family="sans-serif" font-size="13" lengthAdjust="spacingAndGlyphs" textLength="7" x="329.177" y="79.5081">*</text><!--MD5=[cf2deab2ed1f09cef5b70f58ef028e55]
link Organizacao to Tarefa--><path d="M452.081,67 C498.266,67 565.243,67 613.905,67 " fill="none" id="Organizacao-Tarefa" style="stroke: #A80036; stroke-width: 1.0;"/><text fill="#000000" font-family="sans-serif" font-size="13" lengthAdjust="spacingAndGlyphs" textLength="41" x="506" y="63.0669">possui</text><polygon fill="#000000" points="550,57.0664,556,60.0664,550,63.0664,550,57.0664" style="stroke: #000000; stroke-width: 1.0;"/><text fill="#000000" font-family="sans-serif" font-size="13" lengthAdjust="spacingAndGlyphs" textLength="8" x="459.8856" y="80.0821">1</text><text fill="#000000" font-family="sans-serif" font-size="13" lengthAdjust="spacingAndGlyphs" textLength="7" x="599.205" y="79.9517">*</text><!--MD5=[35fae5763b5ac085aad1a803f88e2b95]
link Tarefa to Anuncio--><path d="M740.316,85.982 C777.988,97.457 825.894,112.05 863.81,123.6 " fill="none" id="Tarefa-Anuncio" style="stroke: #A80036; stroke-width: 1.0;"/><text fill="#000000" font-family="sans-serif" font-size="13" lengthAdjust="spacingAndGlyphs" textLength="29" x="781" y="91.0669">gera</text><polygon fill="#000000" points="813,85.0664,819,88.0664,813,91.0664,813,85.0664" style="stroke: #000000; stroke-width: 1.0;"/><text fill="#000000" font-family="sans-serif" font-size="13" lengthAdjust="spacingAndGlyphs" textLength="8" x="748.0994" y="101.1285">1</text><text fill="#000000" font-family="sans-serif" font-size="13" lengthAdjust="spacingAndGlyphs" textLength="24" x="831.9013" y="134.4252">0..1</text><!--MD5=[3e4842a9a39f581fdf016dfd12392cbc]
link Freelancer to Candidatura--><path d="M584.19,257.9277 C704.919,257.7537 1012.04,257.3112 1153.99,257.1066 " fill="none" id="Freelancer-Candidatura" style="stroke: #A80036; stroke-width: 1.0;"/><text fill="#000000" font-family="sans-serif" font-size="13" lengthAdjust="spacingAndGlyphs" textLength="49" x="771" y="253.0669">contém</text><polygon fill="#000000" points="823,247.0664,829,250.0664,823,253.0664,823,247.0664" style="stroke: #000000; stroke-width: 1.0;"/><text fill="#000000" font-family="sans-serif" font-size="13" lengthAdjust="spacingAndGlyphs" textLength="8" x="591.9511" y="271.0193">1</text><text fill="#000000" font-family="sans-serif" font-size="13" lengthAdjust="spacingAndGlyphs" textLength="8" x="1137.8421" y="269.9636">1</text><!--MD5=[22ab75f887ca251f11fce1d8db3a0e76]
link Anuncio to Seriacao--><path d="M993.17,143 C1042.65,143 1111.09,143 1161.32,143 " fill="none" id="Anuncio-Seriacao" style="stroke: #A80036; stroke-width: 1.0;"/><text fill="#000000" font-family="sans-serif" font-size="13" lengthAdjust="spacingAndGlyphs" textLength="55" x="1039.5" y="139.0669">espoleta</text><polygon fill="#000000" points="1097.5,133.0664,1103.5,136.0664,1097.5,139.0664,1097.5,133.0664" style="stroke: #000000; stroke-width: 1.0;"/><text fill="#000000" font-family="sans-serif" font-size="13" lengthAdjust="spacingAndGlyphs" textLength="8" x="1001.11" y="155.9178">1</text><text fill="#000000" font-family="sans-serif" font-size="13" lengthAdjust="spacingAndGlyphs" textLength="24" x="1129.4765" y="155.8213">0..1</text><!--MD5=[0a535575571876f6213287bf563a867d]
link Anuncio to Colaborador--><path d="M993.17,125.51 C1047.45,110.599 1124.53,89.423 1175.38,75.456 " fill="none" id="Anuncio-Colaborador" style="stroke: #A80036; stroke-width: 1.0;"/><text fill="#000000" font-family="sans-serif" font-size="13" lengthAdjust="spacingAndGlyphs" textLength="86" x="1024" y="85.0669">publicado por</text><polygon fill="#000000" points="1113,79.0664,1119,82.0664,1113,85.0664,1113,79.0664" style="stroke: #000000; stroke-width: 1.0;"/><text fill="#000000" font-family="sans-serif" font-size="13" lengthAdjust="spacingAndGlyphs" textLength="7" x="1001.0522" y="136.4055">*</text><text fill="#000000" font-family="sans-serif" font-size="13" lengthAdjust="spacingAndGlyphs" textLength="8" x="1159.6373" y="90.4822">1</text><!--MD5=[27b52c98fcb5387c047ce09b42fcb62d]
link Anuncio to Candidatura--><path d="M993.17,167.316 C1040.26,185.299 1104.51,209.8367 1153.9,228.7004 " fill="none" id="Anuncio-Candidatura" style="stroke: #A80036; stroke-width: 1.0;"/><text fill="#000000" font-family="sans-serif" font-size="13" lengthAdjust="spacingAndGlyphs" textLength="44" x="1045" y="175.0669">recebe</text><polygon fill="#000000" points="1092,169.0664,1098,172.0664,1092,175.0664,1092,169.0664" style="stroke: #000000; stroke-width: 1.0;"/><text fill="#000000" font-family="sans-serif" font-size="13" lengthAdjust="spacingAndGlyphs" textLength="8" x="1001.11" y="183.0454">1</text><text fill="#000000" font-family="sans-serif" font-size="13" lengthAdjust="spacingAndGlyphs" textLength="23" x="1122.9166" y="238.8549">0..*</text><!--MD5=[5a1cc96d2a0fb9d1e5d316c6f5e0139e]
link Anuncio to Adjudicacao--><path d="M863.909,145.708 C710.407,152.243 320.197,168.858 156.291,175.837 " fill="none" id="Anuncio-Adjudicacao" style="stroke: #A80036; stroke-width: 1.0;"/><polygon fill="#000000" points="495,147.0664,489,150.0664,495,153.0664,495,147.0664" style="stroke: #000000; stroke-width: 1.0;"/><text fill="#000000" font-family="sans-serif" font-size="13" lengthAdjust="spacingAndGlyphs" textLength="77" x="501" y="153.0669">dá origem a</text><text fill="#000000" font-family="sans-serif" font-size="13" lengthAdjust="spacingAndGlyphs" textLength="8" x="847.9782" y="158.9389">1</text><text fill="#000000" font-family="sans-serif" font-size="13" lengthAdjust="spacingAndGlyphs" textLength="8" x="164.0962" y="188.3362">1</text><!--MD5=[c33cd5cc003d16907b06244bdccbdbb1]
link Adjudicacao to Freelancer--><path d="M156.107,212.6499 C166.012,216.2533 176.151,219.5075 186,222 C289.044,248.0774 413.942,255.314 481.94,257.2902 " fill="none" id="Adjudicacao-Freelancer" style="stroke: #A80036; stroke-width: 1.0;"/><text fill="#000000" font-family="sans-serif" font-size="13" lengthAdjust="spacingAndGlyphs" textLength="113" x="187" y="218.0669">correspondente a</text><polygon fill="#000000" points="303,212.0664,309,215.0664,303,218.0664,303,212.0664" style="stroke: #000000; stroke-width: 1.0;"/><text fill="#000000" font-family="sans-serif" font-size="13" lengthAdjust="spacingAndGlyphs" textLength="8" x="163.8941" y="228.7729">1</text><text fill="#000000" font-family="sans-serif" font-size="13" lengthAdjust="spacingAndGlyphs" textLength="8" x="465.8531" y="270.3338">1</text><!--MD5=[dde696a541097fdbe1f873bb94627148]
link Adjudicacao to Organizacao--><path d="M156.252,152.599 C213.911,132.098 292.459,104.17 343.927,85.87 " fill="none" id="Adjudicacao-Organizacao" style="stroke: #A80036; stroke-width: 1.0;"/><text fill="#000000" font-family="sans-serif" font-size="13" lengthAdjust="spacingAndGlyphs" textLength="113" x="187" y="93.0669">correspondente a</text><polygon fill="#000000" points="303,87.0664,309,90.0664,303,93.0664,303,87.0664" style="stroke: #000000; stroke-width: 1.0;"/><text fill="#000000" font-family="sans-serif" font-size="13" lengthAdjust="spacingAndGlyphs" textLength="8" x="164.0534" y="162.8107">1</text><text fill="#000000" font-family="sans-serif" font-size="13" lengthAdjust="spacingAndGlyphs" textLength="8" x="328.1234" y="101.4877">1</text><!--MD5=[dc52b90adf8ca9bc9f90422d485ded28]
@startuml
skinparam classAttributeIconSize 0
hide methods
left to right direction

class Adjudicacao{
  -Double valorPretendido
  -Periodo perRealizacao
  -String anunId
  -String descricao
  -Date perAdjudicacao
}

class Plataforma {
  -String designacao
}

class Organizacao {
  -String nome
  -String NIF
  -String website
  -String telefone
  -String email
}

class Tarefa {
  -String referencia
  -String designacao
  -String descInformal
  -String descTecnica
  -Integer duracaoEst
  -Double custoEst
}

class Anuncio {
  -Periodo publicitacao
  -Periodo candidatura
  -Periodo seriacao
}

class Seriacao {
  -Date dataRealizacao
}

class Candidatura {
  -Date dataCandidatura
  -Double valorPretendido
  -Integer numDias
  -String txtApresentacao
  -String txtMotivacao
}

class Freelancer {
  -String nome
  -String email
  -String telefone
}

Plataforma "1" - - "*" Organizacao : tem registadas >

Organizacao "1" - - "*" Tarefa: possui >


Tarefa "1" - - "0..1" Anuncio: gera >

Freelancer "1" - - "1" Candidatura: contém >

Anuncio "1" - - "0..1" Seriacao: espoleta >
Anuncio "*" - - "1" Colaborador: publicado por >
Anuncio "1" - - "0..*" Candidatura: recebe >
Anuncio "1" - - "1" Adjudicacao: dá origem a >

Adjudicacao "1" - - "1" Freelancer: correspondente a >
Adjudicacao "1" - - "1" Organizacao: correspondente a >
@enduml

PlantUML version 1.2020.10(Sun May 17 09:48:49 UTC 2020)
(GPL source distribution)
Java Runtime: Java(TM) SE Runtime Environment
JVM: Java HotSpot(TM) 64-Bit Server VM
Operating System: Linux
Default Encoding: UTF-8
Language: en
Country: US
--></g></svg>