<?xml version="1.0" encoding="UTF-8" standalone="no"?><svg xmlns="http://www.w3.org/2000/svg" xmlns:xlink="http://www.w3.org/1999/xlink" contentScriptType="application/ecmascript" contentStyleType="text/css" height="231px" preserveAspectRatio="none" style="width:1193px;height:231px;" version="1.1" viewBox="0 0 1193 231" width="1193px" zoomAndPan="magnify"><defs><filter height="300%" id="fxrpl9wo55vff" width="300%" x="-1" y="-1"><feGaussianBlur result="blurOut" stdDeviation="2.0"/><feColorMatrix in="blurOut" result="blurOut2" type="matrix" values="0 0 0 0 0 0 0 0 0 0 0 0 0 0 0 0 0 0 .4 0"/><feOffset dx="4.0" dy="4.0" in="blurOut2" result="blurOut3"/><feBlend in="SourceGraphic" in2="blurOut3" mode="normal"/></filter></defs><g><!--MD5=[ecaed46f78f8cfe1e9ce18477649be18]
class Plataforma--><rect fill="#FEFECE" filter="url(#fxrpl9wo55vff)" height="52.8047" id="Plataforma" style="stroke: #A80036; stroke-width: 1.5;" width="129" x="6" y="168"/><ellipse cx="34.05" cy="184" fill="#ADD1B2" rx="11" ry="11" style="stroke: #A80036; stroke-width: 1.0;"/><path d="M36.3938,179.6719 L36.5656,179.75 C36.7844,179.4375 36.9875,179.3438 37.2844,179.3438 C37.5813,179.3438 37.8625,179.4844 38.0188,179.75 C38.1125,179.9063 38.1281,180.0313 38.1281,180.4688 L38.1281,181.8906 C38.1281,182.3125 38.0969,182.5 37.9875,182.6563 C37.8156,182.875 37.55,183.0156 37.2844,183.0156 C37.0656,183.0156 36.8313,182.9063 36.6906,182.7656 C36.55,182.6406 36.5188,182.5156 36.4563,182.1094 C36.3625,181.7031 36.1906,181.4844 35.7063,181.2031 C35.2375,180.9531 34.6281,180.7969 34.05,180.7969 C32.3156,180.7969 31.0656,182.1094 31.0656,183.8906 L31.0656,184.9844 C31.0656,186.6875 32.3625,187.7813 34.4094,187.7813 C35.175,187.7813 35.8625,187.6563 36.2844,187.3906 C36.4719,187.2969 36.4719,187.2969 36.925,186.8125 C37.1125,186.625 37.3156,186.5469 37.5344,186.5469 C38.0031,186.5469 38.3938,186.9375 38.3938,187.3906 C38.3938,187.7813 38.0656,188.2344 37.4875,188.6406 C36.7375,189.1875 35.5813,189.4844 34.3625,189.4844 C31.4719,189.4844 29.3625,187.5938 29.3625,185.0156 L29.3625,183.8906 C29.3625,181.1719 31.3625,179.0938 33.9875,179.0938 C34.8625,179.0938 35.4563,179.2344 36.3938,179.6719 Z "/><text fill="#000000" font-family="sans-serif" font-size="12" lengthAdjust="spacingAndGlyphs" textLength="68" x="50.95" y="188.1543">Plataforma</text><line style="stroke: #A80036; stroke-width: 1.5;" x1="7" x2="134" y1="200" y2="200"/><rect fill="none" height="6" style="stroke: #C82930; stroke-width: 1.0;" width="6" x="14" y="208"/><text fill="#000000" font-family="sans-serif" font-size="11" lengthAdjust="spacingAndGlyphs" textLength="103" x="26" y="214.2104">String designacao</text><!--MD5=[6559d866213c6b3fd003379aeba85775]
class Organização--><rect fill="#FEFECE" filter="url(#fxrpl9wo55vff)" height="104.0234" id="Organização" style="stroke: #A80036; stroke-width: 1.5;" width="110" x="251" y="68.5"/><ellipse cx="266.45" cy="84.5" fill="#ADD1B2" rx="11" ry="11" style="stroke: #A80036; stroke-width: 1.0;"/><path d="M268.7938,80.1719 L268.9656,80.25 C269.1844,79.9375 269.3875,79.8438 269.6844,79.8438 C269.9813,79.8438 270.2625,79.9844 270.4188,80.25 C270.5125,80.4063 270.5281,80.5313 270.5281,80.9688 L270.5281,82.3906 C270.5281,82.8125 270.4969,83 270.3875,83.1563 C270.2156,83.375 269.95,83.5156 269.6844,83.5156 C269.4656,83.5156 269.2313,83.4063 269.0906,83.2656 C268.95,83.1406 268.9188,83.0156 268.8563,82.6094 C268.7625,82.2031 268.5906,81.9844 268.1063,81.7031 C267.6375,81.4531 267.0281,81.2969 266.45,81.2969 C264.7156,81.2969 263.4656,82.6094 263.4656,84.3906 L263.4656,85.4844 C263.4656,87.1875 264.7625,88.2813 266.8094,88.2813 C267.575,88.2813 268.2625,88.1563 268.6844,87.8906 C268.8719,87.7969 268.8719,87.7969 269.325,87.3125 C269.5125,87.125 269.7156,87.0469 269.9344,87.0469 C270.4031,87.0469 270.7938,87.4375 270.7938,87.8906 C270.7938,88.2813 270.4656,88.7344 269.8875,89.1406 C269.1375,89.6875 267.9813,89.9844 266.7625,89.9844 C263.8719,89.9844 261.7625,88.0938 261.7625,85.5156 L261.7625,84.3906 C261.7625,81.6719 263.7625,79.5938 266.3875,79.5938 C267.2625,79.5938 267.8563,79.7344 268.7938,80.1719 Z "/><text fill="#000000" font-family="sans-serif" font-size="12" lengthAdjust="spacingAndGlyphs" textLength="77" x="280.55" y="88.6543">Organização</text><line style="stroke: #A80036; stroke-width: 1.5;" x1="252" x2="360" y1="100.5" y2="100.5"/><rect fill="none" height="6" style="stroke: #C82930; stroke-width: 1.0;" width="6" x="259" y="108.5"/><text fill="#000000" font-family="sans-serif" font-size="11" lengthAdjust="spacingAndGlyphs" textLength="55" x="271" y="114.7104">String NIF</text><rect fill="none" height="6" style="stroke: #C82930; stroke-width: 1.0;" width="6" x="259" y="121.3047"/><text fill="#000000" font-family="sans-serif" font-size="11" lengthAdjust="spacingAndGlyphs" textLength="82" x="271" y="127.5151">String website</text><rect fill="none" height="6" style="stroke: #C82930; stroke-width: 1.0;" width="6" x="259" y="134.1094"/><text fill="#000000" font-family="sans-serif" font-size="11" lengthAdjust="spacingAndGlyphs" textLength="84" x="271" y="140.3198">String telefone</text><rect fill="none" height="6" style="stroke: #C82930; stroke-width: 1.0;" width="6" x="259" y="146.9141"/><text fill="#000000" font-family="sans-serif" font-size="11" lengthAdjust="spacingAndGlyphs" textLength="70" x="271" y="153.1245">String nome</text><rect fill="none" height="6" style="stroke: #C82930; stroke-width: 1.0;" width="6" x="259" y="159.7188"/><text fill="#000000" font-family="sans-serif" font-size="11" lengthAdjust="spacingAndGlyphs" textLength="69" x="271" y="165.9292">String email</text><!--MD5=[ac8682ea5466d223e49472789fb200d2]
class Colaborador--><rect fill="#FEFECE" filter="url(#fxrpl9wo55vff)" height="91.2188" id="Colaborador" style="stroke: #A80036; stroke-width: 1.5;" width="110" x="796.5" y="10"/><ellipse cx="811.95" cy="26" fill="#ADD1B2" rx="11" ry="11" style="stroke: #A80036; stroke-width: 1.0;"/><path d="M814.2938,21.6719 L814.4656,21.75 C814.6844,21.4375 814.8875,21.3438 815.1844,21.3438 C815.4813,21.3438 815.7625,21.4844 815.9188,21.75 C816.0125,21.9063 816.0281,22.0313 816.0281,22.4688 L816.0281,23.8906 C816.0281,24.3125 815.9969,24.5 815.8875,24.6563 C815.7156,24.875 815.45,25.0156 815.1844,25.0156 C814.9656,25.0156 814.7313,24.9063 814.5906,24.7656 C814.45,24.6406 814.4188,24.5156 814.3563,24.1094 C814.2625,23.7031 814.0906,23.4844 813.6063,23.2031 C813.1375,22.9531 812.5281,22.7969 811.95,22.7969 C810.2156,22.7969 808.9656,24.1094 808.9656,25.8906 L808.9656,26.9844 C808.9656,28.6875 810.2625,29.7813 812.3094,29.7813 C813.075,29.7813 813.7625,29.6563 814.1844,29.3906 C814.3719,29.2969 814.3719,29.2969 814.825,28.8125 C815.0125,28.625 815.2156,28.5469 815.4344,28.5469 C815.9031,28.5469 816.2938,28.9375 816.2938,29.3906 C816.2938,29.7813 815.9656,30.2344 815.3875,30.6406 C814.6375,31.1875 813.4813,31.4844 812.2625,31.4844 C809.3719,31.4844 807.2625,29.5938 807.2625,27.0156 L807.2625,25.8906 C807.2625,23.1719 809.2625,21.0938 811.8875,21.0938 C812.7625,21.0938 813.3563,21.2344 814.2938,21.6719 Z "/><text fill="#000000" font-family="sans-serif" font-size="12" lengthAdjust="spacingAndGlyphs" textLength="77" x="826.05" y="30.1543">Colaborador</text><line style="stroke: #A80036; stroke-width: 1.5;" x1="797.5" x2="905.5" y1="42" y2="42"/><rect fill="none" height="6" style="stroke: #C82930; stroke-width: 1.0;" width="6" x="804.5" y="50"/><text fill="#000000" font-family="sans-serif" font-size="11" lengthAdjust="spacingAndGlyphs" textLength="76" x="816.5" y="56.2104">String funcao</text><rect fill="none" height="6" style="stroke: #C82930; stroke-width: 1.0;" width="6" x="804.5" y="62.8047"/><text fill="#000000" font-family="sans-serif" font-size="11" lengthAdjust="spacingAndGlyphs" textLength="84" x="816.5" y="69.0151">String telefone</text><rect fill="none" height="6" style="stroke: #C82930; stroke-width: 1.0;" width="6" x="804.5" y="75.6094"/><text fill="#000000" font-family="sans-serif" font-size="11" lengthAdjust="spacingAndGlyphs" textLength="70" x="816.5" y="81.8198">String nome</text><rect fill="none" height="6" style="stroke: #C82930; stroke-width: 1.0;" width="6" x="804.5" y="88.4141"/><text fill="#000000" font-family="sans-serif" font-size="11" lengthAdjust="spacingAndGlyphs" textLength="69" x="816.5" y="94.6245">String email</text><!--MD5=[5dd1d6732c071e710b9290b531f2fa3b]
class Utilizador--><rect fill="#FEFECE" filter="url(#fxrpl9wo55vff)" height="78.4141" id="Utilizador" style="stroke: #A80036; stroke-width: 1.5;" width="120" x="1062" y="16.5"/><ellipse cx="1090.95" cy="32.5" fill="#ADD1B2" rx="11" ry="11" style="stroke: #A80036; stroke-width: 1.0;"/><path d="M1093.2938,28.1719 L1093.4656,28.25 C1093.6844,27.9375 1093.8875,27.8438 1094.1844,27.8438 C1094.4813,27.8438 1094.7625,27.9844 1094.9188,28.25 C1095.0125,28.4063 1095.0281,28.5313 1095.0281,28.9688 L1095.0281,30.3906 C1095.0281,30.8125 1094.9969,31 1094.8875,31.1563 C1094.7156,31.375 1094.45,31.5156 1094.1844,31.5156 C1093.9656,31.5156 1093.7313,31.4063 1093.5906,31.2656 C1093.45,31.1406 1093.4188,31.0156 1093.3563,30.6094 C1093.2625,30.2031 1093.0906,29.9844 1092.6063,29.7031 C1092.1375,29.4531 1091.5281,29.2969 1090.95,29.2969 C1089.2156,29.2969 1087.9656,30.6094 1087.9656,32.3906 L1087.9656,33.4844 C1087.9656,35.1875 1089.2625,36.2813 1091.3094,36.2813 C1092.075,36.2813 1092.7625,36.1563 1093.1844,35.8906 C1093.3719,35.7969 1093.3719,35.7969 1093.825,35.3125 C1094.0125,35.125 1094.2156,35.0469 1094.4344,35.0469 C1094.9031,35.0469 1095.2938,35.4375 1095.2938,35.8906 C1095.2938,36.2813 1094.9656,36.7344 1094.3875,37.1406 C1093.6375,37.6875 1092.4813,37.9844 1091.2625,37.9844 C1088.3719,37.9844 1086.2625,36.0938 1086.2625,33.5156 L1086.2625,32.3906 C1086.2625,29.6719 1088.2625,27.5938 1090.8875,27.5938 C1091.7625,27.5938 1092.3563,27.7344 1093.2938,28.1719 Z "/><text fill="#000000" font-family="sans-serif" font-size="12" lengthAdjust="spacingAndGlyphs" textLength="57" x="1108.05" y="36.6543">Utilizador</text><line style="stroke: #A80036; stroke-width: 1.5;" x1="1063" x2="1181" y1="48.5" y2="48.5"/><rect fill="none" height="6" style="stroke: #C82930; stroke-width: 1.0;" width="6" x="1070" y="56.5"/><text fill="#000000" font-family="sans-serif" font-size="11" lengthAdjust="spacingAndGlyphs" textLength="70" x="1082" y="62.7104">String nome</text><rect fill="none" height="6" style="stroke: #C82930; stroke-width: 1.0;" width="6" x="1070" y="69.3047"/><text fill="#000000" font-family="sans-serif" font-size="11" lengthAdjust="spacingAndGlyphs" textLength="69" x="1082" y="75.5151">String email</text><rect fill="none" height="6" style="stroke: #C82930; stroke-width: 1.0;" width="6" x="1070" y="82.1094"/><text fill="#000000" font-family="sans-serif" font-size="11" lengthAdjust="spacingAndGlyphs" textLength="94" x="1082" y="88.3198">String password</text><!--MD5=[27c2d4bbe9f7b9d3b0ea2797cc54308a]
class Tarefa--><rect fill="#FEFECE" filter="url(#fxrpl9wo55vff)" height="129.6328" id="Tarefa" style="stroke: #A80036; stroke-width: 1.5;" width="129" x="477" y="55.5"/><ellipse cx="517.65" cy="71.5" fill="#ADD1B2" rx="11" ry="11" style="stroke: #A80036; stroke-width: 1.0;"/><path d="M519.9938,67.1719 L520.1656,67.25 C520.3844,66.9375 520.5875,66.8438 520.8844,66.8438 C521.1813,66.8438 521.4625,66.9844 521.6188,67.25 C521.7125,67.4063 521.7281,67.5313 521.7281,67.9688 L521.7281,69.3906 C521.7281,69.8125 521.6969,70 521.5875,70.1563 C521.4156,70.375 521.15,70.5156 520.8844,70.5156 C520.6656,70.5156 520.4313,70.4063 520.2906,70.2656 C520.15,70.1406 520.1188,70.0156 520.0563,69.6094 C519.9625,69.2031 519.7906,68.9844 519.3063,68.7031 C518.8375,68.4531 518.2281,68.2969 517.65,68.2969 C515.9156,68.2969 514.6656,69.6094 514.6656,71.3906 L514.6656,72.4844 C514.6656,74.1875 515.9625,75.2813 518.0094,75.2813 C518.775,75.2813 519.4625,75.1563 519.8844,74.8906 C520.0719,74.7969 520.0719,74.7969 520.525,74.3125 C520.7125,74.125 520.9156,74.0469 521.1344,74.0469 C521.6031,74.0469 521.9938,74.4375 521.9938,74.8906 C521.9938,75.2813 521.6656,75.7344 521.0875,76.1406 C520.3375,76.6875 519.1813,76.9844 517.9625,76.9844 C515.0719,76.9844 512.9625,75.0938 512.9625,72.5156 L512.9625,71.3906 C512.9625,68.6719 514.9625,66.5938 517.5875,66.5938 C518.4625,66.5938 519.0563,66.7344 519.9938,67.1719 Z "/><text fill="#000000" font-family="sans-serif" font-size="12" lengthAdjust="spacingAndGlyphs" textLength="40" x="537.35" y="75.6543">Tarefa</text><line style="stroke: #A80036; stroke-width: 1.5;" x1="478" x2="605" y1="87.5" y2="87.5"/><rect fill="none" height="6" style="stroke: #C82930; stroke-width: 1.0;" width="6" x="485" y="95.5"/><text fill="#000000" font-family="sans-serif" font-size="11" lengthAdjust="spacingAndGlyphs" textLength="85" x="497" y="101.7104">String refUnica</text><rect fill="none" height="6" style="stroke: #C82930; stroke-width: 1.0;" width="6" x="485" y="108.3047"/><text fill="#000000" font-family="sans-serif" font-size="11" lengthAdjust="spacingAndGlyphs" textLength="103" x="497" y="114.5151">String designacao</text><rect fill="none" height="6" style="stroke: #C82930; stroke-width: 1.0;" width="6" x="485" y="121.1094"/><text fill="#000000" font-family="sans-serif" font-size="11" lengthAdjust="spacingAndGlyphs" textLength="79" x="497" y="127.3198">String descInf</text><rect fill="none" height="6" style="stroke: #C82930; stroke-width: 1.0;" width="6" x="485" y="133.9141"/><text fill="#000000" font-family="sans-serif" font-size="11" lengthAdjust="spacingAndGlyphs" textLength="85" x="497" y="140.1245">String descTec</text><rect fill="none" height="6" style="stroke: #C82930; stroke-width: 1.0;" width="6" x="485" y="146.7188"/><text fill="#000000" font-family="sans-serif" font-size="11" lengthAdjust="spacingAndGlyphs" textLength="84" x="497" y="152.9292">String duracao</text><rect fill="none" height="6" style="stroke: #C82930; stroke-width: 1.0;" width="6" x="485" y="159.5234"/><text fill="#000000" font-family="sans-serif" font-size="11" lengthAdjust="spacingAndGlyphs" textLength="91" x="497" y="165.7339">String categoria</text><rect fill="none" height="6" style="stroke: #C82930; stroke-width: 1.0;" width="6" x="485" y="172.3281"/><text fill="#000000" font-family="sans-serif" font-size="11" lengthAdjust="spacingAndGlyphs" textLength="73" x="497" y="178.5386">double custo</text><!--MD5=[6fa14b346b4b5c2b3247f8e7c37afd04]
class CategoriaTarefa--><rect fill="#FEFECE" filter="url(#fxrpl9wo55vff)" height="65.6094" id="CategoriaTarefa" style="stroke: #A80036; stroke-width: 1.5;" width="133" x="785" y="152.5"/><ellipse cx="800" cy="168.5" fill="#ADD1B2" rx="11" ry="11" style="stroke: #A80036; stroke-width: 1.0;"/><path d="M802.3438,164.1719 L802.5156,164.25 C802.7344,163.9375 802.9375,163.8438 803.2344,163.8438 C803.5313,163.8438 803.8125,163.9844 803.9688,164.25 C804.0625,164.4063 804.0781,164.5313 804.0781,164.9688 L804.0781,166.3906 C804.0781,166.8125 804.0469,167 803.9375,167.1563 C803.7656,167.375 803.5,167.5156 803.2344,167.5156 C803.0156,167.5156 802.7813,167.4063 802.6406,167.2656 C802.5,167.1406 802.4688,167.0156 802.4063,166.6094 C802.3125,166.2031 802.1406,165.9844 801.6563,165.7031 C801.1875,165.4531 800.5781,165.2969 800,165.2969 C798.2656,165.2969 797.0156,166.6094 797.0156,168.3906 L797.0156,169.4844 C797.0156,171.1875 798.3125,172.2813 800.3594,172.2813 C801.125,172.2813 801.8125,172.1563 802.2344,171.8906 C802.4219,171.7969 802.4219,171.7969 802.875,171.3125 C803.0625,171.125 803.2656,171.0469 803.4844,171.0469 C803.9531,171.0469 804.3438,171.4375 804.3438,171.8906 C804.3438,172.2813 804.0156,172.7344 803.4375,173.1406 C802.6875,173.6875 801.5313,173.9844 800.3125,173.9844 C797.4219,173.9844 795.3125,172.0938 795.3125,169.5156 L795.3125,168.3906 C795.3125,165.6719 797.3125,163.5938 799.9375,163.5938 C800.8125,163.5938 801.4063,163.7344 802.3438,164.1719 Z "/><text fill="#000000" font-family="sans-serif" font-size="12" lengthAdjust="spacingAndGlyphs" textLength="101" x="814" y="172.6543">CategoriaTarefa</text><line style="stroke: #A80036; stroke-width: 1.5;" x1="786" x2="917" y1="184.5" y2="184.5"/><rect fill="none" height="6" style="stroke: #C82930; stroke-width: 1.0;" width="6" x="793" y="192.5"/><text fill="#000000" font-family="sans-serif" font-size="11" lengthAdjust="spacingAndGlyphs" textLength="106" x="805" y="198.7104">String identInterno</text><rect fill="none" height="6" style="stroke: #C82930; stroke-width: 1.0;" width="6" x="793" y="205.3047"/><text fill="#000000" font-family="sans-serif" font-size="11" lengthAdjust="spacingAndGlyphs" textLength="93" x="805" y="211.5151">String descricao</text><!--MD5=[bfccd8e890448f4cee1f17ba82daa446]
link Plataforma to Organização--><path d="M135.305,174.2792 C171.493,162.8106 216.291,148.6134 250.77,137.6864 " fill="none" id="Plataforma-Organização" style="stroke: #A80036; stroke-width: 1.0;"/><text fill="#000000" font-family="sans-serif" font-size="13" lengthAdjust="spacingAndGlyphs" textLength="41" x="166" y="144.5669">possui</text><polygon fill="#000000" points="210,138.5664,216,141.5664,210,144.5664,210,138.5664" style="stroke: #000000; stroke-width: 1.0;"/><text fill="#000000" font-family="sans-serif" font-size="13" lengthAdjust="spacingAndGlyphs" textLength="8" x="142.8305" y="184.9727">1</text><text fill="#000000" font-family="sans-serif" font-size="13" lengthAdjust="spacingAndGlyphs" textLength="7" x="235.8782" y="153.0779">*</text><!--MD5=[5bda45774066fc14a03f4eca2e1b1558]
link Plataforma to CategoriaTarefa--><path d="M135.286,197.781 C235.527,202.4393 436.044,209.7476 606,203.5 C666.717,201.268 735.745,195.9284 784.935,191.6408 " fill="none" id="Plataforma-CategoriaTarefa" style="stroke: #A80036; stroke-width: 1.0;"/><text fill="#000000" font-family="sans-serif" font-size="13" lengthAdjust="spacingAndGlyphs" textLength="41" x="392" y="200.5669">possui</text><polygon fill="#000000" points="436,194.5664,442,197.5664,436,200.5664,436,194.5664" style="stroke: #000000; stroke-width: 1.0;"/><text fill="#000000" font-family="sans-serif" font-size="13" lengthAdjust="spacingAndGlyphs" textLength="8" x="142.8095" y="211.045">1</text><text fill="#000000" font-family="sans-serif" font-size="13" lengthAdjust="spacingAndGlyphs" textLength="7" x="769.8337" y="205.3152">*</text><!--MD5=[a1920769314186b331e19badf2cc4935]
link Organização to Colaborador--><path d="M361.334,86.51 C393.612,68.346 436.112,47.846 477,38.5 C588.213,13.079 722.761,30.575 796.188,44.042 " fill="none" id="Organização-Colaborador" style="stroke: #A80036; stroke-width: 1.0;"/><text fill="#000000" font-family="sans-serif" font-size="13" lengthAdjust="spacingAndGlyphs" textLength="26" x="522" y="21.5669">tem</text><polygon fill="#000000" points="551,15.5664,557,18.5664,551,21.5664,551,15.5664" style="stroke: #000000; stroke-width: 1.0;"/><text fill="#000000" font-family="sans-serif" font-size="13" lengthAdjust="spacingAndGlyphs" textLength="8" x="368.9362" y="95.1899">1</text><text fill="#000000" font-family="sans-serif" font-size="13" lengthAdjust="spacingAndGlyphs" textLength="7" x="781.6527" y="55.5963">*</text><!--MD5=[bcb5794e8184ce78d304f04a5beabbc0]
link Colaborador to Utilizador--><path d="M906.512,55.5 C951.534,55.5 1015.57,55.5 1061.95,55.5 " fill="none" id="Colaborador-Utilizador" style="stroke: #A80036; stroke-width: 1.0;"/><text fill="#000000" font-family="sans-serif" font-size="13" lengthAdjust="spacingAndGlyphs" textLength="69" x="949" y="51.5669">atua como</text><polygon fill="#000000" points="1021,45.5664,1027,48.5664,1021,51.5664,1021,45.5664" style="stroke: #000000; stroke-width: 1.0;"/><text fill="#000000" font-family="sans-serif" font-size="13" lengthAdjust="spacingAndGlyphs" textLength="8" x="914.4417" y="68.5689">1</text><text fill="#000000" font-family="sans-serif" font-size="13" lengthAdjust="spacingAndGlyphs" textLength="8" x="1046.1439" y="68.4638">1</text><!--MD5=[ebe0b2adceebb6ee2636cb1948c7c8a9]
link Tarefa to Colaborador--><path d="M606.318,107.032 C662.35,95.207 742.975,78.192 796.029,66.996 " fill="none" id="Tarefa-Colaborador" style="stroke: #A80036; stroke-width: 1.0;"/><text fill="#000000" font-family="sans-serif" font-size="13" lengthAdjust="spacingAndGlyphs" textLength="104" x="637" y="72.5669">especificada por</text><polygon fill="#000000" points="744,66.5664,750,69.5664,744,72.5664,744,66.5664" style="stroke: #000000; stroke-width: 1.0;"/><text fill="#000000" font-family="sans-serif" font-size="13" lengthAdjust="spacingAndGlyphs" textLength="7" x="613.7903" y="118.4735">*</text><text fill="#000000" font-family="sans-serif" font-size="13" lengthAdjust="spacingAndGlyphs" textLength="8" x="780.4093" y="81.4913">1</text><!--MD5=[05917f6a7518902eadec5ea1fb555066]
link Tarefa to CategoriaTarefa--><path d="M606.318,133.968 C658.562,144.9935 732.185,160.5309 784.906,171.6571 " fill="none" id="Tarefa-CategoriaTarefa" style="stroke: #A80036; stroke-width: 1.0;"/><text fill="#000000" font-family="sans-serif" font-size="13" lengthAdjust="spacingAndGlyphs" textLength="96" x="641" y="137.5669">catalogada em</text><polygon fill="#000000" points="740,131.5664,746,134.5664,740,137.5664,740,131.5664" style="stroke: #000000; stroke-width: 1.0;"/><text fill="#000000" font-family="sans-serif" font-size="13" lengthAdjust="spacingAndGlyphs" textLength="7" x="613.7903" y="148.3556">*</text><text fill="#000000" font-family="sans-serif" font-size="13" lengthAdjust="spacingAndGlyphs" textLength="8" x="769.1848" y="183.0589">1</text><!--MD5=[08db6e261ed14257d80751f737616a9d]
link Organização to Tarefa--><path d="M361.156,120.5 C395.646,120.5 440.482,120.5 476.695,120.5 " fill="none" id="Organização-Tarefa" style="stroke: #A80036; stroke-width: 1.0;"/><text fill="#000000" font-family="sans-serif" font-size="13" lengthAdjust="spacingAndGlyphs" textLength="41" x="392" y="116.5669">possui</text><polygon fill="#000000" points="436,110.5664,442,113.5664,436,116.5664,436,110.5664" style="stroke: #000000; stroke-width: 1.0;"/><text fill="#000000" font-family="sans-serif" font-size="13" lengthAdjust="spacingAndGlyphs" textLength="8" x="369.1051" y="133.5821">1</text><text fill="#000000" font-family="sans-serif" font-size="13" lengthAdjust="spacingAndGlyphs" textLength="7" x="461.7972" y="133.463">*</text><!--MD5=[061db4b167b226a81bc8f26ff71b6eec]
@startuml
hide methods
left to right direction

class Plataforma {
  -String designacao
}
class Organização {
  -String NIF
  -String website
  -String telefone
  -String nome
  -String email
}
class Colaborador {
  -String funcao
  -String telefone
  -String nome
  -String email
}

class Utilizador {
  -String nome
  -String email
  -String password
}
class Tarefa {
  -String refUnica
  -String designacao
  -String descInf
  -String descTec
  -String duracao
  -String categoria
  -double custo
}
class CategoriaTarefa {
  -String identInterno
  -String descricao
}

Plataforma "1" - - "*" Organização: possui >
Plataforma "1" - - "*" CategoriaTarefa: possui >
Organização "1" - - "*" Colaborador: tem >
Colaborador "1" - -"1" Utilizador: atua como >
Tarefa "*" - - "1" Colaborador: especificada por >
Tarefa "*" - - "1" CategoriaTarefa: catalogada em >
Organização "1" - - "*" Tarefa: possui >
@enduml

PlantUML version 1.2020.07beta9(Unknown compile time)
(GPL source distribution)
Java Runtime: Java(TM) SE Runtime Environment
JVM: Java HotSpot(TM) 64-Bit Server VM
Java Version: 1.7.0_25-b15
Operating System: Linux
Default Encoding: UTF-8
Language: en
Country: US
--></g></svg>