<?xml version="1.0" encoding="UTF-8" standalone="no"?><svg xmlns="http://www.w3.org/2000/svg" xmlns:xlink="http://www.w3.org/1999/xlink" contentScriptType="application/ecmascript" contentStyleType="text/css" height="1978px" preserveAspectRatio="none" style="width:2328px;height:1978px;" version="1.1" viewBox="0 0 2328 1978" width="2328px" zoomAndPan="magnify"><defs><filter height="300%" id="f2kghq1i24jq9" width="300%" x="-1" y="-1"><feGaussianBlur result="blurOut" stdDeviation="2.0"/><feColorMatrix in="blurOut" result="blurOut2" type="matrix" values="0 0 0 0 0 0 0 0 0 0 0 0 0 0 0 0 0 0 .4 0"/><feOffset dx="4.0" dy="4.0" in="blurOut2" result="blurOut3"/><feBlend in="SourceGraphic" in2="blurOut3" mode="normal"/></filter></defs><g><!--MD5=[ecaed46f78f8cfe1e9ce18477649be18]
class Plataforma--><rect fill="#FEFECE" filter="url(#f2kghq1i24jq9)" height="52.8047" id="Plataforma" style="stroke: #A80036; stroke-width: 1.5;" width="118" x="6" y="528.5"/><ellipse cx="31.8" cy="544.5" fill="#ADD1B2" rx="11" ry="11" style="stroke: #A80036; stroke-width: 1.0;"/><path d="M34.1438,540.1719 C33.2063,539.7344 32.6125,539.5938 31.7375,539.5938 C29.1125,539.5938 27.1125,541.6719 27.1125,544.3906 L27.1125,545.5156 C27.1125,548.0938 29.2219,549.9844 32.1125,549.9844 C33.3313,549.9844 34.4875,549.6875 35.2375,549.1406 C35.8156,548.7344 36.1438,548.2813 36.1438,547.8906 C36.1438,547.4375 35.7531,547.0469 35.2844,547.0469 C35.0656,547.0469 34.8625,547.125 34.675,547.3125 C34.2219,547.7969 34.2219,547.7969 34.0344,547.8906 C33.6125,548.1563 32.925,548.2813 32.1594,548.2813 C30.1125,548.2813 28.8156,547.1875 28.8156,545.4844 L28.8156,544.3906 C28.8156,542.6094 30.0656,541.2969 31.8,541.2969 C32.3781,541.2969 32.9875,541.4531 33.4563,541.7031 C33.9406,541.9844 34.1125,542.2031 34.2063,542.6094 C34.2688,543.0156 34.3,543.1406 34.4406,543.2656 C34.5813,543.4063 34.8156,543.5156 35.0344,543.5156 C35.3,543.5156 35.5656,543.375 35.7375,543.1563 C35.8469,543 35.8781,542.8125 35.8781,542.3906 L35.8781,540.9688 C35.8781,540.5313 35.8625,540.4063 35.7688,540.25 C35.6125,539.9844 35.3313,539.8438 35.0344,539.8438 C34.7375,539.8438 34.5344,539.9375 34.3156,540.25 L34.1438,540.1719 Z "/><text fill="#000000" font-family="sans-serif" font-size="12" lengthAdjust="spacingAndGlyphs" textLength="62" x="48.2" y="548.6543">Plataforma</text><line style="stroke: #A80036; stroke-width: 1.5;" x1="7" x2="123" y1="560.5" y2="560.5"/><text fill="#000000" font-family="sans-serif" font-size="11" lengthAdjust="spacingAndGlyphs" textLength="106" x="12" y="574.7104">-String designacao</text><!--MD5=[02456e6632d968d6f68141e5893c6991]
class AreaAtividade--><rect fill="#FEFECE" filter="url(#f2kghq1i24jq9)" height="78.4141" id="AreaAtividade" style="stroke: #A80036; stroke-width: 1.5;" width="139" x="1851" y="226"/><ellipse cx="1876.35" cy="242" fill="#ADD1B2" rx="11" ry="11" style="stroke: #A80036; stroke-width: 1.0;"/><path d="M1878.6938,237.6719 C1877.7563,237.2344 1877.1625,237.0938 1876.2875,237.0938 C1873.6625,237.0938 1871.6625,239.1719 1871.6625,241.8906 L1871.6625,243.0156 C1871.6625,245.5938 1873.7719,247.4844 1876.6625,247.4844 C1877.8813,247.4844 1879.0375,247.1875 1879.7875,246.6406 C1880.3656,246.2344 1880.6938,245.7813 1880.6938,245.3906 C1880.6938,244.9375 1880.3031,244.5469 1879.8344,244.5469 C1879.6156,244.5469 1879.4125,244.625 1879.225,244.8125 C1878.7719,245.2969 1878.7719,245.2969 1878.5844,245.3906 C1878.1625,245.6563 1877.475,245.7813 1876.7094,245.7813 C1874.6625,245.7813 1873.3656,244.6875 1873.3656,242.9844 L1873.3656,241.8906 C1873.3656,240.1094 1874.6156,238.7969 1876.35,238.7969 C1876.9281,238.7969 1877.5375,238.9531 1878.0063,239.2031 C1878.4906,239.4844 1878.6625,239.7031 1878.7563,240.1094 C1878.8188,240.5156 1878.85,240.6406 1878.9906,240.7656 C1879.1313,240.9063 1879.3656,241.0156 1879.5844,241.0156 C1879.85,241.0156 1880.1156,240.875 1880.2875,240.6563 C1880.3969,240.5 1880.4281,240.3125 1880.4281,239.8906 L1880.4281,238.4688 C1880.4281,238.0313 1880.4125,237.9063 1880.3188,237.75 C1880.1625,237.4844 1879.8813,237.3438 1879.5844,237.3438 C1879.2875,237.3438 1879.0844,237.4375 1878.8656,237.75 L1878.6938,237.6719 Z "/><text fill="#000000" font-family="sans-serif" font-size="12" lengthAdjust="spacingAndGlyphs" textLength="84" x="1892.65" y="246.1543">AreaAtividade</text><line style="stroke: #A80036; stroke-width: 1.5;" x1="1852" x2="1989" y1="258" y2="258"/><text fill="#000000" font-family="sans-serif" font-size="11" lengthAdjust="spacingAndGlyphs" textLength="78" x="1857" y="272.2104">-String codigo</text><text fill="#000000" font-family="sans-serif" font-size="11" lengthAdjust="spacingAndGlyphs" textLength="103" x="1857" y="285.0151">-String descBreve</text><text fill="#000000" font-family="sans-serif" font-size="11" lengthAdjust="spacingAndGlyphs" textLength="127" x="1857" y="297.8198">-String descDetalhada</text><!--MD5=[a322db5a7ec64d2ff8f2d6cf1831dcec]
class CompetenciaTecnica--><rect fill="#FEFECE" filter="url(#f2kghq1i24jq9)" height="78.4141" id="CompetenciaTecnica" style="stroke: #A80036; stroke-width: 1.5;" width="157" x="1536" y="160"/><ellipse cx="1551" cy="176" fill="#ADD1B2" rx="11" ry="11" style="stroke: #A80036; stroke-width: 1.0;"/><path d="M1553.3438,171.6719 C1552.4063,171.2344 1551.8125,171.0938 1550.9375,171.0938 C1548.3125,171.0938 1546.3125,173.1719 1546.3125,175.8906 L1546.3125,177.0156 C1546.3125,179.5938 1548.4219,181.4844 1551.3125,181.4844 C1552.5313,181.4844 1553.6875,181.1875 1554.4375,180.6406 C1555.0156,180.2344 1555.3438,179.7813 1555.3438,179.3906 C1555.3438,178.9375 1554.9531,178.5469 1554.4844,178.5469 C1554.2656,178.5469 1554.0625,178.625 1553.875,178.8125 C1553.4219,179.2969 1553.4219,179.2969 1553.2344,179.3906 C1552.8125,179.6563 1552.125,179.7813 1551.3594,179.7813 C1549.3125,179.7813 1548.0156,178.6875 1548.0156,176.9844 L1548.0156,175.8906 C1548.0156,174.1094 1549.2656,172.7969 1551,172.7969 C1551.5781,172.7969 1552.1875,172.9531 1552.6563,173.2031 C1553.1406,173.4844 1553.3125,173.7031 1553.4063,174.1094 C1553.4688,174.5156 1553.5,174.6406 1553.6406,174.7656 C1553.7813,174.9063 1554.0156,175.0156 1554.2344,175.0156 C1554.5,175.0156 1554.7656,174.875 1554.9375,174.6563 C1555.0469,174.5 1555.0781,174.3125 1555.0781,173.8906 L1555.0781,172.4688 C1555.0781,172.0313 1555.0625,171.9063 1554.9688,171.75 C1554.8125,171.4844 1554.5313,171.3438 1554.2344,171.3438 C1553.9375,171.3438 1553.7344,171.4375 1553.5156,171.75 L1553.3438,171.6719 Z "/><text fill="#000000" font-family="sans-serif" font-size="12" lengthAdjust="spacingAndGlyphs" textLength="125" x="1565" y="180.1543">CompetenciaTecnica</text><line style="stroke: #A80036; stroke-width: 1.5;" x1="1537" x2="1692" y1="192" y2="192"/><text fill="#000000" font-family="sans-serif" font-size="11" lengthAdjust="spacingAndGlyphs" textLength="78" x="1542" y="206.2104">-String codigo</text><text fill="#000000" font-family="sans-serif" font-size="11" lengthAdjust="spacingAndGlyphs" textLength="103" x="1542" y="219.0151">-String descBreve</text><text fill="#000000" font-family="sans-serif" font-size="11" lengthAdjust="spacingAndGlyphs" textLength="127" x="1542" y="231.8198">-String descDetalhada</text><!--MD5=[19648b1b60c2baeaefcc79e2077dc295]
class RegimentoAplicavel--><rect fill="#FEFECE" filter="url(#f2kghq1i24jq9)" height="78.4141" id="RegimentoAplicavel" style="stroke: #A80036; stroke-width: 1.5;" width="150" x="1539.5" y="1486"/><ellipse cx="1554.5" cy="1502" fill="#ADD1B2" rx="11" ry="11" style="stroke: #A80036; stroke-width: 1.0;"/><path d="M1556.8438,1497.6719 C1555.9063,1497.2344 1555.3125,1497.0938 1554.4375,1497.0938 C1551.8125,1497.0938 1549.8125,1499.1719 1549.8125,1501.8906 L1549.8125,1503.0156 C1549.8125,1505.5938 1551.9219,1507.4844 1554.8125,1507.4844 C1556.0313,1507.4844 1557.1875,1507.1875 1557.9375,1506.6406 C1558.5156,1506.2344 1558.8438,1505.7813 1558.8438,1505.3906 C1558.8438,1504.9375 1558.4531,1504.5469 1557.9844,1504.5469 C1557.7656,1504.5469 1557.5625,1504.625 1557.375,1504.8125 C1556.9219,1505.2969 1556.9219,1505.2969 1556.7344,1505.3906 C1556.3125,1505.6563 1555.625,1505.7813 1554.8594,1505.7813 C1552.8125,1505.7813 1551.5156,1504.6875 1551.5156,1502.9844 L1551.5156,1501.8906 C1551.5156,1500.1094 1552.7656,1498.7969 1554.5,1498.7969 C1555.0781,1498.7969 1555.6875,1498.9531 1556.1563,1499.2031 C1556.6406,1499.4844 1556.8125,1499.7031 1556.9063,1500.1094 C1556.9688,1500.5156 1557,1500.6406 1557.1406,1500.7656 C1557.2813,1500.9063 1557.5156,1501.0156 1557.7344,1501.0156 C1558,1501.0156 1558.2656,1500.875 1558.4375,1500.6563 C1558.5469,1500.5 1558.5781,1500.3125 1558.5781,1499.8906 L1558.5781,1498.4688 C1558.5781,1498.0313 1558.5625,1497.9063 1558.4688,1497.75 C1558.3125,1497.4844 1558.0313,1497.3438 1557.7344,1497.3438 C1557.4375,1497.3438 1557.2344,1497.4375 1557.0156,1497.75 L1556.8438,1497.6719 Z "/><text fill="#000000" font-family="sans-serif" font-size="12" lengthAdjust="spacingAndGlyphs" textLength="118" x="1568.5" y="1506.1543">RegimentoAplicavel</text><line style="stroke: #A80036; stroke-width: 1.5;" x1="1540.5" x2="1688.5" y1="1518" y2="1518"/><text fill="#000000" font-family="sans-serif" font-size="11" lengthAdjust="spacingAndGlyphs" textLength="106" x="1545.5" y="1532.2104">-String designacao</text><text fill="#000000" font-family="sans-serif" font-size="11" lengthAdjust="spacingAndGlyphs" textLength="107" x="1545.5" y="1545.0151">-String descRegras</text><text fill="#000000" font-family="sans-serif" font-size="11" lengthAdjust="spacingAndGlyphs" textLength="111" x="1545.5" y="1557.8198">-String identificador</text><!--MD5=[7e1ce8ab2bf669717f28e918f4971b9a]
class Categoria--><rect fill="#FEFECE" filter="url(#f2kghq1i24jq9)" height="65.6094" id="Categoria" style="stroke: #A80036; stroke-width: 1.5;" width="107" x="899" y="694"/><ellipse cx="921.65" cy="710" fill="#ADD1B2" rx="11" ry="11" style="stroke: #A80036; stroke-width: 1.0;"/><path d="M923.9938,705.6719 C923.0563,705.2344 922.4625,705.0938 921.5875,705.0938 C918.9625,705.0938 916.9625,707.1719 916.9625,709.8906 L916.9625,711.0156 C916.9625,713.5938 919.0719,715.4844 921.9625,715.4844 C923.1813,715.4844 924.3375,715.1875 925.0875,714.6406 C925.6656,714.2344 925.9938,713.7813 925.9938,713.3906 C925.9938,712.9375 925.6031,712.5469 925.1344,712.5469 C924.9156,712.5469 924.7125,712.625 924.525,712.8125 C924.0719,713.2969 924.0719,713.2969 923.8844,713.3906 C923.4625,713.6563 922.775,713.7813 922.0094,713.7813 C919.9625,713.7813 918.6656,712.6875 918.6656,710.9844 L918.6656,709.8906 C918.6656,708.1094 919.9156,706.7969 921.65,706.7969 C922.2281,706.7969 922.8375,706.9531 923.3063,707.2031 C923.7906,707.4844 923.9625,707.7031 924.0563,708.1094 C924.1188,708.5156 924.15,708.6406 924.2906,708.7656 C924.4313,708.9063 924.6656,709.0156 924.8844,709.0156 C925.15,709.0156 925.4156,708.875 925.5875,708.6563 C925.6969,708.5 925.7281,708.3125 925.7281,707.8906 L925.7281,706.4688 C925.7281,706.0313 925.7125,705.9063 925.6188,705.75 C925.4625,705.4844 925.1813,705.3438 924.8844,705.3438 C924.5875,705.3438 924.3844,705.4375 924.1656,705.75 L923.9938,705.6719 Z "/><text fill="#000000" font-family="sans-serif" font-size="12" lengthAdjust="spacingAndGlyphs" textLength="58" x="937.35" y="714.1543">Categoria</text><line style="stroke: #A80036; stroke-width: 1.5;" x1="900" x2="1005" y1="726" y2="726"/><text fill="#000000" font-family="sans-serif" font-size="11" lengthAdjust="spacingAndGlyphs" textLength="51" x="905" y="740.2104">-String id</text><text fill="#000000" font-family="sans-serif" font-size="11" lengthAdjust="spacingAndGlyphs" textLength="95" x="905" y="753.0151">-String descricao</text><!--MD5=[807977ceb130c090ed5febfb6de2bdea]
class Organizacao--><rect fill="#FEFECE" filter="url(#f2kghq1i24jq9)" height="104.0234" id="Organizacao" style="stroke: #A80036; stroke-width: 1.5;" width="108" x="296" y="971"/><ellipse cx="311" cy="987" fill="#ADD1B2" rx="11" ry="11" style="stroke: #A80036; stroke-width: 1.0;"/><path d="M313.3438,982.6719 C312.4063,982.2344 311.8125,982.0938 310.9375,982.0938 C308.3125,982.0938 306.3125,984.1719 306.3125,986.8906 L306.3125,988.0156 C306.3125,990.5938 308.4219,992.4844 311.3125,992.4844 C312.5313,992.4844 313.6875,992.1875 314.4375,991.6406 C315.0156,991.2344 315.3438,990.7813 315.3438,990.3906 C315.3438,989.9375 314.9531,989.5469 314.4844,989.5469 C314.2656,989.5469 314.0625,989.625 313.875,989.8125 C313.4219,990.2969 313.4219,990.2969 313.2344,990.3906 C312.8125,990.6563 312.125,990.7813 311.3594,990.7813 C309.3125,990.7813 308.0156,989.6875 308.0156,987.9844 L308.0156,986.8906 C308.0156,985.1094 309.2656,983.7969 311,983.7969 C311.5781,983.7969 312.1875,983.9531 312.6563,984.2031 C313.1406,984.4844 313.3125,984.7031 313.4063,985.1094 C313.4688,985.5156 313.5,985.6406 313.6406,985.7656 C313.7813,985.9063 314.0156,986.0156 314.2344,986.0156 C314.5,986.0156 314.7656,985.875 314.9375,985.6563 C315.0469,985.5 315.0781,985.3125 315.0781,984.8906 L315.0781,983.4688 C315.0781,983.0313 315.0625,982.9063 314.9688,982.75 C314.8125,982.4844 314.5313,982.3438 314.2344,982.3438 C313.9375,982.3438 313.7344,982.4375 313.5156,982.75 L313.3438,982.6719 Z "/><text fill="#000000" font-family="sans-serif" font-size="12" lengthAdjust="spacingAndGlyphs" textLength="76" x="325" y="991.1543">Organizacao</text><line style="stroke: #A80036; stroke-width: 1.5;" x1="297" x2="403" y1="1003" y2="1003"/><text fill="#000000" font-family="sans-serif" font-size="11" lengthAdjust="spacingAndGlyphs" textLength="74" x="302" y="1017.2104">-String nome</text><text fill="#000000" font-family="sans-serif" font-size="11" lengthAdjust="spacingAndGlyphs" textLength="58" x="302" y="1030.0151">-String NIF</text><text fill="#000000" font-family="sans-serif" font-size="11" lengthAdjust="spacingAndGlyphs" textLength="86" x="302" y="1042.8198">-String website</text><text fill="#000000" font-family="sans-serif" font-size="11" lengthAdjust="spacingAndGlyphs" textLength="90" x="302" y="1055.6245">-String telefone</text><text fill="#000000" font-family="sans-serif" font-size="11" lengthAdjust="spacingAndGlyphs" textLength="73" x="302" y="1068.4292">-String email</text><!--MD5=[ac8682ea5466d223e49472789fb200d2]
class Colaborador--><rect fill="#FEFECE" filter="url(#f2kghq1i24jq9)" height="91.2188" id="Colaborador" style="stroke: #A80036; stroke-width: 1.5;" width="107" x="1867" y="1065.5"/><ellipse cx="1882" cy="1081.5" fill="#ADD1B2" rx="11" ry="11" style="stroke: #A80036; stroke-width: 1.0;"/><path d="M1884.3438,1077.1719 C1883.4063,1076.7344 1882.8125,1076.5938 1881.9375,1076.5938 C1879.3125,1076.5938 1877.3125,1078.6719 1877.3125,1081.3906 L1877.3125,1082.5156 C1877.3125,1085.0938 1879.4219,1086.9844 1882.3125,1086.9844 C1883.5313,1086.9844 1884.6875,1086.6875 1885.4375,1086.1406 C1886.0156,1085.7344 1886.3438,1085.2813 1886.3438,1084.8906 C1886.3438,1084.4375 1885.9531,1084.0469 1885.4844,1084.0469 C1885.2656,1084.0469 1885.0625,1084.125 1884.875,1084.3125 C1884.4219,1084.7969 1884.4219,1084.7969 1884.2344,1084.8906 C1883.8125,1085.1563 1883.125,1085.2813 1882.3594,1085.2813 C1880.3125,1085.2813 1879.0156,1084.1875 1879.0156,1082.4844 L1879.0156,1081.3906 C1879.0156,1079.6094 1880.2656,1078.2969 1882,1078.2969 C1882.5781,1078.2969 1883.1875,1078.4531 1883.6563,1078.7031 C1884.1406,1078.9844 1884.3125,1079.2031 1884.4063,1079.6094 C1884.4688,1080.0156 1884.5,1080.1406 1884.6406,1080.2656 C1884.7813,1080.4063 1885.0156,1080.5156 1885.2344,1080.5156 C1885.5,1080.5156 1885.7656,1080.375 1885.9375,1080.1563 C1886.0469,1080 1886.0781,1079.8125 1886.0781,1079.3906 L1886.0781,1077.9688 C1886.0781,1077.5313 1886.0625,1077.4063 1885.9688,1077.25 C1885.8125,1076.9844 1885.5313,1076.8438 1885.2344,1076.8438 C1884.9375,1076.8438 1884.7344,1076.9375 1884.5156,1077.25 L1884.3438,1077.1719 Z "/><text fill="#000000" font-family="sans-serif" font-size="12" lengthAdjust="spacingAndGlyphs" textLength="75" x="1896" y="1085.6543">Colaborador</text><line style="stroke: #A80036; stroke-width: 1.5;" x1="1868" x2="1973" y1="1097.5" y2="1097.5"/><text fill="#000000" font-family="sans-serif" font-size="11" lengthAdjust="spacingAndGlyphs" textLength="74" x="1873" y="1111.7104">-String nome</text><text fill="#000000" font-family="sans-serif" font-size="11" lengthAdjust="spacingAndGlyphs" textLength="79" x="1873" y="1124.5151">-String funcao</text><text fill="#000000" font-family="sans-serif" font-size="11" lengthAdjust="spacingAndGlyphs" textLength="90" x="1873" y="1137.3198">-String telefone</text><text fill="#000000" font-family="sans-serif" font-size="11" lengthAdjust="spacingAndGlyphs" textLength="73" x="1873" y="1150.1245">-String email</text><!--MD5=[dcda844062f930f807532403427d3023]
class EnderecoPostal--><rect fill="#FEFECE" filter="url(#f2kghq1i24jq9)" height="78.4141" id="EnderecoPostal" style="stroke: #A80036; stroke-width: 1.5;" width="125" x="1196.5" y="394"/><ellipse cx="1211.5" cy="410" fill="#ADD1B2" rx="11" ry="11" style="stroke: #A80036; stroke-width: 1.0;"/><path d="M1213.8438,405.6719 C1212.9063,405.2344 1212.3125,405.0938 1211.4375,405.0938 C1208.8125,405.0938 1206.8125,407.1719 1206.8125,409.8906 L1206.8125,411.0156 C1206.8125,413.5938 1208.9219,415.4844 1211.8125,415.4844 C1213.0313,415.4844 1214.1875,415.1875 1214.9375,414.6406 C1215.5156,414.2344 1215.8438,413.7813 1215.8438,413.3906 C1215.8438,412.9375 1215.4531,412.5469 1214.9844,412.5469 C1214.7656,412.5469 1214.5625,412.625 1214.375,412.8125 C1213.9219,413.2969 1213.9219,413.2969 1213.7344,413.3906 C1213.3125,413.6563 1212.625,413.7813 1211.8594,413.7813 C1209.8125,413.7813 1208.5156,412.6875 1208.5156,410.9844 L1208.5156,409.8906 C1208.5156,408.1094 1209.7656,406.7969 1211.5,406.7969 C1212.0781,406.7969 1212.6875,406.9531 1213.1563,407.2031 C1213.6406,407.4844 1213.8125,407.7031 1213.9063,408.1094 C1213.9688,408.5156 1214,408.6406 1214.1406,408.7656 C1214.2813,408.9063 1214.5156,409.0156 1214.7344,409.0156 C1215,409.0156 1215.2656,408.875 1215.4375,408.6563 C1215.5469,408.5 1215.5781,408.3125 1215.5781,407.8906 L1215.5781,406.4688 C1215.5781,406.0313 1215.5625,405.9063 1215.4688,405.75 C1215.3125,405.4844 1215.0313,405.3438 1214.7344,405.3438 C1214.4375,405.3438 1214.2344,405.4375 1214.0156,405.75 L1213.8438,405.6719 Z "/><text fill="#000000" font-family="sans-serif" font-size="12" lengthAdjust="spacingAndGlyphs" textLength="93" x="1225.5" y="414.1543">EnderecoPostal</text><line style="stroke: #A80036; stroke-width: 1.5;" x1="1197.5" x2="1320.5" y1="426" y2="426"/><text fill="#000000" font-family="sans-serif" font-size="11" lengthAdjust="spacingAndGlyphs" textLength="67" x="1202.5" y="440.2104">-String local</text><text fill="#000000" font-family="sans-serif" font-size="11" lengthAdjust="spacingAndGlyphs" textLength="94" x="1202.5" y="453.0151">-String codPostal</text><text fill="#000000" font-family="sans-serif" font-size="11" lengthAdjust="spacingAndGlyphs" textLength="99" x="1202.5" y="465.8198">-String localidade</text><!--MD5=[b0f240be72c8ea8a063442502d85fc08]
class CaraterCT--><rect fill="#FEFECE" filter="url(#f2kghq1i24jq9)" height="52.8047" id="CaraterCT" style="stroke: #A80036; stroke-width: 1.5;" width="127" x="1195.5" y="546.5"/><ellipse cx="1226.7" cy="562.5" fill="#ADD1B2" rx="11" ry="11" style="stroke: #A80036; stroke-width: 1.0;"/><path d="M1229.0438,558.1719 C1228.1063,557.7344 1227.5125,557.5938 1226.6375,557.5938 C1224.0125,557.5938 1222.0125,559.6719 1222.0125,562.3906 L1222.0125,563.5156 C1222.0125,566.0938 1224.1219,567.9844 1227.0125,567.9844 C1228.2313,567.9844 1229.3875,567.6875 1230.1375,567.1406 C1230.7156,566.7344 1231.0438,566.2813 1231.0438,565.8906 C1231.0438,565.4375 1230.6531,565.0469 1230.1844,565.0469 C1229.9656,565.0469 1229.7625,565.125 1229.575,565.3125 C1229.1219,565.7969 1229.1219,565.7969 1228.9344,565.8906 C1228.5125,566.1563 1227.825,566.2813 1227.0594,566.2813 C1225.0125,566.2813 1223.7156,565.1875 1223.7156,563.4844 L1223.7156,562.3906 C1223.7156,560.6094 1224.9656,559.2969 1226.7,559.2969 C1227.2781,559.2969 1227.8875,559.4531 1228.3563,559.7031 C1228.8406,559.9844 1229.0125,560.2031 1229.1063,560.6094 C1229.1688,561.0156 1229.2,561.1406 1229.3406,561.2656 C1229.4813,561.4063 1229.7156,561.5156 1229.9344,561.5156 C1230.2,561.5156 1230.4656,561.375 1230.6375,561.1563 C1230.7469,561 1230.7781,560.8125 1230.7781,560.3906 L1230.7781,558.9688 C1230.7781,558.5313 1230.7625,558.4063 1230.6688,558.25 C1230.5125,557.9844 1230.2313,557.8438 1229.9344,557.8438 C1229.6375,557.8438 1229.4344,557.9375 1229.2156,558.25 L1229.0438,558.1719 Z "/><text fill="#000000" font-family="sans-serif" font-size="12" lengthAdjust="spacingAndGlyphs" textLength="59" x="1244.3" y="566.6543">CaraterCT</text><line style="stroke: #A80036; stroke-width: 1.5;" x1="1196.5" x2="1321.5" y1="578.5" y2="578.5"/><text fill="#000000" font-family="sans-serif" font-size="11" lengthAdjust="spacingAndGlyphs" textLength="115" x="1201.5" y="592.7104">-Boolean obrigatoria</text><!--MD5=[27c2d4bbe9f7b9d3b0ea2797cc54308a]
class Tarefa--><rect fill="#FEFECE" filter="url(#f2kghq1i24jq9)" height="116.8281" id="Tarefa" style="stroke: #A80036; stroke-width: 1.5;" width="126" x="581" y="881.5"/><ellipse cx="621.2" cy="897.5" fill="#ADD1B2" rx="11" ry="11" style="stroke: #A80036; stroke-width: 1.0;"/><path d="M623.5438,893.1719 C622.6063,892.7344 622.0125,892.5938 621.1375,892.5938 C618.5125,892.5938 616.5125,894.6719 616.5125,897.3906 L616.5125,898.5156 C616.5125,901.0938 618.6219,902.9844 621.5125,902.9844 C622.7313,902.9844 623.8875,902.6875 624.6375,902.1406 C625.2156,901.7344 625.5438,901.2813 625.5438,900.8906 C625.5438,900.4375 625.1531,900.0469 624.6844,900.0469 C624.4656,900.0469 624.2625,900.125 624.075,900.3125 C623.6219,900.7969 623.6219,900.7969 623.4344,900.8906 C623.0125,901.1563 622.325,901.2813 621.5594,901.2813 C619.5125,901.2813 618.2156,900.1875 618.2156,898.4844 L618.2156,897.3906 C618.2156,895.6094 619.4656,894.2969 621.2,894.2969 C621.7781,894.2969 622.3875,894.4531 622.8563,894.7031 C623.3406,894.9844 623.5125,895.2031 623.6063,895.6094 C623.6688,896.0156 623.7,896.1406 623.8406,896.2656 C623.9813,896.4063 624.2156,896.5156 624.4344,896.5156 C624.7,896.5156 624.9656,896.375 625.1375,896.1563 C625.2469,896 625.2781,895.8125 625.2781,895.3906 L625.2781,893.9688 C625.2781,893.5313 625.2625,893.4063 625.1688,893.25 C625.0125,892.9844 624.7313,892.8438 624.4344,892.8438 C624.1375,892.8438 623.9344,892.9375 623.7156,893.25 L623.5438,893.1719 Z "/><text fill="#000000" font-family="sans-serif" font-size="12" lengthAdjust="spacingAndGlyphs" textLength="38" x="640.8" y="901.6543">Tarefa</text><line style="stroke: #A80036; stroke-width: 1.5;" x1="582" x2="706" y1="913.5" y2="913.5"/><text fill="#000000" font-family="sans-serif" font-size="11" lengthAdjust="spacingAndGlyphs" textLength="100" x="587" y="927.7104">-String referencia</text><text fill="#000000" font-family="sans-serif" font-size="11" lengthAdjust="spacingAndGlyphs" textLength="106" x="587" y="940.5151">-String designacao</text><text fill="#000000" font-family="sans-serif" font-size="11" lengthAdjust="spacingAndGlyphs" textLength="114" x="587" y="953.3198">-String descInformal</text><text fill="#000000" font-family="sans-serif" font-size="11" lengthAdjust="spacingAndGlyphs" textLength="112" x="587" y="966.1245">-String descTecnica</text><text fill="#000000" font-family="sans-serif" font-size="11" lengthAdjust="spacingAndGlyphs" textLength="111" x="587" y="978.9292">-Integer duracaoEst</text><text fill="#000000" font-family="sans-serif" font-size="11" lengthAdjust="spacingAndGlyphs" textLength="96" x="587" y="991.7339">-Double custoEst</text><!--MD5=[19db0db7353a4bf63eefc676e5ba9b80]
class Anuncio--><rect fill="#FEFECE" filter="url(#f2kghq1i24jq9)" height="78.4141" id="Anuncio" style="stroke: #A80036; stroke-width: 1.5;" width="129" x="888" y="1392"/><ellipse cx="925.5" cy="1408" fill="#ADD1B2" rx="11" ry="11" style="stroke: #A80036; stroke-width: 1.0;"/><path d="M927.8438,1403.6719 C926.9063,1403.2344 926.3125,1403.0938 925.4375,1403.0938 C922.8125,1403.0938 920.8125,1405.1719 920.8125,1407.8906 L920.8125,1409.0156 C920.8125,1411.5938 922.9219,1413.4844 925.8125,1413.4844 C927.0313,1413.4844 928.1875,1413.1875 928.9375,1412.6406 C929.5156,1412.2344 929.8438,1411.7813 929.8438,1411.3906 C929.8438,1410.9375 929.4531,1410.5469 928.9844,1410.5469 C928.7656,1410.5469 928.5625,1410.625 928.375,1410.8125 C927.9219,1411.2969 927.9219,1411.2969 927.7344,1411.3906 C927.3125,1411.6563 926.625,1411.7813 925.8594,1411.7813 C923.8125,1411.7813 922.5156,1410.6875 922.5156,1408.9844 L922.5156,1407.8906 C922.5156,1406.1094 923.7656,1404.7969 925.5,1404.7969 C926.0781,1404.7969 926.6875,1404.9531 927.1563,1405.2031 C927.6406,1405.4844 927.8125,1405.7031 927.9063,1406.1094 C927.9688,1406.5156 928,1406.6406 928.1406,1406.7656 C928.2813,1406.9063 928.5156,1407.0156 928.7344,1407.0156 C929,1407.0156 929.2656,1406.875 929.4375,1406.6563 C929.5469,1406.5 929.5781,1406.3125 929.5781,1405.8906 L929.5781,1404.4688 C929.5781,1404.0313 929.5625,1403.9063 929.4688,1403.75 C929.3125,1403.4844 929.0313,1403.3438 928.7344,1403.3438 C928.4375,1403.3438 928.2344,1403.4375 928.0156,1403.75 L927.8438,1403.6719 Z "/><text fill="#000000" font-family="sans-serif" font-size="12" lengthAdjust="spacingAndGlyphs" textLength="47" x="944.5" y="1412.1543">Anuncio</text><line style="stroke: #A80036; stroke-width: 1.5;" x1="889" x2="1016" y1="1424" y2="1424"/><text fill="#000000" font-family="sans-serif" font-size="11" lengthAdjust="spacingAndGlyphs" textLength="117" x="894" y="1438.2104">-Periodo publicitacao</text><text fill="#000000" font-family="sans-serif" font-size="11" lengthAdjust="spacingAndGlyphs" textLength="116" x="894" y="1451.0151">-Periodo candidatura</text><text fill="#000000" font-family="sans-serif" font-size="11" lengthAdjust="spacingAndGlyphs" textLength="98" x="894" y="1463.8198">-Periodo seriacao</text><!--MD5=[84d1b9922499e034344dac4e4526a697]
class Seriacao--><rect fill="#FEFECE" filter="url(#f2kghq1i24jq9)" height="52.8047" id="Seriacao" style="stroke: #A80036; stroke-width: 1.5;" width="135" x="1191.5" y="1404.5"/><ellipse cx="1229" cy="1420.5" fill="#ADD1B2" rx="11" ry="11" style="stroke: #A80036; stroke-width: 1.0;"/><path d="M1231.3438,1416.1719 C1230.4063,1415.7344 1229.8125,1415.5938 1228.9375,1415.5938 C1226.3125,1415.5938 1224.3125,1417.6719 1224.3125,1420.3906 L1224.3125,1421.5156 C1224.3125,1424.0938 1226.4219,1425.9844 1229.3125,1425.9844 C1230.5313,1425.9844 1231.6875,1425.6875 1232.4375,1425.1406 C1233.0156,1424.7344 1233.3438,1424.2813 1233.3438,1423.8906 C1233.3438,1423.4375 1232.9531,1423.0469 1232.4844,1423.0469 C1232.2656,1423.0469 1232.0625,1423.125 1231.875,1423.3125 C1231.4219,1423.7969 1231.4219,1423.7969 1231.2344,1423.8906 C1230.8125,1424.1563 1230.125,1424.2813 1229.3594,1424.2813 C1227.3125,1424.2813 1226.0156,1423.1875 1226.0156,1421.4844 L1226.0156,1420.3906 C1226.0156,1418.6094 1227.2656,1417.2969 1229,1417.2969 C1229.5781,1417.2969 1230.1875,1417.4531 1230.6563,1417.7031 C1231.1406,1417.9844 1231.3125,1418.2031 1231.4063,1418.6094 C1231.4688,1419.0156 1231.5,1419.1406 1231.6406,1419.2656 C1231.7813,1419.4063 1232.0156,1419.5156 1232.2344,1419.5156 C1232.5,1419.5156 1232.7656,1419.375 1232.9375,1419.1563 C1233.0469,1419 1233.0781,1418.8125 1233.0781,1418.3906 L1233.0781,1416.9688 C1233.0781,1416.5313 1233.0625,1416.4063 1232.9688,1416.25 C1232.8125,1415.9844 1232.5313,1415.8438 1232.2344,1415.8438 C1231.9375,1415.8438 1231.7344,1415.9375 1231.5156,1416.25 L1231.3438,1416.1719 Z "/><text fill="#000000" font-family="sans-serif" font-size="12" lengthAdjust="spacingAndGlyphs" textLength="53" x="1248" y="1424.6543">Seriacao</text><line style="stroke: #A80036; stroke-width: 1.5;" x1="1192.5" x2="1325.5" y1="1436.5" y2="1436.5"/><text fill="#000000" font-family="sans-serif" font-size="11" lengthAdjust="spacingAndGlyphs" textLength="123" x="1197.5" y="1450.7104">-Date dataRealizacao</text><!--MD5=[475c5b924ed41035684e2831311827d2]
class Candidatura--><rect fill="#FEFECE" filter="url(#f2kghq1i24jq9)" height="104.0234" id="Candidatura" style="stroke: #A80036; stroke-width: 1.5;" width="150" x="2164" y="1536"/><ellipse cx="2200.15" cy="1552" fill="#ADD1B2" rx="11" ry="11" style="stroke: #A80036; stroke-width: 1.0;"/><path d="M2202.4938,1547.6719 C2201.5563,1547.2344 2200.9625,1547.0938 2200.0875,1547.0938 C2197.4625,1547.0938 2195.4625,1549.1719 2195.4625,1551.8906 L2195.4625,1553.0156 C2195.4625,1555.5938 2197.5719,1557.4844 2200.4625,1557.4844 C2201.6813,1557.4844 2202.8375,1557.1875 2203.5875,1556.6406 C2204.1656,1556.2344 2204.4938,1555.7813 2204.4938,1555.3906 C2204.4938,1554.9375 2204.1031,1554.5469 2203.6344,1554.5469 C2203.4156,1554.5469 2203.2125,1554.625 2203.025,1554.8125 C2202.5719,1555.2969 2202.5719,1555.2969 2202.3844,1555.3906 C2201.9625,1555.6563 2201.275,1555.7813 2200.5094,1555.7813 C2198.4625,1555.7813 2197.1656,1554.6875 2197.1656,1552.9844 L2197.1656,1551.8906 C2197.1656,1550.1094 2198.4156,1548.7969 2200.15,1548.7969 C2200.7281,1548.7969 2201.3375,1548.9531 2201.8063,1549.2031 C2202.2906,1549.4844 2202.4625,1549.7031 2202.5563,1550.1094 C2202.6188,1550.5156 2202.65,1550.6406 2202.7906,1550.7656 C2202.9313,1550.9063 2203.1656,1551.0156 2203.3844,1551.0156 C2203.65,1551.0156 2203.9156,1550.875 2204.0875,1550.6563 C2204.1969,1550.5 2204.2281,1550.3125 2204.2281,1549.8906 L2204.2281,1548.4688 C2204.2281,1548.0313 2204.2125,1547.9063 2204.1188,1547.75 C2203.9625,1547.4844 2203.6813,1547.3438 2203.3844,1547.3438 C2203.0875,1547.3438 2202.8844,1547.4375 2202.6656,1547.75 L2202.4938,1547.6719 Z "/><text fill="#000000" font-family="sans-serif" font-size="12" lengthAdjust="spacingAndGlyphs" textLength="71" x="2218.85" y="1556.1543">Candidatura</text><line style="stroke: #A80036; stroke-width: 1.5;" x1="2165" x2="2313" y1="1568" y2="1568"/><text fill="#000000" font-family="sans-serif" font-size="11" lengthAdjust="spacingAndGlyphs" textLength="129" x="2170" y="1582.2104">-Date dataCandidatura</text><text fill="#000000" font-family="sans-serif" font-size="11" lengthAdjust="spacingAndGlyphs" textLength="138" x="2170" y="1595.0151">-Double valorPretendido</text><text fill="#000000" font-family="sans-serif" font-size="11" lengthAdjust="spacingAndGlyphs" textLength="99" x="2170" y="1607.8198">-Integer numDias</text><text fill="#000000" font-family="sans-serif" font-size="11" lengthAdjust="spacingAndGlyphs" textLength="135" x="2170" y="1620.6245">-String txtApresentacao</text><text fill="#000000" font-family="sans-serif" font-size="11" lengthAdjust="spacingAndGlyphs" textLength="113" x="2170" y="1633.4292">-String txtMotivacao</text><!--MD5=[1f687b5315377fe49fca59b457947463]
class Freelancer--><rect fill="#FEFECE" filter="url(#f2kghq1i24jq9)" height="78.4141" id="Freelancer" style="stroke: #A80036; stroke-width: 1.5;" width="102" x="901.5" y="432"/><ellipse cx="918.75" cy="448" fill="#ADD1B2" rx="11" ry="11" style="stroke: #A80036; stroke-width: 1.0;"/><path d="M921.0938,443.6719 C920.1563,443.2344 919.5625,443.0938 918.6875,443.0938 C916.0625,443.0938 914.0625,445.1719 914.0625,447.8906 L914.0625,449.0156 C914.0625,451.5938 916.1719,453.4844 919.0625,453.4844 C920.2813,453.4844 921.4375,453.1875 922.1875,452.6406 C922.7656,452.2344 923.0938,451.7813 923.0938,451.3906 C923.0938,450.9375 922.7031,450.5469 922.2344,450.5469 C922.0156,450.5469 921.8125,450.625 921.625,450.8125 C921.1719,451.2969 921.1719,451.2969 920.9844,451.3906 C920.5625,451.6563 919.875,451.7813 919.1094,451.7813 C917.0625,451.7813 915.7656,450.6875 915.7656,448.9844 L915.7656,447.8906 C915.7656,446.1094 917.0156,444.7969 918.75,444.7969 C919.3281,444.7969 919.9375,444.9531 920.4063,445.2031 C920.8906,445.4844 921.0625,445.7031 921.1563,446.1094 C921.2188,446.5156 921.25,446.6406 921.3906,446.7656 C921.5313,446.9063 921.7656,447.0156 921.9844,447.0156 C922.25,447.0156 922.5156,446.875 922.6875,446.6563 C922.7969,446.5 922.8281,446.3125 922.8281,445.8906 L922.8281,444.4688 C922.8281,444.0313 922.8125,443.9063 922.7188,443.75 C922.5625,443.4844 922.2813,443.3438 921.9844,443.3438 C921.6875,443.3438 921.4844,443.4375 921.2656,443.75 L921.0938,443.6719 Z "/><text fill="#000000" font-family="sans-serif" font-size="12" lengthAdjust="spacingAndGlyphs" textLength="65" x="933.25" y="452.1543">Freelancer</text><line style="stroke: #A80036; stroke-width: 1.5;" x1="902.5" x2="1002.5" y1="464" y2="464"/><text fill="#000000" font-family="sans-serif" font-size="11" lengthAdjust="spacingAndGlyphs" textLength="74" x="907.5" y="478.2104">-String nome</text><text fill="#000000" font-family="sans-serif" font-size="11" lengthAdjust="spacingAndGlyphs" textLength="73" x="907.5" y="491.0151">-String email</text><text fill="#000000" font-family="sans-serif" font-size="11" lengthAdjust="spacingAndGlyphs" textLength="90" x="907.5" y="503.8198">-String telefone</text><!--MD5=[7bb95b5cb1c5d9061d1eedf13c97b467]
class Administrativo--><rect fill="#FEFECE" filter="url(#f2kghq1i24jq9)" height="40" id="Administrativo" style="stroke: #A80036; stroke-width: 1.5;" width="117" x="434" y="728"/><ellipse cx="449" cy="744" fill="#ADD1B2" rx="11" ry="11" style="stroke: #A80036; stroke-width: 1.0;"/><path d="M451.3438,739.6719 C450.4063,739.2344 449.8125,739.0938 448.9375,739.0938 C446.3125,739.0938 444.3125,741.1719 444.3125,743.8906 L444.3125,745.0156 C444.3125,747.5938 446.4219,749.4844 449.3125,749.4844 C450.5313,749.4844 451.6875,749.1875 452.4375,748.6406 C453.0156,748.2344 453.3438,747.7813 453.3438,747.3906 C453.3438,746.9375 452.9531,746.5469 452.4844,746.5469 C452.2656,746.5469 452.0625,746.625 451.875,746.8125 C451.4219,747.2969 451.4219,747.2969 451.2344,747.3906 C450.8125,747.6563 450.125,747.7813 449.3594,747.7813 C447.3125,747.7813 446.0156,746.6875 446.0156,744.9844 L446.0156,743.8906 C446.0156,742.1094 447.2656,740.7969 449,740.7969 C449.5781,740.7969 450.1875,740.9531 450.6563,741.2031 C451.1406,741.4844 451.3125,741.7031 451.4063,742.1094 C451.4688,742.5156 451.5,742.6406 451.6406,742.7656 C451.7813,742.9063 452.0156,743.0156 452.2344,743.0156 C452.5,743.0156 452.7656,742.875 452.9375,742.6563 C453.0469,742.5 453.0781,742.3125 453.0781,741.8906 L453.0781,740.4688 C453.0781,740.0313 453.0625,739.9063 452.9688,739.75 C452.8125,739.4844 452.5313,739.3438 452.2344,739.3438 C451.9375,739.3438 451.7344,739.4375 451.5156,739.75 L451.3438,739.6719 Z "/><text fill="#000000" font-family="sans-serif" font-size="12" lengthAdjust="spacingAndGlyphs" textLength="85" x="463" y="748.1543">Administrativo</text><line style="stroke: #A80036; stroke-width: 1.5;" x1="435" x2="550" y1="760" y2="760"/><!--MD5=[5dd1d6732c071e710b9290b531f2fa3b]
class Utilizador--><rect fill="#FEFECE" filter="url(#f2kghq1i24jq9)" height="78.4141" id="Utilizador" style="stroke: #A80036; stroke-width: 1.5;" width="106" x="2186" y="755"/><ellipse cx="2208.65" cy="771" fill="#ADD1B2" rx="11" ry="11" style="stroke: #A80036; stroke-width: 1.0;"/><path d="M2210.9938,766.6719 C2210.0563,766.2344 2209.4625,766.0938 2208.5875,766.0938 C2205.9625,766.0938 2203.9625,768.1719 2203.9625,770.8906 L2203.9625,772.0156 C2203.9625,774.5938 2206.0719,776.4844 2208.9625,776.4844 C2210.1813,776.4844 2211.3375,776.1875 2212.0875,775.6406 C2212.6656,775.2344 2212.9938,774.7813 2212.9938,774.3906 C2212.9938,773.9375 2212.6031,773.5469 2212.1344,773.5469 C2211.9156,773.5469 2211.7125,773.625 2211.525,773.8125 C2211.0719,774.2969 2211.0719,774.2969 2210.8844,774.3906 C2210.4625,774.6563 2209.775,774.7813 2209.0094,774.7813 C2206.9625,774.7813 2205.6656,773.6875 2205.6656,771.9844 L2205.6656,770.8906 C2205.6656,769.1094 2206.9156,767.7969 2208.65,767.7969 C2209.2281,767.7969 2209.8375,767.9531 2210.3063,768.2031 C2210.7906,768.4844 2210.9625,768.7031 2211.0563,769.1094 C2211.1188,769.5156 2211.15,769.6406 2211.2906,769.7656 C2211.4313,769.9063 2211.6656,770.0156 2211.8844,770.0156 C2212.15,770.0156 2212.4156,769.875 2212.5875,769.6563 C2212.6969,769.5 2212.7281,769.3125 2212.7281,768.8906 L2212.7281,767.4688 C2212.7281,767.0313 2212.7125,766.9063 2212.6188,766.75 C2212.4625,766.4844 2212.1813,766.3438 2211.8844,766.3438 C2211.5875,766.3438 2211.3844,766.4375 2211.1656,766.75 L2210.9938,766.6719 Z "/><text fill="#000000" font-family="sans-serif" font-size="12" lengthAdjust="spacingAndGlyphs" textLength="57" x="2224.35" y="775.1543">Utilizador</text><line style="stroke: #A80036; stroke-width: 1.5;" x1="2187" x2="2291" y1="787" y2="787"/><text fill="#000000" font-family="sans-serif" font-size="11" lengthAdjust="spacingAndGlyphs" textLength="74" x="2192" y="801.2104">-String nome</text><text fill="#000000" font-family="sans-serif" font-size="11" lengthAdjust="spacingAndGlyphs" textLength="73" x="2192" y="814.0151">-String email</text><text fill="#000000" font-family="sans-serif" font-size="11" lengthAdjust="spacingAndGlyphs" textLength="94" x="2192" y="826.8198">-String password</text><!--MD5=[87602f047bdeda361e6d6669da197818]
class HabilitacaoAcademica--><rect fill="#FEFECE" filter="url(#f2kghq1i24jq9)" height="91.2188" id="HabilitacaoAcademica" style="stroke: #A80036; stroke-width: 1.5;" width="164" x="1177" y="267.5"/><ellipse cx="1192" cy="283.5" fill="#ADD1B2" rx="11" ry="11" style="stroke: #A80036; stroke-width: 1.0;"/><path d="M1194.3438,279.1719 C1193.4063,278.7344 1192.8125,278.5938 1191.9375,278.5938 C1189.3125,278.5938 1187.3125,280.6719 1187.3125,283.3906 L1187.3125,284.5156 C1187.3125,287.0938 1189.4219,288.9844 1192.3125,288.9844 C1193.5313,288.9844 1194.6875,288.6875 1195.4375,288.1406 C1196.0156,287.7344 1196.3438,287.2813 1196.3438,286.8906 C1196.3438,286.4375 1195.9531,286.0469 1195.4844,286.0469 C1195.2656,286.0469 1195.0625,286.125 1194.875,286.3125 C1194.4219,286.7969 1194.4219,286.7969 1194.2344,286.8906 C1193.8125,287.1563 1193.125,287.2813 1192.3594,287.2813 C1190.3125,287.2813 1189.0156,286.1875 1189.0156,284.4844 L1189.0156,283.3906 C1189.0156,281.6094 1190.2656,280.2969 1192,280.2969 C1192.5781,280.2969 1193.1875,280.4531 1193.6563,280.7031 C1194.1406,280.9844 1194.3125,281.2031 1194.4063,281.6094 C1194.4688,282.0156 1194.5,282.1406 1194.6406,282.2656 C1194.7813,282.4063 1195.0156,282.5156 1195.2344,282.5156 C1195.5,282.5156 1195.7656,282.375 1195.9375,282.1563 C1196.0469,282 1196.0781,281.8125 1196.0781,281.3906 L1196.0781,279.9688 C1196.0781,279.5313 1196.0625,279.4063 1195.9688,279.25 C1195.8125,278.9844 1195.5313,278.8438 1195.2344,278.8438 C1194.9375,278.8438 1194.7344,278.9375 1194.5156,279.25 L1194.3438,279.1719 Z "/><text fill="#000000" font-family="sans-serif" font-size="12" lengthAdjust="spacingAndGlyphs" textLength="132" x="1206" y="287.6543">HabilitacaoAcademica</text><line style="stroke: #A80036; stroke-width: 1.5;" x1="1178" x2="1340" y1="299.5" y2="299.5"/><text fill="#000000" font-family="sans-serif" font-size="11" lengthAdjust="spacingAndGlyphs" textLength="66" x="1183" y="313.7104">-String grau</text><text fill="#000000" font-family="sans-serif" font-size="11" lengthAdjust="spacingAndGlyphs" textLength="81" x="1183" y="326.5151">-String desCur</text><text fill="#000000" font-family="sans-serif" font-size="11" lengthAdjust="spacingAndGlyphs" textLength="61" x="1183" y="339.3198">-String inst</text><text fill="#000000" font-family="sans-serif" font-size="11" lengthAdjust="spacingAndGlyphs" textLength="85" x="1183" y="352.1245">-Double media</text><!--MD5=[0d4fe674cc1d46ec0fc990086e50801a]
class GrauProficiencia--><rect fill="#FEFECE" filter="url(#f2kghq1i24jq9)" height="65.6094" id="GrauProficiencia" style="stroke: #A80036; stroke-width: 1.5;" width="128" x="1856.5" y="125"/><ellipse cx="1871.5" cy="141" fill="#ADD1B2" rx="11" ry="11" style="stroke: #A80036; stroke-width: 1.0;"/><path d="M1873.8438,136.6719 C1872.9063,136.2344 1872.3125,136.0938 1871.4375,136.0938 C1868.8125,136.0938 1866.8125,138.1719 1866.8125,140.8906 L1866.8125,142.0156 C1866.8125,144.5938 1868.9219,146.4844 1871.8125,146.4844 C1873.0313,146.4844 1874.1875,146.1875 1874.9375,145.6406 C1875.5156,145.2344 1875.8438,144.7813 1875.8438,144.3906 C1875.8438,143.9375 1875.4531,143.5469 1874.9844,143.5469 C1874.7656,143.5469 1874.5625,143.625 1874.375,143.8125 C1873.9219,144.2969 1873.9219,144.2969 1873.7344,144.3906 C1873.3125,144.6563 1872.625,144.7813 1871.8594,144.7813 C1869.8125,144.7813 1868.5156,143.6875 1868.5156,141.9844 L1868.5156,140.8906 C1868.5156,139.1094 1869.7656,137.7969 1871.5,137.7969 C1872.0781,137.7969 1872.6875,137.9531 1873.1563,138.2031 C1873.6406,138.4844 1873.8125,138.7031 1873.9063,139.1094 C1873.9688,139.5156 1874,139.6406 1874.1406,139.7656 C1874.2813,139.9063 1874.5156,140.0156 1874.7344,140.0156 C1875,140.0156 1875.2656,139.875 1875.4375,139.6563 C1875.5469,139.5 1875.5781,139.3125 1875.5781,138.8906 L1875.5781,137.4688 C1875.5781,137.0313 1875.5625,136.9063 1875.4688,136.75 C1875.3125,136.4844 1875.0313,136.3438 1874.7344,136.3438 C1874.4375,136.3438 1874.2344,136.4375 1874.0156,136.75 L1873.8438,136.6719 Z "/><text fill="#000000" font-family="sans-serif" font-size="12" lengthAdjust="spacingAndGlyphs" textLength="96" x="1885.5" y="145.1543">GrauProficiencia</text><line style="stroke: #A80036; stroke-width: 1.5;" x1="1857.5" x2="1983.5" y1="157" y2="157"/><text fill="#000000" font-family="sans-serif" font-size="11" lengthAdjust="spacingAndGlyphs" textLength="66" x="1862.5" y="171.2104">-String grau</text><text fill="#000000" font-family="sans-serif" font-size="11" lengthAdjust="spacingAndGlyphs" textLength="106" x="1862.5" y="184.0151">-String designacao</text><!--MD5=[1d8aa98091123bff90ff3eeff52b11fd]
class Reconhecimento--><rect fill="#FEFECE" filter="url(#f2kghq1i24jq9)" height="65.6094" id="Reconhecimento" style="stroke: #A80036; stroke-width: 1.5;" width="192" x="1163" y="166"/><ellipse cx="1205" cy="182" fill="#ADD1B2" rx="11" ry="11" style="stroke: #A80036; stroke-width: 1.0;"/><path d="M1207.3438,177.6719 C1206.4063,177.2344 1205.8125,177.0938 1204.9375,177.0938 C1202.3125,177.0938 1200.3125,179.1719 1200.3125,181.8906 L1200.3125,183.0156 C1200.3125,185.5938 1202.4219,187.4844 1205.3125,187.4844 C1206.5313,187.4844 1207.6875,187.1875 1208.4375,186.6406 C1209.0156,186.2344 1209.3438,185.7813 1209.3438,185.3906 C1209.3438,184.9375 1208.9531,184.5469 1208.4844,184.5469 C1208.2656,184.5469 1208.0625,184.625 1207.875,184.8125 C1207.4219,185.2969 1207.4219,185.2969 1207.2344,185.3906 C1206.8125,185.6563 1206.125,185.7813 1205.3594,185.7813 C1203.3125,185.7813 1202.0156,184.6875 1202.0156,182.9844 L1202.0156,181.8906 C1202.0156,180.1094 1203.2656,178.7969 1205,178.7969 C1205.5781,178.7969 1206.1875,178.9531 1206.6563,179.2031 C1207.1406,179.4844 1207.3125,179.7031 1207.4063,180.1094 C1207.4688,180.5156 1207.5,180.6406 1207.6406,180.7656 C1207.7813,180.9063 1208.0156,181.0156 1208.2344,181.0156 C1208.5,181.0156 1208.7656,180.875 1208.9375,180.6563 C1209.0469,180.5 1209.0781,180.3125 1209.0781,179.8906 L1209.0781,178.4688 C1209.0781,178.0313 1209.0625,177.9063 1208.9688,177.75 C1208.8125,177.4844 1208.5313,177.3438 1208.2344,177.3438 C1207.9375,177.3438 1207.7344,177.4375 1207.5156,177.75 L1207.3438,177.6719 Z "/><text fill="#000000" font-family="sans-serif" font-size="12" lengthAdjust="spacingAndGlyphs" textLength="100" x="1225" y="186.1543">Reconhecimento</text><line style="stroke: #A80036; stroke-width: 1.5;" x1="1164" x2="1354" y1="198" y2="198"/><text fill="#000000" font-family="sans-serif" font-size="11" lengthAdjust="spacingAndGlyphs" textLength="62" x="1169" y="212.2104">-Date date</text><text fill="#000000" font-family="sans-serif" font-size="11" lengthAdjust="spacingAndGlyphs" textLength="180" x="1169" y="225.0151">-CompetenciaTecnica compTec</text><!--MD5=[716bba0e94eea125d5a66a891f2c3c34]
class Classificacao--><rect fill="#FEFECE" filter="url(#f2kghq1i24jq9)" height="65.6094" id="Classificacao" style="stroke: #A80036; stroke-width: 1.5;" width="116" x="1862.5" y="1569"/><ellipse cx="1880.2" cy="1585" fill="#ADD1B2" rx="11" ry="11" style="stroke: #A80036; stroke-width: 1.0;"/><path d="M1882.5438,1580.6719 C1881.6063,1580.2344 1881.0125,1580.0938 1880.1375,1580.0938 C1877.5125,1580.0938 1875.5125,1582.1719 1875.5125,1584.8906 L1875.5125,1586.0156 C1875.5125,1588.5938 1877.6219,1590.4844 1880.5125,1590.4844 C1881.7313,1590.4844 1882.8875,1590.1875 1883.6375,1589.6406 C1884.2156,1589.2344 1884.5438,1588.7813 1884.5438,1588.3906 C1884.5438,1587.9375 1884.1531,1587.5469 1883.6844,1587.5469 C1883.4656,1587.5469 1883.2625,1587.625 1883.075,1587.8125 C1882.6219,1588.2969 1882.6219,1588.2969 1882.4344,1588.3906 C1882.0125,1588.6563 1881.325,1588.7813 1880.5594,1588.7813 C1878.5125,1588.7813 1877.2156,1587.6875 1877.2156,1585.9844 L1877.2156,1584.8906 C1877.2156,1583.1094 1878.4656,1581.7969 1880.2,1581.7969 C1880.7781,1581.7969 1881.3875,1581.9531 1881.8563,1582.2031 C1882.3406,1582.4844 1882.5125,1582.7031 1882.6063,1583.1094 C1882.6688,1583.5156 1882.7,1583.6406 1882.8406,1583.7656 C1882.9813,1583.9063 1883.2156,1584.0156 1883.4344,1584.0156 C1883.7,1584.0156 1883.9656,1583.875 1884.1375,1583.6563 C1884.2469,1583.5 1884.2781,1583.3125 1884.2781,1582.8906 L1884.2781,1581.4688 C1884.2781,1581.0313 1884.2625,1580.9063 1884.1688,1580.75 C1884.0125,1580.4844 1883.7313,1580.3438 1883.4344,1580.3438 C1883.1375,1580.3438 1882.9344,1580.4375 1882.7156,1580.75 L1882.5438,1580.6719 Z "/><text fill="#000000" font-family="sans-serif" font-size="12" lengthAdjust="spacingAndGlyphs" textLength="78" x="1894.8" y="1589.1543">Classificacao</text><line style="stroke: #A80036; stroke-width: 1.5;" x1="1863.5" x2="1977.5" y1="1601" y2="1601"/><text fill="#000000" font-family="sans-serif" font-size="11" lengthAdjust="spacingAndGlyphs" textLength="92" x="1868.5" y="1615.2104">-Integer posicao</text><text fill="#000000" font-family="sans-serif" font-size="11" lengthAdjust="spacingAndGlyphs" textLength="104" x="1868.5" y="1628.0151">-String justificacao</text><!--MD5=[5d1ab724c50d81e7fd2e67537350aa20]
class Adjudicacao--><rect fill="#FEFECE" filter="url(#f2kghq1i24jq9)" height="116.8281" id="Adjudicacao" style="stroke: #A80036; stroke-width: 1.5;" width="156" x="2161" y="1775.5"/><ellipse cx="2198.95" cy="1791.5" fill="#ADD1B2" rx="11" ry="11" style="stroke: #A80036; stroke-width: 1.0;"/><path d="M2201.2938,1787.1719 C2200.3563,1786.7344 2199.7625,1786.5938 2198.8875,1786.5938 C2196.2625,1786.5938 2194.2625,1788.6719 2194.2625,1791.3906 L2194.2625,1792.5156 C2194.2625,1795.0938 2196.3719,1796.9844 2199.2625,1796.9844 C2200.4813,1796.9844 2201.6375,1796.6875 2202.3875,1796.1406 C2202.9656,1795.7344 2203.2938,1795.2813 2203.2938,1794.8906 C2203.2938,1794.4375 2202.9031,1794.0469 2202.4344,1794.0469 C2202.2156,1794.0469 2202.0125,1794.125 2201.825,1794.3125 C2201.3719,1794.7969 2201.3719,1794.7969 2201.1844,1794.8906 C2200.7625,1795.1563 2200.075,1795.2813 2199.3094,1795.2813 C2197.2625,1795.2813 2195.9656,1794.1875 2195.9656,1792.4844 L2195.9656,1791.3906 C2195.9656,1789.6094 2197.2156,1788.2969 2198.95,1788.2969 C2199.5281,1788.2969 2200.1375,1788.4531 2200.6063,1788.7031 C2201.0906,1788.9844 2201.2625,1789.2031 2201.3563,1789.6094 C2201.4188,1790.0156 2201.45,1790.1406 2201.5906,1790.2656 C2201.7313,1790.4063 2201.9656,1790.5156 2202.1844,1790.5156 C2202.45,1790.5156 2202.7156,1790.375 2202.8875,1790.1563 C2202.9969,1790 2203.0281,1789.8125 2203.0281,1789.3906 L2203.0281,1787.9688 C2203.0281,1787.5313 2203.0125,1787.4063 2202.9188,1787.25 C2202.7625,1786.9844 2202.4813,1786.8438 2202.1844,1786.8438 C2201.8875,1786.8438 2201.6844,1786.9375 2201.4656,1787.25 L2201.2938,1787.1719 Z "/><text fill="#000000" font-family="sans-serif" font-size="12" lengthAdjust="spacingAndGlyphs" textLength="73" x="2218.05" y="1795.6543">Adjudicacao</text><line style="stroke: #A80036; stroke-width: 1.5;" x1="2162" x2="2316" y1="1807.5" y2="1807.5"/><text fill="#000000" font-family="sans-serif" font-size="11" lengthAdjust="spacingAndGlyphs" textLength="123" x="2167" y="1821.7104">-Date dataRealizacao</text><text fill="#000000" font-family="sans-serif" font-size="11" lengthAdjust="spacingAndGlyphs" textLength="130" x="2167" y="1834.5151">-String numSequencial</text><text fill="#000000" font-family="sans-serif" font-size="11" lengthAdjust="spacingAndGlyphs" textLength="124" x="2167" y="1847.3198">-Period perRealizacao</text><text fill="#000000" font-family="sans-serif" font-size="11" lengthAdjust="spacingAndGlyphs" textLength="102" x="2167" y="1860.1245">-String refAnuncio</text><text fill="#000000" font-family="sans-serif" font-size="11" lengthAdjust="spacingAndGlyphs" textLength="105" x="2167" y="1872.9292">-String descTarefa</text><text fill="#000000" font-family="sans-serif" font-size="11" lengthAdjust="spacingAndGlyphs" textLength="144" x="2167" y="1885.7339">-Double valorConcordado</text><!--MD5=[2354768c114fc6a87ed2acc5f221a136]
class SeriacaoManual--><rect fill="#FEFECE" filter="url(#f2kghq1i24jq9)" height="52.8047" id="SeriacaoManual" style="stroke: #A80036; stroke-width: 1.5;" width="126" x="1551.5" y="1322.5"/><ellipse cx="1566.5" cy="1338.5" fill="#ADD1B2" rx="11" ry="11" style="stroke: #A80036; stroke-width: 1.0;"/><path d="M1568.8438,1334.1719 C1567.9063,1333.7344 1567.3125,1333.5938 1566.4375,1333.5938 C1563.8125,1333.5938 1561.8125,1335.6719 1561.8125,1338.3906 L1561.8125,1339.5156 C1561.8125,1342.0938 1563.9219,1343.9844 1566.8125,1343.9844 C1568.0313,1343.9844 1569.1875,1343.6875 1569.9375,1343.1406 C1570.5156,1342.7344 1570.8438,1342.2813 1570.8438,1341.8906 C1570.8438,1341.4375 1570.4531,1341.0469 1569.9844,1341.0469 C1569.7656,1341.0469 1569.5625,1341.125 1569.375,1341.3125 C1568.9219,1341.7969 1568.9219,1341.7969 1568.7344,1341.8906 C1568.3125,1342.1563 1567.625,1342.2813 1566.8594,1342.2813 C1564.8125,1342.2813 1563.5156,1341.1875 1563.5156,1339.4844 L1563.5156,1338.3906 C1563.5156,1336.6094 1564.7656,1335.2969 1566.5,1335.2969 C1567.0781,1335.2969 1567.6875,1335.4531 1568.1563,1335.7031 C1568.6406,1335.9844 1568.8125,1336.2031 1568.9063,1336.6094 C1568.9688,1337.0156 1569,1337.1406 1569.1406,1337.2656 C1569.2813,1337.4063 1569.5156,1337.5156 1569.7344,1337.5156 C1570,1337.5156 1570.2656,1337.375 1570.4375,1337.1563 C1570.5469,1337 1570.5781,1336.8125 1570.5781,1336.3906 L1570.5781,1334.9688 C1570.5781,1334.5313 1570.5625,1334.4063 1570.4688,1334.25 C1570.3125,1333.9844 1570.0313,1333.8438 1569.7344,1333.8438 C1569.4375,1333.8438 1569.2344,1333.9375 1569.0156,1334.25 L1568.8438,1334.1719 Z "/><text fill="#000000" font-family="sans-serif" font-size="12" lengthAdjust="spacingAndGlyphs" textLength="94" x="1580.5" y="1342.6543">SeriacaoManual</text><line style="stroke: #A80036; stroke-width: 1.5;" x1="1552.5" x2="1676.5" y1="1354.5" y2="1354.5"/><text fill="#000000" font-family="sans-serif" font-size="11" lengthAdjust="spacingAndGlyphs" textLength="114" x="1557.5" y="1368.7104">-String txtConclusao</text><!--MD5=[2b475d07f1597af1f6b52dde2815292f]
class SeriacaoAutomatica--><rect fill="#FEFECE" filter="url(#f2kghq1i24jq9)" height="40" id="SeriacaoAutomatica" style="stroke: #A80036; stroke-width: 1.5;" width="151" x="1539" y="1411"/><ellipse cx="1554" cy="1427" fill="#ADD1B2" rx="11" ry="11" style="stroke: #A80036; stroke-width: 1.0;"/><path d="M1556.3438,1422.6719 C1555.4063,1422.2344 1554.8125,1422.0938 1553.9375,1422.0938 C1551.3125,1422.0938 1549.3125,1424.1719 1549.3125,1426.8906 L1549.3125,1428.0156 C1549.3125,1430.5938 1551.4219,1432.4844 1554.3125,1432.4844 C1555.5313,1432.4844 1556.6875,1432.1875 1557.4375,1431.6406 C1558.0156,1431.2344 1558.3438,1430.7813 1558.3438,1430.3906 C1558.3438,1429.9375 1557.9531,1429.5469 1557.4844,1429.5469 C1557.2656,1429.5469 1557.0625,1429.625 1556.875,1429.8125 C1556.4219,1430.2969 1556.4219,1430.2969 1556.2344,1430.3906 C1555.8125,1430.6563 1555.125,1430.7813 1554.3594,1430.7813 C1552.3125,1430.7813 1551.0156,1429.6875 1551.0156,1427.9844 L1551.0156,1426.8906 C1551.0156,1425.1094 1552.2656,1423.7969 1554,1423.7969 C1554.5781,1423.7969 1555.1875,1423.9531 1555.6563,1424.2031 C1556.1406,1424.4844 1556.3125,1424.7031 1556.4063,1425.1094 C1556.4688,1425.5156 1556.5,1425.6406 1556.6406,1425.7656 C1556.7813,1425.9063 1557.0156,1426.0156 1557.2344,1426.0156 C1557.5,1426.0156 1557.7656,1425.875 1557.9375,1425.6563 C1558.0469,1425.5 1558.0781,1425.3125 1558.0781,1424.8906 L1558.0781,1423.4688 C1558.0781,1423.0313 1558.0625,1422.9063 1557.9688,1422.75 C1557.8125,1422.4844 1557.5313,1422.3438 1557.2344,1422.3438 C1556.9375,1422.3438 1556.7344,1422.4375 1556.5156,1422.75 L1556.3438,1422.6719 Z "/><text fill="#000000" font-family="sans-serif" font-size="12" lengthAdjust="spacingAndGlyphs" textLength="119" x="1568" y="1431.1543">SeriacaoAutomatica</text><line style="stroke: #A80036; stroke-width: 1.5;" x1="1540" x2="1689" y1="1443" y2="1443"/><ellipse cx="1259" cy="509" fill="#000000" rx="2" ry="2" style="stroke: none; stroke-width: 1.0;"/><!--MD5=[718b46c9a1975c175f4073d63ce5ccba]
link Plataforma to AreaAtividade--><path d="M67.4707,528.35 C74.961,420.88 118.215,25 349,25 C349,25 349,25 1615.5,25 C1721.72,25 1749.16,68.77 1821,147 C1841.71,169.55 1832.04,184.97 1851,209 C1855.66,214.91 1861.05,220.61 1866.71,225.96 " fill="none" id="Plataforma-AreaAtividade" style="stroke: #A80036; stroke-width: 1.0;"/><text fill="#000000" font-family="sans-serif" font-size="13" lengthAdjust="spacingAndGlyphs" textLength="41" x="925.5" y="21.0669">possui</text><polygon fill="#000000" points="969.5,15.0664,975.5,18.0664,969.5,21.0664,969.5,15.0664" style="stroke: #000000; stroke-width: 1.0;"/><text fill="#000000" font-family="sans-serif" font-size="13" lengthAdjust="spacingAndGlyphs" textLength="8" x="59.117" y="517.5576">1</text><text fill="#000000" font-family="sans-serif" font-size="13" lengthAdjust="spacingAndGlyphs" textLength="7" x="1849.8633" y="215.0037">*</text><!--MD5=[a77d152358ce76c19672aacd9fb0ada1]
link Plataforma to CompetenciaTecnica--><path d="M69.7775,528.35 C84.9606,432.79 150.592,113 349,113 C349,113 349,113 1260,113 C1357.11,113 1465.08,144.02 1535.84,168.8 " fill="none" id="Plataforma-CompetenciaTecnica" style="stroke: #A80036; stroke-width: 1.0;"/><text fill="#000000" font-family="sans-serif" font-size="13" lengthAdjust="spacingAndGlyphs" textLength="41" x="770.5" y="109.0669">possui</text><polygon fill="#000000" points="814.5,103.0664,820.5,106.0664,814.5,109.0664,814.5,103.0664" style="stroke: #000000; stroke-width: 1.0;"/><text fill="#000000" font-family="sans-serif" font-size="13" lengthAdjust="spacingAndGlyphs" textLength="8" x="71.8073" y="517.5576">1</text><text fill="#000000" font-family="sans-serif" font-size="13" lengthAdjust="spacingAndGlyphs" textLength="7" x="1521.0091" y="178.6899">*</text><!--MD5=[1c2ad462e362697fcdc859a6327d55c7]
link Plataforma to Organizacao--><path d="M76.3324,581.54 C91.4419,619.31 121.341,690.28 154,747 C201.06,828.73 265.907,916.65 307.647,970.751 " fill="none" id="Plataforma-Organizacao" style="stroke: #A80036; stroke-width: 1.0;"/><text fill="#000000" font-family="sans-serif" font-size="13" lengthAdjust="spacingAndGlyphs" textLength="97" x="155" y="743.0669">tem registadas</text><polygon fill="#000000" points="199,752.1328,202,758.1328,205,752.1328,199,752.1328" style="stroke: #000000; stroke-width: 1.0;"/><text fill="#000000" font-family="sans-serif" font-size="13" lengthAdjust="spacingAndGlyphs" textLength="8" x="79.878" y="601.5166">1</text><text fill="#000000" font-family="sans-serif" font-size="13" lengthAdjust="spacingAndGlyphs" textLength="7" x="294.4855" y="959.7953">*</text><!--MD5=[39c0de7668d8063a4eb96c23050b3de2]
link Plataforma to Freelancer--><path d="M124.274,535.88 C134.11,533.2 144.282,530.77 154,529 C432.963,478.25 774.446,471.56 901.107,470.93 " fill="none" id="Plataforma-Freelancer" style="stroke: #A80036; stroke-width: 1.0;"/><text fill="#000000" font-family="sans-serif" font-size="13" lengthAdjust="spacingAndGlyphs" textLength="53" x="459.5" y="479.0669">tem/usa</text><polygon fill="#000000" points="515.5,473.0664,521.5,476.0664,515.5,479.0664,515.5,473.0664" style="stroke: #000000; stroke-width: 1.0;"/><text fill="#000000" font-family="sans-serif" font-size="13" lengthAdjust="spacingAndGlyphs" textLength="8" x="131.9855" y="546.5507">1</text><text fill="#000000" font-family="sans-serif" font-size="13" lengthAdjust="spacingAndGlyphs" textLength="7" x="886.3877" y="484.022">*</text><!--MD5=[b585ec1f109bee2e6a0accf9e50b3199]
link Plataforma to Administrativo--><path d="M119.837,581.69 C131.089,587.16 142.904,592.83 154,598 C257.148,646.1 379.511,699.61 444.855,727.91 " fill="none" id="Plataforma-Administrativo" style="stroke: #A80036; stroke-width: 1.0;"/><text fill="#000000" font-family="sans-serif" font-size="13" lengthAdjust="spacingAndGlyphs" textLength="26" x="190.5" y="594.0669">tem</text><polygon fill="#000000" points="219.5,588.0664,225.5,591.0664,219.5,594.0664,219.5,588.0664" style="stroke: #000000; stroke-width: 1.0;"/><text fill="#000000" font-family="sans-serif" font-size="13" lengthAdjust="spacingAndGlyphs" textLength="8" x="122.9576" y="601.2718">1</text><text fill="#000000" font-family="sans-serif" font-size="13" lengthAdjust="spacingAndGlyphs" textLength="7" x="422.8312" y="716.8918">*</text><!--MD5=[cb8556493ec2c94f9603162dd119feba]
link Plataforma to Categoria--><path d="M124.055,552.14 C284.687,545.2 731.512,532.68 858,601 C895.509,621.26 922.101,663.84 937.105,693.87 " fill="none" id="Plataforma-Categoria" style="stroke: #A80036; stroke-width: 1.0;"/><text fill="#000000" font-family="sans-serif" font-size="13" lengthAdjust="spacingAndGlyphs" textLength="41" x="465.5" y="542.0669">possui</text><polygon fill="#000000" points="509.5,536.0664,515.5,539.0664,509.5,542.0664,509.5,536.0664" style="stroke: #000000; stroke-width: 1.0;"/><text fill="#000000" font-family="sans-serif" font-size="13" lengthAdjust="spacingAndGlyphs" textLength="8" x="132.1339" y="564.8224">1</text><text fill="#000000" font-family="sans-serif" font-size="13" lengthAdjust="spacingAndGlyphs" textLength="7" x="926.385" y="682.9894">*</text><!--MD5=[567db691f9836c63f305bad1024cbc66]
link Organizacao to Colaborador--><path d="M404.002,1025.508 C508.64,1030.237 749.167,1040 951.5,1040 C951.5,1040 951.5,1040 1615.5,1040 C1705.6,1040 1806.89,1069.943 1866.83,1090.939 " fill="none" id="Organizacao-Colaborador" style="stroke: #A80036; stroke-width: 1.0;"/><text fill="#000000" font-family="sans-serif" font-size="13" lengthAdjust="spacingAndGlyphs" textLength="26" x="1070.5" y="1036.0669">tem</text><polygon fill="#000000" points="1099.5,1030.0664,1105.5,1033.0664,1099.5,1036.0664,1099.5,1030.0664" style="stroke: #000000; stroke-width: 1.0;"/><text fill="#000000" font-family="sans-serif" font-size="13" lengthAdjust="spacingAndGlyphs" textLength="8" x="412.1585" y="1021.8806">1</text><text fill="#000000" font-family="sans-serif" font-size="13" lengthAdjust="spacingAndGlyphs" textLength="16" x="1842.9285" y="1101.391">1..</text><!--MD5=[567db691f9836c63f305bad1024cbc66]
link Organizacao to Colaborador--><path d="M404.289,1040.088 C478.089,1062.771 616.014,1101.631 737,1116 C1170.72,1167.512 1700.25,1129.952 1866.79,1115.791 " fill="none" id="Organizacao-Colaborador-1" style="stroke: #A80036; stroke-width: 1.0;"/><text fill="#000000" font-family="sans-serif" font-size="13" lengthAdjust="spacingAndGlyphs" textLength="71" x="1048" y="1135.0669">tem gestor</text><polygon fill="#000000" points="1122,1129.0664,1128,1132.0664,1122,1135.0664,1122,1129.0664" style="stroke: #000000; stroke-width: 1.0;"/><text fill="#000000" font-family="sans-serif" font-size="13" lengthAdjust="spacingAndGlyphs" textLength="8" x="412.1216" y="1055.4663">1</text><text fill="#000000" font-family="sans-serif" font-size="13" lengthAdjust="spacingAndGlyphs" textLength="8" x="1851.0352" y="1129.5037">1</text><!--MD5=[ca49ec1e86bb5e8c049c02c54bfc3088]
link Organizacao to EnderecoPostal--><path d="M350.287,970.934 C352.223,902.33 365.995,782.08 434,711 C621.748,514.77 760.954,618.52 1017,528 C1078.59,506.23 1147.87,478.58 1196.29,458.73 " fill="none" id="Organizacao-EnderecoPostal" style="stroke: #A80036; stroke-width: 1.0;"/><text fill="#000000" font-family="sans-serif" font-size="13" lengthAdjust="spacingAndGlyphs" textLength="88" x="747" y="561.0669">localizada em</text><polygon fill="#000000" points="838,555.0664,844,558.0664,838,561.0664,838,555.0664" style="stroke: #000000; stroke-width: 1.0;"/><text fill="#000000" font-family="sans-serif" font-size="13" lengthAdjust="spacingAndGlyphs" textLength="8" x="341.7881" y="959.9995">1</text><text fill="#000000" font-family="sans-serif" font-size="13" lengthAdjust="spacingAndGlyphs" textLength="8" x="1180.5767" y="474.6229">1</text><!--MD5=[cf2deab2ed1f09cef5b70f58ef028e55]
link Organizacao to Tarefa--><path d="M404.218,1007.873 C453.978,993.729 528.291,972.606 580.774,957.69 " fill="none" id="Organizacao-Tarefa" style="stroke: #A80036; stroke-width: 1.0;"/><text fill="#000000" font-family="sans-serif" font-size="13" lengthAdjust="spacingAndGlyphs" textLength="41" x="465.5" y="962.0669">possui</text><polygon fill="#000000" points="509.5,956.0664,515.5,959.0664,509.5,962.0664,509.5,956.0664" style="stroke: #000000; stroke-width: 1.0;"/><text fill="#000000" font-family="sans-serif" font-size="13" lengthAdjust="spacingAndGlyphs" textLength="8" x="412.041" y="1001.9067">1</text><text fill="#000000" font-family="sans-serif" font-size="13" lengthAdjust="spacingAndGlyphs" textLength="7" x="566.0588" y="972.6871">*</text><!--MD5=[e538c9efa8de58386edc6206f3c58807]
link CompetenciaTecnica to AreaAtividade--><path d="M1693.39,215.91 C1742.03,226.47 1804.08,239.94 1850.87,250.1 " fill="none" id="CompetenciaTecnica-AreaAtividade" style="stroke: #A80036; stroke-width: 1.0;"/><text fill="#000000" font-family="sans-serif" font-size="13" lengthAdjust="spacingAndGlyphs" textLength="72" x="1729.5" y="220.0669">referente a</text><polygon fill="#000000" points="1804.5,214.0664,1810.5,217.0664,1804.5,220.0664,1804.5,214.0664" style="stroke: #000000; stroke-width: 1.0;"/><text fill="#000000" font-family="sans-serif" font-size="13" lengthAdjust="spacingAndGlyphs" textLength="7" x="1700.9853" y="230.2142">*</text><text fill="#000000" font-family="sans-serif" font-size="13" lengthAdjust="spacingAndGlyphs" textLength="8" x="1834.8167" y="261.3421">1</text><!--MD5=[0d731ff285a62a08178b23be6cceb109]
link CompetenciaTecnica to GrauProficiencia--><path d="M1693.39,188.49 C1743.88,181.69 1808.81,172.93 1856.13,166.55 " fill="none" id="CompetenciaTecnica-GrauProficiencia" style="stroke: #A80036; stroke-width: 1.0;"/><text fill="#000000" font-family="sans-serif" font-size="13" lengthAdjust="spacingAndGlyphs" textLength="49" x="1741" y="168.0669">contm</text><polygon fill="#000000" points="1793,162.0664,1799,165.0664,1793,168.0664,1793,162.0664" style="stroke: #000000; stroke-width: 1.0;"/><text fill="#000000" font-family="sans-serif" font-size="13" lengthAdjust="spacingAndGlyphs" textLength="8" x="1701.0314" y="200.2664">1</text><text fill="#000000" font-family="sans-serif" font-size="13" lengthAdjust="spacingAndGlyphs" textLength="23" x="1825.3059" y="180.299">1..*</text><!--MD5=[333932e5e4606ec9852f0cecc179b212]
link Categoria to AreaAtividade--><path d="M1006.08,731.59 C1042.26,733.35 1091.16,732.97 1133,723 C1447.33,648.12 1761.36,400.61 1874.98,304.06 " fill="none" id="Categoria-AreaAtividade" style="stroke: #A80036; stroke-width: 1.0;"/><text fill="#000000" font-family="sans-serif" font-size="13" lengthAdjust="spacingAndGlyphs" textLength="106" x="1386" y="564.0669">enquadra-se em</text><polygon fill="#000000" points="1495,558.0664,1501,561.0664,1495,564.0664,1495,558.0664" style="stroke: #000000; stroke-width: 1.0;"/><text fill="#000000" font-family="sans-serif" font-size="13" lengthAdjust="spacingAndGlyphs" textLength="8" x="1014.1772" y="745.3939">1</text><text fill="#000000" font-family="sans-serif" font-size="13" lengthAdjust="spacingAndGlyphs" textLength="8" x="1858.1593" y="324.3953">1</text><!--MD5=[0c4fed57c459e2829b4c926f89de29af]
link Categoria to apoint166892--><path d="M1006.28,723.78 C1046.7,718.45 1100.84,704.6 1133,669 C1175.66,621.78 1117.92,573.92 1163,529 C1191.18,500.92 1248.14,507.62 1256.87,508.83 " fill="none" id="Categoria-apoint166892" style="stroke: #A80036; stroke-width: 1.0;"/><text fill="#000000" font-family="sans-serif" font-size="13" lengthAdjust="spacingAndGlyphs" textLength="42" x="1062.5" y="665.0669">requer</text><polygon fill="#000000" points="1107.5,659.0664,1113.5,662.0664,1107.5,665.0664,1107.5,659.0664" style="stroke: #000000; stroke-width: 1.0;"/><text fill="#000000" font-family="sans-serif" font-size="13" lengthAdjust="spacingAndGlyphs" textLength="8" x="1014.0442" y="736.4572">1</text><!--MD5=[04f18fe8dca894622729b98593fd41d6]
link apoint166892 to CompetenciaTecnica--><path d="M1261.02,509.03 C1268.88,509.23 1320.57,509.76 1355,490 C1464.16,427.36 1551.31,301.84 1590.7,238.09 " fill="none" id="apoint166892-CompetenciaTecnica" style="stroke: #A80036; stroke-width: 1.0;"/><text fill="#000000" font-family="sans-serif" font-size="13" lengthAdjust="spacingAndGlyphs" textLength="7" x="1578.8372" y="258.4307">*</text><!--MD5=[82f7d4a9c6f853a5c48f2da9678df0e5]
link apoint166892 to CaraterCT--><path d="M1259,511.05 C1259,522.87 1259,534.68 1259,546.5 " fill="none" id="apoint166892-CaraterCT" style="stroke: #A80036; stroke-width: 1.0; stroke-dasharray: 7.0,7.0;"/><!--MD5=[cc2561a0285988b367253361d2d1973d]
link Tarefa to Categoria--><path d="M707.025,896.9 C765.099,856.54 850.653,797.08 903.63,760.27 " fill="none" id="Tarefa-Categoria" style="stroke: #A80036; stroke-width: 1.0;"/><text fill="#000000" font-family="sans-serif" font-size="13" lengthAdjust="spacingAndGlyphs" textLength="106" x="738" y="791.0669">enquadra-se em</text><polygon fill="#000000" points="847,785.0664,853,788.0664,847,791.0664,847,785.0664" style="stroke: #000000; stroke-width: 1.0;"/><text fill="#000000" font-family="sans-serif" font-size="13" lengthAdjust="spacingAndGlyphs" textLength="8" x="715.1937" y="904.6467">1</text><text fill="#000000" font-family="sans-serif" font-size="13" lengthAdjust="spacingAndGlyphs" textLength="8" x="886.2125" y="779.6457">1</text><!--MD5=[ebe0b2adceebb6ee2636cb1948c7c8a9]
link Tarefa to Colaborador--><path d="M707.197,943.86 C769.1,947.37 866.828,952 951.5,952 C951.5,952 951.5,952 1615.5,952 C1710.9,952 1738.95,965.33 1821,1014 C1843.71,1027.469 1865.09,1047.272 1882.09,1065.479 " fill="none" id="Tarefa-Colaborador" style="stroke: #A80036; stroke-width: 1.0;"/><text fill="#000000" font-family="sans-serif" font-size="13" lengthAdjust="spacingAndGlyphs" textLength="105" x="1200" y="948.0669">especificada por</text><polygon fill="#000000" points="1308,942.0664,1314,945.0664,1308,948.0664,1308,942.0664" style="stroke: #000000; stroke-width: 1.0;"/><text fill="#000000" font-family="sans-serif" font-size="13" lengthAdjust="spacingAndGlyphs" textLength="7" x="714.9088" y="957.258">*</text><text fill="#000000" font-family="sans-serif" font-size="13" lengthAdjust="spacingAndGlyphs" textLength="8" x="1867.596" y="1054.4205">1</text><!--MD5=[35fae5763b5ac085aad1a803f88e2b95]
link Tarefa to Anuncio--><path d="M681.667,998.738 C745.066,1100.302 873.522,1306.083 927.136,1391.969 " fill="none" id="Tarefa-Anuncio" style="stroke: #A80036; stroke-width: 1.0;"/><text fill="#000000" font-family="sans-serif" font-size="13" lengthAdjust="spacingAndGlyphs" textLength="29" x="776.5" y="1094.0669">gera</text><polygon fill="#000000" points="786.5,1103.1328,789.5,1109.1328,792.5,1103.1328,786.5,1103.1328" style="stroke: #000000; stroke-width: 1.0;"/><text fill="#000000" font-family="sans-serif" font-size="13" lengthAdjust="spacingAndGlyphs" textLength="8" x="677.5597" y="1018.4813">1</text><text fill="#000000" font-family="sans-serif" font-size="13" lengthAdjust="spacingAndGlyphs" textLength="24" x="896.7141" y="1381.0142">0..1</text><!--MD5=[6a7c57800a31452a20aa2f5037e36afb]
link Freelancer to Utilizador--><path d="M996.989,510.28 C1037.11,544.21 1099.85,591.65 1163,617 C1567.09,779.19 1703.96,682.96 2131,768 C2149,771.58 2168.55,776.14 2185.95,780.43 " fill="none" id="Freelancer-Utilizador" style="stroke: #A80036; stroke-width: 1.0;"/><text fill="#000000" font-family="sans-serif" font-size="13" lengthAdjust="spacingAndGlyphs" textLength="69" x="1573.5" y="710.0669">atua como</text><polygon fill="#000000" points="1645.5,704.0664,1651.5,707.0664,1645.5,710.0664,1645.5,704.0664" style="stroke: #000000; stroke-width: 1.0;"/><text fill="#000000" font-family="sans-serif" font-size="13" lengthAdjust="spacingAndGlyphs" textLength="24" x="978.573" y="530.363">0..1</text><text fill="#000000" font-family="sans-serif" font-size="13" lengthAdjust="spacingAndGlyphs" textLength="8" x="2169.9273" y="774.5142">1</text><!--MD5=[b8422db8e85907663c841d4c41f19cc1]
link Freelancer to EnderecoPostal--><path d="M1003.782,464.73 C1056.57,458.14 1139.62,447.77 1196.33,440.7 " fill="none" id="Freelancer-EnderecoPostal" style="stroke: #A80036; stroke-width: 1.0;"/><text fill="#000000" font-family="sans-serif" font-size="13" lengthAdjust="spacingAndGlyphs" textLength="49" x="1059" y="445.0669">contm</text><polygon fill="#000000" points="1111,439.0664,1117,442.0664,1111,445.0664,1111,439.0664" style="stroke: #000000; stroke-width: 1.0;"/><text fill="#000000" font-family="sans-serif" font-size="13" lengthAdjust="spacingAndGlyphs" textLength="8" x="1011.556" y="476.9501">1</text><text fill="#000000" font-family="sans-serif" font-size="13" lengthAdjust="spacingAndGlyphs" textLength="8" x="1180.6213" y="454.5081">1</text><!--MD5=[7a59ad2cb29ff6e914b8672ce881fef8]
link Freelancer to HabilitacaoAcademica--><path d="M1003.782,444.91 C1050.83,420.5 1121.91,383.62 1176.96,355.05 " fill="none" id="Freelancer-HabilitacaoAcademica" style="stroke: #A80036; stroke-width: 1.0;"/><text fill="#000000" font-family="sans-serif" font-size="13" lengthAdjust="spacingAndGlyphs" textLength="49" x="1059" y="378.0669">contm</text><polygon fill="#000000" points="1111,372.0664,1117,375.0664,1111,378.0664,1111,372.0664" style="stroke: #000000; stroke-width: 1.0;"/><text fill="#000000" font-family="sans-serif" font-size="13" lengthAdjust="spacingAndGlyphs" textLength="8" x="1011.556" y="454.3429">1</text><text fill="#000000" font-family="sans-serif" font-size="13" lengthAdjust="spacingAndGlyphs" textLength="23" x="1145.9214" y="371.3714">1..*</text><!--MD5=[7fbeb7bcd2a7737111d998de4a14bf4d]
link Freelancer to Reconhecimento--><path d="M982.769,431.85 C1020.22,383.91 1089.15,302.6 1163,250 C1171.84,243.7 1181.56,237.64 1191.29,232.03 " fill="none" id="Freelancer-Reconhecimento" style="stroke: #A80036; stroke-width: 1.0;"/><text fill="#000000" font-family="sans-serif" font-size="13" lengthAdjust="spacingAndGlyphs" textLength="49" x="1059" y="271.0669">contm</text><polygon fill="#000000" points="1111,265.0664,1117,268.0664,1111,271.0664,1111,265.0664" style="stroke: #000000; stroke-width: 1.0;"/><text fill="#000000" font-family="sans-serif" font-size="13" lengthAdjust="spacingAndGlyphs" textLength="8" x="979.284" y="420.8748">1</text><text fill="#000000" font-family="sans-serif" font-size="13" lengthAdjust="spacingAndGlyphs" textLength="8" x="1170.0685" y="251.6179">1</text><!--MD5=[3e4842a9a39f581fdf016dfd12392cbc]
link Freelancer to Candidatura--><path d="M959.109,510.15 C968.438,561.19 991.897,650.08 1047,702 C1209.45,855.08 1834.99,887.39 1990,1048 C2129.88,1192.936 2200.65,1430.908 2226.36,1535.69 " fill="none" id="Freelancer-Candidatura" style="stroke: #A80036; stroke-width: 1.0;"/><text fill="#000000" font-family="sans-serif" font-size="13" lengthAdjust="spacingAndGlyphs" textLength="49" x="1583.5" y="873.0669">contm</text><polygon fill="#000000" points="1635.5,867.0664,1641.5,870.0664,1635.5,873.0664,1635.5,867.0664" style="stroke: #000000; stroke-width: 1.0;"/><text fill="#000000" font-family="sans-serif" font-size="13" lengthAdjust="spacingAndGlyphs" textLength="8" x="951.5737" y="530.5014">1</text><text fill="#000000" font-family="sans-serif" font-size="13" lengthAdjust="spacingAndGlyphs" textLength="8" x="2216.228" y="1525.1007">1</text><!--MD5=[4acb55c95f695e24b0193d5697296d13]
link Reconhecimento to CompetenciaTecnica--><path d="M1355.2,199 C1411.74,199 1482.54,199 1535.72,199 " fill="none" id="Reconhecimento-CompetenciaTecnica" style="stroke: #A80036; stroke-width: 1.0;"/><text fill="#000000" font-family="sans-serif" font-size="13" lengthAdjust="spacingAndGlyphs" textLength="49" x="1414.5" y="195.0669">contm</text><polygon fill="#000000" points="1466.5,189.0664,1472.5,192.0664,1466.5,195.0664,1466.5,189.0664" style="stroke: #000000; stroke-width: 1.0;"/><text fill="#000000" font-family="sans-serif" font-size="13" lengthAdjust="spacingAndGlyphs" textLength="8" x="1362.8716" y="211.6612">1</text><text fill="#000000" font-family="sans-serif" font-size="13" lengthAdjust="spacingAndGlyphs" textLength="23" x="1504.9616" y="211.6993">1..*</text><!--MD5=[22ab75f887ca251f11fce1d8db3a0e76]
link Anuncio to Seriacao--><path d="M1017.33,1431 C1068.34,1431 1139.62,1431 1191.35,1431 " fill="none" id="Anuncio-Seriacao" style="stroke: #A80036; stroke-width: 1.0;"/><text fill="#000000" font-family="sans-serif" font-size="13" lengthAdjust="spacingAndGlyphs" textLength="55" x="1056" y="1427.0669">espoleta</text><polygon fill="#000000" points="1114,1421.0664,1120,1424.0664,1114,1427.0664,1114,1421.0664" style="stroke: #000000; stroke-width: 1.0;"/><text fill="#000000" font-family="sans-serif" font-size="13" lengthAdjust="spacingAndGlyphs" textLength="8" x="1024.8583" y="1443.8718">1</text><text fill="#000000" font-family="sans-serif" font-size="13" lengthAdjust="spacingAndGlyphs" textLength="24" x="1159.5095" y="1443.8213">0..1</text><!--MD5=[0a535575571876f6213287bf563a867d]
link Anuncio to Colaborador--><path d="M1017.26,1409.88 C1196.42,1350.53 1702.05,1183.035 1866.85,1128.441 " fill="none" id="Anuncio-Colaborador" style="stroke: #A80036; stroke-width: 1.0;"/><text fill="#000000" font-family="sans-serif" font-size="13" lengthAdjust="spacingAndGlyphs" textLength="86" x="1396" y="1244.0669">publicado por</text><polygon fill="#000000" points="1485,1238.0664,1491,1241.0664,1485,1244.0664,1485,1238.0664" style="stroke: #000000; stroke-width: 1.0;"/><text fill="#000000" font-family="sans-serif" font-size="13" lengthAdjust="spacingAndGlyphs" textLength="7" x="1025.1526" y="1420.3558">*</text><text fill="#000000" font-family="sans-serif" font-size="13" lengthAdjust="spacingAndGlyphs" textLength="8" x="1851.1033" y="1143.8536">1</text><!--MD5=[27b52c98fcb5387c047ce09b42fcb62d]
link Anuncio to Candidatura--><path d="M973.744,1470.261 C1015.72,1545.586 1119.95,1703 1258,1703 C1258,1703 1258,1703 1921.5,1703 C2015.12,1703 2045.14,1718.325 2131,1681 C2152.89,1671.482 2173.56,1655.825 2190.78,1640.047 " fill="none" id="Anuncio-Candidatura" style="stroke: #A80036; stroke-width: 1.0;"/><text fill="#000000" font-family="sans-serif" font-size="13" lengthAdjust="spacingAndGlyphs" textLength="44" x="1586" y="1699.0669">recebe</text><polygon fill="#000000" points="1633,1693.0664,1639,1696.0664,1633,1699.0664,1633,1693.0664" style="stroke: #000000; stroke-width: 1.0;"/><text fill="#000000" font-family="sans-serif" font-size="13" lengthAdjust="spacingAndGlyphs" textLength="8" x="968.7078" y="1490.3408">1</text><text fill="#000000" font-family="sans-serif" font-size="13" lengthAdjust="spacingAndGlyphs" textLength="23" x="2159.7551" y="1660.1229">0..*</text><!--MD5=[5a1cc96d2a0fb9d1e5d316c6f5e0139e]
link Anuncio to Adjudicacao--><path d="M960.993,1470.279 C972.237,1520.356 997.636,1607.342 1047,1665 C1117.89,1747.798 1149,1790 1258,1790 C1258,1790 1258,1790 1921.5,1790 C2003.74,1790 2096.87,1804.756 2160.7,1817.177 " fill="none" id="Anuncio-Adjudicacao" style="stroke: #A80036; stroke-width: 1.0;"/><text fill="#000000" font-family="sans-serif" font-size="13" lengthAdjust="spacingAndGlyphs" textLength="55" x="1580.5" y="1786.0669">espoleta</text><polygon fill="#000000" points="1638.5,1780.0664,1644.5,1783.0664,1638.5,1786.0664,1638.5,1780.0664" style="stroke: #000000; stroke-width: 1.0;"/><text fill="#000000" font-family="sans-serif" font-size="13" lengthAdjust="spacingAndGlyphs" textLength="8" x="953.7652" y="1490.3619">1</text><text fill="#000000" font-family="sans-serif" font-size="13" lengthAdjust="spacingAndGlyphs" textLength="24" x="2128.9398" y="1828.4558">0..1</text><!--MD5=[4c6379033e83666f34589c9e24a10542]
link Classificacao to Adjudicacao--><path d="M1966.85,1635.24 C2017.44,1672.327 2100.16,1732.963 2160.95,1777.525 " fill="none" id="Classificacao-Adjudicacao" style="stroke: #A80036; stroke-width: 1.0;"/><polygon fill="#000000" points="2028,1667.0664,2022,1670.0664,2028,1673.0664,2028,1667.0664" style="stroke: #000000; stroke-width: 1.0;"/><text fill="#000000" font-family="sans-serif" font-size="13" lengthAdjust="spacingAndGlyphs" textLength="96" x="2034" y="1673.0669">de acordo com</text><text fill="#000000" font-family="sans-serif" font-size="13" lengthAdjust="spacingAndGlyphs" textLength="7" x="1967.4827" y="1654.6103">*</text><text fill="#000000" font-family="sans-serif" font-size="13" lengthAdjust="spacingAndGlyphs" textLength="8" x="2144.8732" y="1784.7859">1</text><!--MD5=[6e87a459bca7b9b4782b93078041f153]
link Plataforma to Adjudicacao--><path d="M68.4088,581.62 C86.3206,775.73 202.139,1966 349,1966 C349,1966 349,1966 1921.5,1966 C2008.27,1966 2098.83,1923.2131 2160.74,1886.3595 " fill="none" id="Plataforma-Adjudicacao" style="stroke: #A80036; stroke-width: 1.0;"/><text fill="#000000" font-family="sans-serif" font-size="13" lengthAdjust="spacingAndGlyphs" textLength="41" x="1063" y="1962.0669">possui</text><polygon fill="#000000" points="1107,1956.0664,1113,1959.0664,1107,1962.0664,1107,1956.0664" style="stroke: #000000; stroke-width: 1.0;"/><text fill="#000000" font-family="sans-serif" font-size="13" lengthAdjust="spacingAndGlyphs" textLength="8" x="60.2795" y="601.1865">1</text><text fill="#000000" font-family="sans-serif" font-size="13" lengthAdjust="spacingAndGlyphs" textLength="7" x="2145.9472" y="1904.1463">*</text><!--MD5=[8ed215fd44dac0fc70bd4855b8d5f44f]
link Seriacao to Colaborador--><path d="M1303.67,1404.34 C1327.29,1390.492 1357.23,1373.832 1385,1361 C1449.98,1330.978 1468.56,1328.978 1536,1305 C1662.07,1260.178 1707.13,1278.266 1821,1208 C1843.26,1194.262 1864.42,1174.637 1881.39,1156.63 " fill="none" id="Seriacao-Colaborador" style="stroke: #A80036; stroke-width: 1.0;"/><text fill="#000000" font-family="sans-serif" font-size="13" lengthAdjust="spacingAndGlyphs" textLength="83" x="1566.5" y="1260.0669">realizada por</text><polygon fill="#000000" points="1652.5,1254.0664,1658.5,1257.0664,1652.5,1260.0664,1652.5,1254.0664" style="stroke: #000000; stroke-width: 1.0;"/><text fill="#000000" font-family="sans-serif" font-size="13" lengthAdjust="spacingAndGlyphs" textLength="8" x="1305.0749" y="1393.5453">1</text><text fill="#000000" font-family="sans-serif" font-size="13" lengthAdjust="spacingAndGlyphs" textLength="7" x="1867.8653" y="1176.8258">*</text><!--MD5=[0bbbffdd91c5ada4c15cfe16870f099c]
link Seriacao to RegimentoAplicavel--><path d="M1326.91,1448.791 C1387.46,1464.892 1476.5,1488.57 1539.23,1505.251 " fill="none" id="Seriacao-RegimentoAplicavel" style="stroke: #A80036; stroke-width: 1.0;"/><text fill="#000000" font-family="sans-serif" font-size="13" lengthAdjust="spacingAndGlyphs" textLength="37" x="1420.5" y="1462.0669">aplica</text><polygon fill="#000000" points="1460.5,1456.0664,1466.5,1459.0664,1460.5,1462.0664,1460.5,1456.0664" style="stroke: #000000; stroke-width: 1.0;"/><text fill="#000000" font-family="sans-serif" font-size="13" lengthAdjust="spacingAndGlyphs" textLength="8" x="1334.3257" y="1463.4829">1</text><text fill="#000000" font-family="sans-serif" font-size="13" lengthAdjust="spacingAndGlyphs" textLength="8" x="1523.4269" y="1516.0983">1</text><!--MD5=[dded47ab3944ec5102ef6333735e9a58]
link Seriacao to Classificacao--><path d="M1290.84,1457.663 C1339.19,1497.527 1437.54,1570.973 1536,1599 C1648.07,1630.899 1786.13,1620.588 1862.27,1610.869 " fill="none" id="Seriacao-Classificacao" style="stroke: #A80036; stroke-width: 1.0;"/><text fill="#000000" font-family="sans-serif" font-size="13" lengthAdjust="spacingAndGlyphs" textLength="29" x="1593.5" y="1595.0669">gera</text><polygon fill="#000000" points="1625.5,1589.0664,1631.5,1592.0664,1625.5,1595.0664,1625.5,1589.0664" style="stroke: #000000; stroke-width: 1.0;"/><text fill="#000000" font-family="sans-serif" font-size="13" lengthAdjust="spacingAndGlyphs" textLength="8" x="1288.93" y="1477.2389">1</text><text fill="#000000" font-family="sans-serif" font-size="13" lengthAdjust="spacingAndGlyphs" textLength="7" x="1847.3608" y="1625.0667">*</text><!--MD5=[9e39e2268058099316fd4bed15c9d6b4]
link Seriacao to SeriacaoManual--><path d="M1326.91,1415.48 C1391.46,1400.506 1488.4,1378.02 1551.31,1363.426 " fill="none" id="Seriacao-SeriacaoManual" style="stroke: #A80036; stroke-width: 1.0;"/><!--MD5=[32f6294037dae79e4326c201b2d909cc]
link Seriacao to SeriacaoAutomatica--><path d="M1326.91,1431 C1387.36,1431 1476.2,1431 1538.92,1431 " fill="none" id="Seriacao-SeriacaoAutomatica" style="stroke: #A80036; stroke-width: 1.0;"/><!--MD5=[dec5de049d3ede6ee0e8af73ebd34ce1]
link SeriacaoManual to Classificacao--><path d="M1664.89,1375.523 C1674.46,1381.255 1684.23,1387.544 1693,1394 C1768.03,1449.221 1846.01,1525.804 1888.06,1568.969 " fill="none" id="SeriacaoManual-Classificacao" style="stroke: #A80036; stroke-width: 1.0;"/><text fill="#000000" font-family="sans-serif" font-size="13" lengthAdjust="spacingAndGlyphs" textLength="29" x="1751" y="1415.0669">gera</text><polygon fill="#000000" points="1783,1409.0664,1789,1412.0664,1783,1415.0664,1783,1409.0664" style="stroke: #000000; stroke-width: 1.0;"/><text fill="#000000" font-family="sans-serif" font-size="13" lengthAdjust="spacingAndGlyphs" textLength="8" x="1667.6177" y="1395.4957">1</text><text fill="#000000" font-family="sans-serif" font-size="13" lengthAdjust="spacingAndGlyphs" textLength="7" x="1873.6474" y="1557.7304">*</text><!--MD5=[bb9b5d598c521655a62b8c08c0aed420]
link SeriacaoManual to Colaborador--><path d="M1677.93,1345.606 C1721.98,1340.331 1780.17,1327.223 1821,1295 C1865.51,1259.87 1892.41,1198.927 1906.6,1156.86 " fill="none" id="SeriacaoManual-Colaborador" style="stroke: #A80036; stroke-width: 1.0;"/><text fill="#000000" font-family="sans-serif" font-size="13" lengthAdjust="spacingAndGlyphs" textLength="83" x="1724" y="1291.0669">realizada por</text><polygon fill="#000000" points="1810,1285.0664,1816,1288.0664,1810,1291.0664,1810,1285.0664" style="stroke: #000000; stroke-width: 1.0;"/><text fill="#000000" font-family="sans-serif" font-size="13" lengthAdjust="spacingAndGlyphs" textLength="8" x="1685.3052" y="1358.1399">1</text><text fill="#000000" font-family="sans-serif" font-size="13" lengthAdjust="spacingAndGlyphs" textLength="7" x="1897.0444" y="1176.7578">*</text><!--MD5=[dde696a541097fdbe1f873bb94627148]
link Adjudicacao to Organizacao--><path d="M2160.7,1850.823 C2096.87,1863.244 2003.74,1878 1921.5,1878 C643,1878 643,1878 643,1878 C472.42,1878 380.917,1260.83 357.252,1075.197 " fill="none" id="Adjudicacao-Organizacao" style="stroke: #A80036; stroke-width: 1.0;"/><polygon fill="#000000" points="1203,1868.0664,1197,1871.0664,1203,1874.0664,1203,1868.0664" style="stroke: #000000; stroke-width: 1.0;"/><text fill="#000000" font-family="sans-serif" font-size="13" lengthAdjust="spacingAndGlyphs" textLength="113" x="1209" y="1874.0669">correspondente a</text><text fill="#000000" font-family="sans-serif" font-size="13" lengthAdjust="spacingAndGlyphs" textLength="7" x="2145.9034" y="1865.2227">*</text><text fill="#000000" font-family="sans-serif" font-size="13" lengthAdjust="spacingAndGlyphs" textLength="8" x="349.6687" y="1094.9196">1</text><!--MD5=[471b8c6ff5fcf31b4b6fb9b4f947344d]
link Classificacao to Candidatura--><path d="M1978.82,1599.465 C2030.65,1597.172 2107.29,1593.782 2163.79,1591.282 " fill="none" id="Classificacao-Candidatura" style="stroke: #A80036; stroke-width: 1.0;"/><text fill="#000000" font-family="sans-serif" font-size="13" lengthAdjust="spacingAndGlyphs" textLength="72" x="2033" y="1588.0669">referente a</text><polygon fill="#000000" points="2108,1582.0664,2114,1585.0664,2108,1588.0664,2108,1582.0664" style="stroke: #000000; stroke-width: 1.0;"/><text fill="#000000" font-family="sans-serif" font-size="13" lengthAdjust="spacingAndGlyphs" textLength="24" x="1986.5113" y="1612.1036">0..1</text><text fill="#000000" font-family="sans-serif" font-size="13" lengthAdjust="spacingAndGlyphs" textLength="8" x="2147.9928" y="1604.4156">1</text><!--MD5=[83793280d21cff2204dcf19c1386ed48]
link Administrativo to Utilizador--><path d="M551.253,753.56 C628.058,760.68 768.084,772.74 888,778 C1393.21,800.18 2005.73,796.34 2185.84,794.58 " fill="none" id="Administrativo-Utilizador" style="stroke: #A80036; stroke-width: 1.0;"/><text fill="#000000" font-family="sans-serif" font-size="13" lengthAdjust="spacingAndGlyphs" textLength="69" x="1218" y="783.0669">atua como</text><polygon fill="#000000" points="1290,777.0664,1296,780.0664,1290,783.0664,1290,777.0664" style="stroke: #000000; stroke-width: 1.0;"/><text fill="#000000" font-family="sans-serif" font-size="13" lengthAdjust="spacingAndGlyphs" textLength="24" x="558.9916" y="767.0626">0..1</text><text fill="#000000" font-family="sans-serif" font-size="13" lengthAdjust="spacingAndGlyphs" textLength="8" x="2170.1591" y="807.7137">1</text><!--MD5=[bcb5794e8184ce78d304f04a5beabbc0]
link Colaborador to Utilizador--><path d="M1967.18,1065.244 C2029.5,1002.833 2140.09,892.07 2198.82,833.25 " fill="none" id="Colaborador-Utilizador" style="stroke: #A80036; stroke-width: 1.0;"/><polygon fill="#000000" points="2064.5,899,2067.5,893,2070.5,899,2064.5,899" style="stroke: #000000; stroke-width: 1.0;"/><text fill="#000000" font-family="sans-serif" font-size="13" lengthAdjust="spacingAndGlyphs" textLength="69" x="2034.5" y="914.0669">atua como</text><text fill="#000000" font-family="sans-serif" font-size="13" lengthAdjust="spacingAndGlyphs" textLength="24" x="1948.2736" y="1054.4826">0..1</text><text fill="#000000" font-family="sans-serif" font-size="13" lengthAdjust="spacingAndGlyphs" textLength="8" x="2182.9504" y="853.6192">1</text><!--MD5=[438b1fbdb99a79799d0f34f8aeebd900]
@startuml
skinparam classAttributeIconSize 0
hide methods
left to right direction

class Plataforma {
  -String designacao
}

class AreaAtividade {
  -String codigo
  -String descBreve
  -String descDetalhada

}

class CompetenciaTecnica {
  -String codigo
  -String descBreve
  -String descDetalhada
}

class RegimentoAplicavel {
  -String designacao
  -String descRegras
  -String identificador
}

class Categoria {
  -String id
  -String descricao
}

class Organizacao {
  -String nome
  -String NIF
  -String website
  -String telefone
  -String email
}

class Colaborador {
  -String nome
  -String funcao
  -String telefone
  -String email
}

class EnderecoPostal {
  -String local
  -String codPostal
  -String localidade
}

class CaraterCT {
  -Boolean obrigatoria
}

class Tarefa {
  -String referencia
  -String designacao
  -String descInformal
  -String descTecnica
  -Integer duracaoEst
  -Double custoEst
}

class Anuncio {
  -Periodo publicitacao
  -Periodo candidatura
  -Periodo seriacao
}

class Seriacao {
  -Date dataRealizacao
}

class Candidatura {
  -Date dataCandidatura
  -Double valorPretendido
  -Integer numDias
  -String txtApresentacao
  -String txtMotivacao
}

class Freelancer {
  -String nome
  -String email
  -String telefone
}

class Administrativo {

}

class Utilizador {
  -String nome
  -String email
  -String password
}

class HabilitacaoAcademica{
  -String grau
  -String desCur
  -String inst
  -Double media
}

class GrauProficiencia{
  -String grau
  -String designacao
}

class Reconhecimento{
  -Date date
  -CompetenciaTecnica compTec
}

class Classificacao {
  -Integer posicao
  -String justificacao
}

class Adjudicacao {
  -Date dataRealizacao
  -String numSequencial
  -Period perRealizacao
  -String refAnuncio
  -String descTarefa
  -Double valorConcordado
}

class SeriacaoManual {
  -String txtConclusao
}

class SeriacaoAutomatica {
}


Plataforma "1" - - "*" AreaAtividade : possui >
Plataforma "1" - - "*" CompetenciaTecnica : possui >
Plataforma "1" - - "*" Organizacao : tem registadas >
Plataforma "1" - - "*" Freelancer : tem/usa  >
Plataforma "1" - - "*" Administrativo : tem  >
Plataforma "1" - - "*" Categoria : possui >

Organizacao "1" - - "1.." Colaborador: tem >
Organizacao "1" - - "1" Colaborador: tem gestor >
Organizacao "1" - - "1" EnderecoPostal: localizada em >
Organizacao "1" - - "*" Tarefa: possui >

CompetenciaTecnica "*" - - "1" AreaAtividade : referente a >
CompetenciaTecnica "1" - - "1..*" GrauProficiencia: contm >

Categoria "1" - - "1" AreaAtividade: enquadra-se em >
Categoria "1" - - "*" CompetenciaTecnica: requer >
(Categoria, CompetenciaTecnica) .. CaraterCT

Tarefa "1" - - "1" Categoria: enquadra-se em >
Tarefa "*" - - "1" Colaborador: especificada por >
Tarefa "1" - - "0..1" Anuncio: gera >

Freelancer "0..1" - - "1" Utilizador: atua como >
Freelancer "1" - - "1" EnderecoPostal: contm >
Freelancer "1" - - "1..*" HabilitacaoAcademica: contm >
Freelancer "1" - - "1" Reconhecimento: contm >
Freelancer "1" - - "1" Candidatura: contm >

Reconhecimento"1" - - "1..*" CompetenciaTecnica: contm >

Anuncio "1" - - "0..1" Seriacao: espoleta >
Anuncio "*" - - "1" Colaborador: publicado por >
Anuncio "1" - - "0..*" Candidatura: recebe >
Anuncio "1" - - "0..1" Adjudicacao : espoleta >
Classificacao "*" - - "1" Adjudicacao : de acordo com <
Plataforma "1" - - "*" Adjudicacao: possui >

Seriacao "1" - - "*" Colaborador: realizada por >
Seriacao "1" - - "1" RegimentoAplicavel: aplica >
Seriacao "1" - - "*" Classificacao: gera >
Seriacao - - SeriacaoManual
Seriacao - - SeriacaoAutomatica
SeriacaoManual "1" - - "*" Classificacao: gera >
SeriacaoManual "1" - - "*" Colaborador: realizada por >

Adjudicacao "*" - - "1" Organizacao : correspondente a >

Classificacao "0..1" - - "1" Candidatura: referente a >

Administrativo "0..1" - - "1" Utilizador: atua como >
Colaborador "0..1" - - "1" Utilizador: atua como >
@enduml

PlantUML version 1.2020.10(Sun May 17 09:48:49 UTC 2020)
(GPL source distribution)
Java Runtime: Java(TM) SE Runtime Environment
JVM: Java HotSpot(TM) 64-Bit Server VM
Operating System: Linux
Default Encoding: UTF-8
Language: en
Country: US
--></g></svg>