<?xml version="1.0" encoding="UTF-8" standalone="no"?><svg xmlns="http://www.w3.org/2000/svg" xmlns:xlink="http://www.w3.org/1999/xlink" contentScriptType="application/ecmascript" contentStyleType="text/css" height="591px" preserveAspectRatio="none" style="width:1824px;height:591px;" version="1.1" viewBox="0 0 1824 591" width="1824px" zoomAndPan="magnify"><defs><filter height="300%" id="f1fj3888l2irv" width="300%" x="-1" y="-1"><feGaussianBlur result="blurOut" stdDeviation="2.0"/><feColorMatrix in="blurOut" result="blurOut2" type="matrix" values="0 0 0 0 0 0 0 0 0 0 0 0 0 0 0 0 0 0 .4 0"/><feOffset dx="4.0" dy="4.0" in="blurOut2" result="blurOut3"/><feBlend in="SourceGraphic" in2="blurOut3" mode="normal"/></filter></defs><g><!--MD5=[ecaed46f78f8cfe1e9ce18477649be18]
class Plataforma--><rect fill="#FEFECE" filter="url(#f1fj3888l2irv)" height="52.8047" id="Plataforma" style="stroke: #A80036; stroke-width: 1.5;" width="130" x="6" y="244.5"/><ellipse cx="34.5" cy="260.5" fill="#ADD1B2" rx="11" ry="11" style="stroke: #A80036; stroke-width: 1.0;"/><path d="M36.8438,256.1719 C35.9063,255.7344 35.3125,255.5938 34.4375,255.5938 C31.8125,255.5938 29.8125,257.6719 29.8125,260.3906 L29.8125,261.5156 C29.8125,264.0938 31.9219,265.9844 34.8125,265.9844 C36.0313,265.9844 37.1875,265.6875 37.9375,265.1406 C38.5156,264.7344 38.8438,264.2813 38.8438,263.8906 C38.8438,263.4375 38.4531,263.0469 37.9844,263.0469 C37.7656,263.0469 37.5625,263.125 37.375,263.3125 C36.9219,263.7969 36.9219,263.7969 36.7344,263.8906 C36.3125,264.1563 35.625,264.2813 34.8594,264.2813 C32.8125,264.2813 31.5156,263.1875 31.5156,261.4844 L31.5156,260.3906 C31.5156,258.6094 32.7656,257.2969 34.5,257.2969 C35.0781,257.2969 35.6875,257.4531 36.1563,257.7031 C36.6406,257.9844 36.8125,258.2031 36.9063,258.6094 C36.9688,259.0156 37,259.1406 37.1406,259.2656 C37.2813,259.4063 37.5156,259.5156 37.7344,259.5156 C38,259.5156 38.2656,259.375 38.4375,259.1563 C38.5469,259 38.5781,258.8125 38.5781,258.3906 L38.5781,256.9688 C38.5781,256.5313 38.5625,256.4063 38.4688,256.25 C38.3125,255.9844 38.0313,255.8438 37.7344,255.8438 C37.4375,255.8438 37.2344,255.9375 37.0156,256.25 L36.8438,256.1719 Z "/><text fill="#000000" font-family="sans-serif" font-size="12" lengthAdjust="spacingAndGlyphs" textLength="68" x="51.5" y="264.6543">Plataforma</text><line style="stroke: #A80036; stroke-width: 1.5;" x1="7" x2="135" y1="276.5" y2="276.5"/><rect fill="none" height="6" style="stroke: #C82930; stroke-width: 1.0;" width="6" x="14" y="284.5"/><text fill="#000000" font-family="sans-serif" font-size="11" lengthAdjust="spacingAndGlyphs" textLength="104" x="26" y="290.7104">String designacao</text><!--MD5=[6559d866213c6b3fd003379aeba85775]
class Organização--><rect fill="#FEFECE" filter="url(#f1fj3888l2irv)" height="104.0234" id="Organização" style="stroke: #A80036; stroke-width: 1.5;" width="113" x="252" y="95"/><ellipse cx="267.9" cy="111" fill="#ADD1B2" rx="11" ry="11" style="stroke: #A80036; stroke-width: 1.0;"/><path d="M270.2438,106.6719 C269.3063,106.2344 268.7125,106.0938 267.8375,106.0938 C265.2125,106.0938 263.2125,108.1719 263.2125,110.8906 L263.2125,112.0156 C263.2125,114.5938 265.3219,116.4844 268.2125,116.4844 C269.4313,116.4844 270.5875,116.1875 271.3375,115.6406 C271.9156,115.2344 272.2438,114.7813 272.2438,114.3906 C272.2438,113.9375 271.8531,113.5469 271.3844,113.5469 C271.1656,113.5469 270.9625,113.625 270.775,113.8125 C270.3219,114.2969 270.3219,114.2969 270.1344,114.3906 C269.7125,114.6563 269.025,114.7813 268.2594,114.7813 C266.2125,114.7813 264.9156,113.6875 264.9156,111.9844 L264.9156,110.8906 C264.9156,109.1094 266.1656,107.7969 267.9,107.7969 C268.4781,107.7969 269.0875,107.9531 269.5563,108.2031 C270.0406,108.4844 270.2125,108.7031 270.3063,109.1094 C270.3688,109.5156 270.4,109.6406 270.5406,109.7656 C270.6813,109.9063 270.9156,110.0156 271.1344,110.0156 C271.4,110.0156 271.6656,109.875 271.8375,109.6563 C271.9469,109.5 271.9781,109.3125 271.9781,108.8906 L271.9781,107.4688 C271.9781,107.0313 271.9625,106.9063 271.8688,106.75 C271.7125,106.4844 271.4313,106.3438 271.1344,106.3438 C270.8375,106.3438 270.6344,106.4375 270.4156,106.75 L270.2438,106.6719 Z "/><text fill="#000000" font-family="sans-serif" font-size="12" lengthAdjust="spacingAndGlyphs" textLength="79" x="282.1" y="115.1543">Organização</text><line style="stroke: #A80036; stroke-width: 1.5;" x1="253" x2="364" y1="127" y2="127"/><rect fill="none" height="6" style="stroke: #C82930; stroke-width: 1.0;" width="6" x="260" y="135"/><text fill="#000000" font-family="sans-serif" font-size="11" lengthAdjust="spacingAndGlyphs" textLength="55" x="272" y="141.2104">String NIF</text><rect fill="none" height="6" style="stroke: #C82930; stroke-width: 1.0;" width="6" x="260" y="147.8047"/><text fill="#000000" font-family="sans-serif" font-size="11" lengthAdjust="spacingAndGlyphs" textLength="84" x="272" y="154.0151">String website</text><rect fill="none" height="6" style="stroke: #C82930; stroke-width: 1.0;" width="6" x="260" y="160.6094"/><text fill="#000000" font-family="sans-serif" font-size="11" lengthAdjust="spacingAndGlyphs" textLength="87" x="272" y="166.8198">String telefone</text><rect fill="none" height="6" style="stroke: #C82930; stroke-width: 1.0;" width="6" x="260" y="173.4141"/><text fill="#000000" font-family="sans-serif" font-size="11" lengthAdjust="spacingAndGlyphs" textLength="71" x="272" y="179.6245">String nome</text><rect fill="none" height="6" style="stroke: #C82930; stroke-width: 1.0;" width="6" x="260" y="186.2188"/><text fill="#000000" font-family="sans-serif" font-size="11" lengthAdjust="spacingAndGlyphs" textLength="70" x="272" y="192.4292">String email</text><!--MD5=[ac8682ea5466d223e49472789fb200d2]
class Colaborador--><rect fill="#FEFECE" filter="url(#f1fj3888l2irv)" height="91.2188" id="Colaborador" style="stroke: #A80036; stroke-width: 1.5;" width="113" x="1366.5" y="104.5"/><ellipse cx="1382.85" cy="120.5" fill="#ADD1B2" rx="11" ry="11" style="stroke: #A80036; stroke-width: 1.0;"/><path d="M1385.1938,116.1719 C1384.2563,115.7344 1383.6625,115.5938 1382.7875,115.5938 C1380.1625,115.5938 1378.1625,117.6719 1378.1625,120.3906 L1378.1625,121.5156 C1378.1625,124.0938 1380.2719,125.9844 1383.1625,125.9844 C1384.3813,125.9844 1385.5375,125.6875 1386.2875,125.1406 C1386.8656,124.7344 1387.1938,124.2813 1387.1938,123.8906 C1387.1938,123.4375 1386.8031,123.0469 1386.3344,123.0469 C1386.1156,123.0469 1385.9125,123.125 1385.725,123.3125 C1385.2719,123.7969 1385.2719,123.7969 1385.0844,123.8906 C1384.6625,124.1563 1383.975,124.2813 1383.2094,124.2813 C1381.1625,124.2813 1379.8656,123.1875 1379.8656,121.4844 L1379.8656,120.3906 C1379.8656,118.6094 1381.1156,117.2969 1382.85,117.2969 C1383.4281,117.2969 1384.0375,117.4531 1384.5063,117.7031 C1384.9906,117.9844 1385.1625,118.2031 1385.2563,118.6094 C1385.3188,119.0156 1385.35,119.1406 1385.4906,119.2656 C1385.6313,119.4063 1385.8656,119.5156 1386.0844,119.5156 C1386.35,119.5156 1386.6156,119.375 1386.7875,119.1563 C1386.8969,119 1386.9281,118.8125 1386.9281,118.3906 L1386.9281,116.9688 C1386.9281,116.5313 1386.9125,116.4063 1386.8188,116.25 C1386.6625,115.9844 1386.3813,115.8438 1386.0844,115.8438 C1385.7875,115.8438 1385.5844,115.9375 1385.3656,116.25 L1385.1938,116.1719 Z "/><text fill="#000000" font-family="sans-serif" font-size="12" lengthAdjust="spacingAndGlyphs" textLength="78" x="1397.15" y="124.6543">Colaborador</text><line style="stroke: #A80036; stroke-width: 1.5;" x1="1367.5" x2="1478.5" y1="136.5" y2="136.5"/><rect fill="none" height="6" style="stroke: #C82930; stroke-width: 1.0;" width="6" x="1374.5" y="144.5"/><text fill="#000000" font-family="sans-serif" font-size="11" lengthAdjust="spacingAndGlyphs" textLength="76" x="1386.5" y="150.7104">String funcao</text><rect fill="none" height="6" style="stroke: #C82930; stroke-width: 1.0;" width="6" x="1374.5" y="157.3047"/><text fill="#000000" font-family="sans-serif" font-size="11" lengthAdjust="spacingAndGlyphs" textLength="87" x="1386.5" y="163.5151">String telefone</text><rect fill="none" height="6" style="stroke: #C82930; stroke-width: 1.0;" width="6" x="1374.5" y="170.1094"/><text fill="#000000" font-family="sans-serif" font-size="11" lengthAdjust="spacingAndGlyphs" textLength="71" x="1386.5" y="176.3198">String nome</text><rect fill="none" height="6" style="stroke: #C82930; stroke-width: 1.0;" width="6" x="1374.5" y="182.9141"/><text fill="#000000" font-family="sans-serif" font-size="11" lengthAdjust="spacingAndGlyphs" textLength="70" x="1386.5" y="189.1245">String email</text><!--MD5=[5dd1d6732c071e710b9290b531f2fa3b]
class Utilizador--><rect fill="#FEFECE" filter="url(#f1fj3888l2irv)" height="78.4141" id="Utilizador" style="stroke: #A80036; stroke-width: 1.5;" width="120" x="1671.5" y="111"/><ellipse cx="1699.55" cy="127" fill="#ADD1B2" rx="11" ry="11" style="stroke: #A80036; stroke-width: 1.0;"/><path d="M1701.8938,122.6719 C1700.9563,122.2344 1700.3625,122.0938 1699.4875,122.0938 C1696.8625,122.0938 1694.8625,124.1719 1694.8625,126.8906 L1694.8625,128.0156 C1694.8625,130.5938 1696.9719,132.4844 1699.8625,132.4844 C1701.0813,132.4844 1702.2375,132.1875 1702.9875,131.6406 C1703.5656,131.2344 1703.8938,130.7813 1703.8938,130.3906 C1703.8938,129.9375 1703.5031,129.5469 1703.0344,129.5469 C1702.8156,129.5469 1702.6125,129.625 1702.425,129.8125 C1701.9719,130.2969 1701.9719,130.2969 1701.7844,130.3906 C1701.3625,130.6563 1700.675,130.7813 1699.9094,130.7813 C1697.8625,130.7813 1696.5656,129.6875 1696.5656,127.9844 L1696.5656,126.8906 C1696.5656,125.1094 1697.8156,123.7969 1699.55,123.7969 C1700.1281,123.7969 1700.7375,123.9531 1701.2063,124.2031 C1701.6906,124.4844 1701.8625,124.7031 1701.9563,125.1094 C1702.0188,125.5156 1702.05,125.6406 1702.1906,125.7656 C1702.3313,125.9063 1702.5656,126.0156 1702.7844,126.0156 C1703.05,126.0156 1703.3156,125.875 1703.4875,125.6563 C1703.5969,125.5 1703.6281,125.3125 1703.6281,124.8906 L1703.6281,123.4688 C1703.6281,123.0313 1703.6125,122.9063 1703.5188,122.75 C1703.3625,122.4844 1703.0813,122.3438 1702.7844,122.3438 C1702.4875,122.3438 1702.2844,122.4375 1702.0656,122.75 L1701.8938,122.6719 Z "/><text fill="#000000" font-family="sans-serif" font-size="12" lengthAdjust="spacingAndGlyphs" textLength="59" x="1716.45" y="131.1543">Utilizador</text><line style="stroke: #A80036; stroke-width: 1.5;" x1="1672.5" x2="1790.5" y1="143" y2="143"/><rect fill="none" height="6" style="stroke: #C82930; stroke-width: 1.0;" width="6" x="1679.5" y="151"/><text fill="#000000" font-family="sans-serif" font-size="11" lengthAdjust="spacingAndGlyphs" textLength="71" x="1691.5" y="157.2104">String nome</text><rect fill="none" height="6" style="stroke: #C82930; stroke-width: 1.0;" width="6" x="1679.5" y="163.8047"/><text fill="#000000" font-family="sans-serif" font-size="11" lengthAdjust="spacingAndGlyphs" textLength="70" x="1691.5" y="170.0151">String email</text><rect fill="none" height="6" style="stroke: #C82930; stroke-width: 1.0;" width="6" x="1679.5" y="176.6094"/><text fill="#000000" font-family="sans-serif" font-size="11" lengthAdjust="spacingAndGlyphs" textLength="94" x="1691.5" y="182.8198">String password</text><!--MD5=[27c2d4bbe9f7b9d3b0ea2797cc54308a]
class Tarefa--><rect fill="#FEFECE" filter="url(#f1fj3888l2irv)" height="116.8281" id="Tarefa" style="stroke: #A80036; stroke-width: 1.5;" width="130" x="481" y="88.5"/><ellipse cx="522.1" cy="104.5" fill="#ADD1B2" rx="11" ry="11" style="stroke: #A80036; stroke-width: 1.0;"/><path d="M524.4438,100.1719 C523.5063,99.7344 522.9125,99.5938 522.0375,99.5938 C519.4125,99.5938 517.4125,101.6719 517.4125,104.3906 L517.4125,105.5156 C517.4125,108.0938 519.5219,109.9844 522.4125,109.9844 C523.6313,109.9844 524.7875,109.6875 525.5375,109.1406 C526.1156,108.7344 526.4438,108.2813 526.4438,107.8906 C526.4438,107.4375 526.0531,107.0469 525.5844,107.0469 C525.3656,107.0469 525.1625,107.125 524.975,107.3125 C524.5219,107.7969 524.5219,107.7969 524.3344,107.8906 C523.9125,108.1563 523.225,108.2813 522.4594,108.2813 C520.4125,108.2813 519.1156,107.1875 519.1156,105.4844 L519.1156,104.3906 C519.1156,102.6094 520.3656,101.2969 522.1,101.2969 C522.6781,101.2969 523.2875,101.4531 523.7563,101.7031 C524.2406,101.9844 524.4125,102.2031 524.5063,102.6094 C524.5688,103.0156 524.6,103.1406 524.7406,103.2656 C524.8813,103.4063 525.1156,103.5156 525.3344,103.5156 C525.6,103.5156 525.8656,103.375 526.0375,103.1563 C526.1469,103 526.1781,102.8125 526.1781,102.3906 L526.1781,100.9688 C526.1781,100.5313 526.1625,100.4063 526.0688,100.25 C525.9125,99.9844 525.6313,99.8438 525.3344,99.8438 C525.0375,99.8438 524.8344,99.9375 524.6156,100.25 L524.4438,100.1719 Z "/><text fill="#000000" font-family="sans-serif" font-size="12" lengthAdjust="spacingAndGlyphs" textLength="40" x="541.9" y="108.6543">Tarefa</text><line style="stroke: #A80036; stroke-width: 1.5;" x1="482" x2="610" y1="120.5" y2="120.5"/><rect fill="none" height="6" style="stroke: #C82930; stroke-width: 1.0;" width="6" x="489" y="128.5"/><text fill="#000000" font-family="sans-serif" font-size="11" lengthAdjust="spacingAndGlyphs" textLength="86" x="501" y="134.7104">String refUnica</text><rect fill="none" height="6" style="stroke: #C82930; stroke-width: 1.0;" width="6" x="489" y="141.3047"/><text fill="#000000" font-family="sans-serif" font-size="11" lengthAdjust="spacingAndGlyphs" textLength="104" x="501" y="147.5151">String designacao</text><rect fill="none" height="6" style="stroke: #C82930; stroke-width: 1.0;" width="6" x="489" y="154.1094"/><text fill="#000000" font-family="sans-serif" font-size="11" lengthAdjust="spacingAndGlyphs" textLength="80" x="501" y="160.3198">String descInf</text><rect fill="none" height="6" style="stroke: #C82930; stroke-width: 1.0;" width="6" x="489" y="166.9141"/><text fill="#000000" font-family="sans-serif" font-size="11" lengthAdjust="spacingAndGlyphs" textLength="87" x="501" y="173.1245">String descTec</text><rect fill="none" height="6" style="stroke: #C82930; stroke-width: 1.0;" width="6" x="489" y="179.7188"/><text fill="#000000" font-family="sans-serif" font-size="11" lengthAdjust="spacingAndGlyphs" textLength="92" x="501" y="185.9292">Integer duracao</text><rect fill="none" height="6" style="stroke: #C82930; stroke-width: 1.0;" width="6" x="489" y="192.5234"/><text fill="#000000" font-family="sans-serif" font-size="11" lengthAdjust="spacingAndGlyphs" textLength="76" x="501" y="198.7339">Double custo</text><!--MD5=[19db0db7353a4bf63eefc676e5ba9b80]
class Anuncio--><rect fill="#FEFECE" filter="url(#f1fj3888l2irv)" height="78.4141" id="Anuncio" style="stroke: #A80036; stroke-width: 1.5;" width="134" x="727" y="232"/><ellipse cx="766.75" cy="248" fill="#ADD1B2" rx="11" ry="11" style="stroke: #A80036; stroke-width: 1.0;"/><path d="M769.0938,243.6719 C768.1563,243.2344 767.5625,243.0938 766.6875,243.0938 C764.0625,243.0938 762.0625,245.1719 762.0625,247.8906 L762.0625,249.0156 C762.0625,251.5938 764.1719,253.4844 767.0625,253.4844 C768.2813,253.4844 769.4375,253.1875 770.1875,252.6406 C770.7656,252.2344 771.0938,251.7813 771.0938,251.3906 C771.0938,250.9375 770.7031,250.5469 770.2344,250.5469 C770.0156,250.5469 769.8125,250.625 769.625,250.8125 C769.1719,251.2969 769.1719,251.2969 768.9844,251.3906 C768.5625,251.6563 767.875,251.7813 767.1094,251.7813 C765.0625,251.7813 763.7656,250.6875 763.7656,248.9844 L763.7656,247.8906 C763.7656,246.1094 765.0156,244.7969 766.75,244.7969 C767.3281,244.7969 767.9375,244.9531 768.4063,245.2031 C768.8906,245.4844 769.0625,245.7031 769.1563,246.1094 C769.2188,246.5156 769.25,246.6406 769.3906,246.7656 C769.5313,246.9063 769.7656,247.0156 769.9844,247.0156 C770.25,247.0156 770.5156,246.875 770.6875,246.6563 C770.7969,246.5 770.8281,246.3125 770.8281,245.8906 L770.8281,244.4688 C770.8281,244.0313 770.8125,243.9063 770.7188,243.75 C770.5625,243.4844 770.2813,243.3438 769.9844,243.3438 C769.6875,243.3438 769.4844,243.4375 769.2656,243.75 L769.0938,243.6719 Z "/><text fill="#000000" font-family="sans-serif" font-size="12" lengthAdjust="spacingAndGlyphs" textLength="47" x="786.25" y="252.1543">Anuncio</text><line style="stroke: #A80036; stroke-width: 1.5;" x1="728" x2="860" y1="264" y2="264"/><rect fill="none" height="6" style="stroke: #C82930; stroke-width: 1.0;" width="6" x="735" y="272"/><text fill="#000000" font-family="sans-serif" font-size="11" lengthAdjust="spacingAndGlyphs" textLength="108" x="747" y="278.2104">Period publicitacao</text><rect fill="none" height="6" style="stroke: #C82930; stroke-width: 1.0;" width="6" x="735" y="284.8047"/><text fill="#000000" font-family="sans-serif" font-size="11" lengthAdjust="spacingAndGlyphs" textLength="108" x="747" y="291.0151">Period candidatura</text><rect fill="none" height="6" style="stroke: #C82930; stroke-width: 1.0;" width="6" x="735" y="297.6094"/><text fill="#000000" font-family="sans-serif" font-size="11" lengthAdjust="spacingAndGlyphs" textLength="91" x="747" y="303.8198">Period seriacao</text><!--MD5=[84d1b9922499e034344dac4e4526a697]
class Seriacao--><rect fill="#FEFECE" filter="url(#f1fj3888l2irv)" height="52.8047" id="Seriacao" style="stroke: #A80036; stroke-width: 1.5;" width="145" x="1042" y="341.5"/><ellipse cx="1083.1" cy="357.5" fill="#ADD1B2" rx="11" ry="11" style="stroke: #A80036; stroke-width: 1.0;"/><path d="M1085.4438,353.1719 C1084.5063,352.7344 1083.9125,352.5938 1083.0375,352.5938 C1080.4125,352.5938 1078.4125,354.6719 1078.4125,357.3906 L1078.4125,358.5156 C1078.4125,361.0938 1080.5219,362.9844 1083.4125,362.9844 C1084.6313,362.9844 1085.7875,362.6875 1086.5375,362.1406 C1087.1156,361.7344 1087.4438,361.2813 1087.4438,360.8906 C1087.4438,360.4375 1087.0531,360.0469 1086.5844,360.0469 C1086.3656,360.0469 1086.1625,360.125 1085.975,360.3125 C1085.5219,360.7969 1085.5219,360.7969 1085.3344,360.8906 C1084.9125,361.1563 1084.225,361.2813 1083.4594,361.2813 C1081.4125,361.2813 1080.1156,360.1875 1080.1156,358.4844 L1080.1156,357.3906 C1080.1156,355.6094 1081.3656,354.2969 1083.1,354.2969 C1083.6781,354.2969 1084.2875,354.4531 1084.7563,354.7031 C1085.2406,354.9844 1085.4125,355.2031 1085.5063,355.6094 C1085.5688,356.0156 1085.6,356.1406 1085.7406,356.2656 C1085.8813,356.4063 1086.1156,356.5156 1086.3344,356.5156 C1086.6,356.5156 1086.8656,356.375 1087.0375,356.1563 C1087.1469,356 1087.1781,355.8125 1087.1781,355.3906 L1087.1781,353.9688 C1087.1781,353.5313 1087.1625,353.4063 1087.0688,353.25 C1086.9125,352.9844 1086.6313,352.8438 1086.3344,352.8438 C1086.0375,352.8438 1085.8344,352.9375 1085.6156,353.25 L1085.4438,353.1719 Z "/><text fill="#000000" font-family="sans-serif" font-size="12" lengthAdjust="spacingAndGlyphs" textLength="55" x="1102.9" y="361.6543">Seriacao</text><line style="stroke: #A80036; stroke-width: 1.5;" x1="1043" x2="1186" y1="373.5" y2="373.5"/><rect fill="none" height="6" style="stroke: #C82930; stroke-width: 1.0;" width="6" x="1050" y="381.5"/><text fill="#000000" font-family="sans-serif" font-size="11" lengthAdjust="spacingAndGlyphs" textLength="119" x="1062" y="387.7104">Date dataRealizacao</text><!--MD5=[475c5b924ed41035684e2831311827d2]
class Candidatura--><rect fill="#FEFECE" filter="url(#f1fj3888l2irv)" height="104.0234" id="Candidatura" style="stroke: #A80036; stroke-width: 1.5;" width="163" x="1650" y="251"/><ellipse cx="1689.75" cy="267" fill="#ADD1B2" rx="11" ry="11" style="stroke: #A80036; stroke-width: 1.0;"/><path d="M1692.0938,262.6719 C1691.1563,262.2344 1690.5625,262.0938 1689.6875,262.0938 C1687.0625,262.0938 1685.0625,264.1719 1685.0625,266.8906 L1685.0625,268.0156 C1685.0625,270.5938 1687.1719,272.4844 1690.0625,272.4844 C1691.2813,272.4844 1692.4375,272.1875 1693.1875,271.6406 C1693.7656,271.2344 1694.0938,270.7813 1694.0938,270.3906 C1694.0938,269.9375 1693.7031,269.5469 1693.2344,269.5469 C1693.0156,269.5469 1692.8125,269.625 1692.625,269.8125 C1692.1719,270.2969 1692.1719,270.2969 1691.9844,270.3906 C1691.5625,270.6563 1690.875,270.7813 1690.1094,270.7813 C1688.0625,270.7813 1686.7656,269.6875 1686.7656,267.9844 L1686.7656,266.8906 C1686.7656,265.1094 1688.0156,263.7969 1689.75,263.7969 C1690.3281,263.7969 1690.9375,263.9531 1691.4063,264.2031 C1691.8906,264.4844 1692.0625,264.7031 1692.1563,265.1094 C1692.2188,265.5156 1692.25,265.6406 1692.3906,265.7656 C1692.5313,265.9063 1692.7656,266.0156 1692.9844,266.0156 C1693.25,266.0156 1693.5156,265.875 1693.6875,265.6563 C1693.7969,265.5 1693.8281,265.3125 1693.8281,264.8906 L1693.8281,263.4688 C1693.8281,263.0313 1693.8125,262.9063 1693.7188,262.75 C1693.5625,262.4844 1693.2813,262.3438 1692.9844,262.3438 C1692.6875,262.3438 1692.4844,262.4375 1692.2656,262.75 L1692.0938,262.6719 Z "/><text fill="#000000" font-family="sans-serif" font-size="12" lengthAdjust="spacingAndGlyphs" textLength="76" x="1709.25" y="271.1543">Candidatura</text><line style="stroke: #A80036; stroke-width: 1.5;" x1="1651" x2="1812" y1="283" y2="283"/><rect fill="none" height="6" style="stroke: #C82930; stroke-width: 1.0;" width="6" x="1658" y="291"/><text fill="#000000" font-family="sans-serif" font-size="11" lengthAdjust="spacingAndGlyphs" textLength="126" x="1670" y="297.2104">Date dataCandidatura</text><rect fill="none" height="6" style="stroke: #C82930; stroke-width: 1.0;" width="6" x="1658" y="303.8047"/><text fill="#000000" font-family="sans-serif" font-size="11" lengthAdjust="spacingAndGlyphs" textLength="137" x="1670" y="310.0151">Double valorPretendido</text><rect fill="none" height="6" style="stroke: #C82930; stroke-width: 1.0;" width="6" x="1658" y="316.6094"/><text fill="#000000" font-family="sans-serif" font-size="11" lengthAdjust="spacingAndGlyphs" textLength="97" x="1670" y="322.8198">Integer numDias</text><rect fill="none" height="6" style="stroke: #C82930; stroke-width: 1.0;" width="6" x="1658" y="329.4141"/><text fill="#000000" font-family="sans-serif" font-size="11" lengthAdjust="spacingAndGlyphs" textLength="134" x="1670" y="335.6245">String txtApresentacao</text><rect fill="none" height="6" style="stroke: #C82930; stroke-width: 1.0;" width="6" x="1658" y="342.2188"/><text fill="#000000" font-family="sans-serif" font-size="11" lengthAdjust="spacingAndGlyphs" textLength="110" x="1670" y="348.4292">String txtMotivacao</text><!--MD5=[716bba0e94eea125d5a66a891f2c3c34]
class Classificacao--><rect fill="#FEFECE" filter="url(#f1fj3888l2irv)" height="52.8047" id="Classificacao" style="stroke: #A80036; stroke-width: 1.5;" width="116" x="1365" y="332.5"/><ellipse cx="1380.9" cy="348.5" fill="#ADD1B2" rx="11" ry="11" style="stroke: #A80036; stroke-width: 1.0;"/><path d="M1383.2438,344.1719 C1382.3063,343.7344 1381.7125,343.5938 1380.8375,343.5938 C1378.2125,343.5938 1376.2125,345.6719 1376.2125,348.3906 L1376.2125,349.5156 C1376.2125,352.0938 1378.3219,353.9844 1381.2125,353.9844 C1382.4313,353.9844 1383.5875,353.6875 1384.3375,353.1406 C1384.9156,352.7344 1385.2438,352.2813 1385.2438,351.8906 C1385.2438,351.4375 1384.8531,351.0469 1384.3844,351.0469 C1384.1656,351.0469 1383.9625,351.125 1383.775,351.3125 C1383.3219,351.7969 1383.3219,351.7969 1383.1344,351.8906 C1382.7125,352.1563 1382.025,352.2813 1381.2594,352.2813 C1379.2125,352.2813 1377.9156,351.1875 1377.9156,349.4844 L1377.9156,348.3906 C1377.9156,346.6094 1379.1656,345.2969 1380.9,345.2969 C1381.4781,345.2969 1382.0875,345.4531 1382.5563,345.7031 C1383.0406,345.9844 1383.2125,346.2031 1383.3063,346.6094 C1383.3688,347.0156 1383.4,347.1406 1383.5406,347.2656 C1383.6813,347.4063 1383.9156,347.5156 1384.1344,347.5156 C1384.4,347.5156 1384.6656,347.375 1384.8375,347.1563 C1384.9469,347 1384.9781,346.8125 1384.9781,346.3906 L1384.9781,344.9688 C1384.9781,344.5313 1384.9625,344.4063 1384.8688,344.25 C1384.7125,343.9844 1384.4313,343.8438 1384.1344,343.8438 C1383.8375,343.8438 1383.6344,343.9375 1383.4156,344.25 L1383.2438,344.1719 Z "/><text fill="#000000" font-family="sans-serif" font-size="12" lengthAdjust="spacingAndGlyphs" textLength="82" x="1395.1" y="352.6543">Classificacao</text><line style="stroke: #A80036; stroke-width: 1.5;" x1="1366" x2="1480" y1="364.5" y2="364.5"/><rect fill="none" height="6" style="stroke: #C82930; stroke-width: 1.0;" width="6" x="1373" y="372.5"/><text fill="#000000" font-family="sans-serif" font-size="11" lengthAdjust="spacingAndGlyphs" textLength="90" x="1385" y="378.7104">Integer posicao</text><!--MD5=[19648b1b60c2baeaefcc79e2077dc295]
class RegimentoAplicavel--><rect fill="#FEFECE" filter="url(#f1fj3888l2irv)" height="78.4141" id="RegimentoAplicavel" style="stroke: #A80036; stroke-width: 1.5;" width="154" x="1346" y="452"/><ellipse cx="1361" cy="468" fill="#ADD1B2" rx="11" ry="11" style="stroke: #A80036; stroke-width: 1.0;"/><path d="M1363.3438,463.6719 C1362.4063,463.2344 1361.8125,463.0938 1360.9375,463.0938 C1358.3125,463.0938 1356.3125,465.1719 1356.3125,467.8906 L1356.3125,469.0156 C1356.3125,471.5938 1358.4219,473.4844 1361.3125,473.4844 C1362.5313,473.4844 1363.6875,473.1875 1364.4375,472.6406 C1365.0156,472.2344 1365.3438,471.7813 1365.3438,471.3906 C1365.3438,470.9375 1364.9531,470.5469 1364.4844,470.5469 C1364.2656,470.5469 1364.0625,470.625 1363.875,470.8125 C1363.4219,471.2969 1363.4219,471.2969 1363.2344,471.3906 C1362.8125,471.6563 1362.125,471.7813 1361.3594,471.7813 C1359.3125,471.7813 1358.0156,470.6875 1358.0156,468.9844 L1358.0156,467.8906 C1358.0156,466.1094 1359.2656,464.7969 1361,464.7969 C1361.5781,464.7969 1362.1875,464.9531 1362.6563,465.2031 C1363.1406,465.4844 1363.3125,465.7031 1363.4063,466.1094 C1363.4688,466.5156 1363.5,466.6406 1363.6406,466.7656 C1363.7813,466.9063 1364.0156,467.0156 1364.2344,467.0156 C1364.5,467.0156 1364.7656,466.875 1364.9375,466.6563 C1365.0469,466.5 1365.0781,466.3125 1365.0781,465.8906 L1365.0781,464.4688 C1365.0781,464.0313 1365.0625,463.9063 1364.9688,463.75 C1364.8125,463.4844 1364.5313,463.3438 1364.2344,463.3438 C1363.9375,463.3438 1363.7344,463.4375 1363.5156,463.75 L1363.3438,463.6719 Z "/><text fill="#000000" font-family="sans-serif" font-size="12" lengthAdjust="spacingAndGlyphs" textLength="122" x="1375" y="472.1543">RegimentoAplicavel</text><line style="stroke: #A80036; stroke-width: 1.5;" x1="1347" x2="1499" y1="484" y2="484"/><rect fill="none" height="6" style="stroke: #C82930; stroke-width: 1.0;" width="6" x="1354" y="492"/><text fill="#000000" font-family="sans-serif" font-size="11" lengthAdjust="spacingAndGlyphs" textLength="104" x="1366" y="498.2104">String designacao</text><rect fill="none" height="6" style="stroke: #C82930; stroke-width: 1.0;" width="6" x="1354" y="504.8047"/><text fill="#000000" font-family="sans-serif" font-size="11" lengthAdjust="spacingAndGlyphs" textLength="107" x="1366" y="511.0151">String descRegras</text><rect fill="none" height="6" style="stroke: #C82930; stroke-width: 1.0;" width="6" x="1354" y="517.6094"/><text fill="#000000" font-family="sans-serif" font-size="11" lengthAdjust="spacingAndGlyphs" textLength="109" x="1366" y="523.8198">String identificador</text><!--MD5=[bfccd8e890448f4cee1f17ba82daa446]
link Plataforma to Organização--><path d="M122.521,244.399 C160.498,224.402 212.508,197.017 251.707,176.377 " fill="none" id="Plataforma-Organização" style="stroke: #A80036; stroke-width: 1.0;"/><text fill="#000000" font-family="sans-serif" font-size="13" lengthAdjust="spacingAndGlyphs" textLength="41" x="167" y="190.0669">possui</text><polygon fill="#000000" points="211,184.0664,217,187.0664,211,190.0664,211,184.0664" style="stroke: #000000; stroke-width: 1.0;"/><text fill="#000000" font-family="sans-serif" font-size="13" lengthAdjust="spacingAndGlyphs" textLength="8" x="125.5102" y="233.618">1</text><text fill="#000000" font-family="sans-serif" font-size="13" lengthAdjust="spacingAndGlyphs" textLength="7" x="236.982" y="193.1758">*</text><!--MD5=[f95674374ac74d74a91c09e118dc98be]
link Plataforma to RegimentoAplicavel--><path d="M78.4576,297.526 C98.3914,372.236 166.313,579 307.5,579 C307.5,579 307.5,579 1115.5,579 C1196.47,579 1284.96,550.2793 1345.95,525.6536 " fill="none" id="Plataforma-RegimentoAplicavel" style="stroke: #A80036; stroke-width: 1.0;"/><text fill="#000000" font-family="sans-serif" font-size="13" lengthAdjust="spacingAndGlyphs" textLength="41" x="642" y="575.0669">possui</text><polygon fill="#000000" points="686,569.0664,692,572.0664,686,575.0664,686,569.0664" style="stroke: #000000; stroke-width: 1.0;"/><text fill="#000000" font-family="sans-serif" font-size="13" lengthAdjust="spacingAndGlyphs" textLength="8" x="71.2572" y="317.4993">1</text><text fill="#000000" font-family="sans-serif" font-size="13" lengthAdjust="spacingAndGlyphs" textLength="7" x="1331.0209" y="541.8561">*</text><!--MD5=[a1920769314186b331e19badf2cc4935]
link Organização to Colaborador--><path d="M365.339,98.782 C410.629,64.681 477.773,25 545,25 C545,25 545,25 1115.5,25 C1208.74,25 1306.91,75.211 1366.3,111.987 " fill="none" id="Organização-Colaborador" style="stroke: #A80036; stroke-width: 1.0;"/><text fill="#000000" font-family="sans-serif" font-size="13" lengthAdjust="spacingAndGlyphs" textLength="27" x="774" y="21.0669">tem</text><polygon fill="#000000" points="804,15.0664,810,18.0664,804,21.0664,804,15.0664" style="stroke: #000000; stroke-width: 1.0;"/><text fill="#000000" font-family="sans-serif" font-size="13" lengthAdjust="spacingAndGlyphs" textLength="8" x="373.134" y="105.6389">1</text><text fill="#000000" font-family="sans-serif" font-size="13" lengthAdjust="spacingAndGlyphs" textLength="7" x="1351.5869" y="120.1389">*</text><!--MD5=[bcb5794e8184ce78d304f04a5beabbc0]
link Colaborador to Utilizador--><path d="M1479.5,150 C1533.76,150 1616.06,150 1671.49,150 " fill="none" id="Colaborador-Utilizador" style="stroke: #A80036; stroke-width: 1.0;"/><text fill="#000000" font-family="sans-serif" font-size="13" lengthAdjust="spacingAndGlyphs" textLength="69" x="1534" y="146.0669">atua como</text><polygon fill="#000000" points="1606,140.0664,1612,143.0664,1606,146.0664,1606,140.0664" style="stroke: #000000; stroke-width: 1.0;"/><text fill="#000000" font-family="sans-serif" font-size="13" lengthAdjust="spacingAndGlyphs" textLength="8" x="1487.6297" y="163.0689">1</text><text fill="#000000" font-family="sans-serif" font-size="13" lengthAdjust="spacingAndGlyphs" textLength="8" x="1655.6888" y="162.9638">1</text><!--MD5=[ebe0b2adceebb6ee2636cb1948c7c8a9]
link Tarefa to Colaborador--><path d="M611.06,146.388 C742.977,145.262 1054.52,143.301 1316,147 C1332.38,147.232 1350.19,147.665 1366.44,148.132 " fill="none" id="Tarefa-Colaborador" style="stroke: #A80036; stroke-width: 1.0;"/><text fill="#000000" font-family="sans-serif" font-size="13" lengthAdjust="spacingAndGlyphs" textLength="106" x="892" y="140.0669">especificada por</text><polygon fill="#000000" points="1001,134.0664,1007,137.0664,1001,140.0664,1001,134.0664" style="stroke: #000000; stroke-width: 1.0;"/><text fill="#000000" font-family="sans-serif" font-size="13" lengthAdjust="spacingAndGlyphs" textLength="7" x="618.9872" y="159.2689">*</text><text fill="#000000" font-family="sans-serif" font-size="13" lengthAdjust="spacingAndGlyphs" textLength="8" x="1350.6808" y="143.9931">1</text><!--MD5=[08db6e261ed14257d80751f737616a9d]
link Organização to Tarefa--><path d="M365.012,147 C399.688,147 444.47,147 480.689,147 " fill="none" id="Organização-Tarefa" style="stroke: #A80036; stroke-width: 1.0;"/><text fill="#000000" font-family="sans-serif" font-size="13" lengthAdjust="spacingAndGlyphs" textLength="41" x="396" y="143.0669">possui</text><polygon fill="#000000" points="440,137.0664,446,140.0664,440,143.0664,440,137.0664" style="stroke: #000000; stroke-width: 1.0;"/><text fill="#000000" font-family="sans-serif" font-size="13" lengthAdjust="spacingAndGlyphs" textLength="8" x="373.1433" y="160.0821">1</text><text fill="#000000" font-family="sans-serif" font-size="13" lengthAdjust="spacingAndGlyphs" textLength="7" x="466.1628" y="159.9039">*</text><!--MD5=[35fae5763b5ac085aad1a803f88e2b95]
link Tarefa to Anuncio--><path d="M611.312,179.418 C646.902,197.357 691.054,219.612 726.921,237.692 " fill="none" id="Tarefa-Anuncio" style="stroke: #A80036; stroke-width: 1.0;"/><text fill="#000000" font-family="sans-serif" font-size="13" lengthAdjust="spacingAndGlyphs" textLength="30" x="647.5" y="193.0669">gera</text><polygon fill="#000000" points="680.5,187.0664,686.5,190.0664,680.5,193.0664,680.5,187.0664" style="stroke: #000000; stroke-width: 1.0;"/><text fill="#000000" font-family="sans-serif" font-size="13" lengthAdjust="spacingAndGlyphs" textLength="8" x="618.893" y="195.8676">1</text><text fill="#000000" font-family="sans-serif" font-size="13" lengthAdjust="spacingAndGlyphs" textLength="22" x="696.8691" y="247.0829">0..1</text><!--MD5=[22ab75f887ca251f11fce1d8db3a0e76]
link Anuncio to Seriacao--><path d="M861.249,302.556 C871.108,306.7 881.237,310.66 891,314 C940.457,330.919 997.814,344.704 1041.9,354.112 " fill="none" id="Anuncio-Seriacao" style="stroke: #A80036; stroke-width: 1.0;"/><text fill="#000000" font-family="sans-serif" font-size="13" lengthAdjust="spacingAndGlyphs" textLength="57" x="916.5" y="310.0669">espoleta</text><polygon fill="#000000" points="976.5,304.0664,982.5,307.0664,976.5,310.0664,976.5,304.0664" style="stroke: #000000; stroke-width: 1.0;"/><text fill="#000000" font-family="sans-serif" font-size="13" lengthAdjust="spacingAndGlyphs" textLength="8" x="869.0419" y="318.8793">1</text><text fill="#000000" font-family="sans-serif" font-size="13" lengthAdjust="spacingAndGlyphs" textLength="22" x="1011.9319" y="365.5857">0..1</text><!--MD5=[8ed215fd44dac0fc70bd4855b8d5f44f]
link Seriacao to Colaborador--><path d="M1187.11,357.548 C1235.96,349.312 1295.39,336.774 1316,322 C1359.76,290.628 1389.15,235.038 1405.67,195.553 " fill="none" id="Seriacao-Colaborador" style="stroke: #A80036; stroke-width: 1.0;"/><text fill="#000000" font-family="sans-serif" font-size="13" lengthAdjust="spacingAndGlyphs" textLength="84" x="1218" y="318.0669">realizada por</text><polygon fill="#000000" points="1305,312.0664,1311,315.0664,1305,318.0664,1305,312.0664" style="stroke: #000000; stroke-width: 1.0;"/><text fill="#000000" font-family="sans-serif" font-size="13" lengthAdjust="spacingAndGlyphs" textLength="8" x="1195.0104" y="369.3274">1</text><text fill="#000000" font-family="sans-serif" font-size="13" lengthAdjust="spacingAndGlyphs" textLength="7" x="1395.4804" y="215.7371">*</text><!--MD5=[0bbbffdd91c5ada4c15cfe16870f099c]
link Seriacao to RegimentoAplicavel--><path d="M1181.63,394.538 C1229.85,413.888 1295.3,440.154 1345.73,460.391 " fill="none" id="Seriacao-RegimentoAplicavel" style="stroke: #A80036; stroke-width: 1.0;"/><text fill="#000000" font-family="sans-serif" font-size="13" lengthAdjust="spacingAndGlyphs" textLength="37" x="1241.5" y="407.0669">aplica</text><polygon fill="#000000" points="1281.5,401.0664,1287.5,404.0664,1281.5,407.0664,1281.5,401.0664" style="stroke: #000000; stroke-width: 1.0;"/><text fill="#000000" font-family="sans-serif" font-size="13" lengthAdjust="spacingAndGlyphs" textLength="8" x="1188.2288" y="414.5141">1</text><text fill="#000000" font-family="sans-serif" font-size="13" lengthAdjust="spacingAndGlyphs" textLength="8" x="1329.984" y="470.2419">1</text><!--MD5=[fd893ded8d6411005d24c76d3651369d]
link Anuncio to RegimentoAplicavel--><path d="M835.125,310.325 C851.64,325.356 871.458,341.993 891,355 C953.216,396.41 970.796,406.293 1042,429 C1144.37,461.646 1268.01,477.74 1345.85,485.1962 " fill="none" id="Anuncio-RegimentoAplicavel" style="stroke: #A80036; stroke-width: 1.0;"/><text fill="#000000" font-family="sans-serif" font-size="13" lengthAdjust="spacingAndGlyphs" textLength="90" x="1063" y="425.0669">conduzido por</text><polygon fill="#000000" points="1156,419.0664,1162,422.0664,1156,425.0664,1156,419.0664" style="stroke: #000000; stroke-width: 1.0;"/><text fill="#000000" font-family="sans-serif" font-size="13" lengthAdjust="spacingAndGlyphs" textLength="8" x="833.5059" y="330.4158">1</text><text fill="#000000" font-family="sans-serif" font-size="13" lengthAdjust="spacingAndGlyphs" textLength="8" x="1330.1154" y="497.4114">1</text><!--MD5=[dded47ab3944ec5102ef6333735e9a58]
link Seriacao to Classificacao--><path d="M1187.23,376.748 C1197.22,377.681 1207.35,378.479 1217,379 C1260.94,381.374 1272.19,383.097 1316,379 C1331.94,377.509 1349.06,374.783 1364.79,371.814 " fill="none" id="Seriacao-Classificacao" style="stroke: #A80036; stroke-width: 1.0;"/><text fill="#000000" font-family="sans-serif" font-size="13" lengthAdjust="spacingAndGlyphs" textLength="30" x="1245" y="375.0669">gera</text><polygon fill="#000000" points="1278,369.0664,1284,372.0664,1278,375.0664,1278,369.0664" style="stroke: #000000; stroke-width: 1.0;"/><text fill="#000000" font-family="sans-serif" font-size="13" lengthAdjust="spacingAndGlyphs" textLength="8" x="1195.1428" y="390.5074">1</text><text fill="#000000" font-family="sans-serif" font-size="13" lengthAdjust="spacingAndGlyphs" textLength="7" x="1349.8834" y="386.5046">*</text><!--MD5=[471b8c6ff5fcf31b4b6fb9b4f947344d]
link Classificacao to Candidatura--><path d="M1481.29,348.533 C1528.77,339.858 1596.8,327.428 1649.79,317.746 " fill="none" id="Classificacao-Candidatura" style="stroke: #A80036; stroke-width: 1.0;"/><text fill="#000000" font-family="sans-serif" font-size="13" lengthAdjust="spacingAndGlyphs" textLength="75" x="1531" y="320.0669">referente a</text><polygon fill="#000000" points="1609,314.0664,1615,317.0664,1609,320.0664,1609,314.0664" style="stroke: #000000; stroke-width: 1.0;"/><text fill="#000000" font-family="sans-serif" font-size="13" lengthAdjust="spacingAndGlyphs" textLength="22" x="1488.8686" y="360.2933">0..1</text><text fill="#000000" font-family="sans-serif" font-size="13" lengthAdjust="spacingAndGlyphs" textLength="8" x="1633.8886" y="331.8687">1</text><!--MD5=[360c74ee5c5ac6d45db6366086fca09a]
link Candidatura to Anuncio--><path d="M1649.93,300.062 C1639.85,299.701 1629.69,299.34 1620,299 C1337.67,289.099 1000.972,277.844 861.037,273.191 " fill="none" id="Candidatura-Anuncio" style="stroke: #A80036; stroke-width: 1.0;"/><polygon fill="#000000" points="1235,275.0664,1229,278.0664,1235,281.0664,1235,275.0664" style="stroke: #000000; stroke-width: 1.0;"/><text fill="#000000" font-family="sans-serif" font-size="13" lengthAdjust="spacingAndGlyphs" textLength="64" x="1241" y="281.0669">enviada a</text><text fill="#000000" font-family="sans-serif" font-size="13" lengthAdjust="spacingAndGlyphs" textLength="8" x="1634.0415" y="312.5545">1</text><text fill="#000000" font-family="sans-serif" font-size="13" lengthAdjust="spacingAndGlyphs" textLength="7" x="869.1928" y="286.3622">*</text><!--MD5=[3d9e8e0d764359bffb897b36dc4b633a]
link Plataforma to Anuncio--><path d="M136.301,271 C272.546,271 589.067,271 726.891,271 " fill="none" id="Plataforma-Anuncio" style="stroke: #A80036; stroke-width: 1.0;"/><text fill="#000000" font-family="sans-serif" font-size="13" lengthAdjust="spacingAndGlyphs" textLength="41" x="396" y="267.0669">possui</text><polygon fill="#000000" points="440,261.0664,446,264.0664,440,267.0664,440,261.0664" style="stroke: #000000; stroke-width: 1.0;"/><text fill="#000000" font-family="sans-serif" font-size="13" lengthAdjust="spacingAndGlyphs" textLength="8" x="143.8808" y="283.9052">1</text><text fill="#000000" font-family="sans-serif" font-size="13" lengthAdjust="spacingAndGlyphs" textLength="7" x="712.1681" y="283.8718">*</text><!--MD5=[0a535575571876f6213287bf563a867d]
link Anuncio to Colaborador--><path d="M861.173,252.267 C871.133,249.683 881.312,247.174 891,245 C1063.02,206.395 1269.18,173.196 1366.26,158.328 " fill="none" id="Anuncio-Colaborador" style="stroke: #A80036; stroke-width: 1.0;"/><text fill="#000000" font-family="sans-serif" font-size="13" lengthAdjust="spacingAndGlyphs" textLength="86" x="1065" y="183.0669">publicado por</text><polygon fill="#000000" points="1154,177.0664,1160,180.0664,1154,183.0664,1154,177.0664" style="stroke: #000000; stroke-width: 1.0;"/><text fill="#000000" font-family="sans-serif" font-size="13" lengthAdjust="spacingAndGlyphs" textLength="7" x="868.9029" y="263.0899">*</text><text fill="#000000" font-family="sans-serif" font-size="13" lengthAdjust="spacingAndGlyphs" textLength="8" x="1350.4777" y="172.4174">1</text><!--MD5=[0686b2471c0f79507f0ca13d946f4244]
@startuml
hide methods
left to right direction

class Plataforma {
  -String designacao
}
class Organização {
  -String NIF
  -String website
  -String telefone
  -String nome
  -String email
}
class Colaborador {
  -String funcao
  -String telefone
  -String nome
  -String email
}

class Utilizador {
  -String nome
  -String email
  -String password
}
class Tarefa {
  -String refUnica
  -String designacao
  -String descInf
  -String descTec
  -Integer duracao
  -Double custo
}
class Anuncio {
  -Period publicitacao
  -Period candidatura
  -Period seriacao
}
class Seriacao {
  -Date dataRealizacao
}
class Candidatura {
  -Date dataCandidatura
  -Double valorPretendido
  -Integer numDias
  -String txtApresentacao
  -String txtMotivacao
}
class Classificacao {
  -Integer posicao
}
class RegimentoAplicavel {
  -String designacao
  -String descRegras
  -String identificador
}

Plataforma "1" - - "*" Organização: possui >
Plataforma "1" - - "*" RegimentoAplicavel: possui >
Organização "1" - - "*" Colaborador: tem >
Colaborador "1" - -"1" Utilizador: atua como >
Tarefa "*" - - "1" Colaborador: especificada por >
Organização "1" - - "*" Tarefa: possui >
Tarefa "1" - - "0..1" Anuncio: gera >
Anuncio "1" - - "0..1" Seriacao: espoleta >
Seriacao "1" - - "*" Colaborador: realizada por >
Seriacao "1" - - "1" RegimentoAplicavel: aplica >
Anuncio "1" - - "1" RegimentoAplicavel: conduzido por >
Seriacao "1" - - "*" Classificacao: gera >
Classificacao "0..1" - - "1" Candidatura: referente a >
Candidatura "1" - - "*" Anuncio: enviada a >
Plataforma "1" - - "*" Anuncio: possui >
Anuncio "*" - - "1" Colaborador: publicado por >
@enduml

PlantUML version 1.2020.09beta15(Unknown compile time)
(GPL source distribution)
Java Runtime: Java(TM) SE Runtime Environment
JVM: Java HotSpot(TM) 64-Bit Server VM
Java Version: 14.0.1+7
Operating System: Linux
Default Encoding: UTF-8
Language: en
Country: US
--></g></svg>