<?xml version="1.0" encoding="UTF-8" standalone="no"?><svg xmlns="http://www.w3.org/2000/svg" xmlns:xlink="http://www.w3.org/1999/xlink" contentScriptType="application/ecmascript" contentStyleType="text/css" height="215px" preserveAspectRatio="none" style="width:2197px;height:215px;" version="1.1" viewBox="0 0 2197 215" width="2197px" zoomAndPan="magnify"><defs><filter height="300%" id="f1o1floo6qp0am" width="300%" x="-1" y="-1"><feGaussianBlur result="blurOut" stdDeviation="2.0"/><feColorMatrix in="blurOut" result="blurOut2" type="matrix" values="0 0 0 0 0 0 0 0 0 0 0 0 0 0 0 0 0 0 .4 0"/><feOffset dx="4.0" dy="4.0" in="blurOut2" result="blurOut3"/><feBlend in="SourceGraphic" in2="blurOut3" mode="normal"/></filter></defs><g><!--MD5=[96c205f080269da413b1f496b06092d2]
class RemoverCandidaturaUI--><rect fill="#FEFECE" filter="url(#f1o1floo6qp0am)" height="48" id="RemoverCandidaturaUI" style="stroke: #A80036; stroke-width: 1.5;" width="169" x="6" y="82"/><ellipse cx="21" cy="98" fill="#ADD1B2" rx="11" ry="11" style="stroke: #A80036; stroke-width: 1.0;"/><path d="M23.3438,93.6719 C22.4063,93.2344 21.8125,93.0938 20.9375,93.0938 C18.3125,93.0938 16.3125,95.1719 16.3125,97.8906 L16.3125,99.0156 C16.3125,101.5938 18.4219,103.4844 21.3125,103.4844 C22.5313,103.4844 23.6875,103.1875 24.4375,102.6406 C25.0156,102.2344 25.3438,101.7813 25.3438,101.3906 C25.3438,100.9375 24.9531,100.5469 24.4844,100.5469 C24.2656,100.5469 24.0625,100.625 23.875,100.8125 C23.4219,101.2969 23.4219,101.2969 23.2344,101.3906 C22.8125,101.6563 22.125,101.7813 21.3594,101.7813 C19.3125,101.7813 18.0156,100.6875 18.0156,98.9844 L18.0156,97.8906 C18.0156,96.1094 19.2656,94.7969 21,94.7969 C21.5781,94.7969 22.1875,94.9531 22.6563,95.2031 C23.1406,95.4844 23.3125,95.7031 23.4063,96.1094 C23.4688,96.5156 23.5,96.6406 23.6406,96.7656 C23.7813,96.9063 24.0156,97.0156 24.2344,97.0156 C24.5,97.0156 24.7656,96.875 24.9375,96.6563 C25.0469,96.5 25.0781,96.3125 25.0781,95.8906 L25.0781,94.4688 C25.0781,94.0313 25.0625,93.9063 24.9688,93.75 C24.8125,93.4844 24.5313,93.3438 24.2344,93.3438 C23.9375,93.3438 23.7344,93.4375 23.5156,93.75 L23.3438,93.6719 Z "/><text fill="#000000" font-family="sans-serif" font-size="12" lengthAdjust="spacingAndGlyphs" textLength="137" x="35" y="102.1543">RemoverCandidaturaUI</text><line style="stroke: #A80036; stroke-width: 1.5;" x1="7" x2="174" y1="114" y2="114"/><line style="stroke: #A80036; stroke-width: 1.5;" x1="7" x2="174" y1="122" y2="122"/><!--MD5=[56bd237e13bbfeca92ac81f7a00c7e01]
class RemoverCandidaturaController--><rect fill="#FEFECE" filter="url(#f1o1floo6qp0am)" height="73.6094" id="RemoverCandidaturaController" style="stroke: #A80036; stroke-width: 1.5;" width="228" x="236" y="69"/><ellipse cx="256.4" cy="85" fill="#ADD1B2" rx="11" ry="11" style="stroke: #A80036; stroke-width: 1.0;"/><path d="M258.7438,80.6719 C257.8063,80.2344 257.2125,80.0938 256.3375,80.0938 C253.7125,80.0938 251.7125,82.1719 251.7125,84.8906 L251.7125,86.0156 C251.7125,88.5938 253.8219,90.4844 256.7125,90.4844 C257.9313,90.4844 259.0875,90.1875 259.8375,89.6406 C260.4156,89.2344 260.7438,88.7813 260.7438,88.3906 C260.7438,87.9375 260.3531,87.5469 259.8844,87.5469 C259.6656,87.5469 259.4625,87.625 259.275,87.8125 C258.8219,88.2969 258.8219,88.2969 258.6344,88.3906 C258.2125,88.6563 257.525,88.7813 256.7594,88.7813 C254.7125,88.7813 253.4156,87.6875 253.4156,85.9844 L253.4156,84.8906 C253.4156,83.1094 254.6656,81.7969 256.4,81.7969 C256.9781,81.7969 257.5875,81.9531 258.0563,82.2031 C258.5406,82.4844 258.7125,82.7031 258.8063,83.1094 C258.8688,83.5156 258.9,83.6406 259.0406,83.7656 C259.1813,83.9063 259.4156,84.0156 259.6344,84.0156 C259.9,84.0156 260.1656,83.875 260.3375,83.6563 C260.4469,83.5 260.4781,83.3125 260.4781,82.8906 L260.4781,81.4688 C260.4781,81.0313 260.4625,80.9063 260.3688,80.75 C260.2125,80.4844 259.9313,80.3438 259.6344,80.3438 C259.3375,80.3438 259.1344,80.4375 258.9156,80.75 L258.7438,80.6719 Z "/><text fill="#000000" font-family="sans-serif" font-size="12" lengthAdjust="spacingAndGlyphs" textLength="184" x="271.6" y="89.1543">RemoverCandidaturaController</text><line style="stroke: #A80036; stroke-width: 1.5;" x1="237" x2="463" y1="101" y2="101"/><line style="stroke: #A80036; stroke-width: 1.5;" x1="237" x2="463" y1="109" y2="109"/><text fill="#000000" font-family="sans-serif" font-size="11" lengthAdjust="spacingAndGlyphs" textLength="216" x="242" y="123.2104">+getAnunciosElegiveisDoFreelancer()</text><text fill="#000000" font-family="sans-serif" font-size="11" lengthAdjust="spacingAndGlyphs" textLength="189" x="242" y="136.0151">+removerCandidatura(cand, anu)</text><!--MD5=[ecaed46f78f8cfe1e9ce18477649be18]
class Plataforma--><rect fill="#FEFECE" filter="url(#f1o1floo6qp0am)" height="86.4141" id="Plataforma" style="stroke: #A80036; stroke-width: 1.5;" width="157" x="525" y="63"/><ellipse cx="568.35" cy="79" fill="#ADD1B2" rx="11" ry="11" style="stroke: #A80036; stroke-width: 1.0;"/><path d="M570.6938,74.6719 C569.7563,74.2344 569.1625,74.0938 568.2875,74.0938 C565.6625,74.0938 563.6625,76.1719 563.6625,78.8906 L563.6625,80.0156 C563.6625,82.5938 565.7719,84.4844 568.6625,84.4844 C569.8813,84.4844 571.0375,84.1875 571.7875,83.6406 C572.3656,83.2344 572.6938,82.7813 572.6938,82.3906 C572.6938,81.9375 572.3031,81.5469 571.8344,81.5469 C571.6156,81.5469 571.4125,81.625 571.225,81.8125 C570.7719,82.2969 570.7719,82.2969 570.5844,82.3906 C570.1625,82.6563 569.475,82.7813 568.7094,82.7813 C566.6625,82.7813 565.3656,81.6875 565.3656,79.9844 L565.3656,78.8906 C565.3656,77.1094 566.6156,75.7969 568.35,75.7969 C568.9281,75.7969 569.5375,75.9531 570.0063,76.2031 C570.4906,76.4844 570.6625,76.7031 570.7563,77.1094 C570.8188,77.5156 570.85,77.6406 570.9906,77.7656 C571.1313,77.9063 571.3656,78.0156 571.5844,78.0156 C571.85,78.0156 572.1156,77.875 572.2875,77.6563 C572.3969,77.5 572.4281,77.3125 572.4281,76.8906 L572.4281,75.4688 C572.4281,75.0313 572.4125,74.9063 572.3188,74.75 C572.1625,74.4844 571.8813,74.3438 571.5844,74.3438 C571.2875,74.3438 571.0844,74.4375 570.8656,74.75 L570.6938,74.6719 Z "/><text fill="#000000" font-family="sans-serif" font-size="12" lengthAdjust="spacingAndGlyphs" textLength="62" x="588.65" y="83.1543">Plataforma</text><line style="stroke: #A80036; stroke-width: 1.5;" x1="526" x2="681" y1="95" y2="95"/><text fill="#000000" font-family="sans-serif" font-size="11" lengthAdjust="spacingAndGlyphs" textLength="106" x="531" y="109.2104">-String designacao</text><line style="stroke: #A80036; stroke-width: 1.5;" x1="526" x2="681" y1="115.8047" y2="115.8047"/><text fill="#000000" font-family="sans-serif" font-size="11" lengthAdjust="spacingAndGlyphs" textLength="145" x="531" y="130.0151">+getRegistoFreelancers()</text><text fill="#000000" font-family="sans-serif" font-size="11" lengthAdjust="spacingAndGlyphs" textLength="129" x="531" y="142.8198">+getRegistoAnuncios()</text><!--MD5=[5989a2e3174efcfc62cf38168ac2ffc8]
class RegistoFreelancer--><rect fill="#FEFECE" filter="url(#f1o1floo6qp0am)" height="60.8047" id="RegistoFreelancer" style="stroke: #A80036; stroke-width: 1.5;" width="187" x="822" y="8.5"/><ellipse cx="857.25" cy="24.5" fill="#ADD1B2" rx="11" ry="11" style="stroke: #A80036; stroke-width: 1.0;"/><path d="M859.5938,20.1719 C858.6563,19.7344 858.0625,19.5938 857.1875,19.5938 C854.5625,19.5938 852.5625,21.6719 852.5625,24.3906 L852.5625,25.5156 C852.5625,28.0938 854.6719,29.9844 857.5625,29.9844 C858.7813,29.9844 859.9375,29.6875 860.6875,29.1406 C861.2656,28.7344 861.5938,28.2813 861.5938,27.8906 C861.5938,27.4375 861.2031,27.0469 860.7344,27.0469 C860.5156,27.0469 860.3125,27.125 860.125,27.3125 C859.6719,27.7969 859.6719,27.7969 859.4844,27.8906 C859.0625,28.1563 858.375,28.2813 857.6094,28.2813 C855.5625,28.2813 854.2656,27.1875 854.2656,25.4844 L854.2656,24.3906 C854.2656,22.6094 855.5156,21.2969 857.25,21.2969 C857.8281,21.2969 858.4375,21.4531 858.9063,21.7031 C859.3906,21.9844 859.5625,22.2031 859.6563,22.6094 C859.7188,23.0156 859.75,23.1406 859.8906,23.2656 C860.0313,23.4063 860.2656,23.5156 860.4844,23.5156 C860.75,23.5156 861.0156,23.375 861.1875,23.1563 C861.2969,23 861.3281,22.8125 861.3281,22.3906 L861.3281,20.9688 C861.3281,20.5313 861.3125,20.4063 861.2188,20.25 C861.0625,19.9844 860.7813,19.8438 860.4844,19.8438 C860.1875,19.8438 859.9844,19.9375 859.7656,20.25 L859.5938,20.1719 Z "/><text fill="#000000" font-family="sans-serif" font-size="12" lengthAdjust="spacingAndGlyphs" textLength="110" x="875.75" y="28.6543">RegistoFreelancer</text><line style="stroke: #A80036; stroke-width: 1.5;" x1="823" x2="1008" y1="40.5" y2="40.5"/><line style="stroke: #A80036; stroke-width: 1.5;" x1="823" x2="1008" y1="48.5" y2="48.5"/><text fill="#000000" font-family="sans-serif" font-size="11" lengthAdjust="spacingAndGlyphs" textLength="175" x="828" y="62.7104">+getFreelancerByEmail(email)</text><!--MD5=[a7dddfa65532da486ef518ad0cedfd89]
class RegistoAnuncios--><rect fill="#FEFECE" filter="url(#f1o1floo6qp0am)" height="60.8047" id="RegistoAnuncios" style="stroke: #A80036; stroke-width: 1.5;" width="261" x="785" y="117.5"/><ellipse cx="861.75" cy="133.5" fill="#ADD1B2" rx="11" ry="11" style="stroke: #A80036; stroke-width: 1.0;"/><path d="M864.0938,129.1719 C863.1563,128.7344 862.5625,128.5938 861.6875,128.5938 C859.0625,128.5938 857.0625,130.6719 857.0625,133.3906 L857.0625,134.5156 C857.0625,137.0938 859.1719,138.9844 862.0625,138.9844 C863.2813,138.9844 864.4375,138.6875 865.1875,138.1406 C865.7656,137.7344 866.0938,137.2813 866.0938,136.8906 C866.0938,136.4375 865.7031,136.0469 865.2344,136.0469 C865.0156,136.0469 864.8125,136.125 864.625,136.3125 C864.1719,136.7969 864.1719,136.7969 863.9844,136.8906 C863.5625,137.1563 862.875,137.2813 862.1094,137.2813 C860.0625,137.2813 858.7656,136.1875 858.7656,134.4844 L858.7656,133.3906 C858.7656,131.6094 860.0156,130.2969 861.75,130.2969 C862.3281,130.2969 862.9375,130.4531 863.4063,130.7031 C863.8906,130.9844 864.0625,131.2031 864.1563,131.6094 C864.2188,132.0156 864.25,132.1406 864.3906,132.2656 C864.5313,132.4063 864.7656,132.5156 864.9844,132.5156 C865.25,132.5156 865.5156,132.375 865.6875,132.1563 C865.7969,132 865.8281,131.8125 865.8281,131.3906 L865.8281,129.9688 C865.8281,129.5313 865.8125,129.4063 865.7188,129.25 C865.5625,128.9844 865.2813,128.8438 864.9844,128.8438 C864.6875,128.8438 864.4844,128.9375 864.2656,129.25 L864.0938,129.1719 Z "/><text fill="#000000" font-family="sans-serif" font-size="12" lengthAdjust="spacingAndGlyphs" textLength="99" x="882.25" y="137.6543">RegistoAnuncios</text><line style="stroke: #A80036; stroke-width: 1.5;" x1="786" x2="1045" y1="149.5" y2="149.5"/><line style="stroke: #A80036; stroke-width: 1.5;" x1="786" x2="1045" y1="157.5" y2="157.5"/><text fill="#000000" font-family="sans-serif" font-size="11" lengthAdjust="spacingAndGlyphs" textLength="249" x="791" y="171.7104">+getCandidaturasAtivasDoFreelancer(freel)</text><!--MD5=[1f687b5315377fe49fca59b457947463]
class Freelancer--><rect fill="#FEFECE" filter="url(#f1o1floo6qp0am)" height="99.2188" id="Freelancer" style="stroke: #A80036; stroke-width: 1.5;" width="102" x="2084" y="26.5"/><ellipse cx="2101.25" cy="42.5" fill="#ADD1B2" rx="11" ry="11" style="stroke: #A80036; stroke-width: 1.0;"/><path d="M2103.5938,38.1719 C2102.6563,37.7344 2102.0625,37.5938 2101.1875,37.5938 C2098.5625,37.5938 2096.5625,39.6719 2096.5625,42.3906 L2096.5625,43.5156 C2096.5625,46.0938 2098.6719,47.9844 2101.5625,47.9844 C2102.7813,47.9844 2103.9375,47.6875 2104.6875,47.1406 C2105.2656,46.7344 2105.5938,46.2813 2105.5938,45.8906 C2105.5938,45.4375 2105.2031,45.0469 2104.7344,45.0469 C2104.5156,45.0469 2104.3125,45.125 2104.125,45.3125 C2103.6719,45.7969 2103.6719,45.7969 2103.4844,45.8906 C2103.0625,46.1563 2102.375,46.2813 2101.6094,46.2813 C2099.5625,46.2813 2098.2656,45.1875 2098.2656,43.4844 L2098.2656,42.3906 C2098.2656,40.6094 2099.5156,39.2969 2101.25,39.2969 C2101.8281,39.2969 2102.4375,39.4531 2102.9063,39.7031 C2103.3906,39.9844 2103.5625,40.2031 2103.6563,40.6094 C2103.7188,41.0156 2103.75,41.1406 2103.8906,41.2656 C2104.0313,41.4063 2104.2656,41.5156 2104.4844,41.5156 C2104.75,41.5156 2105.0156,41.375 2105.1875,41.1563 C2105.2969,41 2105.3281,40.8125 2105.3281,40.3906 L2105.3281,38.9688 C2105.3281,38.5313 2105.3125,38.4063 2105.2188,38.25 C2105.0625,37.9844 2104.7813,37.8438 2104.4844,37.8438 C2104.1875,37.8438 2103.9844,37.9375 2103.7656,38.25 L2103.5938,38.1719 Z "/><text fill="#000000" font-family="sans-serif" font-size="12" lengthAdjust="spacingAndGlyphs" textLength="65" x="2115.75" y="46.6543">Freelancer</text><line style="stroke: #A80036; stroke-width: 1.5;" x1="2085" x2="2185" y1="58.5" y2="58.5"/><text fill="#000000" font-family="sans-serif" font-size="11" lengthAdjust="spacingAndGlyphs" textLength="74" x="2090" y="72.7104">-String nome</text><text fill="#000000" font-family="sans-serif" font-size="11" lengthAdjust="spacingAndGlyphs" textLength="58" x="2090" y="85.5151">-String NIF</text><text fill="#000000" font-family="sans-serif" font-size="11" lengthAdjust="spacingAndGlyphs" textLength="90" x="2090" y="98.3198">-String telefone</text><text fill="#000000" font-family="sans-serif" font-size="11" lengthAdjust="spacingAndGlyphs" textLength="73" x="2090" y="111.1245">-String email</text><line style="stroke: #A80036; stroke-width: 1.5;" x1="2085" x2="2185" y1="117.7188" y2="117.7188"/><!--MD5=[19db0db7353a4bf63eefc676e5ba9b80]
class Anuncio--><rect fill="#FEFECE" filter="url(#f1o1floo6qp0am)" height="86.4141" id="Anuncio" style="stroke: #A80036; stroke-width: 1.5;" width="122" x="1153" y="105"/><ellipse cx="1187.35" cy="121" fill="#ADD1B2" rx="11" ry="11" style="stroke: #A80036; stroke-width: 1.0;"/><path d="M1189.6938,116.6719 C1188.7563,116.2344 1188.1625,116.0938 1187.2875,116.0938 C1184.6625,116.0938 1182.6625,118.1719 1182.6625,120.8906 L1182.6625,122.0156 C1182.6625,124.5938 1184.7719,126.4844 1187.6625,126.4844 C1188.8813,126.4844 1190.0375,126.1875 1190.7875,125.6406 C1191.3656,125.2344 1191.6938,124.7813 1191.6938,124.3906 C1191.6938,123.9375 1191.3031,123.5469 1190.8344,123.5469 C1190.6156,123.5469 1190.4125,123.625 1190.225,123.8125 C1189.7719,124.2969 1189.7719,124.2969 1189.5844,124.3906 C1189.1625,124.6563 1188.475,124.7813 1187.7094,124.7813 C1185.6625,124.7813 1184.3656,123.6875 1184.3656,121.9844 L1184.3656,120.8906 C1184.3656,119.1094 1185.6156,117.7969 1187.35,117.7969 C1187.9281,117.7969 1188.5375,117.9531 1189.0063,118.2031 C1189.4906,118.4844 1189.6625,118.7031 1189.7563,119.1094 C1189.8188,119.5156 1189.85,119.6406 1189.9906,119.7656 C1190.1313,119.9063 1190.3656,120.0156 1190.5844,120.0156 C1190.85,120.0156 1191.1156,119.875 1191.2875,119.6563 C1191.3969,119.5 1191.4281,119.3125 1191.4281,118.8906 L1191.4281,117.4688 C1191.4281,117.0313 1191.4125,116.9063 1191.3188,116.75 C1191.1625,116.4844 1190.8813,116.3438 1190.5844,116.3438 C1190.2875,116.3438 1190.0844,116.4375 1189.8656,116.75 L1189.6938,116.6719 Z "/><text fill="#000000" font-family="sans-serif" font-size="12" lengthAdjust="spacingAndGlyphs" textLength="47" x="1205.65" y="125.1543">Anuncio</text><line style="stroke: #A80036; stroke-width: 1.5;" x1="1154" x2="1274" y1="137" y2="137"/><text fill="#000000" font-family="sans-serif" font-size="11" lengthAdjust="spacingAndGlyphs" textLength="110" x="1159" y="151.2104">-Period publicitacao</text><text fill="#000000" font-family="sans-serif" font-size="11" lengthAdjust="spacingAndGlyphs" textLength="109" x="1159" y="164.0151">-Period candidatura</text><text fill="#000000" font-family="sans-serif" font-size="11" lengthAdjust="spacingAndGlyphs" textLength="91" x="1159" y="176.8198">-Period seriacao</text><line style="stroke: #A80036; stroke-width: 1.5;" x1="1154" x2="1274" y1="183.4141" y2="183.4141"/><!--MD5=[ced2a86ae8bdfec1c757b7c305a75b1d]
class ListaCandidaturas--><rect fill="#FEFECE" filter="url(#f1o1floo6qp0am)" height="73.6094" id="ListaCandidaturas" style="stroke: #A80036; stroke-width: 1.5;" width="226" x="1378" y="111"/><ellipse cx="1434.25" cy="127" fill="#ADD1B2" rx="11" ry="11" style="stroke: #A80036; stroke-width: 1.0;"/><path d="M1436.5938,122.6719 C1435.6563,122.2344 1435.0625,122.0938 1434.1875,122.0938 C1431.5625,122.0938 1429.5625,124.1719 1429.5625,126.8906 L1429.5625,128.0156 C1429.5625,130.5938 1431.6719,132.4844 1434.5625,132.4844 C1435.7813,132.4844 1436.9375,132.1875 1437.6875,131.6406 C1438.2656,131.2344 1438.5938,130.7813 1438.5938,130.3906 C1438.5938,129.9375 1438.2031,129.5469 1437.7344,129.5469 C1437.5156,129.5469 1437.3125,129.625 1437.125,129.8125 C1436.6719,130.2969 1436.6719,130.2969 1436.4844,130.3906 C1436.0625,130.6563 1435.375,130.7813 1434.6094,130.7813 C1432.5625,130.7813 1431.2656,129.6875 1431.2656,127.9844 L1431.2656,126.8906 C1431.2656,125.1094 1432.5156,123.7969 1434.25,123.7969 C1434.8281,123.7969 1435.4375,123.9531 1435.9063,124.2031 C1436.3906,124.4844 1436.5625,124.7031 1436.6563,125.1094 C1436.7188,125.5156 1436.75,125.6406 1436.8906,125.7656 C1437.0313,125.9063 1437.2656,126.0156 1437.4844,126.0156 C1437.75,126.0156 1438.0156,125.875 1438.1875,125.6563 C1438.2969,125.5 1438.3281,125.3125 1438.3281,124.8906 L1438.3281,123.4688 C1438.3281,123.0313 1438.3125,122.9063 1438.2188,122.75 C1438.0625,122.4844 1437.7813,122.3438 1437.4844,122.3438 C1437.1875,122.3438 1436.9844,122.4375 1436.7656,122.75 L1436.5938,122.6719 Z "/><text fill="#000000" font-family="sans-serif" font-size="12" lengthAdjust="spacingAndGlyphs" textLength="105" x="1454.75" y="131.1543">ListaCandidaturas</text><line style="stroke: #A80036; stroke-width: 1.5;" x1="1379" x2="1603" y1="143" y2="143"/><line style="stroke: #A80036; stroke-width: 1.5;" x1="1379" x2="1603" y1="151" y2="151"/><text fill="#000000" font-family="sans-serif" font-size="11" lengthAdjust="spacingAndGlyphs" textLength="214" x="1384" y="165.2104">+getCandidaturasDoFreelancer(freel)</text><text fill="#000000" font-family="sans-serif" font-size="11" lengthAdjust="spacingAndGlyphs" textLength="161" x="1384" y="178.0151">+removerCandidatura(cand)</text><!--MD5=[475c5b924ed41035684e2831311827d2]
class Candidatura--><rect fill="#FEFECE" filter="url(#f1o1floo6qp0am)" height="112.0234" id="Candidatura" style="stroke: #A80036; stroke-width: 1.5;" width="150" x="1711" y="92"/><ellipse cx="1747.15" cy="108" fill="#ADD1B2" rx="11" ry="11" style="stroke: #A80036; stroke-width: 1.0;"/><path d="M1749.4938,103.6719 C1748.5563,103.2344 1747.9625,103.0938 1747.0875,103.0938 C1744.4625,103.0938 1742.4625,105.1719 1742.4625,107.8906 L1742.4625,109.0156 C1742.4625,111.5938 1744.5719,113.4844 1747.4625,113.4844 C1748.6813,113.4844 1749.8375,113.1875 1750.5875,112.6406 C1751.1656,112.2344 1751.4938,111.7813 1751.4938,111.3906 C1751.4938,110.9375 1751.1031,110.5469 1750.6344,110.5469 C1750.4156,110.5469 1750.2125,110.625 1750.025,110.8125 C1749.5719,111.2969 1749.5719,111.2969 1749.3844,111.3906 C1748.9625,111.6563 1748.275,111.7813 1747.5094,111.7813 C1745.4625,111.7813 1744.1656,110.6875 1744.1656,108.9844 L1744.1656,107.8906 C1744.1656,106.1094 1745.4156,104.7969 1747.15,104.7969 C1747.7281,104.7969 1748.3375,104.9531 1748.8063,105.2031 C1749.2906,105.4844 1749.4625,105.7031 1749.5563,106.1094 C1749.6188,106.5156 1749.65,106.6406 1749.7906,106.7656 C1749.9313,106.9063 1750.1656,107.0156 1750.3844,107.0156 C1750.65,107.0156 1750.9156,106.875 1751.0875,106.6563 C1751.1969,106.5 1751.2281,106.3125 1751.2281,105.8906 L1751.2281,104.4688 C1751.2281,104.0313 1751.2125,103.9063 1751.1188,103.75 C1750.9625,103.4844 1750.6813,103.3438 1750.3844,103.3438 C1750.0875,103.3438 1749.8844,103.4375 1749.6656,103.75 L1749.4938,103.6719 Z "/><text fill="#000000" font-family="sans-serif" font-size="12" lengthAdjust="spacingAndGlyphs" textLength="71" x="1765.85" y="112.1543">Candidatura</text><line style="stroke: #A80036; stroke-width: 1.5;" x1="1712" x2="1860" y1="124" y2="124"/><text fill="#000000" font-family="sans-serif" font-size="11" lengthAdjust="spacingAndGlyphs" textLength="129" x="1717" y="138.2104">-Date dataCandidatura</text><text fill="#000000" font-family="sans-serif" font-size="11" lengthAdjust="spacingAndGlyphs" textLength="138" x="1717" y="151.0151">-Double valorPretendido</text><text fill="#000000" font-family="sans-serif" font-size="11" lengthAdjust="spacingAndGlyphs" textLength="99" x="1717" y="163.8198">-Integer numDias</text><text fill="#000000" font-family="sans-serif" font-size="11" lengthAdjust="spacingAndGlyphs" textLength="135" x="1717" y="176.6245">-String txtApresentacao</text><text fill="#000000" font-family="sans-serif" font-size="11" lengthAdjust="spacingAndGlyphs" textLength="113" x="1717" y="189.4292">-String txtMotivacao</text><line style="stroke: #A80036; stroke-width: 1.5;" x1="1712" x2="1860" y1="196.0234" y2="196.0234"/><!--MD5=[3cfa4ed15c4403e6bf342158a461efdb]
link RemoverCandidaturaUI to RemoverCandidaturaController--><path d="M175.103,106 C192.822,106 211.846,106 230.578,106 " fill="none" id="RemoverCandidaturaUI-&gt;RemoverCandidaturaController" style="stroke: #A80036; stroke-width: 1.0; stroke-dasharray: 7.0,7.0;"/><polygon fill="#A80036" points="235.852,106,226.852,102,230.852,106,226.852,110,235.852,106" style="stroke: #A80036; stroke-width: 1.0;"/><!--MD5=[259027ada0a2f49a371f037d601fd2a6]
link RemoverCandidaturaController to Plataforma--><path d="M464.243,106 C482.793,106 501.711,106 519.358,106 " fill="none" id="RemoverCandidaturaController-&gt;Plataforma" style="stroke: #A80036; stroke-width: 1.0; stroke-dasharray: 7.0,7.0;"/><polygon fill="#A80036" points="524.792,106,515.792,102,519.792,106,515.792,110,524.792,106" style="stroke: #A80036; stroke-width: 1.0;"/><!--MD5=[bbfdafddd9ea00c62e07211a9134b9f7]
link RemoverCandidaturaController to RegistoFreelancer--><path d="M439.378,68.851 C466.378,59.193 496.479,50.081 525,45 C623.052,27.533 737.188,28.176 816.456,31.874 " fill="none" id="RemoverCandidaturaController-&gt;RegistoFreelancer" style="stroke: #A80036; stroke-width: 1.0; stroke-dasharray: 7.0,7.0;"/><polygon fill="#A80036" points="821.626,32.122,812.8271,27.6971,816.6317,31.8834,812.4454,35.688,821.626,32.122" style="stroke: #A80036; stroke-width: 1.0;"/><!--MD5=[b2dcb8df1dbcd742164a93abd39836a6]
link RemoverCandidaturaController to RegistoAnuncios--><path d="M438.437,143.1043 C465.663,152.891 496.125,162.0853 525,167 C608.753,181.2556 703.988,176.9699 779.323,168.895 " fill="none" id="RemoverCandidaturaController-&gt;RegistoAnuncios" style="stroke: #A80036; stroke-width: 1.0; stroke-dasharray: 7.0,7.0;"/><polygon fill="#A80036" points="784.712,168.3073,775.3318,165.3054,779.7414,168.8487,776.1981,173.2584,784.712,168.3073" style="stroke: #A80036; stroke-width: 1.0;"/><!--MD5=[463821f61fd53759657c2ac769a7e835]
link Plataforma to RegistoAnuncios--><path d="M682.326,116.5442 C711.778,120.5345 746.221,125.201 779.424,129.6994 " fill="none" id="Plataforma-&gt;RegistoAnuncios" style="stroke: #A80036; stroke-width: 1.0;"/><polygon fill="#A80036" points="784.742,130.4198,776.3607,125.2475,779.7873,129.7484,775.2864,133.175,784.742,130.4198" style="stroke: #A80036; stroke-width: 1.0;"/><text fill="#000000" font-family="sans-serif" font-size="13" lengthAdjust="spacingAndGlyphs" textLength="41" x="713" y="116.0669">possui</text><text fill="#000000" font-family="sans-serif" font-size="13" lengthAdjust="spacingAndGlyphs" textLength="8" x="689.9615" y="130.2616">1</text><text fill="#000000" font-family="sans-serif" font-size="13" lengthAdjust="spacingAndGlyphs" textLength="8" x="768.9513" y="141.9134">1</text><!--MD5=[957336f8f7652c1733534e96e2968a5f]
link Plataforma to RegistoFreelancer--><path d="M682.326,89.18 C723.082,80.371 773.396,69.497 816.755,60.126 " fill="none" id="Plataforma-&gt;RegistoFreelancer" style="stroke: #A80036; stroke-width: 1.0;"/><polygon fill="#A80036" points="821.736,59.049,812.0943,57.0395,816.8487,60.1047,813.7835,64.8592,821.736,59.049" style="stroke: #A80036; stroke-width: 1.0;"/><text fill="#000000" font-family="sans-serif" font-size="13" lengthAdjust="spacingAndGlyphs" textLength="41" x="713" y="71.0669">possui</text><text fill="#000000" font-family="sans-serif" font-size="13" lengthAdjust="spacingAndGlyphs" textLength="8" x="689.9615" y="100.3747">1</text><text fill="#000000" font-family="sans-serif" font-size="13" lengthAdjust="spacingAndGlyphs" textLength="8" x="805.9454" y="73.3243">1</text><!--MD5=[2903b91671052adea6f5e59eb6d59b42]
link RegistoAnuncios to Anuncio--><path d="M1046.12,148 C1081.18,148 1117.65,148 1147.52,148 " fill="none" id="RegistoAnuncios-&gt;Anuncio" style="stroke: #A80036; stroke-width: 1.0;"/><polygon fill="#A80036" points="1152.64,148,1143.64,144,1147.64,148,1143.64,152,1152.64,148" style="stroke: #A80036; stroke-width: 1.0;"/><text fill="#000000" font-family="sans-serif" font-size="13" lengthAdjust="spacingAndGlyphs" textLength="45" x="1077" y="144.0669">agrega</text><text fill="#000000" font-family="sans-serif" font-size="13" lengthAdjust="spacingAndGlyphs" textLength="8" x="1053.9027" y="160.51">1</text><text fill="#000000" font-family="sans-serif" font-size="13" lengthAdjust="spacingAndGlyphs" textLength="7" x="1138.1406" y="160.9178">*</text><!--MD5=[936379bbb1fbe67f1148bc2fdcd3e3c1]
link Anuncio to ListaCandidaturas--><path d="M1275.01,148 C1303.59,148 1338.8,148 1372.39,148 " fill="none" id="Anuncio-&gt;ListaCandidaturas" style="stroke: #A80036; stroke-width: 1.0;"/><polygon fill="#A80036" points="1377.76,148,1368.76,144,1372.76,148,1368.76,152,1377.76,148" style="stroke: #A80036; stroke-width: 1.0;"/><text fill="#000000" font-family="sans-serif" font-size="13" lengthAdjust="spacingAndGlyphs" textLength="41" x="1306" y="144.0669">possui</text><text fill="#000000" font-family="sans-serif" font-size="13" lengthAdjust="spacingAndGlyphs" textLength="8" x="1282.9331" y="160.9638">1</text><text fill="#000000" font-family="sans-serif" font-size="13" lengthAdjust="spacingAndGlyphs" textLength="8" x="1361.8829" y="160.5884">1</text><!--MD5=[b3c62d3bd372a34b7ee6d6af17619677]
link ListaCandidaturas to Candidatura--><path d="M1604.02,148 C1637.78,148 1674.11,148 1705.31,148 " fill="none" id="ListaCandidaturas-&gt;Candidatura" style="stroke: #A80036; stroke-width: 1.0;"/><polygon fill="#A80036" points="1710.67,148,1701.67,144,1705.67,148,1701.67,152,1710.67,148" style="stroke: #A80036; stroke-width: 1.0;"/><text fill="#000000" font-family="sans-serif" font-size="13" lengthAdjust="spacingAndGlyphs" textLength="45" x="1635" y="144.0669">agrega</text><text fill="#000000" font-family="sans-serif" font-size="13" lengthAdjust="spacingAndGlyphs" textLength="8" x="1611.8823" y="160.5884">1</text><text fill="#000000" font-family="sans-serif" font-size="13" lengthAdjust="spacingAndGlyphs" textLength="7" x="1695.9102" y="160.8106">*</text><!--MD5=[a66e767a4304f5fa76db98d7839a7a61]
link Candidatura to Freelancer--><path d="M1861.01,132.6425 C1926.22,119.1121 2019.75,99.706 2078.66,87.483 " fill="none" id="Candidatura-&gt;Freelancer" style="stroke: #A80036; stroke-width: 1.0;"/><polygon fill="#A80036" points="2083.9,86.396,2074.2699,84.3319,2079.0068,87.424,2075.9147,92.161,2083.9,86.396" style="stroke: #A80036; stroke-width: 1.0;"/><text fill="#000000" font-family="sans-serif" font-size="13" lengthAdjust="spacingAndGlyphs" textLength="148" x="1892" y="89.0669">realizada/removida por</text><polygon fill="#000000" points="2043,83.0664,2049,86.0664,2043,89.0664,2043,83.0664" style="stroke: #000000; stroke-width: 1.0;"/><text fill="#000000" font-family="sans-serif" font-size="13" lengthAdjust="spacingAndGlyphs" textLength="7" x="1869.1063" y="143.9047">*</text><text fill="#000000" font-family="sans-serif" font-size="13" lengthAdjust="spacingAndGlyphs" textLength="8" x="2068.1516" y="100.9735">1</text><!--MD5=[95795e0b4ecb0b567ae2ce3910745252]
link RegistoFreelancer to Freelancer--><path d="M1009.31,39 C1067.76,39 1144.79,39 1213,39 C1213,39 1213,39 1787,39 C1890.48,39 2010.34,55.47 2078.66,66.433 " fill="none" id="RegistoFreelancer-&gt;Freelancer" style="stroke: #A80036; stroke-width: 1.0;"/><polygon fill="#A80036" points="2083.9,67.278,2075.6559,61.8896,2078.9644,66.478,2074.376,69.7865,2083.9,67.278" style="stroke: #A80036; stroke-width: 1.0;"/><text fill="#000000" font-family="sans-serif" font-size="13" lengthAdjust="spacingAndGlyphs" textLength="45" x="1468.5" y="35.0669">agrega</text><text fill="#000000" font-family="sans-serif" font-size="13" lengthAdjust="spacingAndGlyphs" textLength="8" x="1017.1042" y="51.6776">1</text><text fill="#000000" font-family="sans-serif" font-size="13" lengthAdjust="spacingAndGlyphs" textLength="7" x="2068.8806" y="79.1591">*</text><!--MD5=[9954b4a9babeb4969a46f53a820f2bf2]
@startuml
skinparam classAttributeIconSize 0
left to right direction

class RemoverCandidaturaUI {
}

class RemoverCandidaturaController {
  +getAnunciosElegiveisDoFreelancer()
  +removerCandidatura(cand, anu)
}

class Plataforma {
  -String designacao
  +getRegistoFreelancers()
  +getRegistoAnuncios()
}

class RegistoFreelancer
{
 +getFreelancerByEmail(email)
}

class RegistoAnuncios
{
  +getCandidaturasAtivasDoFreelancer(freel)
}

class Freelancer {
    -String nome
    -String NIF
    -String telefone
    -String email
}

class Anuncio
{
  -Period publicitacao
  -Period candidatura
  -Period seriacao
}

class ListaCandidaturas
{
  +getCandidaturasDoFreelancer(freel)
  +removerCandidatura(cand)
}

class Candidatura
{
  -Date dataCandidatura
  -Double valorPretendido
  -Integer numDias
  -String txtApresentacao
  -String txtMotivacao
}

RemoverCandidaturaUI ..> RemoverCandidaturaController 
RemoverCandidaturaController ..> Plataforma
RemoverCandidaturaController ..> RegistoFreelancer
RemoverCandidaturaController ..> RegistoAnuncios

Plataforma "1" - -> "1" RegistoAnuncios : possui
Plataforma "1" - -> "1" RegistoFreelancer : possui

RegistoAnuncios "1" - -> "*" Anuncio : agrega
Anuncio "1" - -> "1" ListaCandidaturas : possui
ListaCandidaturas "1" - -> "*" Candidatura : agrega

Candidatura "*" - -> "1"  Freelancer: realizada/removida por >

RegistoFreelancer "1" - -> "*" Freelancer: agrega
@enduml

PlantUML version 1.2020.10(Sun May 17 09:48:49 UTC 2020)
(GPL source distribution)
Java Runtime: Java(TM) SE Runtime Environment
JVM: Java HotSpot(TM) 64-Bit Server VM
Operating System: Linux
Default Encoding: UTF-8
Language: en
Country: US
--></g></svg>