<?xml version="1.0" encoding="UTF-8" standalone="no"?><svg xmlns="http://www.w3.org/2000/svg" xmlns:xlink="http://www.w3.org/1999/xlink" contentScriptType="application/ecmascript" contentStyleType="text/css" height="461px" preserveAspectRatio="none" style="width:2328px;height:461px;" version="1.1" viewBox="0 0 2328 461" width="2328px" zoomAndPan="magnify"><defs><filter height="300%" id="f16ei4cvu288wv" width="300%" x="-1" y="-1"><feGaussianBlur result="blurOut" stdDeviation="2.0"/><feColorMatrix in="blurOut" result="blurOut2" type="matrix" values="0 0 0 0 0 0 0 0 0 0 0 0 0 0 0 0 0 0 .4 0"/><feOffset dx="4.0" dy="4.0" in="blurOut2" result="blurOut3"/><feBlend in="SourceGraphic" in2="blurOut3" mode="normal"/></filter></defs><g><!--MD5=[ecaed46f78f8cfe1e9ce18477649be18]
class Plataforma--><rect fill="#FEFECE" filter="url(#f16ei4cvu288wv)" height="52.8047" id="Plataforma" style="stroke: #A80036; stroke-width: 1.5;" width="120" x="6" y="214.487"/><ellipse cx="30" cy="230.487" fill="#ADD1B2" rx="11" ry="11" style="stroke: #A80036; stroke-width: 1.0;"/><path d="M32.3438,226.1589 C31.4063,225.7214 30.8125,225.5808 29.9375,225.5808 C27.3125,225.5808 25.3125,227.6589 25.3125,230.3776 L25.3125,231.5026 C25.3125,234.0808 27.4219,235.9714 30.3125,235.9714 C31.5313,235.9714 32.6875,235.6745 33.4375,235.1276 C34.0156,234.7214 34.3438,234.2683 34.3438,233.8776 C34.3438,233.4245 33.9531,233.0339 33.4844,233.0339 C33.2656,233.0339 33.0625,233.112 32.875,233.2995 C32.4219,233.7839 32.4219,233.7839 32.2344,233.8776 C31.8125,234.1433 31.125,234.2683 30.3594,234.2683 C28.3125,234.2683 27.0156,233.1745 27.0156,231.4714 L27.0156,230.3776 C27.0156,228.5964 28.2656,227.2839 30,227.2839 C30.5781,227.2839 31.1875,227.4401 31.6563,227.6901 C32.1406,227.9714 32.3125,228.1901 32.4063,228.5964 C32.4688,229.0026 32.5,229.1276 32.6406,229.2526 C32.7813,229.3933 33.0156,229.5026 33.2344,229.5026 C33.5,229.5026 33.7656,229.362 33.9375,229.1433 C34.0469,228.987 34.0781,228.7995 34.0781,228.3776 L34.0781,226.9558 C34.0781,226.5183 34.0625,226.3933 33.9688,226.237 C33.8125,225.9714 33.5313,225.8308 33.2344,225.8308 C32.9375,225.8308 32.7344,225.9245 32.5156,226.237 L32.3438,226.1589 Z "/><text fill="#000000" font-family="sans-serif" font-size="12" lengthAdjust="spacingAndGlyphs" textLength="68" x="46" y="234.6413">Plataforma</text><line style="stroke: #A80036; stroke-width: 1.5;" x1="7" x2="125" y1="246.487" y2="246.487"/><text fill="#000000" font-family="sans-serif" font-size="11" lengthAdjust="spacingAndGlyphs" textLength="108" x="12" y="260.6974">-String designacao</text><!--MD5=[807977ceb130c090ed5febfb6de2bdea]
class Organizacao--><rect fill="#FEFECE" filter="url(#f16ei4cvu288wv)" height="104.0234" id="Organizacao" style="stroke: #A80036; stroke-width: 1.5;" width="111" x="300" y="55.987"/><ellipse cx="315" cy="71.987" fill="#ADD1B2" rx="11" ry="11" style="stroke: #A80036; stroke-width: 1.0;"/><path d="M317.3438,67.6589 C316.4063,67.2214 315.8125,67.0808 314.9375,67.0808 C312.3125,67.0808 310.3125,69.1589 310.3125,71.8776 L310.3125,73.0026 C310.3125,75.5808 312.4219,77.4714 315.3125,77.4714 C316.5313,77.4714 317.6875,77.1745 318.4375,76.6276 C319.0156,76.2214 319.3438,75.7683 319.3438,75.3776 C319.3438,74.9245 318.9531,74.5339 318.4844,74.5339 C318.2656,74.5339 318.0625,74.612 317.875,74.7995 C317.4219,75.2839 317.4219,75.2839 317.2344,75.3776 C316.8125,75.6433 316.125,75.7683 315.3594,75.7683 C313.3125,75.7683 312.0156,74.6745 312.0156,72.9714 L312.0156,71.8776 C312.0156,70.0964 313.2656,68.7839 315,68.7839 C315.5781,68.7839 316.1875,68.9401 316.6563,69.1901 C317.1406,69.4714 317.3125,69.6901 317.4063,70.0964 C317.4688,70.5026 317.5,70.6276 317.6406,70.7526 C317.7813,70.8933 318.0156,71.0026 318.2344,71.0026 C318.5,71.0026 318.7656,70.862 318.9375,70.6433 C319.0469,70.487 319.0781,70.2995 319.0781,69.8776 L319.0781,68.4558 C319.0781,68.0183 319.0625,67.8933 318.9688,67.737 C318.8125,67.4714 318.5313,67.3308 318.2344,67.3308 C317.9375,67.3308 317.7344,67.4245 317.5156,67.737 L317.3438,67.6589 Z "/><text fill="#000000" font-family="sans-serif" font-size="12" lengthAdjust="spacingAndGlyphs" textLength="79" x="329" y="76.1413">Organizacao</text><line style="stroke: #A80036; stroke-width: 1.5;" x1="301" x2="410" y1="87.987" y2="87.987"/><text fill="#000000" font-family="sans-serif" font-size="11" lengthAdjust="spacingAndGlyphs" textLength="75" x="306" y="102.1974">-String nome</text><text fill="#000000" font-family="sans-serif" font-size="11" lengthAdjust="spacingAndGlyphs" textLength="59" x="306" y="115.0021">-String NIF</text><text fill="#000000" font-family="sans-serif" font-size="11" lengthAdjust="spacingAndGlyphs" textLength="88" x="306" y="127.8068">-String website</text><text fill="#000000" font-family="sans-serif" font-size="11" lengthAdjust="spacingAndGlyphs" textLength="91" x="306" y="140.6115">-String telefone</text><text fill="#000000" font-family="sans-serif" font-size="11" lengthAdjust="spacingAndGlyphs" textLength="74" x="306" y="153.4162">-String email</text><!--MD5=[b0f240be72c8ea8a063442502d85fc08]
class CaraterCT--><rect fill="#FEFECE" filter="url(#f16ei4cvu288wv)" height="52.8047" id="CaraterCT" style="stroke: #A80036; stroke-width: 1.5;" width="129" x="1590" y="187.487"/><ellipse cx="1619.85" cy="203.487" fill="#ADD1B2" rx="11" ry="11" style="stroke: #A80036; stroke-width: 1.0;"/><path d="M1622.1938,199.1589 C1621.2563,198.7214 1620.6625,198.5808 1619.7875,198.5808 C1617.1625,198.5808 1615.1625,200.6589 1615.1625,203.3776 L1615.1625,204.5026 C1615.1625,207.0808 1617.2719,208.9714 1620.1625,208.9714 C1621.3813,208.9714 1622.5375,208.6745 1623.2875,208.1276 C1623.8656,207.7214 1624.1938,207.2683 1624.1938,206.8776 C1624.1938,206.4245 1623.8031,206.0339 1623.3344,206.0339 C1623.1156,206.0339 1622.9125,206.112 1622.725,206.2995 C1622.2719,206.7839 1622.2719,206.7839 1622.0844,206.8776 C1621.6625,207.1433 1620.975,207.2683 1620.2094,207.2683 C1618.1625,207.2683 1616.8656,206.1745 1616.8656,204.4714 L1616.8656,203.3776 C1616.8656,201.5964 1618.1156,200.2839 1619.85,200.2839 C1620.4281,200.2839 1621.0375,200.4401 1621.5063,200.6901 C1621.9906,200.9714 1622.1625,201.1901 1622.2563,201.5964 C1622.3188,202.0026 1622.35,202.1276 1622.4906,202.2526 C1622.6313,202.3933 1622.8656,202.5026 1623.0844,202.5026 C1623.35,202.5026 1623.6156,202.362 1623.7875,202.1433 C1623.8969,201.987 1623.9281,201.7995 1623.9281,201.3776 L1623.9281,199.9558 C1623.9281,199.5183 1623.9125,199.3933 1623.8188,199.237 C1623.6625,198.9714 1623.3813,198.8308 1623.0844,198.8308 C1622.7875,198.8308 1622.5844,198.9245 1622.3656,199.237 L1622.1938,199.1589 Z "/><text fill="#000000" font-family="sans-serif" font-size="12" lengthAdjust="spacingAndGlyphs" textLength="64" x="1637.15" y="207.6413">CaraterCT</text><line style="stroke: #A80036; stroke-width: 1.5;" x1="1591" x2="1718" y1="219.487" y2="219.487"/><text fill="#000000" font-family="sans-serif" font-size="11" lengthAdjust="spacingAndGlyphs" textLength="117" x="1596" y="233.6974">-Boolean obrigatoria</text><!--MD5=[1f687b5315377fe49fca59b457947463]
class Freelancer--><rect fill="#FEFECE" filter="url(#f16ei4cvu288wv)" height="91.2188" id="Freelancer" style="stroke: #A80036; stroke-width: 1.5;" width="103" x="304" y="195.487"/><ellipse cx="321.25" cy="211.487" fill="#ADD1B2" rx="11" ry="11" style="stroke: #A80036; stroke-width: 1.0;"/><path d="M323.5938,207.1589 C322.6563,206.7214 322.0625,206.5808 321.1875,206.5808 C318.5625,206.5808 316.5625,208.6589 316.5625,211.3776 L316.5625,212.5026 C316.5625,215.0808 318.6719,216.9714 321.5625,216.9714 C322.7813,216.9714 323.9375,216.6745 324.6875,216.1276 C325.2656,215.7214 325.5938,215.2683 325.5938,214.8776 C325.5938,214.4245 325.2031,214.0339 324.7344,214.0339 C324.5156,214.0339 324.3125,214.112 324.125,214.2995 C323.6719,214.7839 323.6719,214.7839 323.4844,214.8776 C323.0625,215.1433 322.375,215.2683 321.6094,215.2683 C319.5625,215.2683 318.2656,214.1745 318.2656,212.4714 L318.2656,211.3776 C318.2656,209.5964 319.5156,208.2839 321.25,208.2839 C321.8281,208.2839 322.4375,208.4401 322.9063,208.6901 C323.3906,208.9714 323.5625,209.1901 323.6563,209.5964 C323.7188,210.0026 323.75,210.1276 323.8906,210.2526 C324.0313,210.3933 324.2656,210.5026 324.4844,210.5026 C324.75,210.5026 325.0156,210.362 325.1875,210.1433 C325.2969,209.987 325.3281,209.7995 325.3281,209.3776 L325.3281,207.9558 C325.3281,207.5183 325.3125,207.3933 325.2188,207.237 C325.0625,206.9714 324.7813,206.8308 324.4844,206.8308 C324.1875,206.8308 323.9844,206.9245 323.7656,207.237 L323.5938,207.1589 Z "/><text fill="#000000" font-family="sans-serif" font-size="12" lengthAdjust="spacingAndGlyphs" textLength="66" x="335.75" y="215.6413">Freelancer</text><line style="stroke: #A80036; stroke-width: 1.5;" x1="305" x2="406" y1="227.487" y2="227.487"/><text fill="#000000" font-family="sans-serif" font-size="11" lengthAdjust="spacingAndGlyphs" textLength="75" x="310" y="241.6974">-String nome</text><text fill="#000000" font-family="sans-serif" font-size="11" lengthAdjust="spacingAndGlyphs" textLength="59" x="310" y="254.5021">-String NIF</text><text fill="#000000" font-family="sans-serif" font-size="11" lengthAdjust="spacingAndGlyphs" textLength="91" x="310" y="267.3068">-String telefone</text><text fill="#000000" font-family="sans-serif" font-size="11" lengthAdjust="spacingAndGlyphs" textLength="74" x="310" y="280.1115">-String email</text><!--MD5=[36c1942e8942a3e4f47e6de3733e3d18]
class Endereco--><rect fill="#FEFECE" filter="url(#f16ei4cvu288wv)" height="78.4141" id="Endereco" style="stroke: #A80036; stroke-width: 1.5;" width="112" x="575.5" y="88.987"/><ellipse cx="600.4" cy="104.987" fill="#ADD1B2" rx="11" ry="11" style="stroke: #A80036; stroke-width: 1.0;"/><path d="M602.7438,100.6589 C601.8063,100.2214 601.2125,100.0808 600.3375,100.0808 C597.7125,100.0808 595.7125,102.1589 595.7125,104.8776 L595.7125,106.0026 C595.7125,108.5808 597.8219,110.4714 600.7125,110.4714 C601.9313,110.4714 603.0875,110.1745 603.8375,109.6276 C604.4156,109.2214 604.7438,108.7683 604.7438,108.3776 C604.7438,107.9245 604.3531,107.5339 603.8844,107.5339 C603.6656,107.5339 603.4625,107.612 603.275,107.7995 C602.8219,108.2839 602.8219,108.2839 602.6344,108.3776 C602.2125,108.6433 601.525,108.7683 600.7594,108.7683 C598.7125,108.7683 597.4156,107.6745 597.4156,105.9714 L597.4156,104.8776 C597.4156,103.0964 598.6656,101.7839 600.4,101.7839 C600.9781,101.7839 601.5875,101.9401 602.0563,102.1901 C602.5406,102.4714 602.7125,102.6901 602.8063,103.0964 C602.8688,103.5026 602.9,103.6276 603.0406,103.7526 C603.1813,103.8933 603.4156,104.0026 603.6344,104.0026 C603.9,104.0026 604.1656,103.862 604.3375,103.6433 C604.4469,103.487 604.4781,103.2995 604.4781,102.8776 L604.4781,101.4558 C604.4781,101.0183 604.4625,100.8933 604.3688,100.737 C604.2125,100.4714 603.9313,100.3308 603.6344,100.3308 C603.3375,100.3308 603.1344,100.4245 602.9156,100.737 L602.7438,100.6589 Z "/><text fill="#000000" font-family="sans-serif" font-size="12" lengthAdjust="spacingAndGlyphs" textLength="58" x="616.6" y="109.1413">Endereco</text><line style="stroke: #A80036; stroke-width: 1.5;" x1="576.5" x2="686.5" y1="120.987" y2="120.987"/><text fill="#000000" font-family="sans-serif" font-size="11" lengthAdjust="spacingAndGlyphs" textLength="68" x="581.5" y="135.1974">-String local</text><text fill="#000000" font-family="sans-serif" font-size="11" lengthAdjust="spacingAndGlyphs" textLength="97" x="581.5" y="148.0021">-String codPostal</text><text fill="#000000" font-family="sans-serif" font-size="11" lengthAdjust="spacingAndGlyphs" textLength="100" x="581.5" y="160.8068">-String localidade</text><!--MD5=[5dd1d6732c071e710b9290b531f2fa3b]
class Utilizador--><rect fill="#FEFECE" filter="url(#f16ei4cvu288wv)" height="78.4141" id="Utilizador" style="stroke: #A80036; stroke-width: 1.5;" width="110" x="576.5" y="201.987"/><ellipse cx="600.05" cy="217.987" fill="#ADD1B2" rx="11" ry="11" style="stroke: #A80036; stroke-width: 1.0;"/><path d="M602.3938,213.6589 C601.4563,213.2214 600.8625,213.0808 599.9875,213.0808 C597.3625,213.0808 595.3625,215.1589 595.3625,217.8776 L595.3625,219.0026 C595.3625,221.5808 597.4719,223.4714 600.3625,223.4714 C601.5813,223.4714 602.7375,223.1745 603.4875,222.6276 C604.0656,222.2214 604.3938,221.7683 604.3938,221.3776 C604.3938,220.9245 604.0031,220.5339 603.5344,220.5339 C603.3156,220.5339 603.1125,220.612 602.925,220.7995 C602.4719,221.2839 602.4719,221.2839 602.2844,221.3776 C601.8625,221.6433 601.175,221.7683 600.4094,221.7683 C598.3625,221.7683 597.0656,220.6745 597.0656,218.9714 L597.0656,217.8776 C597.0656,216.0964 598.3156,214.7839 600.05,214.7839 C600.6281,214.7839 601.2375,214.9401 601.7063,215.1901 C602.1906,215.4714 602.3625,215.6901 602.4563,216.0964 C602.5188,216.5026 602.55,216.6276 602.6906,216.7526 C602.8313,216.8933 603.0656,217.0026 603.2844,217.0026 C603.55,217.0026 603.8156,216.862 603.9875,216.6433 C604.0969,216.487 604.1281,216.2995 604.1281,215.8776 L604.1281,214.4558 C604.1281,214.0183 604.1125,213.8933 604.0188,213.737 C603.8625,213.4714 603.5813,213.3308 603.2844,213.3308 C602.9875,213.3308 602.7844,213.4245 602.5656,213.737 L602.3938,213.6589 Z "/><text fill="#000000" font-family="sans-serif" font-size="12" lengthAdjust="spacingAndGlyphs" textLength="59" x="615.95" y="222.1413">Utilizador</text><line style="stroke: #A80036; stroke-width: 1.5;" x1="577.5" x2="685.5" y1="233.987" y2="233.987"/><text fill="#000000" font-family="sans-serif" font-size="11" lengthAdjust="spacingAndGlyphs" textLength="75" x="582.5" y="248.1974">-String nome</text><text fill="#000000" font-family="sans-serif" font-size="11" lengthAdjust="spacingAndGlyphs" textLength="74" x="582.5" y="261.0021">-String email</text><text fill="#000000" font-family="sans-serif" font-size="11" lengthAdjust="spacingAndGlyphs" textLength="98" x="582.5" y="273.8068">-String password</text><!--MD5=[27c2d4bbe9f7b9d3b0ea2797cc54308a]
class Tarefa--><rect fill="#FEFECE" filter="url(#f16ei4cvu288wv)" height="116.8281" id="Tarefa" style="stroke: #A80036; stroke-width: 1.5;" width="120" x="1112" y="264.487"/><ellipse cx="1148.6" cy="280.487" fill="#ADD1B2" rx="11" ry="11" style="stroke: #A80036; stroke-width: 1.0;"/><path d="M1150.9438,276.1589 C1150.0063,275.7214 1149.4125,275.5807 1148.5375,275.5807 C1145.9125,275.5807 1143.9125,277.6589 1143.9125,280.3776 L1143.9125,281.5026 C1143.9125,284.0807 1146.0219,285.9714 1148.9125,285.9714 C1150.1313,285.9714 1151.2875,285.6745 1152.0375,285.1276 C1152.6156,284.7214 1152.9438,284.2682 1152.9438,283.8776 C1152.9438,283.4245 1152.5531,283.0339 1152.0844,283.0339 C1151.8656,283.0339 1151.6625,283.112 1151.475,283.2995 C1151.0219,283.7839 1151.0219,283.7839 1150.8344,283.8776 C1150.4125,284.1432 1149.725,284.2682 1148.9594,284.2682 C1146.9125,284.2682 1145.6156,283.1745 1145.6156,281.4714 L1145.6156,280.3776 C1145.6156,278.5964 1146.8656,277.2839 1148.6,277.2839 C1149.1781,277.2839 1149.7875,277.4401 1150.2563,277.6901 C1150.7406,277.9714 1150.9125,278.1901 1151.0063,278.5964 C1151.0688,279.0026 1151.1,279.1276 1151.2406,279.2526 C1151.3813,279.3932 1151.6156,279.5026 1151.8344,279.5026 C1152.1,279.5026 1152.3656,279.362 1152.5375,279.1432 C1152.6469,278.987 1152.6781,278.7995 1152.6781,278.3776 L1152.6781,276.9557 C1152.6781,276.5182 1152.6625,276.3932 1152.5688,276.237 C1152.4125,275.9714 1152.1313,275.8307 1151.8344,275.8307 C1151.5375,275.8307 1151.3344,275.9245 1151.1156,276.237 L1150.9438,276.1589 Z "/><text fill="#000000" font-family="sans-serif" font-size="12" lengthAdjust="spacingAndGlyphs" textLength="40" x="1167.4" y="284.6413">Tarefa</text><line style="stroke: #A80036; stroke-width: 1.5;" x1="1113" x2="1231" y1="296.487" y2="296.487"/><text fill="#000000" font-family="sans-serif" font-size="11" lengthAdjust="spacingAndGlyphs" textLength="90" x="1118" y="310.6974">-String refUnica</text><text fill="#000000" font-family="sans-serif" font-size="11" lengthAdjust="spacingAndGlyphs" textLength="108" x="1118" y="323.5021">-String designacao</text><text fill="#000000" font-family="sans-serif" font-size="11" lengthAdjust="spacingAndGlyphs" textLength="84" x="1118" y="336.3068">-String descInf</text><text fill="#000000" font-family="sans-serif" font-size="11" lengthAdjust="spacingAndGlyphs" textLength="91" x="1118" y="349.1115">-String descTec</text><text fill="#000000" font-family="sans-serif" font-size="11" lengthAdjust="spacingAndGlyphs" textLength="96" x="1118" y="361.9162">-Integer duracao</text><text fill="#000000" font-family="sans-serif" font-size="11" lengthAdjust="spacingAndGlyphs" textLength="80" x="1118" y="374.7209">-Double custo</text><!--MD5=[19db0db7353a4bf63eefc676e5ba9b80]
class Anuncio--><rect fill="#FEFECE" filter="url(#f16ei4cvu288wv)" height="104.0234" id="Anuncio" style="stroke: #A80036; stroke-width: 1.5;" width="149" x="847" y="314.987"/><ellipse cx="893.75" cy="330.987" fill="#ADD1B2" rx="11" ry="11" style="stroke: #A80036; stroke-width: 1.0;"/><path d="M896.0938,326.6589 C895.1563,326.2214 894.5625,326.0807 893.6875,326.0807 C891.0625,326.0807 889.0625,328.1589 889.0625,330.8776 L889.0625,332.0026 C889.0625,334.5807 891.1719,336.4714 894.0625,336.4714 C895.2813,336.4714 896.4375,336.1745 897.1875,335.6276 C897.7656,335.2214 898.0938,334.7682 898.0938,334.3776 C898.0938,333.9245 897.7031,333.5339 897.2344,333.5339 C897.0156,333.5339 896.8125,333.612 896.625,333.7995 C896.1719,334.2839 896.1719,334.2839 895.9844,334.3776 C895.5625,334.6432 894.875,334.7682 894.1094,334.7682 C892.0625,334.7682 890.7656,333.6745 890.7656,331.9714 L890.7656,330.8776 C890.7656,329.0964 892.0156,327.7839 893.75,327.7839 C894.3281,327.7839 894.9375,327.9401 895.4063,328.1901 C895.8906,328.4714 896.0625,328.6901 896.1563,329.0964 C896.2188,329.5026 896.25,329.6276 896.3906,329.7526 C896.5313,329.8932 896.7656,330.0026 896.9844,330.0026 C897.25,330.0026 897.5156,329.862 897.6875,329.6432 C897.7969,329.487 897.8281,329.2995 897.8281,328.8776 L897.8281,327.4557 C897.8281,327.0182 897.8125,326.8932 897.7188,326.737 C897.5625,326.4714 897.2813,326.3307 896.9844,326.3307 C896.6875,326.3307 896.4844,326.4245 896.2656,326.737 L896.0938,326.6589 Z "/><text fill="#000000" font-family="sans-serif" font-size="12" lengthAdjust="spacingAndGlyphs" textLength="47" x="914.25" y="335.1413">Anuncio</text><line style="stroke: #A80036; stroke-width: 1.5;" x1="848" x2="995" y1="346.987" y2="346.987"/><text fill="#000000" font-family="sans-serif" font-size="11" lengthAdjust="spacingAndGlyphs" textLength="97" x="853" y="361.1974">-String refTarefa</text><text fill="#000000" font-family="sans-serif" font-size="11" lengthAdjust="spacingAndGlyphs" textLength="107" x="853" y="374.0021">-String periodoPub</text><text fill="#000000" font-family="sans-serif" font-size="11" lengthAdjust="spacingAndGlyphs" textLength="115" x="853" y="386.8068">-String peridooCand</text><text fill="#000000" font-family="sans-serif" font-size="11" lengthAdjust="spacingAndGlyphs" textLength="137" x="853" y="399.6115">-String periodoSeriacao</text><text fill="#000000" font-family="sans-serif" font-size="11" lengthAdjust="spacingAndGlyphs" textLength="121" x="853" y="412.4162">-String refRegimento</text><!--MD5=[475c5b924ed41035684e2831311827d2]
class Candidatura--><rect fill="#FEFECE" filter="url(#f16ei4cvu288wv)" height="104.0234" id="Candidatura" style="stroke: #A80036; stroke-width: 1.5;" width="153" x="555" y="314.987"/><ellipse cx="590.25" cy="330.987" fill="#ADD1B2" rx="11" ry="11" style="stroke: #A80036; stroke-width: 1.0;"/><path d="M592.5938,326.6589 C591.6563,326.2214 591.0625,326.0807 590.1875,326.0807 C587.5625,326.0807 585.5625,328.1589 585.5625,330.8776 L585.5625,332.0026 C585.5625,334.5807 587.6719,336.4714 590.5625,336.4714 C591.7813,336.4714 592.9375,336.1745 593.6875,335.6276 C594.2656,335.2214 594.5938,334.7682 594.5938,334.3776 C594.5938,333.9245 594.2031,333.5339 593.7344,333.5339 C593.5156,333.5339 593.3125,333.612 593.125,333.7995 C592.6719,334.2839 592.6719,334.2839 592.4844,334.3776 C592.0625,334.6432 591.375,334.7682 590.6094,334.7682 C588.5625,334.7682 587.2656,333.6745 587.2656,331.9714 L587.2656,330.8776 C587.2656,329.0964 588.5156,327.7839 590.25,327.7839 C590.8281,327.7839 591.4375,327.9401 591.9063,328.1901 C592.3906,328.4714 592.5625,328.6901 592.6563,329.0964 C592.7188,329.5026 592.75,329.6276 592.8906,329.7526 C593.0313,329.8932 593.2656,330.0026 593.4844,330.0026 C593.75,330.0026 594.0156,329.862 594.1875,329.6432 C594.2969,329.487 594.3281,329.2995 594.3281,328.8776 L594.3281,327.4557 C594.3281,327.0182 594.3125,326.8932 594.2188,326.737 C594.0625,326.4714 593.7813,326.3307 593.4844,326.3307 C593.1875,326.3307 592.9844,326.4245 592.7656,326.737 L592.5938,326.6589 Z "/><text fill="#000000" font-family="sans-serif" font-size="12" lengthAdjust="spacingAndGlyphs" textLength="76" x="608.75" y="335.1413">Candidatura</text><line style="stroke: #A80036; stroke-width: 1.5;" x1="556" x2="707" y1="346.987" y2="346.987"/><text fill="#000000" font-family="sans-serif" font-size="11" lengthAdjust="spacingAndGlyphs" textLength="130" x="561" y="361.1974">-Date dataCandidatura</text><text fill="#000000" font-family="sans-serif" font-size="11" lengthAdjust="spacingAndGlyphs" textLength="141" x="561" y="374.0021">-Double valorPretendido</text><text fill="#000000" font-family="sans-serif" font-size="11" lengthAdjust="spacingAndGlyphs" textLength="101" x="561" y="386.8068">-Integer numDias</text><text fill="#000000" font-family="sans-serif" font-size="11" lengthAdjust="spacingAndGlyphs" textLength="138" x="561" y="399.6115">-String txtApresentacao</text><text fill="#000000" font-family="sans-serif" font-size="11" lengthAdjust="spacingAndGlyphs" textLength="114" x="561" y="412.4162">-String txtMotivacao</text><!--MD5=[1d8aa98091123bff90ff3eeff52b11fd]
class Reconhecimento--><rect fill="#FEFECE" filter="url(#f16ei4cvu288wv)" height="65.6094" id="Reconhecimento" style="stroke: #A80036; stroke-width: 1.5;" width="135" x="1587" y="7.987"/><ellipse cx="1602" cy="23.987" fill="#ADD1B2" rx="11" ry="11" style="stroke: #A80036; stroke-width: 1.0;"/><path d="M1604.3438,19.6589 C1603.4063,19.2214 1602.8125,19.0808 1601.9375,19.0808 C1599.3125,19.0808 1597.3125,21.1589 1597.3125,23.8776 L1597.3125,25.0026 C1597.3125,27.5808 1599.4219,29.4714 1602.3125,29.4714 C1603.5313,29.4714 1604.6875,29.1745 1605.4375,28.6276 C1606.0156,28.2214 1606.3438,27.7683 1606.3438,27.3776 C1606.3438,26.9245 1605.9531,26.5339 1605.4844,26.5339 C1605.2656,26.5339 1605.0625,26.612 1604.875,26.7995 C1604.4219,27.2839 1604.4219,27.2839 1604.2344,27.3776 C1603.8125,27.6433 1603.125,27.7683 1602.3594,27.7683 C1600.3125,27.7683 1599.0156,26.6745 1599.0156,24.9714 L1599.0156,23.8776 C1599.0156,22.0964 1600.2656,20.7839 1602,20.7839 C1602.5781,20.7839 1603.1875,20.9401 1603.6563,21.1901 C1604.1406,21.4714 1604.3125,21.6901 1604.4063,22.0964 C1604.4688,22.5026 1604.5,22.6276 1604.6406,22.7526 C1604.7813,22.8933 1605.0156,23.0026 1605.2344,23.0026 C1605.5,23.0026 1605.7656,22.862 1605.9375,22.6433 C1606.0469,22.487 1606.0781,22.2995 1606.0781,21.8776 L1606.0781,20.4558 C1606.0781,20.0183 1606.0625,19.8933 1605.9688,19.737 C1605.8125,19.4714 1605.5313,19.3308 1605.2344,19.3308 C1604.9375,19.3308 1604.7344,19.4245 1604.5156,19.737 L1604.3438,19.6589 Z "/><text fill="#000000" font-family="sans-serif" font-size="12" lengthAdjust="spacingAndGlyphs" textLength="103" x="1616" y="28.1413">Reconhecimento</text><line style="stroke: #A80036; stroke-width: 1.5;" x1="1588" x2="1721" y1="39.987" y2="39.987"/><text fill="#000000" font-family="sans-serif" font-size="11" lengthAdjust="spacingAndGlyphs" textLength="108" x="1593" y="54.1974">-String designacao</text><text fill="#000000" font-family="sans-serif" font-size="11" lengthAdjust="spacingAndGlyphs" textLength="67" x="1593" y="67.0021">-String data</text><!--MD5=[a322db5a7ec64d2ff8f2d6cf1831dcec]
class CompetenciaTecnica--><rect fill="#FEFECE" filter="url(#f16ei4cvu288wv)" height="78.4141" id="CompetenciaTecnica" style="stroke: #A80036; stroke-width: 1.5;" width="161" x="1872" y="110.987"/><ellipse cx="1887" cy="126.987" fill="#ADD1B2" rx="11" ry="11" style="stroke: #A80036; stroke-width: 1.0;"/><path d="M1889.3438,122.6589 C1888.4063,122.2214 1887.8125,122.0808 1886.9375,122.0808 C1884.3125,122.0808 1882.3125,124.1589 1882.3125,126.8776 L1882.3125,128.0026 C1882.3125,130.5808 1884.4219,132.4714 1887.3125,132.4714 C1888.5313,132.4714 1889.6875,132.1745 1890.4375,131.6276 C1891.0156,131.2214 1891.3438,130.7683 1891.3438,130.3776 C1891.3438,129.9245 1890.9531,129.5339 1890.4844,129.5339 C1890.2656,129.5339 1890.0625,129.612 1889.875,129.7995 C1889.4219,130.2839 1889.4219,130.2839 1889.2344,130.3776 C1888.8125,130.6433 1888.125,130.7683 1887.3594,130.7683 C1885.3125,130.7683 1884.0156,129.6745 1884.0156,127.9714 L1884.0156,126.8776 C1884.0156,125.0964 1885.2656,123.7839 1887,123.7839 C1887.5781,123.7839 1888.1875,123.9401 1888.6563,124.1901 C1889.1406,124.4714 1889.3125,124.6901 1889.4063,125.0964 C1889.4688,125.5026 1889.5,125.6276 1889.6406,125.7526 C1889.7813,125.8933 1890.0156,126.0026 1890.2344,126.0026 C1890.5,126.0026 1890.7656,125.862 1890.9375,125.6433 C1891.0469,125.487 1891.0781,125.2995 1891.0781,124.8776 L1891.0781,123.4558 C1891.0781,123.0183 1891.0625,122.8933 1890.9688,122.737 C1890.8125,122.4714 1890.5313,122.3308 1890.2344,122.3308 C1889.9375,122.3308 1889.7344,122.4245 1889.5156,122.737 L1889.3438,122.6589 Z "/><text fill="#000000" font-family="sans-serif" font-size="12" lengthAdjust="spacingAndGlyphs" textLength="129" x="1901" y="131.1413">CompetenciaTecnica</text><line style="stroke: #A80036; stroke-width: 1.5;" x1="1873" x2="2032" y1="142.987" y2="142.987"/><text fill="#000000" font-family="sans-serif" font-size="11" lengthAdjust="spacingAndGlyphs" textLength="79" x="1878" y="157.1974">-String codigo</text><text fill="#000000" font-family="sans-serif" font-size="11" lengthAdjust="spacingAndGlyphs" textLength="106" x="1878" y="170.0021">-String descBreve</text><text fill="#000000" font-family="sans-serif" font-size="11" lengthAdjust="spacingAndGlyphs" textLength="129" x="1878" y="182.8068">-String descDetalhada</text><!--MD5=[0d4fe674cc1d46ec0fc990086e50801a]
class GrauProficiencia--><rect fill="#FEFECE" filter="url(#f16ei4cvu288wv)" height="65.6094" id="GrauProficiencia" style="stroke: #A80036; stroke-width: 1.5;" width="133" x="2184" y="44.987"/><ellipse cx="2199" cy="60.987" fill="#ADD1B2" rx="11" ry="11" style="stroke: #A80036; stroke-width: 1.0;"/><path d="M2201.3438,56.6589 C2200.4063,56.2214 2199.8125,56.0808 2198.9375,56.0808 C2196.3125,56.0808 2194.3125,58.1589 2194.3125,60.8776 L2194.3125,62.0026 C2194.3125,64.5808 2196.4219,66.4714 2199.3125,66.4714 C2200.5313,66.4714 2201.6875,66.1745 2202.4375,65.6276 C2203.0156,65.2214 2203.3438,64.7683 2203.3438,64.3776 C2203.3438,63.9245 2202.9531,63.5339 2202.4844,63.5339 C2202.2656,63.5339 2202.0625,63.612 2201.875,63.7995 C2201.4219,64.2839 2201.4219,64.2839 2201.2344,64.3776 C2200.8125,64.6433 2200.125,64.7683 2199.3594,64.7683 C2197.3125,64.7683 2196.0156,63.6745 2196.0156,61.9714 L2196.0156,60.8776 C2196.0156,59.0964 2197.2656,57.7839 2199,57.7839 C2199.5781,57.7839 2200.1875,57.9401 2200.6563,58.1901 C2201.1406,58.4714 2201.3125,58.6901 2201.4063,59.0964 C2201.4688,59.5026 2201.5,59.6276 2201.6406,59.7526 C2201.7813,59.8933 2202.0156,60.0026 2202.2344,60.0026 C2202.5,60.0026 2202.7656,59.862 2202.9375,59.6433 C2203.0469,59.487 2203.0781,59.2995 2203.0781,58.8776 L2203.0781,57.4558 C2203.0781,57.0183 2203.0625,56.8933 2202.9688,56.737 C2202.8125,56.4714 2202.5313,56.3308 2202.2344,56.3308 C2201.9375,56.3308 2201.7344,56.4245 2201.5156,56.737 L2201.3438,56.6589 Z "/><text fill="#000000" font-family="sans-serif" font-size="12" lengthAdjust="spacingAndGlyphs" textLength="101" x="2213" y="65.1413">GrauProficiencia</text><line style="stroke: #A80036; stroke-width: 1.5;" x1="2185" x2="2316" y1="76.987" y2="76.987"/><text fill="#000000" font-family="sans-serif" font-size="11" lengthAdjust="spacingAndGlyphs" textLength="108" x="2190" y="91.1974">-String designacao</text><text fill="#000000" font-family="sans-serif" font-size="11" lengthAdjust="spacingAndGlyphs" textLength="79" x="2190" y="104.0021">-Integer valor</text><!--MD5=[7e1ce8ab2bf669717f28e918f4971b9a]
class Categoria--><rect fill="#FEFECE" filter="url(#f16ei4cvu288wv)" height="65.6094" id="Categoria" style="stroke: #A80036; stroke-width: 1.5;" width="110" x="1416" y="259.987"/><ellipse cx="1438.2" cy="275.987" fill="#ADD1B2" rx="11" ry="11" style="stroke: #A80036; stroke-width: 1.0;"/><path d="M1440.5438,271.6589 C1439.6063,271.2214 1439.0125,271.0807 1438.1375,271.0807 C1435.5125,271.0807 1433.5125,273.1589 1433.5125,275.8776 L1433.5125,277.0026 C1433.5125,279.5807 1435.6219,281.4714 1438.5125,281.4714 C1439.7313,281.4714 1440.8875,281.1745 1441.6375,280.6276 C1442.2156,280.2214 1442.5438,279.7682 1442.5438,279.3776 C1442.5438,278.9245 1442.1531,278.5339 1441.6844,278.5339 C1441.4656,278.5339 1441.2625,278.612 1441.075,278.7995 C1440.6219,279.2839 1440.6219,279.2839 1440.4344,279.3776 C1440.0125,279.6432 1439.325,279.7682 1438.5594,279.7682 C1436.5125,279.7682 1435.2156,278.6745 1435.2156,276.9714 L1435.2156,275.8776 C1435.2156,274.0964 1436.4656,272.7839 1438.2,272.7839 C1438.7781,272.7839 1439.3875,272.9401 1439.8563,273.1901 C1440.3406,273.4714 1440.5125,273.6901 1440.6063,274.0964 C1440.6688,274.5026 1440.7,274.6276 1440.8406,274.7526 C1440.9813,274.8932 1441.2156,275.0026 1441.4344,275.0026 C1441.7,275.0026 1441.9656,274.862 1442.1375,274.6432 C1442.2469,274.487 1442.2781,274.2995 1442.2781,273.8776 L1442.2781,272.4557 C1442.2781,272.0182 1442.2625,271.8932 1442.1688,271.737 C1442.0125,271.4714 1441.7313,271.3307 1441.4344,271.3307 C1441.1375,271.3307 1440.9344,271.4245 1440.7156,271.737 L1440.5438,271.6589 Z "/><text fill="#000000" font-family="sans-serif" font-size="12" lengthAdjust="spacingAndGlyphs" textLength="62" x="1453.8" y="280.1413">Categoria</text><line style="stroke: #A80036; stroke-width: 1.5;" x1="1417" x2="1525" y1="291.987" y2="291.987"/><text fill="#000000" font-family="sans-serif" font-size="11" lengthAdjust="spacingAndGlyphs" textLength="52" x="1422" y="306.1974">-String id</text><text fill="#000000" font-family="sans-serif" font-size="11" lengthAdjust="spacingAndGlyphs" textLength="98" x="1422" y="319.0021">-String descricao</text><ellipse cx="1654.5" cy="149.987" fill="#000000" rx="2" ry="2" style="stroke: none; stroke-width: 1.0;"/><!--MD5=[d23ac86af3a14499d7ee253fbe654dcd]
link Categoria to apoint15--><path d="M1495.03,259.91 C1516,232.135 1549.37,193.346 1587,169.987 C1610.76,155.234 1646.07,150.795 1652.48,150.092 " fill="none" id="Categoria-apoint15" style="stroke: #A80036; stroke-width: 1.0;"/><!--MD5=[6e496bde566ce3079f82f530c44af35b]
link apoint15 to CompetenciaTecnica--><path d="M1656.57,149.987 C1669.1,149.987 1788.69,149.987 1871.68,149.987 " fill="none" id="apoint15-CompetenciaTecnica" style="stroke: #A80036; stroke-width: 1.0;"/><!--MD5=[b5cc1d6746d67c3b07e9c775dc27e5d6]
link apoint15 to CaraterCT--><path d="M1654.5,152.024 C1654.5,163.761 1654.5,175.499 1654.5,187.237 " fill="none" id="apoint15-CaraterCT" style="stroke: #A80036; stroke-width: 1.0; stroke-dasharray: 7.0,7.0;"/><!--MD5=[1c2ad462e362697fcdc859a6327d55c7]
link Plataforma to Organizacao--><path d="M124.489,214.392 C175.452,190.816 249.368,156.622 299.549,133.407 " fill="none" id="Plataforma-Organizacao" style="stroke: #A80036; stroke-width: 1.0;"/><text fill="#000000" font-family="sans-serif" font-size="13" lengthAdjust="spacingAndGlyphs" textLength="41" x="186" y="143.0539">possui</text><polygon fill="#000000" points="230,137.0534,236,140.0534,230,143.0534,230,137.0534" style="stroke: #000000; stroke-width: 1.0;"/><text fill="#000000" font-family="sans-serif" font-size="13" lengthAdjust="spacingAndGlyphs" textLength="8" x="129.0896" y="203.6124">1</text><text fill="#000000" font-family="sans-serif" font-size="13" lengthAdjust="spacingAndGlyphs" textLength="7" x="284.9318" y="149.6988">*</text><!--MD5=[39c0de7668d8063a4eb96c23050b3de2]
link Plataforma to Freelancer--><path d="M126.222,240.987 C178.658,240.987 254.369,240.987 303.996,240.987 " fill="none" id="Plataforma-Freelancer" style="stroke: #A80036; stroke-width: 1.0;"/><text fill="#000000" font-family="sans-serif" font-size="13" lengthAdjust="spacingAndGlyphs" textLength="99" x="157" y="237.0539">tem registados</text><polygon fill="#000000" points="259,231.0534,265,234.0534,259,237.0534,259,231.0534" style="stroke: #000000; stroke-width: 1.0;"/><text fill="#000000" font-family="sans-serif" font-size="13" lengthAdjust="spacingAndGlyphs" textLength="8" x="134.0491" y="253.988">1</text><text fill="#000000" font-family="sans-serif" font-size="13" lengthAdjust="spacingAndGlyphs" textLength="21" x="275.0517" y="254.0093">1..*</text><!--MD5=[3e4842a9a39f581fdf016dfd12392cbc]
link Freelancer to Candidatura--><path d="M407.075,264.244 C448.516,283.301 507.789,310.557 554.872,332.209 " fill="none" id="Freelancer-Candidatura" style="stroke: #A80036; stroke-width: 1.0;"/><text fill="#000000" font-family="sans-serif" font-size="13" lengthAdjust="spacingAndGlyphs" textLength="19" x="467" y="277.0539">faz</text><polygon fill="#000000" points="489,271.0534,495,274.0534,489,277.0534,489,271.0534" style="stroke: #000000; stroke-width: 1.0;"/><text fill="#000000" font-family="sans-serif" font-size="13" lengthAdjust="spacingAndGlyphs" textLength="8" x="414.8902" y="280.6301">1</text><text fill="#000000" font-family="sans-serif" font-size="13" lengthAdjust="spacingAndGlyphs" textLength="7" x="539.9844" y="341.5961">*</text><!--MD5=[6a7c57800a31452a20aa2f5037e36afb]
link Freelancer to Utilizador--><path d="M407.075,240.987 C455.165,240.987 527.268,240.987 576.469,240.987 " fill="none" id="Freelancer-Utilizador" style="stroke: #A80036; stroke-width: 1.0;"/><text fill="#000000" font-family="sans-serif" font-size="13" lengthAdjust="spacingAndGlyphs" textLength="69" x="442" y="237.0539">atua como</text><polygon fill="#000000" points="514,231.0534,520,234.0534,514,237.0534,514,231.0534" style="stroke: #000000; stroke-width: 1.0;"/><text fill="#000000" font-family="sans-serif" font-size="13" lengthAdjust="spacingAndGlyphs" textLength="22" x="415.0924" y="254.0093">0..1</text><text fill="#000000" font-family="sans-serif" font-size="13" lengthAdjust="spacingAndGlyphs" textLength="8" x="560.5367" y="254.0428">1</text><!--MD5=[4b7ea55301832702787bcdc026640b66]
link Freelancer to Endereco--><path d="M407.075,220.129 C454.701,200.488 525.88,171.133 575.039,150.859 " fill="none" id="Freelancer-Endereco" style="stroke: #A80036; stroke-width: 1.0;"/><text fill="#000000" font-family="sans-serif" font-size="13" lengthAdjust="spacingAndGlyphs" textLength="27" x="463" y="170.0539">tem</text><polygon fill="#000000" points="493,164.0534,499,167.0534,493,170.0534,493,164.0534" style="stroke: #000000; stroke-width: 1.0;"/><text fill="#000000" font-family="sans-serif" font-size="13" lengthAdjust="spacingAndGlyphs" textLength="22" x="415.0924" y="230.4789">0..1</text><text fill="#000000" font-family="sans-serif" font-size="13" lengthAdjust="spacingAndGlyphs" textLength="7" x="560.3565" y="166.7993">*</text><!--MD5=[7fbeb7bcd2a7737111d998de4a14bf4d]
link Freelancer to Reconhecimento--><path d="M396.587,195.434 C413.566,176.547 431.575,157.152 441,148.987 C515.111,84.774 532.441,35.987 630.5,35.987 C630.5,35.987 630.5,35.987 1472,35.987 C1509.98,35.987 1552.42,37.094 1586.71,38.267 " fill="none" id="Freelancer-Reconhecimento" style="stroke: #A80036; stroke-width: 1.0;"/><text fill="#000000" font-family="sans-serif" font-size="13" lengthAdjust="spacingAndGlyphs" textLength="41" x="1027" y="32.0539">possui</text><polygon fill="#000000" points="1071,26.0534,1077,29.0534,1071,32.0534,1071,26.0534" style="stroke: #000000; stroke-width: 1.0;"/><text fill="#000000" font-family="sans-serif" font-size="13" lengthAdjust="spacingAndGlyphs" textLength="8" x="394.2659" y="184.3706">1</text><text fill="#000000" font-family="sans-serif" font-size="13" lengthAdjust="spacingAndGlyphs" textLength="7" x="1571.9127" y="50.8853">*</text><!--MD5=[4acb55c95f695e24b0193d5697296d13]
link Reconhecimento to CompetenciaTecnica--><path d="M1722.1,71.699 C1732.06,75.987 1742.25,80.212 1752,83.987 C1790.95,99.066 1834.97,113.86 1871.73,125.606 " fill="none" id="Reconhecimento-CompetenciaTecnica" style="stroke: #A80036; stroke-width: 1.0;"/><text fill="#000000" font-family="sans-serif" font-size="13" lengthAdjust="spacingAndGlyphs" textLength="75" x="1753" y="80.0539">referente a</text><polygon fill="#000000" points="1831,74.0534,1837,77.0534,1831,80.0534,1831,74.0534" style="stroke: #000000; stroke-width: 1.0;"/><text fill="#000000" font-family="sans-serif" font-size="13" lengthAdjust="spacingAndGlyphs" textLength="8" x="1729.9312" y="87.974">1</text><text fill="#000000" font-family="sans-serif" font-size="13" lengthAdjust="spacingAndGlyphs" textLength="7" x="1856.9614" y="136.1037">*</text><!--MD5=[37c76b693b9cd1bbf25661bba94ed967]
link Reconhecimento to GrauProficiencia--><path d="M1722.2,45.141 C1836.76,52.277 2069.57,66.779 2183.59,73.881 " fill="none" id="Reconhecimento-GrauProficiencia" style="stroke: #A80036; stroke-width: 1.0;"/><text fill="#000000" font-family="sans-serif" font-size="13" lengthAdjust="spacingAndGlyphs" textLength="75" x="1908.5" y="51.0539">referente a</text><polygon fill="#000000" points="1986.5,45.0534,1992.5,48.0534,1986.5,51.0534,1986.5,45.0534" style="stroke: #000000; stroke-width: 1.0;"/><text fill="#000000" font-family="sans-serif" font-size="13" lengthAdjust="spacingAndGlyphs" textLength="8" x="1730.0422" y="58.5112">1</text><text fill="#000000" font-family="sans-serif" font-size="13" lengthAdjust="spacingAndGlyphs" textLength="8" x="2167.8342" y="86.3477">1</text><!--MD5=[0d731ff285a62a08178b23be6cceb109]
link CompetenciaTecnica to GrauProficiencia--><path d="M2033.21,130.597 C2080.3,119.143 2139.2,104.816 2183.64,94.006 " fill="none" id="CompetenciaTecnica-GrauProficiencia" style="stroke: #A80036; stroke-width: 1.0;"/><text fill="#000000" font-family="sans-serif" font-size="13" lengthAdjust="spacingAndGlyphs" textLength="76" x="2064" y="97.0539">associado a</text><polygon fill="#000000" points="2143,91.0534,2149,94.0534,2143,97.0534,2143,91.0534" style="stroke: #000000; stroke-width: 1.0;"/><text fill="#000000" font-family="sans-serif" font-size="13" lengthAdjust="spacingAndGlyphs" textLength="8" x="2041.0192" y="141.5548">1</text><text fill="#000000" font-family="sans-serif" font-size="13" lengthAdjust="spacingAndGlyphs" textLength="8" x="2167.8897" y="108.6739">1</text><!--MD5=[439a6ad1de0b5aa57a973cae1bf36ce5]
link Anuncio to Tarefa--><path d="M996.05,353.9638 C1032.97,347.4258 1077.11,339.611 1111.81,333.467 " fill="none" id="Anuncio-Tarefa" style="stroke: #A80036; stroke-width: 1.0;"/><polygon fill="#000000" points="1039.5,329.0534,1033.5,332.0534,1039.5,335.0534,1039.5,329.0534" style="stroke: #000000; stroke-width: 1.0;"/><text fill="#000000" font-family="sans-serif" font-size="13" lengthAdjust="spacingAndGlyphs" textLength="30" x="1045.5" y="335.0539">gera</text><text fill="#000000" font-family="sans-serif" font-size="13" lengthAdjust="spacingAndGlyphs" textLength="22" x="1003.9366" y="365.5266">0..1</text><text fill="#000000" font-family="sans-serif" font-size="13" lengthAdjust="spacingAndGlyphs" textLength="7" x="1097.0478" y="347.7438">*</text><!--MD5=[cc2561a0285988b367253361d2d1973d]
link Tarefa to Categoria--><path d="M1232.03,317.024 C1285.49,311.624 1363.61,303.733 1415.58,298.483 " fill="none" id="Tarefa-Categoria" style="stroke: #A80036; stroke-width: 1.0;"/><text fill="#000000" font-family="sans-serif" font-size="13" lengthAdjust="spacingAndGlyphs" textLength="109" x="1263" y="297.0539">enquadra-se em</text><polygon fill="#000000" points="1375,291.0534,1381,294.0534,1375,297.0534,1375,291.0534" style="stroke: #000000; stroke-width: 1.0;"/><text fill="#000000" font-family="sans-serif" font-size="13" lengthAdjust="spacingAndGlyphs" textLength="8" x="1239.8337" y="329.2968">1</text><text fill="#000000" font-family="sans-serif" font-size="13" lengthAdjust="spacingAndGlyphs" textLength="8" x="1399.9668" y="312.2485">1</text><!--MD5=[74d0d806cbbb596d67efd8351294ed2d]
link Categoria to CompetenciaTecnica--><path d="M1526.33,295.629 C1577.77,296.613 1656.65,294.154 1722,274.987 C1785.56,256.343 1851.27,218.308 1896,189.063 " fill="none" id="Categoria-CompetenciaTecnica" style="stroke: #A80036; stroke-width: 1.0;"/><text fill="#000000" font-family="sans-serif" font-size="13" lengthAdjust="spacingAndGlyphs" textLength="30" x="1633" y="271.0539">gera</text><polygon fill="#000000" points="1666,265.0534,1672,268.0534,1666,271.0534,1666,265.0534" style="stroke: #000000; stroke-width: 1.0;"/><text fill="#000000" font-family="sans-serif" font-size="13" lengthAdjust="spacingAndGlyphs" textLength="7" x="1533.8676" y="309.0289">*</text><text fill="#000000" font-family="sans-serif" font-size="13" lengthAdjust="spacingAndGlyphs" textLength="22" x="1861.9766" y="209.4012">0..1</text><!--MD5=[3d9e8e0d764359bffb897b36dc4b633a]
link Plataforma to Anuncio--><path d="M114.968,267.505 C200.33,313.012 385.579,404.235 555,436.9866 C621.764,449.8931 640.859,447.7604 708,436.9866 C755.365,429.3863 806.485,412.8279 846.714,397.7235 " fill="none" id="Plataforma-Anuncio" style="stroke: #A80036; stroke-width: 1.0;"/><text fill="#000000" font-family="sans-serif" font-size="13" lengthAdjust="spacingAndGlyphs" textLength="53" x="450" y="404.0535">publicita</text><polygon fill="#000000" points="506,398.053,512,401.053,506,404.053,506,398.053" style="stroke: #000000; stroke-width: 1.0;"/><text fill="#000000" font-family="sans-serif" font-size="13" lengthAdjust="spacingAndGlyphs" textLength="8" x="117.3669" y="287.4765">1</text><text fill="#000000" font-family="sans-serif" font-size="13" lengthAdjust="spacingAndGlyphs" textLength="8" x="830.9585" y="413.5597">1</text><!--MD5=[360c74ee5c5ac6d45db6366086fca09a]
link Candidatura to Anuncio--><path d="M708.169,366.9866 C751,366.9866 804.331,366.9866 846.829,366.9866 " fill="none" id="Candidatura-Anuncio" style="stroke: #A80036; stroke-width: 1.0;"/><text fill="#000000" font-family="sans-serif" font-size="13" lengthAdjust="spacingAndGlyphs" textLength="64" x="739" y="363.0535">enviada a</text><polygon fill="#000000" points="806,357.053,812,360.053,806,363.053,806,357.053" style="stroke: #000000; stroke-width: 1.0;"/><text fill="#000000" font-family="sans-serif" font-size="13" lengthAdjust="spacingAndGlyphs" textLength="8" x="716.1099" y="379.7971">1</text><text fill="#000000" font-family="sans-serif" font-size="13" lengthAdjust="spacingAndGlyphs" textLength="7" x="831.7676" y="379.8325">*</text><!--MD5=[37e914c13c934e308921136495f217d3]
@startuml
skinparam classAttributeIconSize 0

hide methods
left to right direction

class Plataforma {
  -String designacao
}

class Organizacao {
  -String nome
  -String NIF
  -String website
  -String telefone
  -String email
}
class CaraterCT {
  -Boolean obrigatoria
}

class Freelancer {
  -String nome
  -String NIF
  -String telefone
  -String email
}
class Endereco {
  -String local
  -String codPostal
  -String localidade
}

class Utilizador {
  -String nome
  -String email
  -String password
}

class Tarefa {
  -String refUnica
  -String designacao
  -String descInf
  -String descTec
  -Integer duracao
  -Double custo
}

class Anuncio {
   -String refTarefa
   -String periodoPub
   -String peridooCand
   -String periodoSeriacao
   -String refRegimento
}

class Candidatura {
  -Date dataCandidatura
  -Double valorPretendido
  -Integer numDias
  -String txtApresentacao
  -String txtMotivacao
}

class Reconhecimento {
   -String designacao
   -String data
}

class CompetenciaTecnica {
   -String codigo
   -String descBreve
   -String descDetalhada
}
class GrauProficiencia {
   -String designacao
   -Integer valor
}
class Categoria {
   -String id
   -String descricao
}
(Categoria, CompetenciaTecnica) .. CaraterCT
Plataforma "1" - - "*" Organizacao : possui >
Plataforma "1" - - "1..*" Freelancer: tem registados >
Freelancer "1" - - "*" Candidatura : faz >
Freelancer "0..1" - - "1" Utilizador : atua como >
Freelancer "0..1" - - "*" Endereco : tem >
Freelancer "1" - - "*" Reconhecimento : possui >
Reconhecimento "1" - - "*" CompetenciaTecnica : referente a >
Reconhecimento "1" - - "1" GrauProficiencia : referente a >
CompetenciaTecnica "1" - - "1" GrauProficiencia : associado a >
Anuncio "0..1" - - "*" Tarefa: gera <
Tarefa "1" - - "1" Categoria : enquadra-se em >
Categoria "*" - - "0..1" CompetenciaTecnica : gera >
Plataforma "1" - - "1" Anuncio : publicita >
Candidatura "1" - - "*" Anuncio : enviada a >
@enduml

PlantUML version 1.2020.09beta15(Unknown compile time)
(GPL source distribution)
Java Runtime: Java(TM) SE Runtime Environment
JVM: Java HotSpot(TM) 64-Bit Server VM
Java Version: 14.0.1+7
Operating System: Linux
Default Encoding: UTF-8
Language: en
Country: US
--></g></svg>