<?xml version="1.0" encoding="UTF-8" standalone="no"?><svg xmlns="http://www.w3.org/2000/svg" xmlns:xlink="http://www.w3.org/1999/xlink" contentScriptType="application/ecmascript" contentStyleType="text/css" height="349px" preserveAspectRatio="none" style="width:1022px;height:349px;" version="1.1" viewBox="0 0 1022 349" width="1022px" zoomAndPan="magnify"><defs><filter height="300%" id="f12mj1q26wgi4a" width="300%" x="-1" y="-1"><feGaussianBlur result="blurOut" stdDeviation="2.0"/><feColorMatrix in="blurOut" result="blurOut2" type="matrix" values="0 0 0 0 0 0 0 0 0 0 0 0 0 0 0 0 0 0 .4 0"/><feOffset dx="4.0" dy="4.0" in="blurOut2" result="blurOut3"/><feBlend in="SourceGraphic" in2="blurOut3" mode="normal"/></filter></defs><g><!--MD5=[ecaed46f78f8cfe1e9ce18477649be18]
class Plataforma--><rect fill="#FEFECE" filter="url(#f12mj1q26wgi4a)" height="52.8047" id="Plataforma" style="stroke: #A80036; stroke-width: 1.5;" width="129" x="6" y="176.5"/><ellipse cx="34.05" cy="192.5" fill="#ADD1B2" rx="11" ry="11" style="stroke: #A80036; stroke-width: 1.0;"/><path d="M36.3938,188.1719 L36.5656,188.25 C36.7844,187.9375 36.9875,187.8438 37.2844,187.8438 C37.5813,187.8438 37.8625,187.9844 38.0188,188.25 C38.1125,188.4063 38.1281,188.5313 38.1281,188.9688 L38.1281,190.3906 C38.1281,190.8125 38.0969,191 37.9875,191.1563 C37.8156,191.375 37.55,191.5156 37.2844,191.5156 C37.0656,191.5156 36.8313,191.4063 36.6906,191.2656 C36.55,191.1406 36.5188,191.0156 36.4563,190.6094 C36.3625,190.2031 36.1906,189.9844 35.7063,189.7031 C35.2375,189.4531 34.6281,189.2969 34.05,189.2969 C32.3156,189.2969 31.0656,190.6094 31.0656,192.3906 L31.0656,193.4844 C31.0656,195.1875 32.3625,196.2813 34.4094,196.2813 C35.175,196.2813 35.8625,196.1563 36.2844,195.8906 C36.4719,195.7969 36.4719,195.7969 36.925,195.3125 C37.1125,195.125 37.3156,195.0469 37.5344,195.0469 C38.0031,195.0469 38.3938,195.4375 38.3938,195.8906 C38.3938,196.2813 38.0656,196.7344 37.4875,197.1406 C36.7375,197.6875 35.5813,197.9844 34.3625,197.9844 C31.4719,197.9844 29.3625,196.0938 29.3625,193.5156 L29.3625,192.3906 C29.3625,189.6719 31.3625,187.5938 33.9875,187.5938 C34.8625,187.5938 35.4563,187.7344 36.3938,188.1719 Z "/><text fill="#000000" font-family="sans-serif" font-size="12" lengthAdjust="spacingAndGlyphs" textLength="68" x="50.95" y="196.6543">Plataforma</text><line style="stroke: #A80036; stroke-width: 1.5;" x1="7" x2="134" y1="208.5" y2="208.5"/><rect fill="none" height="6" style="stroke: #C82930; stroke-width: 1.0;" width="6" x="14" y="216.5"/><text fill="#000000" font-family="sans-serif" font-size="11" lengthAdjust="spacingAndGlyphs" textLength="103" x="26" y="222.7104">String designacao</text><!--MD5=[6559d866213c6b3fd003379aeba85775]
class Organização--><rect fill="#FEFECE" filter="url(#f12mj1q26wgi4a)" height="104.0234" id="Organização" style="stroke: #A80036; stroke-width: 1.5;" width="110" x="277" y="23"/><ellipse cx="292.45" cy="39" fill="#ADD1B2" rx="11" ry="11" style="stroke: #A80036; stroke-width: 1.0;"/><path d="M294.7938,34.6719 L294.9656,34.75 C295.1844,34.4375 295.3875,34.3438 295.6844,34.3438 C295.9813,34.3438 296.2625,34.4844 296.4188,34.75 C296.5125,34.9063 296.5281,35.0313 296.5281,35.4688 L296.5281,36.8906 C296.5281,37.3125 296.4969,37.5 296.3875,37.6563 C296.2156,37.875 295.95,38.0156 295.6844,38.0156 C295.4656,38.0156 295.2313,37.9063 295.0906,37.7656 C294.95,37.6406 294.9188,37.5156 294.8563,37.1094 C294.7625,36.7031 294.5906,36.4844 294.1063,36.2031 C293.6375,35.9531 293.0281,35.7969 292.45,35.7969 C290.7156,35.7969 289.4656,37.1094 289.4656,38.8906 L289.4656,39.9844 C289.4656,41.6875 290.7625,42.7813 292.8094,42.7813 C293.575,42.7813 294.2625,42.6563 294.6844,42.3906 C294.8719,42.2969 294.8719,42.2969 295.325,41.8125 C295.5125,41.625 295.7156,41.5469 295.9344,41.5469 C296.4031,41.5469 296.7938,41.9375 296.7938,42.3906 C296.7938,42.7813 296.4656,43.2344 295.8875,43.6406 C295.1375,44.1875 293.9813,44.4844 292.7625,44.4844 C289.8719,44.4844 287.7625,42.5938 287.7625,40.0156 L287.7625,38.8906 C287.7625,36.1719 289.7625,34.0938 292.3875,34.0938 C293.2625,34.0938 293.8563,34.2344 294.7938,34.6719 Z "/><text fill="#000000" font-family="sans-serif" font-size="12" lengthAdjust="spacingAndGlyphs" textLength="77" x="306.55" y="43.1543">Organização</text><line style="stroke: #A80036; stroke-width: 1.5;" x1="278" x2="386" y1="55" y2="55"/><rect fill="none" height="6" style="stroke: #C82930; stroke-width: 1.0;" width="6" x="285" y="63"/><text fill="#000000" font-family="sans-serif" font-size="11" lengthAdjust="spacingAndGlyphs" textLength="55" x="297" y="69.2104">String NIF</text><rect fill="none" height="6" style="stroke: #C82930; stroke-width: 1.0;" width="6" x="285" y="75.8047"/><text fill="#000000" font-family="sans-serif" font-size="11" lengthAdjust="spacingAndGlyphs" textLength="82" x="297" y="82.0151">String website</text><rect fill="none" height="6" style="stroke: #C82930; stroke-width: 1.0;" width="6" x="285" y="88.6094"/><text fill="#000000" font-family="sans-serif" font-size="11" lengthAdjust="spacingAndGlyphs" textLength="84" x="297" y="94.8198">String telefone</text><rect fill="none" height="6" style="stroke: #C82930; stroke-width: 1.0;" width="6" x="285" y="101.4141"/><text fill="#000000" font-family="sans-serif" font-size="11" lengthAdjust="spacingAndGlyphs" textLength="70" x="297" y="107.6245">String nome</text><rect fill="none" height="6" style="stroke: #C82930; stroke-width: 1.0;" width="6" x="285" y="114.2188"/><text fill="#000000" font-family="sans-serif" font-size="11" lengthAdjust="spacingAndGlyphs" textLength="69" x="297" y="120.4292">String email</text><!--MD5=[a322db5a7ec64d2ff8f2d6cf1831dcec]
class CompetenciaTecnica--><rect fill="#FEFECE" filter="url(#f12mj1q26wgi4a)" height="78.4141" id="CompetenciaTecnica" style="stroke: #A80036; stroke-width: 1.5;" width="162" x="251" y="164"/><ellipse cx="266" cy="180" fill="#ADD1B2" rx="11" ry="11" style="stroke: #A80036; stroke-width: 1.0;"/><path d="M268.3438,175.6719 L268.5156,175.75 C268.7344,175.4375 268.9375,175.3438 269.2344,175.3438 C269.5313,175.3438 269.8125,175.4844 269.9688,175.75 C270.0625,175.9063 270.0781,176.0313 270.0781,176.4688 L270.0781,177.8906 C270.0781,178.3125 270.0469,178.5 269.9375,178.6563 C269.7656,178.875 269.5,179.0156 269.2344,179.0156 C269.0156,179.0156 268.7813,178.9063 268.6406,178.7656 C268.5,178.6406 268.4688,178.5156 268.4063,178.1094 C268.3125,177.7031 268.1406,177.4844 267.6563,177.2031 C267.1875,176.9531 266.5781,176.7969 266,176.7969 C264.2656,176.7969 263.0156,178.1094 263.0156,179.8906 L263.0156,180.9844 C263.0156,182.6875 264.3125,183.7813 266.3594,183.7813 C267.125,183.7813 267.8125,183.6563 268.2344,183.3906 C268.4219,183.2969 268.4219,183.2969 268.875,182.8125 C269.0625,182.625 269.2656,182.5469 269.4844,182.5469 C269.9531,182.5469 270.3438,182.9375 270.3438,183.3906 C270.3438,183.7813 270.0156,184.2344 269.4375,184.6406 C268.6875,185.1875 267.5313,185.4844 266.3125,185.4844 C263.4219,185.4844 261.3125,183.5938 261.3125,181.0156 L261.3125,179.8906 C261.3125,177.1719 263.3125,175.0938 265.9375,175.0938 C266.8125,175.0938 267.4063,175.2344 268.3438,175.6719 Z "/><text fill="#000000" font-family="sans-serif" font-size="12" lengthAdjust="spacingAndGlyphs" textLength="130" x="280" y="184.1543">CompetenciaTecnica</text><line style="stroke: #A80036; stroke-width: 1.5;" x1="252" x2="412" y1="196" y2="196"/><rect fill="none" height="6" style="stroke: #C82930; stroke-width: 1.0;" width="6" x="259" y="204"/><text fill="#000000" font-family="sans-serif" font-size="11" lengthAdjust="spacingAndGlyphs" textLength="75" x="271" y="210.2104">String codigo</text><rect fill="none" height="6" style="stroke: #C82930; stroke-width: 1.0;" width="6" x="259" y="216.8047"/><text fill="#000000" font-family="sans-serif" font-size="11" lengthAdjust="spacingAndGlyphs" textLength="98" x="271" y="223.0151">String descBreve</text><rect fill="none" height="6" style="stroke: #C82930; stroke-width: 1.0;" width="6" x="259" y="229.6094"/><text fill="#000000" font-family="sans-serif" font-size="11" lengthAdjust="spacingAndGlyphs" textLength="123" x="271" y="235.8198">String DescDetalhada</text><!--MD5=[02456e6632d968d6f68141e5893c6991]
class AreaAtividade--><rect fill="#FEFECE" filter="url(#f12mj1q26wgi4a)" height="78.4141" id="AreaAtividade" style="stroke: #A80036; stroke-width: 1.5;" width="148" x="559" y="260"/><ellipse cx="587.5" cy="276" fill="#ADD1B2" rx="11" ry="11" style="stroke: #A80036; stroke-width: 1.0;"/><path d="M589.8438,271.6719 L590.0156,271.75 C590.2344,271.4375 590.4375,271.3438 590.7344,271.3438 C591.0313,271.3438 591.3125,271.4844 591.4688,271.75 C591.5625,271.9063 591.5781,272.0313 591.5781,272.4688 L591.5781,273.8906 C591.5781,274.3125 591.5469,274.5 591.4375,274.6563 C591.2656,274.875 591,275.0156 590.7344,275.0156 C590.5156,275.0156 590.2813,274.9063 590.1406,274.7656 C590,274.6406 589.9688,274.5156 589.9063,274.1094 C589.8125,273.7031 589.6406,273.4844 589.1563,273.2031 C588.6875,272.9531 588.0781,272.7969 587.5,272.7969 C585.7656,272.7969 584.5156,274.1094 584.5156,275.8906 L584.5156,276.9844 C584.5156,278.6875 585.8125,279.7813 587.8594,279.7813 C588.625,279.7813 589.3125,279.6563 589.7344,279.3906 C589.9219,279.2969 589.9219,279.2969 590.375,278.8125 C590.5625,278.625 590.7656,278.5469 590.9844,278.5469 C591.4531,278.5469 591.8438,278.9375 591.8438,279.3906 C591.8438,279.7813 591.5156,280.2344 590.9375,280.6406 C590.1875,281.1875 589.0313,281.4844 587.8125,281.4844 C584.9219,281.4844 582.8125,279.5938 582.8125,277.0156 L582.8125,275.8906 C582.8125,273.1719 584.8125,271.0938 587.4375,271.0938 C588.3125,271.0938 588.9063,271.2344 589.8438,271.6719 Z "/><text fill="#000000" font-family="sans-serif" font-size="12" lengthAdjust="spacingAndGlyphs" textLength="86" x="604.5" y="280.1543">AreaAtividade</text><line style="stroke: #A80036; stroke-width: 1.5;" x1="560" x2="706" y1="292" y2="292"/><rect fill="none" height="6" style="stroke: #C82930; stroke-width: 1.0;" width="6" x="567" y="300"/><text fill="#000000" font-family="sans-serif" font-size="11" lengthAdjust="spacingAndGlyphs" textLength="75" x="579" y="306.2104">String codigo</text><rect fill="none" height="6" style="stroke: #C82930; stroke-width: 1.0;" width="6" x="567" y="312.8047"/><text fill="#000000" font-family="sans-serif" font-size="11" lengthAdjust="spacingAndGlyphs" textLength="98" x="579" y="319.0151">String descBreve</text><rect fill="none" height="6" style="stroke: #C82930; stroke-width: 1.0;" width="6" x="567" y="325.6094"/><text fill="#000000" font-family="sans-serif" font-size="11" lengthAdjust="spacingAndGlyphs" textLength="122" x="579" y="331.8198">String descDetalhada</text><!--MD5=[27c2d4bbe9f7b9d3b0ea2797cc54308a]
class Tarefa--><rect fill="#FEFECE" filter="url(#f12mj1q26wgi4a)" height="129.6328" id="Tarefa" style="stroke: #A80036; stroke-width: 1.5;" width="129" x="568.5" y="8"/><ellipse cx="609.15" cy="24" fill="#ADD1B2" rx="11" ry="11" style="stroke: #A80036; stroke-width: 1.0;"/><path d="M611.4938,19.6719 L611.6656,19.75 C611.8844,19.4375 612.0875,19.3438 612.3844,19.3438 C612.6813,19.3438 612.9625,19.4844 613.1188,19.75 C613.2125,19.9063 613.2281,20.0313 613.2281,20.4688 L613.2281,21.8906 C613.2281,22.3125 613.1969,22.5 613.0875,22.6563 C612.9156,22.875 612.65,23.0156 612.3844,23.0156 C612.1656,23.0156 611.9313,22.9063 611.7906,22.7656 C611.65,22.6406 611.6188,22.5156 611.5563,22.1094 C611.4625,21.7031 611.2906,21.4844 610.8063,21.2031 C610.3375,20.9531 609.7281,20.7969 609.15,20.7969 C607.4156,20.7969 606.1656,22.1094 606.1656,23.8906 L606.1656,24.9844 C606.1656,26.6875 607.4625,27.7813 609.5094,27.7813 C610.275,27.7813 610.9625,27.6563 611.3844,27.3906 C611.5719,27.2969 611.5719,27.2969 612.025,26.8125 C612.2125,26.625 612.4156,26.5469 612.6344,26.5469 C613.1031,26.5469 613.4938,26.9375 613.4938,27.3906 C613.4938,27.7813 613.1656,28.2344 612.5875,28.6406 C611.8375,29.1875 610.6813,29.4844 609.4625,29.4844 C606.5719,29.4844 604.4625,27.5938 604.4625,25.0156 L604.4625,23.8906 C604.4625,21.1719 606.4625,19.0938 609.0875,19.0938 C609.9625,19.0938 610.5563,19.2344 611.4938,19.6719 Z "/><text fill="#000000" font-family="sans-serif" font-size="12" lengthAdjust="spacingAndGlyphs" textLength="40" x="628.85" y="28.1543">Tarefa</text><line style="stroke: #A80036; stroke-width: 1.5;" x1="569.5" x2="696.5" y1="40" y2="40"/><rect fill="none" height="6" style="stroke: #C82930; stroke-width: 1.0;" width="6" x="576.5" y="48"/><text fill="#000000" font-family="sans-serif" font-size="11" lengthAdjust="spacingAndGlyphs" textLength="85" x="588.5" y="54.2104">String refUnica</text><rect fill="none" height="6" style="stroke: #C82930; stroke-width: 1.0;" width="6" x="576.5" y="60.8047"/><text fill="#000000" font-family="sans-serif" font-size="11" lengthAdjust="spacingAndGlyphs" textLength="103" x="588.5" y="67.0151">String designacao</text><rect fill="none" height="6" style="stroke: #C82930; stroke-width: 1.0;" width="6" x="576.5" y="73.6094"/><text fill="#000000" font-family="sans-serif" font-size="11" lengthAdjust="spacingAndGlyphs" textLength="79" x="588.5" y="79.8198">String descInf</text><rect fill="none" height="6" style="stroke: #C82930; stroke-width: 1.0;" width="6" x="576.5" y="86.4141"/><text fill="#000000" font-family="sans-serif" font-size="11" lengthAdjust="spacingAndGlyphs" textLength="85" x="588.5" y="92.6245">String descTec</text><rect fill="none" height="6" style="stroke: #C82930; stroke-width: 1.0;" width="6" x="576.5" y="99.2188"/><text fill="#000000" font-family="sans-serif" font-size="11" lengthAdjust="spacingAndGlyphs" textLength="84" x="588.5" y="105.4292">String duracao</text><rect fill="none" height="6" style="stroke: #C82930; stroke-width: 1.0;" width="6" x="576.5" y="112.0234"/><text fill="#000000" font-family="sans-serif" font-size="11" lengthAdjust="spacingAndGlyphs" textLength="91" x="588.5" y="118.2339">String categoria</text><rect fill="none" height="6" style="stroke: #C82930; stroke-width: 1.0;" width="6" x="576.5" y="124.8281"/><text fill="#000000" font-family="sans-serif" font-size="11" lengthAdjust="spacingAndGlyphs" textLength="73" x="588.5" y="131.0386">double custo</text><!--MD5=[6fa14b346b4b5c2b3247f8e7c37afd04]
class CategoriaTarefa--><rect fill="#FEFECE" filter="url(#f12mj1q26wgi4a)" height="78.4141" id="CategoriaTarefa" style="stroke: #A80036; stroke-width: 1.5;" width="133" x="878" y="151"/><ellipse cx="893" cy="167" fill="#ADD1B2" rx="11" ry="11" style="stroke: #A80036; stroke-width: 1.0;"/><path d="M895.3438,162.6719 L895.5156,162.75 C895.7344,162.4375 895.9375,162.3438 896.2344,162.3438 C896.5313,162.3438 896.8125,162.4844 896.9688,162.75 C897.0625,162.9063 897.0781,163.0313 897.0781,163.4688 L897.0781,164.8906 C897.0781,165.3125 897.0469,165.5 896.9375,165.6563 C896.7656,165.875 896.5,166.0156 896.2344,166.0156 C896.0156,166.0156 895.7813,165.9063 895.6406,165.7656 C895.5,165.6406 895.4688,165.5156 895.4063,165.1094 C895.3125,164.7031 895.1406,164.4844 894.6563,164.2031 C894.1875,163.9531 893.5781,163.7969 893,163.7969 C891.2656,163.7969 890.0156,165.1094 890.0156,166.8906 L890.0156,167.9844 C890.0156,169.6875 891.3125,170.7813 893.3594,170.7813 C894.125,170.7813 894.8125,170.6563 895.2344,170.3906 C895.4219,170.2969 895.4219,170.2969 895.875,169.8125 C896.0625,169.625 896.2656,169.5469 896.4844,169.5469 C896.9531,169.5469 897.3438,169.9375 897.3438,170.3906 C897.3438,170.7813 897.0156,171.2344 896.4375,171.6406 C895.6875,172.1875 894.5313,172.4844 893.3125,172.4844 C890.4219,172.4844 888.3125,170.5938 888.3125,168.0156 L888.3125,166.8906 C888.3125,164.1719 890.3125,162.0938 892.9375,162.0938 C893.8125,162.0938 894.4063,162.2344 895.3438,162.6719 Z "/><text fill="#000000" font-family="sans-serif" font-size="12" lengthAdjust="spacingAndGlyphs" textLength="101" x="907" y="171.1543">CategoriaTarefa</text><line style="stroke: #A80036; stroke-width: 1.5;" x1="879" x2="1010" y1="183" y2="183"/><rect fill="none" height="6" style="stroke: #C82930; stroke-width: 1.0;" width="6" x="886" y="191"/><text fill="#000000" font-family="sans-serif" font-size="11" lengthAdjust="spacingAndGlyphs" textLength="106" x="898" y="197.2104">String identInterno</text><rect fill="none" height="6" style="stroke: #C82930; stroke-width: 1.0;" width="6" x="886" y="203.8047"/><text fill="#000000" font-family="sans-serif" font-size="11" lengthAdjust="spacingAndGlyphs" textLength="93" x="898" y="210.0151">String descricao</text><rect fill="none" height="6" style="stroke: #C82930; stroke-width: 1.0;" width="6" x="886" y="216.6094"/><text fill="#000000" font-family="sans-serif" font-size="11" lengthAdjust="spacingAndGlyphs" textLength="64" x="898" y="222.8198">String area</text><!--MD5=[718b46c9a1975c175f4073d63ce5ccba]
link Plataforma to AreaAtividade--><path d="M123.824,229.587 C158.864,246.0465 206.547,265.9065 251,276 C356.01,299.8436 481.222,302.6843 558.677,301.5788 " fill="none" id="Plataforma-AreaAtividade" style="stroke: #A80036; stroke-width: 1.0;"/><text fill="#000000" font-family="sans-serif" font-size="13" lengthAdjust="spacingAndGlyphs" textLength="41" x="305" y="272.0669">possui</text><polygon fill="#000000" points="349,266.0664,355,269.0664,349,272.0664,349,266.0664" style="stroke: #000000; stroke-width: 1.0;"/><text fill="#000000" font-family="sans-serif" font-size="13" lengthAdjust="spacingAndGlyphs" textLength="8" x="127.2302" y="249.5745">1</text><text fill="#000000" font-family="sans-serif" font-size="13" lengthAdjust="spacingAndGlyphs" textLength="7" x="544.0163" y="314.624">*</text><!--MD5=[a77d152358ce76c19672aacd9fb0ada1]
link Plataforma to CompetenciaTecnica--><path d="M135.313,203 C170.129,203 213.572,203 250.675,203 " fill="none" id="Plataforma-CompetenciaTecnica" style="stroke: #A80036; stroke-width: 1.0;"/><text fill="#000000" font-family="sans-serif" font-size="13" lengthAdjust="spacingAndGlyphs" textLength="41" x="166" y="199.0669">possui</text><polygon fill="#000000" points="210,193.0664,216,196.0664,210,199.0664,210,193.0664" style="stroke: #000000; stroke-width: 1.0;"/><text fill="#000000" font-family="sans-serif" font-size="13" lengthAdjust="spacingAndGlyphs" textLength="8" x="142.8394" y="215.9052">1</text><text fill="#000000" font-family="sans-serif" font-size="13" lengthAdjust="spacingAndGlyphs" textLength="7" x="236.1203" y="215.7223">*</text><!--MD5=[bfccd8e890448f4cee1f17ba82daa446]
link Plataforma to Organização--><path d="M125.269,176.478 C169.657,154.584 232.363,123.653 276.855,101.708 " fill="none" id="Plataforma-Organização" style="stroke: #A80036; stroke-width: 1.0;"/><text fill="#000000" font-family="sans-serif" font-size="13" lengthAdjust="spacingAndGlyphs" textLength="41" x="166" y="128.0669">possui</text><polygon fill="#000000" points="210,122.0664,216,125.0664,210,128.0664,210,122.0664" style="stroke: #000000; stroke-width: 1.0;"/><text fill="#000000" font-family="sans-serif" font-size="13" lengthAdjust="spacingAndGlyphs" textLength="8" x="129.6439" y="165.292">1</text><text fill="#000000" font-family="sans-serif" font-size="13" lengthAdjust="spacingAndGlyphs" textLength="7" x="261.9746" y="118.3789">*</text><!--MD5=[e538c9efa8de58386edc6206f3c58807]
link CompetenciaTecnica to AreaAtividade--><path d="M413.127,228.726 C458.448,243.2777 514.699,261.3382 558.826,275.5062 " fill="none" id="CompetenciaTecnica-AreaAtividade" style="stroke: #A80036; stroke-width: 1.0;"/><text fill="#000000" font-family="sans-serif" font-size="13" lengthAdjust="spacingAndGlyphs" textLength="71" x="444" y="236.0669">referente a</text><polygon fill="#000000" points="518,230.0664,524,233.0664,518,236.0664,518,230.0664" style="stroke: #000000; stroke-width: 1.0;"/><text fill="#000000" font-family="sans-serif" font-size="13" lengthAdjust="spacingAndGlyphs" textLength="7" x="420.9286" y="243.843">*</text><text fill="#000000" font-family="sans-serif" font-size="13" lengthAdjust="spacingAndGlyphs" textLength="8" x="542.7643" y="285.9092">1</text><!--MD5=[e44fb2b1e07e1ff1509f76fa30eefd0a]
link AreaAtividade to CategoriaTarefa--><path d="M707.066,278.9028 C748.779,266.8252 801.808,250.4457 848,233 C857.781,229.306 867.986,225.102 877.931,220.804 " fill="none" id="AreaAtividade-CategoriaTarefa" style="stroke: #A80036; stroke-width: 1.0;"/><text fill="#000000" font-family="sans-serif" font-size="13" lengthAdjust="spacingAndGlyphs" textLength="41" x="765.5" y="229.0669">possui</text><polygon fill="#000000" points="809.5,223.0664,815.5,226.0664,809.5,229.0664,809.5,223.0664" style="stroke: #000000; stroke-width: 1.0;"/><text fill="#000000" font-family="sans-serif" font-size="13" lengthAdjust="spacingAndGlyphs" textLength="8" x="715.1166" y="289.6561">1</text><text fill="#000000" font-family="sans-serif" font-size="13" lengthAdjust="spacingAndGlyphs" textLength="7" x="862.8293" y="237.2835">*</text><!--MD5=[05917f6a7518902eadec5ea1fb555066]
link Tarefa to CategoriaTarefa--><path d="M697.753,97.101 C750.398,117.002 824.834,145.141 877.963,165.225 " fill="none" id="Tarefa-CategoriaTarefa" style="stroke: #A80036; stroke-width: 1.0;"/><text fill="#000000" font-family="sans-serif" font-size="13" lengthAdjust="spacingAndGlyphs" textLength="96" x="738" y="111.0669">catalogada em</text><polygon fill="#000000" points="837,105.0664,843,108.0664,837,111.0664,837,105.0664" style="stroke: #000000; stroke-width: 1.0;"/><text fill="#000000" font-family="sans-serif" font-size="13" lengthAdjust="spacingAndGlyphs" textLength="7" x="705.6448" y="112.8507">*</text><text fill="#000000" font-family="sans-serif" font-size="13" lengthAdjust="spacingAndGlyphs" textLength="8" x="861.8072" y="175.2782">1</text><!--MD5=[197191cd476ffaec931a64d198f90556]
link CompetenciaTecnica to CategoriaTarefa--><path d="M413.126,201.294 C535.084,198.697 764.998,193.801 877.762,191.4 " fill="none" id="CompetenciaTecnica-CategoriaTarefa" style="stroke: #A80036; stroke-width: 1.0;"/><polygon fill="#000000" points="612.5,186.0664,606.5,189.0664,612.5,192.0664,612.5,186.0664" style="stroke: #000000; stroke-width: 1.0;"/><text fill="#000000" font-family="sans-serif" font-size="13" lengthAdjust="spacingAndGlyphs" textLength="42" x="618.5" y="192.0669">requer</text><text fill="#000000" font-family="sans-serif" font-size="13" lengthAdjust="spacingAndGlyphs" textLength="7" x="420.9275" y="213.8821">*</text><text fill="#000000" font-family="sans-serif" font-size="13" lengthAdjust="spacingAndGlyphs" textLength="8" x="862.025" y="204.425">1</text><!--MD5=[08db6e261ed14257d80751f737616a9d]
link Organização to Tarefa--><path d="M387.147,74.638 C438.138,74.297 514.53,73.786 568.4,73.425 " fill="none" id="Organização-Tarefa" style="stroke: #A80036; stroke-width: 1.0;"/><text fill="#000000" font-family="sans-serif" font-size="13" lengthAdjust="spacingAndGlyphs" textLength="41" x="459" y="70.0669">possui</text><polygon fill="#000000" points="503,64.0664,509,67.0664,503,70.0664,503,64.0664" style="stroke: #000000; stroke-width: 1.0;"/><text fill="#000000" font-family="sans-serif" font-size="13" lengthAdjust="spacingAndGlyphs" textLength="8" x="395.0949" y="87.6714">1</text><text fill="#000000" font-family="sans-serif" font-size="13" lengthAdjust="spacingAndGlyphs" textLength="7" x="553.5259" y="86.4371">*</text><!--MD5=[c555724c7792c88435c4920b1a0add82]
@startuml
hide methods
left to right direction

class Plataforma {
  -String designacao
}
class Organização {
  -String NIF
  -String website
  -String telefone
  -String nome
  -String email
}
class CompetenciaTecnica {
  -String codigo
  -String descBreve
  -String DescDetalhada
}

class AreaAtividade {
  -String codigo
  -String descBreve
  -String descDetalhada
}

class Tarefa {
  -String refUnica
  -String designacao
  -String descInf
  -String descTec
  -String duracao
  -String categoria
  -double custo
}
class CategoriaTarefa {
  -String identInterno
  -String descricao
  -String area
}


Plataforma "1" - - "*" AreaAtividade: possui >
Plataforma "1" - - "*" CompetenciaTecnica: possui >
Plataforma "1" - - "*" Organização: possui >
CompetenciaTecnica "*" - - "1" AreaAtividade: referente a >
AreaAtividade "1" - - "*" CategoriaTarefa: possui >
Tarefa "*" - - "1" CategoriaTarefa: catalogada em >
CompetenciaTecnica "*"- - "1" CategoriaTarefa: requer <
Organização "1" - - "*" Tarefa: possui >
@enduml

PlantUML version 1.2020.03beta11(Unknown compile time)
(GPL source distribution)
Java Runtime: Java(TM) SE Runtime Environment
JVM: Java HotSpot(TM) 64-Bit Server VM
Java Version: 1.7.0_25-b15
Operating System: Linux
Default Encoding: UTF-8
Language: en
Country: US
--></g></svg>