<?xml version="1.0" encoding="UTF-8" standalone="no"?><svg xmlns="http://www.w3.org/2000/svg" xmlns:xlink="http://www.w3.org/1999/xlink" contentScriptType="application/ecmascript" contentStyleType="text/css" height="824px" preserveAspectRatio="none" style="width:2073px;height:824px;" version="1.1" viewBox="0 0 2073 824" width="2073px" zoomAndPan="magnify"><defs><filter height="300%" id="fwwfli5d1eoy" width="300%" x="-1" y="-1"><feGaussianBlur result="blurOut" stdDeviation="2.0"/><feColorMatrix in="blurOut" result="blurOut2" type="matrix" values="0 0 0 0 0 0 0 0 0 0 0 0 0 0 0 0 0 0 .4 0"/><feOffset dx="4.0" dy="4.0" in="blurOut2" result="blurOut3"/><feBlend in="SourceGraphic" in2="blurOut3" mode="normal"/></filter></defs><g><!--MD5=[ecaed46f78f8cfe1e9ce18477649be18]
class Plataforma--><rect fill="#FEFECE" filter="url(#fwwfli5d1eoy)" height="52.8047" id="Plataforma" style="stroke: #A80036; stroke-width: 1.5;" width="128" x="6" y="529.5"/><ellipse cx="36.3" cy="545.5" fill="#ADD1B2" rx="11" ry="11" style="stroke: #A80036; stroke-width: 1.0;"/><path d="M38.6438,541.1719 C37.7063,540.7344 37.1125,540.5938 36.2375,540.5938 C33.6125,540.5938 31.6125,542.6719 31.6125,545.3906 L31.6125,546.5156 C31.6125,549.0938 33.7219,550.9844 36.6125,550.9844 C37.8313,550.9844 38.9875,550.6875 39.7375,550.1406 C40.3156,549.7344 40.6438,549.2813 40.6438,548.8906 C40.6438,548.4375 40.2531,548.0469 39.7844,548.0469 C39.5656,548.0469 39.3625,548.125 39.175,548.3125 C38.7219,548.7969 38.7219,548.7969 38.5344,548.8906 C38.1125,549.1563 37.425,549.2813 36.6594,549.2813 C34.6125,549.2813 33.3156,548.1875 33.3156,546.4844 L33.3156,545.3906 C33.3156,543.6094 34.5656,542.2969 36.3,542.2969 C36.8781,542.2969 37.4875,542.4531 37.9563,542.7031 C38.4406,542.9844 38.6125,543.2031 38.7063,543.6094 C38.7688,544.0156 38.8,544.1406 38.9406,544.2656 C39.0813,544.4063 39.3156,544.5156 39.5344,544.5156 C39.8,544.5156 40.0656,544.375 40.2375,544.1563 C40.3469,544 40.3781,543.8125 40.3781,543.3906 L40.3781,541.9688 C40.3781,541.5313 40.3625,541.4063 40.2688,541.25 C40.1125,540.9844 39.8313,540.8438 39.5344,540.8438 C39.2375,540.8438 39.0344,540.9375 38.8156,541.25 L38.6438,541.1719 Z "/><text fill="#000000" font-family="sans-serif" font-size="12" lengthAdjust="spacingAndGlyphs" textLength="62" x="53.7" y="549.6543">Plataforma</text><line style="stroke: #A80036; stroke-width: 1.5;" x1="7" x2="133" y1="561.5" y2="561.5"/><rect fill="none" height="6" style="stroke: #C82930; stroke-width: 1.0;" width="6" x="14" y="569.5"/><text fill="#000000" font-family="sans-serif" font-size="11" lengthAdjust="spacingAndGlyphs" textLength="102" x="26" y="575.7104">String designacao</text><!--MD5=[6559d866213c6b3fd003379aeba85775]
class Organização--><rect fill="#FEFECE" filter="url(#fwwfli5d1eoy)" height="104.0234" id="Organização" style="stroke: #A80036; stroke-width: 1.5;" width="112" x="250" y="336"/><ellipse cx="266.8" cy="352" fill="#ADD1B2" rx="11" ry="11" style="stroke: #A80036; stroke-width: 1.0;"/><path d="M269.1438,347.6719 C268.2063,347.2344 267.6125,347.0938 266.7375,347.0938 C264.1125,347.0938 262.1125,349.1719 262.1125,351.8906 L262.1125,353.0156 C262.1125,355.5938 264.2219,357.4844 267.1125,357.4844 C268.3313,357.4844 269.4875,357.1875 270.2375,356.6406 C270.8156,356.2344 271.1438,355.7813 271.1438,355.3906 C271.1438,354.9375 270.7531,354.5469 270.2844,354.5469 C270.0656,354.5469 269.8625,354.625 269.675,354.8125 C269.2219,355.2969 269.2219,355.2969 269.0344,355.3906 C268.6125,355.6563 267.925,355.7813 267.1594,355.7813 C265.1125,355.7813 263.8156,354.6875 263.8156,352.9844 L263.8156,351.8906 C263.8156,350.1094 265.0656,348.7969 266.8,348.7969 C267.3781,348.7969 267.9875,348.9531 268.4563,349.2031 C268.9406,349.4844 269.1125,349.7031 269.2063,350.1094 C269.2688,350.5156 269.3,350.6406 269.4406,350.7656 C269.5813,350.9063 269.8156,351.0156 270.0344,351.0156 C270.3,351.0156 270.5656,350.875 270.7375,350.6563 C270.8469,350.5 270.8781,350.3125 270.8781,349.8906 L270.8781,348.4688 C270.8781,348.0313 270.8625,347.9063 270.7688,347.75 C270.6125,347.4844 270.3313,347.3438 270.0344,347.3438 C269.7375,347.3438 269.5344,347.4375 269.3156,347.75 L269.1438,347.6719 Z "/><text fill="#000000" font-family="sans-serif" font-size="12" lengthAdjust="spacingAndGlyphs" textLength="76" x="281.2" y="356.1543">Organização</text><line style="stroke: #A80036; stroke-width: 1.5;" x1="251" x2="361" y1="368" y2="368"/><rect fill="none" height="6" style="stroke: #C82930; stroke-width: 1.0;" width="6" x="258" y="376"/><text fill="#000000" font-family="sans-serif" font-size="11" lengthAdjust="spacingAndGlyphs" textLength="54" x="270" y="382.2104">String NIF</text><rect fill="none" height="6" style="stroke: #C82930; stroke-width: 1.0;" width="6" x="258" y="388.8047"/><text fill="#000000" font-family="sans-serif" font-size="11" lengthAdjust="spacingAndGlyphs" textLength="82" x="270" y="395.0151">String website</text><rect fill="none" height="6" style="stroke: #C82930; stroke-width: 1.0;" width="6" x="258" y="401.6094"/><text fill="#000000" font-family="sans-serif" font-size="11" lengthAdjust="spacingAndGlyphs" textLength="86" x="270" y="407.8198">String telefone</text><rect fill="none" height="6" style="stroke: #C82930; stroke-width: 1.0;" width="6" x="258" y="414.4141"/><text fill="#000000" font-family="sans-serif" font-size="11" lengthAdjust="spacingAndGlyphs" textLength="70" x="270" y="420.6245">String nome</text><rect fill="none" height="6" style="stroke: #C82930; stroke-width: 1.0;" width="6" x="258" y="427.2188"/><text fill="#000000" font-family="sans-serif" font-size="11" lengthAdjust="spacingAndGlyphs" textLength="69" x="270" y="433.4292">String email</text><!--MD5=[ac8682ea5466d223e49472789fb200d2]
class Colaborador--><rect fill="#FEFECE" filter="url(#fwwfli5d1eoy)" height="91.2188" id="Colaborador" style="stroke: #A80036; stroke-width: 1.5;" width="112" x="1606" y="86.5"/><ellipse cx="1623.25" cy="102.5" fill="#ADD1B2" rx="11" ry="11" style="stroke: #A80036; stroke-width: 1.0;"/><path d="M1625.5938,98.1719 C1624.6563,97.7344 1624.0625,97.5938 1623.1875,97.5938 C1620.5625,97.5938 1618.5625,99.6719 1618.5625,102.3906 L1618.5625,103.5156 C1618.5625,106.0938 1620.6719,107.9844 1623.5625,107.9844 C1624.7813,107.9844 1625.9375,107.6875 1626.6875,107.1406 C1627.2656,106.7344 1627.5938,106.2813 1627.5938,105.8906 C1627.5938,105.4375 1627.2031,105.0469 1626.7344,105.0469 C1626.5156,105.0469 1626.3125,105.125 1626.125,105.3125 C1625.6719,105.7969 1625.6719,105.7969 1625.4844,105.8906 C1625.0625,106.1563 1624.375,106.2813 1623.6094,106.2813 C1621.5625,106.2813 1620.2656,105.1875 1620.2656,103.4844 L1620.2656,102.3906 C1620.2656,100.6094 1621.5156,99.2969 1623.25,99.2969 C1623.8281,99.2969 1624.4375,99.4531 1624.9063,99.7031 C1625.3906,99.9844 1625.5625,100.2031 1625.6563,100.6094 C1625.7188,101.0156 1625.75,101.1406 1625.8906,101.2656 C1626.0313,101.4063 1626.2656,101.5156 1626.4844,101.5156 C1626.75,101.5156 1627.0156,101.375 1627.1875,101.1563 C1627.2969,101 1627.3281,100.8125 1627.3281,100.3906 L1627.3281,98.9688 C1627.3281,98.5313 1627.3125,98.4063 1627.2188,98.25 C1627.0625,97.9844 1626.7813,97.8438 1626.4844,97.8438 C1626.1875,97.8438 1625.9844,97.9375 1625.7656,98.25 L1625.5938,98.1719 Z "/><text fill="#000000" font-family="sans-serif" font-size="12" lengthAdjust="spacingAndGlyphs" textLength="75" x="1637.75" y="106.6543">Colaborador</text><line style="stroke: #A80036; stroke-width: 1.5;" x1="1607" x2="1717" y1="118.5" y2="118.5"/><rect fill="none" height="6" style="stroke: #C82930; stroke-width: 1.0;" width="6" x="1614" y="126.5"/><text fill="#000000" font-family="sans-serif" font-size="11" lengthAdjust="spacingAndGlyphs" textLength="75" x="1626" y="132.7104">String funcao</text><rect fill="none" height="6" style="stroke: #C82930; stroke-width: 1.0;" width="6" x="1614" y="139.3047"/><text fill="#000000" font-family="sans-serif" font-size="11" lengthAdjust="spacingAndGlyphs" textLength="86" x="1626" y="145.5151">String telefone</text><rect fill="none" height="6" style="stroke: #C82930; stroke-width: 1.0;" width="6" x="1614" y="152.1094"/><text fill="#000000" font-family="sans-serif" font-size="11" lengthAdjust="spacingAndGlyphs" textLength="70" x="1626" y="158.3198">String nome</text><rect fill="none" height="6" style="stroke: #C82930; stroke-width: 1.0;" width="6" x="1614" y="164.9141"/><text fill="#000000" font-family="sans-serif" font-size="11" lengthAdjust="spacingAndGlyphs" textLength="69" x="1626" y="171.1245">String email</text><!--MD5=[5dd1d6732c071e710b9290b531f2fa3b]
class Utilizador--><rect fill="#FEFECE" filter="url(#fwwfli5d1eoy)" height="78.4141" id="Utilizador" style="stroke: #A80036; stroke-width: 1.5;" width="116" x="1921" y="93"/><ellipse cx="1948.15" cy="109" fill="#ADD1B2" rx="11" ry="11" style="stroke: #A80036; stroke-width: 1.0;"/><path d="M1950.4938,104.6719 C1949.5563,104.2344 1948.9625,104.0938 1948.0875,104.0938 C1945.4625,104.0938 1943.4625,106.1719 1943.4625,108.8906 L1943.4625,110.0156 C1943.4625,112.5938 1945.5719,114.4844 1948.4625,114.4844 C1949.6813,114.4844 1950.8375,114.1875 1951.5875,113.6406 C1952.1656,113.2344 1952.4938,112.7813 1952.4938,112.3906 C1952.4938,111.9375 1952.1031,111.5469 1951.6344,111.5469 C1951.4156,111.5469 1951.2125,111.625 1951.025,111.8125 C1950.5719,112.2969 1950.5719,112.2969 1950.3844,112.3906 C1949.9625,112.6563 1949.275,112.7813 1948.5094,112.7813 C1946.4625,112.7813 1945.1656,111.6875 1945.1656,109.9844 L1945.1656,108.8906 C1945.1656,107.1094 1946.4156,105.7969 1948.15,105.7969 C1948.7281,105.7969 1949.3375,105.9531 1949.8063,106.2031 C1950.2906,106.4844 1950.4625,106.7031 1950.5563,107.1094 C1950.6188,107.5156 1950.65,107.6406 1950.7906,107.7656 C1950.9313,107.9063 1951.1656,108.0156 1951.3844,108.0156 C1951.65,108.0156 1951.9156,107.875 1952.0875,107.6563 C1952.1969,107.5 1952.2281,107.3125 1952.2281,106.8906 L1952.2281,105.4688 C1952.2281,105.0313 1952.2125,104.9063 1952.1188,104.75 C1951.9625,104.4844 1951.6813,104.3438 1951.3844,104.3438 C1951.0875,104.3438 1950.8844,104.4375 1950.6656,104.75 L1950.4938,104.6719 Z "/><text fill="#000000" font-family="sans-serif" font-size="12" lengthAdjust="spacingAndGlyphs" textLength="57" x="1964.85" y="113.1543">Utilizador</text><line style="stroke: #A80036; stroke-width: 1.5;" x1="1922" x2="2036" y1="125" y2="125"/><rect fill="none" height="6" style="stroke: #C82930; stroke-width: 1.0;" width="6" x="1929" y="133"/><text fill="#000000" font-family="sans-serif" font-size="11" lengthAdjust="spacingAndGlyphs" textLength="70" x="1941" y="139.2104">String nome</text><rect fill="none" height="6" style="stroke: #C82930; stroke-width: 1.0;" width="6" x="1929" y="145.8047"/><text fill="#000000" font-family="sans-serif" font-size="11" lengthAdjust="spacingAndGlyphs" textLength="69" x="1941" y="152.0151">String email</text><rect fill="none" height="6" style="stroke: #C82930; stroke-width: 1.0;" width="6" x="1929" y="158.6094"/><text fill="#000000" font-family="sans-serif" font-size="11" lengthAdjust="spacingAndGlyphs" textLength="90" x="1941" y="164.8198">String password</text><!--MD5=[27c2d4bbe9f7b9d3b0ea2797cc54308a]
class Tarefa--><rect fill="#FEFECE" filter="url(#fwwfli5d1eoy)" height="116.8281" id="Tarefa" style="stroke: #A80036; stroke-width: 1.5;" width="128" x="478" y="278.5"/><ellipse cx="519.1" cy="294.5" fill="#ADD1B2" rx="11" ry="11" style="stroke: #A80036; stroke-width: 1.0;"/><path d="M521.4438,290.1719 C520.5063,289.7344 519.9125,289.5938 519.0375,289.5938 C516.4125,289.5938 514.4125,291.6719 514.4125,294.3906 L514.4125,295.5156 C514.4125,298.0938 516.5219,299.9844 519.4125,299.9844 C520.6313,299.9844 521.7875,299.6875 522.5375,299.1406 C523.1156,298.7344 523.4438,298.2813 523.4438,297.8906 C523.4438,297.4375 523.0531,297.0469 522.5844,297.0469 C522.3656,297.0469 522.1625,297.125 521.975,297.3125 C521.5219,297.7969 521.5219,297.7969 521.3344,297.8906 C520.9125,298.1563 520.225,298.2813 519.4594,298.2813 C517.4125,298.2813 516.1156,297.1875 516.1156,295.4844 L516.1156,294.3906 C516.1156,292.6094 517.3656,291.2969 519.1,291.2969 C519.6781,291.2969 520.2875,291.4531 520.7563,291.7031 C521.2406,291.9844 521.4125,292.2031 521.5063,292.6094 C521.5688,293.0156 521.6,293.1406 521.7406,293.2656 C521.8813,293.4063 522.1156,293.5156 522.3344,293.5156 C522.6,293.5156 522.8656,293.375 523.0375,293.1563 C523.1469,293 523.1781,292.8125 523.1781,292.3906 L523.1781,290.9688 C523.1781,290.5313 523.1625,290.4063 523.0688,290.25 C522.9125,289.9844 522.6313,289.8438 522.3344,289.8438 C522.0375,289.8438 521.8344,289.9375 521.6156,290.25 L521.4438,290.1719 Z "/><text fill="#000000" font-family="sans-serif" font-size="12" lengthAdjust="spacingAndGlyphs" textLength="38" x="538.9" y="298.6543">Tarefa</text><line style="stroke: #A80036; stroke-width: 1.5;" x1="479" x2="605" y1="310.5" y2="310.5"/><rect fill="none" height="6" style="stroke: #C82930; stroke-width: 1.0;" width="6" x="486" y="318.5"/><text fill="#000000" font-family="sans-serif" font-size="11" lengthAdjust="spacingAndGlyphs" textLength="84" x="498" y="324.7104">String refUnica</text><rect fill="none" height="6" style="stroke: #C82930; stroke-width: 1.0;" width="6" x="486" y="331.3047"/><text fill="#000000" font-family="sans-serif" font-size="11" lengthAdjust="spacingAndGlyphs" textLength="102" x="498" y="337.5151">String designacao</text><rect fill="none" height="6" style="stroke: #C82930; stroke-width: 1.0;" width="6" x="486" y="344.1094"/><text fill="#000000" font-family="sans-serif" font-size="11" lengthAdjust="spacingAndGlyphs" textLength="78" x="498" y="350.3198">String descInf</text><rect fill="none" height="6" style="stroke: #C82930; stroke-width: 1.0;" width="6" x="486" y="356.9141"/><text fill="#000000" font-family="sans-serif" font-size="11" lengthAdjust="spacingAndGlyphs" textLength="85" x="498" y="363.1245">String descTec</text><rect fill="none" height="6" style="stroke: #C82930; stroke-width: 1.0;" width="6" x="486" y="369.7188"/><text fill="#000000" font-family="sans-serif" font-size="11" lengthAdjust="spacingAndGlyphs" textLength="90" x="498" y="375.9292">Integer duracao</text><rect fill="none" height="6" style="stroke: #C82930; stroke-width: 1.0;" width="6" x="486" y="382.5234"/><text fill="#000000" font-family="sans-serif" font-size="11" lengthAdjust="spacingAndGlyphs" textLength="75" x="498" y="388.7339">Double custo</text><!--MD5=[19db0db7353a4bf63eefc676e5ba9b80]
class Anuncio--><rect fill="#FEFECE" filter="url(#fwwfli5d1eoy)" height="91.2188" id="Anuncio" style="stroke: #A80036; stroke-width: 1.5;" width="132" x="722" y="375.5"/><ellipse cx="760.85" cy="391.5" fill="#ADD1B2" rx="11" ry="11" style="stroke: #A80036; stroke-width: 1.0;"/><path d="M763.1938,387.1719 C762.2563,386.7344 761.6625,386.5938 760.7875,386.5938 C758.1625,386.5938 756.1625,388.6719 756.1625,391.3906 L756.1625,392.5156 C756.1625,395.0938 758.2719,396.9844 761.1625,396.9844 C762.3813,396.9844 763.5375,396.6875 764.2875,396.1406 C764.8656,395.7344 765.1938,395.2813 765.1938,394.8906 C765.1938,394.4375 764.8031,394.0469 764.3344,394.0469 C764.1156,394.0469 763.9125,394.125 763.725,394.3125 C763.2719,394.7969 763.2719,394.7969 763.0844,394.8906 C762.6625,395.1563 761.975,395.2813 761.2094,395.2813 C759.1625,395.2813 757.8656,394.1875 757.8656,392.4844 L757.8656,391.3906 C757.8656,389.6094 759.1156,388.2969 760.85,388.2969 C761.4281,388.2969 762.0375,388.4531 762.5063,388.7031 C762.9906,388.9844 763.1625,389.2031 763.2563,389.6094 C763.3188,390.0156 763.35,390.1406 763.4906,390.2656 C763.6313,390.4063 763.8656,390.5156 764.0844,390.5156 C764.35,390.5156 764.6156,390.375 764.7875,390.1563 C764.8969,390 764.9281,389.8125 764.9281,389.3906 L764.9281,387.9688 C764.9281,387.5313 764.9125,387.4063 764.8188,387.25 C764.6625,386.9844 764.3813,386.8438 764.0844,386.8438 C763.7875,386.8438 763.5844,386.9375 763.3656,387.25 L763.1938,387.1719 Z "/><text fill="#000000" font-family="sans-serif" font-size="12" lengthAdjust="spacingAndGlyphs" textLength="47" x="780.15" y="395.6543">Anuncio</text><line style="stroke: #A80036; stroke-width: 1.5;" x1="723" x2="853" y1="407.5" y2="407.5"/><rect fill="none" height="6" style="stroke: #C82930; stroke-width: 1.0;" width="6" x="730" y="415.5"/><text fill="#000000" font-family="sans-serif" font-size="11" lengthAdjust="spacingAndGlyphs" textLength="106" x="742" y="421.7104">Period publicitacao</text><rect fill="none" height="6" style="stroke: #C82930; stroke-width: 1.0;" width="6" x="730" y="428.3047"/><text fill="#000000" font-family="sans-serif" font-size="11" lengthAdjust="spacingAndGlyphs" textLength="105" x="742" y="434.5151">Period candidatura</text><rect fill="none" height="6" style="stroke: #C82930; stroke-width: 1.0;" width="6" x="730" y="441.1094"/><text fill="#000000" font-family="sans-serif" font-size="11" lengthAdjust="spacingAndGlyphs" textLength="87" x="742" y="447.3198">Period seriacao</text><rect fill="none" height="6" style="stroke: #C82930; stroke-width: 1.0;" width="6" x="730" y="453.9141"/><text fill="#000000" font-family="sans-serif" font-size="11" lengthAdjust="spacingAndGlyphs" textLength="75" x="742" y="460.1245">String anunId</text><!--MD5=[84d1b9922499e034344dac4e4526a697]
class Seriacao--><rect fill="#FEFECE" filter="url(#fwwfli5d1eoy)" height="52.8047" id="Seriacao" style="stroke: #A80036; stroke-width: 1.5;" width="145" x="984" y="308.5"/><ellipse cx="1026" cy="324.5" fill="#ADD1B2" rx="11" ry="11" style="stroke: #A80036; stroke-width: 1.0;"/><path d="M1028.3438,320.1719 C1027.4063,319.7344 1026.8125,319.5938 1025.9375,319.5938 C1023.3125,319.5938 1021.3125,321.6719 1021.3125,324.3906 L1021.3125,325.5156 C1021.3125,328.0938 1023.4219,329.9844 1026.3125,329.9844 C1027.5313,329.9844 1028.6875,329.6875 1029.4375,329.1406 C1030.0156,328.7344 1030.3438,328.2813 1030.3438,327.8906 C1030.3438,327.4375 1029.9531,327.0469 1029.4844,327.0469 C1029.2656,327.0469 1029.0625,327.125 1028.875,327.3125 C1028.4219,327.7969 1028.4219,327.7969 1028.2344,327.8906 C1027.8125,328.1563 1027.125,328.2813 1026.3594,328.2813 C1024.3125,328.2813 1023.0156,327.1875 1023.0156,325.4844 L1023.0156,324.3906 C1023.0156,322.6094 1024.2656,321.2969 1026,321.2969 C1026.5781,321.2969 1027.1875,321.4531 1027.6563,321.7031 C1028.1406,321.9844 1028.3125,322.2031 1028.4063,322.6094 C1028.4688,323.0156 1028.5,323.1406 1028.6406,323.2656 C1028.7813,323.4063 1029.0156,323.5156 1029.2344,323.5156 C1029.5,323.5156 1029.7656,323.375 1029.9375,323.1563 C1030.0469,323 1030.0781,322.8125 1030.0781,322.3906 L1030.0781,320.9688 C1030.0781,320.5313 1030.0625,320.4063 1029.9688,320.25 C1029.8125,319.9844 1029.5313,319.8438 1029.2344,319.8438 C1028.9375,319.8438 1028.7344,319.9375 1028.5156,320.25 L1028.3438,320.1719 Z "/><text fill="#000000" font-family="sans-serif" font-size="12" lengthAdjust="spacingAndGlyphs" textLength="53" x="1046" y="328.6543">Seriacao</text><line style="stroke: #A80036; stroke-width: 1.5;" x1="985" x2="1128" y1="340.5" y2="340.5"/><rect fill="none" height="6" style="stroke: #C82930; stroke-width: 1.0;" width="6" x="992" y="348.5"/><text fill="#000000" font-family="sans-serif" font-size="11" lengthAdjust="spacingAndGlyphs" textLength="119" x="1004" y="354.7104">Date dataRealizacao</text><!--MD5=[475c5b924ed41035684e2831311827d2]
class Candidatura--><rect fill="#FEFECE" filter="url(#fwwfli5d1eoy)" height="104.0234" id="Candidatura" style="stroke: #A80036; stroke-width: 1.5;" width="160" x="1899" y="404"/><ellipse cx="1939.65" cy="420" fill="#ADD1B2" rx="11" ry="11" style="stroke: #A80036; stroke-width: 1.0;"/><path d="M1941.9938,415.6719 C1941.0563,415.2344 1940.4625,415.0938 1939.5875,415.0938 C1936.9625,415.0938 1934.9625,417.1719 1934.9625,419.8906 L1934.9625,421.0156 C1934.9625,423.5938 1937.0719,425.4844 1939.9625,425.4844 C1941.1813,425.4844 1942.3375,425.1875 1943.0875,424.6406 C1943.6656,424.2344 1943.9938,423.7813 1943.9938,423.3906 C1943.9938,422.9375 1943.6031,422.5469 1943.1344,422.5469 C1942.9156,422.5469 1942.7125,422.625 1942.525,422.8125 C1942.0719,423.2969 1942.0719,423.2969 1941.8844,423.3906 C1941.4625,423.6563 1940.775,423.7813 1940.0094,423.7813 C1937.9625,423.7813 1936.6656,422.6875 1936.6656,420.9844 L1936.6656,419.8906 C1936.6656,418.1094 1937.9156,416.7969 1939.65,416.7969 C1940.2281,416.7969 1940.8375,416.9531 1941.3063,417.2031 C1941.7906,417.4844 1941.9625,417.7031 1942.0563,418.1094 C1942.1188,418.5156 1942.15,418.6406 1942.2906,418.7656 C1942.4313,418.9063 1942.6656,419.0156 1942.8844,419.0156 C1943.15,419.0156 1943.4156,418.875 1943.5875,418.6563 C1943.6969,418.5 1943.7281,418.3125 1943.7281,417.8906 L1943.7281,416.4688 C1943.7281,416.0313 1943.7125,415.9063 1943.6188,415.75 C1943.4625,415.4844 1943.1813,415.3438 1942.8844,415.3438 C1942.5875,415.3438 1942.3844,415.4375 1942.1656,415.75 L1941.9938,415.6719 Z "/><text fill="#000000" font-family="sans-serif" font-size="12" lengthAdjust="spacingAndGlyphs" textLength="71" x="1959.35" y="424.1543">Candidatura</text><line style="stroke: #A80036; stroke-width: 1.5;" x1="1900" x2="2058" y1="436" y2="436"/><rect fill="none" height="6" style="stroke: #C82930; stroke-width: 1.0;" width="6" x="1907" y="444"/><text fill="#000000" font-family="sans-serif" font-size="11" lengthAdjust="spacingAndGlyphs" textLength="125" x="1919" y="450.2104">Date dataCandidatura</text><rect fill="none" height="6" style="stroke: #C82930; stroke-width: 1.0;" width="6" x="1907" y="456.8047"/><text fill="#000000" font-family="sans-serif" font-size="11" lengthAdjust="spacingAndGlyphs" textLength="134" x="1919" y="463.0151">Double valorPretendido</text><rect fill="none" height="6" style="stroke: #C82930; stroke-width: 1.0;" width="6" x="1907" y="469.6094"/><text fill="#000000" font-family="sans-serif" font-size="11" lengthAdjust="spacingAndGlyphs" textLength="95" x="1919" y="475.8198">Integer numDias</text><rect fill="none" height="6" style="stroke: #C82930; stroke-width: 1.0;" width="6" x="1907" y="482.4141"/><text fill="#000000" font-family="sans-serif" font-size="11" lengthAdjust="spacingAndGlyphs" textLength="131" x="1919" y="488.6245">String txtApresentacao</text><rect fill="none" height="6" style="stroke: #C82930; stroke-width: 1.0;" width="6" x="1907" y="495.2188"/><text fill="#000000" font-family="sans-serif" font-size="11" lengthAdjust="spacingAndGlyphs" textLength="109" x="1919" y="501.4292">String txtMotivacao</text><!--MD5=[716bba0e94eea125d5a66a891f2c3c34]
class Classificacao--><rect fill="#FEFECE" filter="url(#fwwfli5d1eoy)" height="65.6094" id="Classificacao" style="stroke: #A80036; stroke-width: 1.5;" width="126" x="1599" y="366"/><ellipse cx="1621.2" cy="382" fill="#ADD1B2" rx="11" ry="11" style="stroke: #A80036; stroke-width: 1.0;"/><path d="M1623.5438,377.6719 C1622.6063,377.2344 1622.0125,377.0938 1621.1375,377.0938 C1618.5125,377.0938 1616.5125,379.1719 1616.5125,381.8906 L1616.5125,383.0156 C1616.5125,385.5938 1618.6219,387.4844 1621.5125,387.4844 C1622.7313,387.4844 1623.8875,387.1875 1624.6375,386.6406 C1625.2156,386.2344 1625.5438,385.7813 1625.5438,385.3906 C1625.5438,384.9375 1625.1531,384.5469 1624.6844,384.5469 C1624.4656,384.5469 1624.2625,384.625 1624.075,384.8125 C1623.6219,385.2969 1623.6219,385.2969 1623.4344,385.3906 C1623.0125,385.6563 1622.325,385.7813 1621.5594,385.7813 C1619.5125,385.7813 1618.2156,384.6875 1618.2156,382.9844 L1618.2156,381.8906 C1618.2156,380.1094 1619.4656,378.7969 1621.2,378.7969 C1621.7781,378.7969 1622.3875,378.9531 1622.8563,379.2031 C1623.3406,379.4844 1623.5125,379.7031 1623.6063,380.1094 C1623.6688,380.5156 1623.7,380.6406 1623.8406,380.7656 C1623.9813,380.9063 1624.2156,381.0156 1624.4344,381.0156 C1624.7,381.0156 1624.9656,380.875 1625.1375,380.6563 C1625.2469,380.5 1625.2781,380.3125 1625.2781,379.8906 L1625.2781,378.4688 C1625.2781,378.0313 1625.2625,377.9063 1625.1688,377.75 C1625.0125,377.4844 1624.7313,377.3438 1624.4344,377.3438 C1624.1375,377.3438 1623.9344,377.4375 1623.7156,377.75 L1623.5438,377.6719 Z "/><text fill="#000000" font-family="sans-serif" font-size="12" lengthAdjust="spacingAndGlyphs" textLength="78" x="1636.8" y="386.1543">Classificacao</text><line style="stroke: #A80036; stroke-width: 1.5;" x1="1600" x2="1724" y1="398" y2="398"/><rect fill="none" height="6" style="stroke: #C82930; stroke-width: 1.0;" width="6" x="1607" y="406"/><text fill="#000000" font-family="sans-serif" font-size="11" lengthAdjust="spacingAndGlyphs" textLength="88" x="1619" y="412.2104">Integer posicao</text><rect fill="none" height="6" style="stroke: #C82930; stroke-width: 1.0;" width="6" x="1607" y="418.8047"/><text fill="#000000" font-family="sans-serif" font-size="11" lengthAdjust="spacingAndGlyphs" textLength="100" x="1619" y="425.0151">String justificacao</text><!--MD5=[19648b1b60c2baeaefcc79e2077dc295]
class RegimentoAplicavel--><rect fill="#FEFECE" filter="url(#fwwfli5d1eoy)" height="78.4141" id="RegimentoAplicavel" style="stroke: #A80036; stroke-width: 1.5;" width="150" x="1290.5" y="384"/><ellipse cx="1305.5" cy="400" fill="#ADD1B2" rx="11" ry="11" style="stroke: #A80036; stroke-width: 1.0;"/><path d="M1307.8438,395.6719 C1306.9063,395.2344 1306.3125,395.0938 1305.4375,395.0938 C1302.8125,395.0938 1300.8125,397.1719 1300.8125,399.8906 L1300.8125,401.0156 C1300.8125,403.5938 1302.9219,405.4844 1305.8125,405.4844 C1307.0313,405.4844 1308.1875,405.1875 1308.9375,404.6406 C1309.5156,404.2344 1309.8438,403.7813 1309.8438,403.3906 C1309.8438,402.9375 1309.4531,402.5469 1308.9844,402.5469 C1308.7656,402.5469 1308.5625,402.625 1308.375,402.8125 C1307.9219,403.2969 1307.9219,403.2969 1307.7344,403.3906 C1307.3125,403.6563 1306.625,403.7813 1305.8594,403.7813 C1303.8125,403.7813 1302.5156,402.6875 1302.5156,400.9844 L1302.5156,399.8906 C1302.5156,398.1094 1303.7656,396.7969 1305.5,396.7969 C1306.0781,396.7969 1306.6875,396.9531 1307.1563,397.2031 C1307.6406,397.4844 1307.8125,397.7031 1307.9063,398.1094 C1307.9688,398.5156 1308,398.6406 1308.1406,398.7656 C1308.2813,398.9063 1308.5156,399.0156 1308.7344,399.0156 C1309,399.0156 1309.2656,398.875 1309.4375,398.6563 C1309.5469,398.5 1309.5781,398.3125 1309.5781,397.8906 L1309.5781,396.4688 C1309.5781,396.0313 1309.5625,395.9063 1309.4688,395.75 C1309.3125,395.4844 1309.0313,395.3438 1308.7344,395.3438 C1308.4375,395.3438 1308.2344,395.4375 1308.0156,395.75 L1307.8438,395.6719 Z "/><text fill="#000000" font-family="sans-serif" font-size="12" lengthAdjust="spacingAndGlyphs" textLength="118" x="1319.5" y="404.1543">RegimentoAplicavel</text><line style="stroke: #A80036; stroke-width: 1.5;" x1="1291.5" x2="1439.5" y1="416" y2="416"/><rect fill="none" height="6" style="stroke: #C82930; stroke-width: 1.0;" width="6" x="1298.5" y="424"/><text fill="#000000" font-family="sans-serif" font-size="11" lengthAdjust="spacingAndGlyphs" textLength="102" x="1310.5" y="430.2104">String designacao</text><rect fill="none" height="6" style="stroke: #C82930; stroke-width: 1.0;" width="6" x="1298.5" y="436.8047"/><text fill="#000000" font-family="sans-serif" font-size="11" lengthAdjust="spacingAndGlyphs" textLength="103" x="1310.5" y="443.0151">String descRegras</text><rect fill="none" height="6" style="stroke: #C82930; stroke-width: 1.0;" width="6" x="1298.5" y="449.6094"/><text fill="#000000" font-family="sans-serif" font-size="11" lengthAdjust="spacingAndGlyphs" textLength="107" x="1310.5" y="455.8198">String identificador</text><!--MD5=[5d1ab724c50d81e7fd2e67537350aa20]
class Adjudicacao--><rect fill="#FEFECE" filter="url(#fwwfli5d1eoy)" height="116.8281" id="Adjudicacao" style="stroke: #A80036; stroke-width: 1.5;" width="166" x="1896" y="634.5"/><ellipse cx="1938.45" cy="650.5" fill="#ADD1B2" rx="11" ry="11" style="stroke: #A80036; stroke-width: 1.0;"/><path d="M1940.7938,646.1719 C1939.8563,645.7344 1939.2625,645.5938 1938.3875,645.5938 C1935.7625,645.5938 1933.7625,647.6719 1933.7625,650.3906 L1933.7625,651.5156 C1933.7625,654.0938 1935.8719,655.9844 1938.7625,655.9844 C1939.9813,655.9844 1941.1375,655.6875 1941.8875,655.1406 C1942.4656,654.7344 1942.7938,654.2813 1942.7938,653.8906 C1942.7938,653.4375 1942.4031,653.0469 1941.9344,653.0469 C1941.7156,653.0469 1941.5125,653.125 1941.325,653.3125 C1940.8719,653.7969 1940.8719,653.7969 1940.6844,653.8906 C1940.2625,654.1563 1939.575,654.2813 1938.8094,654.2813 C1936.7625,654.2813 1935.4656,653.1875 1935.4656,651.4844 L1935.4656,650.3906 C1935.4656,648.6094 1936.7156,647.2969 1938.45,647.2969 C1939.0281,647.2969 1939.6375,647.4531 1940.1063,647.7031 C1940.5906,647.9844 1940.7625,648.2031 1940.8563,648.6094 C1940.9188,649.0156 1940.95,649.1406 1941.0906,649.2656 C1941.2313,649.4063 1941.4656,649.5156 1941.6844,649.5156 C1941.95,649.5156 1942.2156,649.375 1942.3875,649.1563 C1942.4969,649 1942.5281,648.8125 1942.5281,648.3906 L1942.5281,646.9688 C1942.5281,646.5313 1942.5125,646.4063 1942.4188,646.25 C1942.2625,645.9844 1941.9813,645.8438 1941.6844,645.8438 C1941.3875,645.8438 1941.1844,645.9375 1940.9656,646.25 L1940.7938,646.1719 Z "/><text fill="#000000" font-family="sans-serif" font-size="12" lengthAdjust="spacingAndGlyphs" textLength="73" x="1958.55" y="654.6543">Adjudicacao</text><line style="stroke: #A80036; stroke-width: 1.5;" x1="1897" x2="2061" y1="666.5" y2="666.5"/><rect fill="none" height="6" style="stroke: #C82930; stroke-width: 1.0;" width="6" x="1904" y="674.5"/><text fill="#000000" font-family="sans-serif" font-size="11" lengthAdjust="spacingAndGlyphs" textLength="119" x="1916" y="680.7104">Date dataRealizacao</text><rect fill="none" height="6" style="stroke: #C82930; stroke-width: 1.0;" width="6" x="1904" y="687.3047"/><text fill="#000000" font-family="sans-serif" font-size="11" lengthAdjust="spacingAndGlyphs" textLength="126" x="1916" y="693.5151">String numSequencial</text><rect fill="none" height="6" style="stroke: #C82930; stroke-width: 1.0;" width="6" x="1904" y="700.1094"/><text fill="#000000" font-family="sans-serif" font-size="11" lengthAdjust="spacingAndGlyphs" textLength="120" x="1916" y="706.3198">Period perRealizacao</text><rect fill="none" height="6" style="stroke: #C82930; stroke-width: 1.0;" width="6" x="1904" y="712.9141"/><text fill="#000000" font-family="sans-serif" font-size="11" lengthAdjust="spacingAndGlyphs" textLength="98" x="1916" y="719.1245">String refAnuncio</text><rect fill="none" height="6" style="stroke: #C82930; stroke-width: 1.0;" width="6" x="1904" y="725.7188"/><text fill="#000000" font-family="sans-serif" font-size="11" lengthAdjust="spacingAndGlyphs" textLength="101" x="1916" y="731.9292">String descTarefa</text><rect fill="none" height="6" style="stroke: #C82930; stroke-width: 1.0;" width="6" x="1904" y="738.5234"/><text fill="#000000" font-family="sans-serif" font-size="11" lengthAdjust="spacingAndGlyphs" textLength="140" x="1916" y="744.7339">Double valorConcordado</text><!--MD5=[2354768c114fc6a87ed2acc5f221a136]
class SeriacaoManual--><rect fill="#FEFECE" filter="url(#fwwfli5d1eoy)" height="52.8047" id="SeriacaoManual" style="stroke: #A80036; stroke-width: 1.5;" width="136" x="1297.5" y="220.5"/><ellipse cx="1317" cy="236.5" fill="#ADD1B2" rx="11" ry="11" style="stroke: #A80036; stroke-width: 1.0;"/><path d="M1319.3438,232.1719 C1318.4063,231.7344 1317.8125,231.5938 1316.9375,231.5938 C1314.3125,231.5938 1312.3125,233.6719 1312.3125,236.3906 L1312.3125,237.5156 C1312.3125,240.0938 1314.4219,241.9844 1317.3125,241.9844 C1318.5313,241.9844 1319.6875,241.6875 1320.4375,241.1406 C1321.0156,240.7344 1321.3438,240.2813 1321.3438,239.8906 C1321.3438,239.4375 1320.9531,239.0469 1320.4844,239.0469 C1320.2656,239.0469 1320.0625,239.125 1319.875,239.3125 C1319.4219,239.7969 1319.4219,239.7969 1319.2344,239.8906 C1318.8125,240.1563 1318.125,240.2813 1317.3594,240.2813 C1315.3125,240.2813 1314.0156,239.1875 1314.0156,237.4844 L1314.0156,236.3906 C1314.0156,234.6094 1315.2656,233.2969 1317,233.2969 C1317.5781,233.2969 1318.1875,233.4531 1318.6563,233.7031 C1319.1406,233.9844 1319.3125,234.2031 1319.4063,234.6094 C1319.4688,235.0156 1319.5,235.1406 1319.6406,235.2656 C1319.7813,235.4063 1320.0156,235.5156 1320.2344,235.5156 C1320.5,235.5156 1320.7656,235.375 1320.9375,235.1563 C1321.0469,235 1321.0781,234.8125 1321.0781,234.3906 L1321.0781,232.9688 C1321.0781,232.5313 1321.0625,232.4063 1320.9688,232.25 C1320.8125,231.9844 1320.5313,231.8438 1320.2344,231.8438 C1319.9375,231.8438 1319.7344,231.9375 1319.5156,232.25 L1319.3438,232.1719 Z "/><text fill="#000000" font-family="sans-serif" font-size="12" lengthAdjust="spacingAndGlyphs" textLength="94" x="1332" y="240.6543">SeriacaoManual</text><line style="stroke: #A80036; stroke-width: 1.5;" x1="1298.5" x2="1432.5" y1="252.5" y2="252.5"/><rect fill="none" height="6" style="stroke: #C82930; stroke-width: 1.0;" width="6" x="1305.5" y="260.5"/><text fill="#000000" font-family="sans-serif" font-size="11" lengthAdjust="spacingAndGlyphs" textLength="110" x="1317.5" y="266.7104">String txtConclusao</text><!--MD5=[2b475d07f1597af1f6b52dde2815292f]
class SeriacaoAutomatica--><rect fill="#FEFECE" filter="url(#fwwfli5d1eoy)" height="40" id="SeriacaoAutomatica" style="stroke: #A80036; stroke-width: 1.5;" width="151" x="1290" y="309"/><ellipse cx="1305" cy="325" fill="#ADD1B2" rx="11" ry="11" style="stroke: #A80036; stroke-width: 1.0;"/><path d="M1307.3438,320.6719 C1306.4063,320.2344 1305.8125,320.0938 1304.9375,320.0938 C1302.3125,320.0938 1300.3125,322.1719 1300.3125,324.8906 L1300.3125,326.0156 C1300.3125,328.5938 1302.4219,330.4844 1305.3125,330.4844 C1306.5313,330.4844 1307.6875,330.1875 1308.4375,329.6406 C1309.0156,329.2344 1309.3438,328.7813 1309.3438,328.3906 C1309.3438,327.9375 1308.9531,327.5469 1308.4844,327.5469 C1308.2656,327.5469 1308.0625,327.625 1307.875,327.8125 C1307.4219,328.2969 1307.4219,328.2969 1307.2344,328.3906 C1306.8125,328.6563 1306.125,328.7813 1305.3594,328.7813 C1303.3125,328.7813 1302.0156,327.6875 1302.0156,325.9844 L1302.0156,324.8906 C1302.0156,323.1094 1303.2656,321.7969 1305,321.7969 C1305.5781,321.7969 1306.1875,321.9531 1306.6563,322.2031 C1307.1406,322.4844 1307.3125,322.7031 1307.4063,323.1094 C1307.4688,323.5156 1307.5,323.6406 1307.6406,323.7656 C1307.7813,323.9063 1308.0156,324.0156 1308.2344,324.0156 C1308.5,324.0156 1308.7656,323.875 1308.9375,323.6563 C1309.0469,323.5 1309.0781,323.3125 1309.0781,322.8906 L1309.0781,321.4688 C1309.0781,321.0313 1309.0625,320.9063 1308.9688,320.75 C1308.8125,320.4844 1308.5313,320.3438 1308.2344,320.3438 C1307.9375,320.3438 1307.7344,320.4375 1307.5156,320.75 L1307.3438,320.6719 Z "/><text fill="#000000" font-family="sans-serif" font-size="12" lengthAdjust="spacingAndGlyphs" textLength="119" x="1319" y="329.1543">SeriacaoAutomatica</text><line style="stroke: #A80036; stroke-width: 1.5;" x1="1291" x2="1440" y1="341" y2="341"/><!--MD5=[bfccd8e890448f4cee1f17ba82daa446]
link Plataforma to Organização--><path d="M108.078,529.38 C146.224,501.993 206.08,459.019 249.795,427.634 " fill="none" id="Plataforma-Organização" style="stroke: #A80036; stroke-width: 1.0;"/><text fill="#000000" font-family="sans-serif" font-size="13" lengthAdjust="spacingAndGlyphs" textLength="41" x="165" y="448.0669">possui</text><polygon fill="#000000" points="209,442.0664,215,445.0664,209,448.0664,209,442.0664" style="stroke: #000000; stroke-width: 1.0;"/><text fill="#000000" font-family="sans-serif" font-size="13" lengthAdjust="spacingAndGlyphs" textLength="8" x="107.9585" y="518.5946">1</text><text fill="#000000" font-family="sans-serif" font-size="13" lengthAdjust="spacingAndGlyphs" textLength="7" x="235.1453" y="445.7469">*</text><!--MD5=[f95674374ac74d74a91c09e118dc98be]
link Plataforma to RegimentoAplicavel--><path d="M134.181,570.64 C181.054,580.231 246.671,591 305,591 C305,591 305,591 665,591 C898.552,591 1164.14,501.358 1290.34,453.035 " fill="none" id="Plataforma-RegimentoAplicavel" style="stroke: #A80036; stroke-width: 1.0;"/><text fill="#000000" font-family="sans-serif" font-size="13" lengthAdjust="spacingAndGlyphs" textLength="41" x="637" y="587.0669">possui</text><polygon fill="#000000" points="681,581.0664,687,584.0664,681,587.0664,681,581.0664" style="stroke: #000000; stroke-width: 1.0;"/><text fill="#000000" font-family="sans-serif" font-size="13" lengthAdjust="spacingAndGlyphs" textLength="8" x="142.0644" y="585.2858">1</text><text fill="#000000" font-family="sans-serif" font-size="13" lengthAdjust="spacingAndGlyphs" textLength="7" x="1275.5969" y="468.7829">*</text><!--MD5=[a1920769314186b331e19badf2cc4935]
link Organização to Colaborador--><path d="M315.622,335.991 C335.551,235.618 394.789,25 541,25 C541,25 541,25 1366.5,25 C1454.22,25 1548.28,67.453 1605.88,98.877 " fill="none" id="Organização-Colaborador" style="stroke: #A80036; stroke-width: 1.0;"/><text fill="#000000" font-family="sans-serif" font-size="13" lengthAdjust="spacingAndGlyphs" textLength="26" x="899.5" y="21.0669">tem</text><polygon fill="#000000" points="928.5,15.0664,934.5,18.0664,928.5,21.0664,928.5,15.0664" style="stroke: #000000; stroke-width: 1.0;"/><text fill="#000000" font-family="sans-serif" font-size="13" lengthAdjust="spacingAndGlyphs" textLength="8" x="308.3775" y="325.0687">1</text><text fill="#000000" font-family="sans-serif" font-size="13" lengthAdjust="spacingAndGlyphs" textLength="7" x="1590.8686" y="107.495">*</text><!--MD5=[bcb5794e8184ce78d304f04a5beabbc0]
link Colaborador to Utilizador--><path d="M1718.23,132 C1775.13,132 1863.42,132 1920.97,132 " fill="none" id="Colaborador-Utilizador" style="stroke: #A80036; stroke-width: 1.0;"/><text fill="#000000" font-family="sans-serif" font-size="13" lengthAdjust="spacingAndGlyphs" textLength="69" x="1769.5" y="128.0669">atua como</text><polygon fill="#000000" points="1841.5,122.0664,1847.5,125.0664,1841.5,128.0664,1841.5,122.0664" style="stroke: #000000; stroke-width: 1.0;"/><text fill="#000000" font-family="sans-serif" font-size="13" lengthAdjust="spacingAndGlyphs" textLength="8" x="1725.947" y="145.0223">1</text><text fill="#000000" font-family="sans-serif" font-size="13" lengthAdjust="spacingAndGlyphs" textLength="8" x="1905.0224" y="145.0098">1</text><!--MD5=[ebe0b2adceebb6ee2636cb1948c7c8a9]
link Tarefa to Colaborador--><path d="M570.34,278.353 C608.126,207.016 683.548,96 787,96 C787,96 787,96 1366.5,96 C1450.46,96 1546.9,110.595 1605.88,121.199 " fill="none" id="Tarefa-Colaborador" style="stroke: #A80036; stroke-width: 1.0;"/><text fill="#000000" font-family="sans-serif" font-size="13" lengthAdjust="spacingAndGlyphs" textLength="105" x="997.5" y="92.0669">especificada por</text><polygon fill="#000000" points="1105.5,86.0664,1111.5,89.0664,1105.5,92.0664,1105.5,86.0664" style="stroke: #000000; stroke-width: 1.0;"/><text fill="#000000" font-family="sans-serif" font-size="13" lengthAdjust="spacingAndGlyphs" textLength="7" x="566.3674" y="267.3768">*</text><text fill="#000000" font-family="sans-serif" font-size="13" lengthAdjust="spacingAndGlyphs" textLength="8" x="1590.1771" y="132.8374">1</text><!--MD5=[08db6e261ed14257d80751f737616a9d]
link Organização to Tarefa--><path d="M362.158,375.978 C396.884,368.41 441.809,358.619 477.944,350.743 " fill="none" id="Organização-Tarefa" style="stroke: #A80036; stroke-width: 1.0;"/><text fill="#000000" font-family="sans-serif" font-size="13" lengthAdjust="spacingAndGlyphs" textLength="41" x="393" y="353.0669">possui</text><polygon fill="#000000" points="437,347.0664,443,350.0664,437,353.0664,437,347.0664" style="stroke: #000000; stroke-width: 1.0;"/><text fill="#000000" font-family="sans-serif" font-size="13" lengthAdjust="spacingAndGlyphs" textLength="8" x="369.8657" y="387.4725">1</text><text fill="#000000" font-family="sans-serif" font-size="13" lengthAdjust="spacingAndGlyphs" textLength="7" x="463.1328" y="365.2837">*</text><!--MD5=[35fae5763b5ac085aad1a803f88e2b95]
link Tarefa to Anuncio--><path d="M606.153,358.741 C641.737,370.991 686.103,386.265 721.986,398.618 " fill="none" id="Tarefa-Anuncio" style="stroke: #A80036; stroke-width: 1.0;"/><text fill="#000000" font-family="sans-serif" font-size="13" lengthAdjust="spacingAndGlyphs" textLength="29" x="643" y="367.0669">gera</text><polygon fill="#000000" points="675,361.0664,681,364.0664,675,367.0664,675,361.0664" style="stroke: #000000; stroke-width: 1.0;"/><text fill="#000000" font-family="sans-serif" font-size="13" lengthAdjust="spacingAndGlyphs" textLength="8" x="614.0332" y="374.2065">1</text><text fill="#000000" font-family="sans-serif" font-size="13" lengthAdjust="spacingAndGlyphs" textLength="24" x="689.9408" y="409.1458">0..1</text><!--MD5=[22ab75f887ca251f11fce1d8db3a0e76]
link Anuncio to Seriacao--><path d="M854.193,399.962 C893.488,387.282 943.575,371.118 983.958,358.087 " fill="none" id="Anuncio-Seriacao" style="stroke: #A80036; stroke-width: 1.0;"/><text fill="#000000" font-family="sans-serif" font-size="13" lengthAdjust="spacingAndGlyphs" textLength="55" x="885" y="363.0669">espoleta</text><polygon fill="#000000" points="943,357.0664,949,360.0664,943,363.0664,943,357.0664" style="stroke: #000000; stroke-width: 1.0;"/><text fill="#000000" font-family="sans-serif" font-size="13" lengthAdjust="spacingAndGlyphs" textLength="8" x="861.8704" y="410.5435">1</text><text fill="#000000" font-family="sans-serif" font-size="13" lengthAdjust="spacingAndGlyphs" textLength="24" x="951.9001" y="373.0849">0..1</text><!--MD5=[0bbbffdd91c5ada4c15cfe16870f099c]
link Seriacao to RegimentoAplicavel--><path d="M1129.09,355.521 C1177.55,369.411 1241.41,387.717 1290.39,401.757 " fill="none" id="Seriacao-RegimentoAplicavel" style="stroke: #A80036; stroke-width: 1.0;"/><text fill="#000000" font-family="sans-serif" font-size="13" lengthAdjust="spacingAndGlyphs" textLength="37" x="1184.5" y="361.0669">aplica</text><polygon fill="#000000" points="1224.5,355.0664,1230.5,358.0664,1224.5,361.0664,1224.5,355.0664" style="stroke: #000000; stroke-width: 1.0;"/><text fill="#000000" font-family="sans-serif" font-size="13" lengthAdjust="spacingAndGlyphs" textLength="8" x="1136.9883" y="370.4945">1</text><text fill="#000000" font-family="sans-serif" font-size="13" lengthAdjust="spacingAndGlyphs" textLength="8" x="1274.6026" y="412.4572">1</text><!--MD5=[fd893ded8d6411005d24c76d3651369d]
link Anuncio to RegimentoAplicavel--><path d="M854.177,421.227 C962.032,421.601 1176.97,422.348 1290.42,422.743 " fill="none" id="Anuncio-RegimentoAplicavel" style="stroke: #A80036; stroke-width: 1.0;"/><text fill="#000000" font-family="sans-serif" font-size="13" lengthAdjust="spacingAndGlyphs" textLength="90" x="1005" y="417.0669">conduzido por</text><polygon fill="#000000" points="1098,411.0664,1104,414.0664,1098,417.0664,1098,411.0664" style="stroke: #000000; stroke-width: 1.0;"/><text fill="#000000" font-family="sans-serif" font-size="13" lengthAdjust="spacingAndGlyphs" textLength="8" x="861.8526" y="434.1343">1</text><text fill="#000000" font-family="sans-serif" font-size="13" lengthAdjust="spacingAndGlyphs" textLength="8" x="1274.2649" y="435.5423">1</text><!--MD5=[471b8c6ff5fcf31b4b6fb9b4f947344d]
link Classificacao to Candidatura--><path d="M1725.23,410.261 C1774.99,419.265 1845.06,431.945 1898.81,441.671 " fill="none" id="Classificacao-Candidatura" style="stroke: #A80036; stroke-width: 1.0;"/><text fill="#000000" font-family="sans-serif" font-size="13" lengthAdjust="spacingAndGlyphs" textLength="72" x="1768" y="411.0669">referente a</text><polygon fill="#000000" points="1843,405.0664,1849,408.0664,1843,411.0664,1843,405.0664" style="stroke: #000000; stroke-width: 1.0;"/><text fill="#000000" font-family="sans-serif" font-size="13" lengthAdjust="spacingAndGlyphs" textLength="24" x="1732.9881" y="424.2896">0..1</text><text fill="#000000" font-family="sans-serif" font-size="13" lengthAdjust="spacingAndGlyphs" textLength="8" x="1883.0487" y="453.1134">1</text><!--MD5=[360c74ee5c5ac6d45db6366086fca09a]
link Candidatura to Anuncio--><path d="M1898.87,484.645 C1887.95,487.65 1876.78,490.244 1866,492 C1486.16,553.837 1022.61,470.762 854.133,435.486 " fill="none" id="Candidatura-Anuncio" style="stroke: #A80036; stroke-width: 1.0;"/><polygon fill="#000000" points="1334.5,491.0664,1328.5,494.0664,1334.5,497.0664,1334.5,491.0664" style="stroke: #000000; stroke-width: 1.0;"/><text fill="#000000" font-family="sans-serif" font-size="13" lengthAdjust="spacingAndGlyphs" textLength="63" x="1340.5" y="497.0669">enviada a</text><text fill="#000000" font-family="sans-serif" font-size="13" lengthAdjust="spacingAndGlyphs" textLength="8" x="1883.1143" y="500.0491">1</text><text fill="#000000" font-family="sans-serif" font-size="13" lengthAdjust="spacingAndGlyphs" textLength="7" x="862.1843" y="450.0901">*</text><!--MD5=[3d9e8e0d764359bffb897b36dc4b633a]
link Plataforma to Anuncio--><path d="M134.168,546.035 C209.159,534.029 337.93,512.861 448,492 C543.561,473.888 653.699,450.32 721.843,435.42 " fill="none" id="Plataforma-Anuncio" style="stroke: #A80036; stroke-width: 1.0;"/><text fill="#000000" font-family="sans-serif" font-size="13" lengthAdjust="spacingAndGlyphs" textLength="41" x="393" y="488.0669">possui</text><polygon fill="#000000" points="437,482.0664,443,485.0664,437,488.0664,437,482.0664" style="stroke: #000000; stroke-width: 1.0;"/><text fill="#000000" font-family="sans-serif" font-size="13" lengthAdjust="spacingAndGlyphs" textLength="8" x="142.0499" y="557.8358">1</text><text fill="#000000" font-family="sans-serif" font-size="13" lengthAdjust="spacingAndGlyphs" textLength="7" x="706.7889" y="450.0164">*</text><!--MD5=[0a535575571876f6213287bf563a867d]
link Anuncio to Colaborador--><path d="M839.652,375.362 C853.554,363.828 868.954,351.915 884,342 C925.659,314.548 937.591,309.312 984,291 C1205.81,203.481 1488.31,156.366 1605.85,139.403 " fill="none" id="Anuncio-Colaborador" style="stroke: #A80036; stroke-width: 1.0;"/><text fill="#000000" font-family="sans-serif" font-size="13" lengthAdjust="spacingAndGlyphs" textLength="86" x="1160" y="202.0669">publicado por</text><polygon fill="#000000" points="1249,196.0664,1255,199.0664,1249,202.0664,1249,196.0664" style="stroke: #000000; stroke-width: 1.0;"/><text fill="#000000" font-family="sans-serif" font-size="13" lengthAdjust="spacingAndGlyphs" textLength="7" x="840.0253" y="364.2856">*</text><text fill="#000000" font-family="sans-serif" font-size="13" lengthAdjust="spacingAndGlyphs" textLength="8" x="1590.1433" y="153.3738">1</text><!--MD5=[5a1cc96d2a0fb9d1e5d316c6f5e0139e]
link Anuncio to Adjudicacao--><path d="M854.089,463.466 C925.674,507.871 1045.64,575.645 1159,609 C1420.22,685.859 1746.19,694.845 1895.89,694.411 " fill="none" id="Anuncio-Adjudicacao" style="stroke: #A80036; stroke-width: 1.0;"/><text fill="#000000" font-family="sans-serif" font-size="13" lengthAdjust="spacingAndGlyphs" textLength="55" x="1331.5" y="637.0669">espoleta</text><polygon fill="#000000" points="1389.5,631.0664,1395.5,634.0664,1389.5,637.0664,1389.5,631.0664" style="stroke: #000000; stroke-width: 1.0;"/><text fill="#000000" font-family="sans-serif" font-size="13" lengthAdjust="spacingAndGlyphs" textLength="8" x="862.193" y="481.3052">1</text><text fill="#000000" font-family="sans-serif" font-size="13" lengthAdjust="spacingAndGlyphs" textLength="24" x="1864.0137" y="690.9863">0..1</text><!--MD5=[4c6379033e83666f34589c9e24a10542]
link Classificacao to Adjudicacao--><path d="M1698.52,432.154 C1751.06,481.185 1850.24,573.757 1915.21,634.399 " fill="none" id="Classificacao-Adjudicacao" style="stroke: #A80036; stroke-width: 1.0;"/><polygon fill="#000000" points="1763,475.0664,1757,478.0664,1763,481.0664,1763,475.0664" style="stroke: #000000; stroke-width: 1.0;"/><text fill="#000000" font-family="sans-serif" font-size="13" lengthAdjust="spacingAndGlyphs" textLength="96" x="1769" y="481.0669">de acordo com</text><text fill="#000000" font-family="sans-serif" font-size="13" lengthAdjust="spacingAndGlyphs" textLength="7" x="1697.6081" y="451.7647">*</text><text fill="#000000" font-family="sans-serif" font-size="13" lengthAdjust="spacingAndGlyphs" textLength="8" x="1898.9481" y="623.4284">1</text><!--MD5=[6e87a459bca7b9b4782b93078041f153]
link Plataforma to Adjudicacao--><path d="M80.6497,582.913 C106.135,648.64 181.863,812 305,812 C305,812 305,812 1663,812 C1746.16,812 1834.16,775.2573 1895.95,742.605 " fill="none" id="Plataforma-Adjudicacao" style="stroke: #A80036; stroke-width: 1.0;"/><text fill="#000000" font-family="sans-serif" font-size="13" lengthAdjust="spacingAndGlyphs" textLength="41" x="892" y="808.0669">possui</text><polygon fill="#000000" points="936,802.0664,942,805.0664,936,808.0664,936,802.0664" style="stroke: #000000; stroke-width: 1.0;"/><text fill="#000000" font-family="sans-serif" font-size="13" lengthAdjust="spacingAndGlyphs" textLength="8" x="74.1043" y="602.5436">1</text><text fill="#000000" font-family="sans-serif" font-size="13" lengthAdjust="spacingAndGlyphs" textLength="7" x="1880.9712" y="759.9503">*</text><!--MD5=[9e39e2268058099316fd4bed15c9d6b4]
link Seriacao to SeriacaoManual--><path d="M1129.09,314.479 C1179.85,299.928 1247.52,280.533 1297.27,266.271 " fill="none" id="Seriacao-SeriacaoManual" style="stroke: #A80036; stroke-width: 1.0;"/><!--MD5=[32f6294037dae79e4326c201b2d909cc]
link Seriacao to SeriacaoAutomatica--><path d="M1129.09,333.601 C1177.37,332.657 1240.94,331.415 1289.85,330.459 " fill="none" id="Seriacao-SeriacaoAutomatica" style="stroke: #A80036; stroke-width: 1.0;"/><!--MD5=[dec5de049d3ede6ee0e8af73ebd34ce1]
link SeriacaoManual to Classificacao--><path d="M1418.13,273.65 C1468.53,299.661 1545.25,339.26 1598.94,366.97 " fill="none" id="SeriacaoManual-Classificacao" style="stroke: #A80036; stroke-width: 1.0;"/><text fill="#000000" font-family="sans-serif" font-size="13" lengthAdjust="spacingAndGlyphs" textLength="29" x="1499" y="300.0669">gera</text><polygon fill="#000000" points="1531,294.0664,1537,297.0664,1531,300.0664,1531,294.0664" style="stroke: #000000; stroke-width: 1.0;"/><text fill="#000000" font-family="sans-serif" font-size="13" lengthAdjust="spacingAndGlyphs" textLength="8" x="1420.7678" y="293.2231">1</text><text fill="#000000" font-family="sans-serif" font-size="13" lengthAdjust="spacingAndGlyphs" textLength="7" x="1583.828" y="376.0792">*</text><!--MD5=[bb9b5d598c521655a62b8c08c0aed420]
link SeriacaoManual to Colaborador--><path d="M1433.92,243.473 C1474.65,239.244 1526.68,230.025 1569,210 C1586.04,201.939 1602.46,189.905 1616.61,177.689 " fill="none" id="SeriacaoManual-Colaborador" style="stroke: #A80036; stroke-width: 1.0;"/><text fill="#000000" font-family="sans-serif" font-size="13" lengthAdjust="spacingAndGlyphs" textLength="83" x="1472" y="206.0669">realizada por</text><polygon fill="#000000" points="1558,200.0664,1564,203.0664,1558,206.0664,1558,200.0664" style="stroke: #000000; stroke-width: 1.0;"/><text fill="#000000" font-family="sans-serif" font-size="13" lengthAdjust="spacingAndGlyphs" textLength="8" x="1441.3883" y="255.9665">1</text><text fill="#000000" font-family="sans-serif" font-size="13" lengthAdjust="spacingAndGlyphs" textLength="7" x="1602.1237" y="197.8939">*</text><!--MD5=[a2903b067be9c16d0e71f48f8d899938]
link Adjudicacao to Organização--><path d="M1895.78,700.365 C1885.75,701.039 1875.65,701.613 1866,702 C1747.42,706.757 1717.52,704.118 1599,698 C1461.44,690.899 1426.73,690.672 1290,674 C1153.14,657.312 1117.6,657.061 984,623 C747.706,562.758 476.392,457.009 362.194,410.748 " fill="none" id="Adjudicacao-Organização" style="stroke: #A80036; stroke-width: 1.0;"/><polygon fill="#000000" points="1000.5,613.0664,994.5,616.0664,1000.5,619.0664,1000.5,613.0664" style="stroke: #000000; stroke-width: 1.0;"/><text fill="#000000" font-family="sans-serif" font-size="13" lengthAdjust="spacingAndGlyphs" textLength="113" x="1006.5" y="619.0669">correspondente a</text><text fill="#000000" font-family="sans-serif" font-size="13" lengthAdjust="spacingAndGlyphs" textLength="7" x="1881.0565" y="713.7694">*</text><text fill="#000000" font-family="sans-serif" font-size="13" lengthAdjust="spacingAndGlyphs" textLength="8" x="369.9064" y="426.6974">1</text><!--MD5=[13cdbe011c7ccfb4d26219d1f6d6d1de]
@startuml
hide methods
left to right direction

class Plataforma {
  -String designacao
}
class Organização {
  -String NIF
  -String website
  -String telefone
  -String nome
  -String email
}
class Colaborador {
  -String funcao
  -String telefone
  -String nome
  -String email
}

class Utilizador {
  -String nome
  -String email
  -String password
}
class Tarefa {
  -String refUnica
  -String designacao
  -String descInf
  -String descTec
  -Integer duracao
  -Double custo
}
class Anuncio {
  -Period publicitacao
  -Period candidatura
  -Period seriacao
  -String anunId
}
class Seriacao {
  -Date dataRealizacao
}
class Candidatura {
  -Date dataCandidatura
  -Double valorPretendido
  -Integer numDias
  -String txtApresentacao
  -String txtMotivacao
}
class Classificacao {
  -Integer posicao
  -String justificacao
}
class RegimentoAplicavel {
  -String designacao
  -String descRegras
  -String identificador
}
class Adjudicacao {
  -Date dataRealizacao
  -String numSequencial
  -Period perRealizacao
  -String refAnuncio
  -String descTarefa
  -Double valorConcordado
}
class SeriacaoManual {
  -String txtConclusao
}
class SeriacaoAutomatica {
}
Plataforma "1" - - "*" Organização: possui >
Plataforma "1" - - "*" RegimentoAplicavel: possui >
Organização "1" - - "*" Colaborador: tem >
Colaborador "1" - -"1" Utilizador: atua como >
Tarefa "*" - - "1" Colaborador: especificada por >
Organização "1" - - "*" Tarefa: possui >
Tarefa "1" - - "0..1" Anuncio: gera >
Anuncio "1" - - "0..1" Seriacao: espoleta >
Seriacao "1" - - "1" RegimentoAplicavel: aplica >
Anuncio "1" - - "1" RegimentoAplicavel: conduzido por >
Classificacao "0..1" - - "1" Candidatura: referente a >
Candidatura "1" - - "*" Anuncio: enviada a >
Plataforma "1" - - "*" Anuncio: possui >
Anuncio "*" - - "1" Colaborador: publicado por >
Anuncio "1" - - "0..1" Adjudicacao : espoleta >
Classificacao "*" - - "1" Adjudicacao : de acordo com <
Plataforma "1" - - "*" Adjudicacao: possui >
Seriacao - - SeriacaoManual
Seriacao - - SeriacaoAutomatica
SeriacaoManual "1" - - "*" Classificacao: gera >
SeriacaoManual "1" - - "*" Colaborador: realizada por >
Adjudicacao "*" - - "1" Organização : correspondente a >
@enduml

PlantUML version 1.2020.10(Sun May 17 09:48:49 UTC 2020)
(GPL source distribution)
Java Runtime: Java(TM) SE Runtime Environment
JVM: Java HotSpot(TM) 64-Bit Server VM
Operating System: Linux
Default Encoding: UTF-8
Language: en
Country: US
--></g></svg>