<?xml version="1.0" encoding="UTF-8" standalone="no"?><svg xmlns="http://www.w3.org/2000/svg" xmlns:xlink="http://www.w3.org/1999/xlink" contentScriptType="application/ecmascript" contentStyleType="text/css" height="641px" preserveAspectRatio="none" style="width:3407px;height:641px;" version="1.1" viewBox="0 0 3407 641" width="3407px" zoomAndPan="magnify"><defs><filter height="300%" id="f1jm1wpaqp1dlk" width="300%" x="-1" y="-1"><feGaussianBlur result="blurOut" stdDeviation="2.0"/><feColorMatrix in="blurOut" result="blurOut2" type="matrix" values="0 0 0 0 0 0 0 0 0 0 0 0 0 0 0 0 0 0 .4 0"/><feOffset dx="4.0" dy="4.0" in="blurOut2" result="blurOut3"/><feBlend in="SourceGraphic" in2="blurOut3" mode="normal"/></filter></defs><g><!--MD5=[07e49a45eace4b6c31c4cdd00887c4eb]
class EfetuarCandidaturaUI--><rect fill="#FEFECE" filter="url(#f1jm1wpaqp1dlk)" height="48" id="EfetuarCandidaturaUI" style="stroke: #A80036; stroke-width: 1.5;" width="164" x="6" y="473.5"/><ellipse cx="21" cy="489.5" fill="#ADD1B2" rx="11" ry="11" style="stroke: #A80036; stroke-width: 1.0;"/><path d="M23.3438,485.1719 C22.4063,484.7344 21.8125,484.5938 20.9375,484.5938 C18.3125,484.5938 16.3125,486.6719 16.3125,489.3906 L16.3125,490.5156 C16.3125,493.0938 18.4219,494.9844 21.3125,494.9844 C22.5313,494.9844 23.6875,494.6875 24.4375,494.1406 C25.0156,493.7344 25.3438,493.2813 25.3438,492.8906 C25.3438,492.4375 24.9531,492.0469 24.4844,492.0469 C24.2656,492.0469 24.0625,492.125 23.875,492.3125 C23.4219,492.7969 23.4219,492.7969 23.2344,492.8906 C22.8125,493.1563 22.125,493.2813 21.3594,493.2813 C19.3125,493.2813 18.0156,492.1875 18.0156,490.4844 L18.0156,489.3906 C18.0156,487.6094 19.2656,486.2969 21,486.2969 C21.5781,486.2969 22.1875,486.4531 22.6563,486.7031 C23.1406,486.9844 23.3125,487.2031 23.4063,487.6094 C23.4688,488.0156 23.5,488.1406 23.6406,488.2656 C23.7813,488.4063 24.0156,488.5156 24.2344,488.5156 C24.5,488.5156 24.7656,488.375 24.9375,488.1563 C25.0469,488 25.0781,487.8125 25.0781,487.3906 L25.0781,485.9688 C25.0781,485.5313 25.0625,485.4063 24.9688,485.25 C24.8125,484.9844 24.5313,484.8438 24.2344,484.8438 C23.9375,484.8438 23.7344,484.9375 23.5156,485.25 L23.3438,485.1719 Z "/><text fill="#000000" font-family="sans-serif" font-size="12" lengthAdjust="spacingAndGlyphs" textLength="132" x="35" y="493.6543">EfetuarCandidaturaUI</text><line style="stroke: #A80036; stroke-width: 1.5;" x1="7" x2="169" y1="505.5" y2="505.5"/><line style="stroke: #A80036; stroke-width: 1.5;" x1="7" x2="169" y1="513.5" y2="513.5"/><!--MD5=[b8e872367bee618a85762746880ee638]
class EfetuarCandidaturaController--><rect fill="#FEFECE" filter="url(#f1jm1wpaqp1dlk)" height="99.2188" id="EfetuarCandidaturaController" style="stroke: #A80036; stroke-width: 1.5;" width="340" x="231" y="448"/><ellipse cx="306.25" cy="464" fill="#ADD1B2" rx="11" ry="11" style="stroke: #A80036; stroke-width: 1.0;"/><path d="M308.5938,459.6719 C307.6563,459.2344 307.0625,459.0938 306.1875,459.0938 C303.5625,459.0938 301.5625,461.1719 301.5625,463.8906 L301.5625,465.0156 C301.5625,467.5938 303.6719,469.4844 306.5625,469.4844 C307.7813,469.4844 308.9375,469.1875 309.6875,468.6406 C310.2656,468.2344 310.5938,467.7813 310.5938,467.3906 C310.5938,466.9375 310.2031,466.5469 309.7344,466.5469 C309.5156,466.5469 309.3125,466.625 309.125,466.8125 C308.6719,467.2969 308.6719,467.2969 308.4844,467.3906 C308.0625,467.6563 307.375,467.7813 306.6094,467.7813 C304.5625,467.7813 303.2656,466.6875 303.2656,464.9844 L303.2656,463.8906 C303.2656,462.1094 304.5156,460.7969 306.25,460.7969 C306.8281,460.7969 307.4375,460.9531 307.9063,461.2031 C308.3906,461.4844 308.5625,461.7031 308.6563,462.1094 C308.7188,462.5156 308.75,462.6406 308.8906,462.7656 C309.0313,462.9063 309.2656,463.0156 309.4844,463.0156 C309.75,463.0156 310.0156,462.875 310.1875,462.6563 C310.2969,462.5 310.3281,462.3125 310.3281,461.8906 L310.3281,460.4688 C310.3281,460.0313 310.3125,459.9063 310.2188,459.75 C310.0625,459.4844 309.7813,459.3438 309.4844,459.3438 C309.1875,459.3438 308.9844,459.4375 308.7656,459.75 L308.5938,459.6719 Z "/><text fill="#000000" font-family="sans-serif" font-size="12" lengthAdjust="spacingAndGlyphs" textLength="181" x="326.75" y="468.1543">EfetuarCandidaturaController</text><line style="stroke: #A80036; stroke-width: 1.5;" x1="232" x2="570" y1="480" y2="480"/><text fill="#000000" font-family="sans-serif" font-size="11" lengthAdjust="spacingAndGlyphs" textLength="137" x="237" y="494.2104">-ListAnuncioDisponiveis</text><line style="stroke: #A80036; stroke-width: 1.5;" x1="232" x2="570" y1="500.8047" y2="500.8047"/><text fill="#000000" font-family="sans-serif" font-size="11" lengthAdjust="spacingAndGlyphs" textLength="120" x="237" y="515.0151">+getListAnunElegiv()</text><text fill="#000000" font-family="sans-serif" font-size="11" lengthAdjust="spacingAndGlyphs" textLength="328" x="237" y="527.8198">+novaCandidatura(valor,numDias,textoApres,textoMotiv)</text><text fill="#000000" font-family="sans-serif" font-size="11" lengthAdjust="spacingAndGlyphs" textLength="114" x="237" y="540.6245">+registaCategoria()</text><!--MD5=[ecaed46f78f8cfe1e9ce18477649be18]
class Plataforma--><rect fill="#FEFECE" filter="url(#f1jm1wpaqp1dlk)" height="86.4141" id="Plataforma" style="stroke: #A80036; stroke-width: 1.5;" width="154" x="632" y="339.5"/><ellipse cx="671.3" cy="355.5" fill="#ADD1B2" rx="11" ry="11" style="stroke: #A80036; stroke-width: 1.0;"/><path d="M673.6438,351.1719 C672.7063,350.7344 672.1125,350.5938 671.2375,350.5938 C668.6125,350.5938 666.6125,352.6719 666.6125,355.3906 L666.6125,356.5156 C666.6125,359.0938 668.7219,360.9844 671.6125,360.9844 C672.8313,360.9844 673.9875,360.6875 674.7375,360.1406 C675.3156,359.7344 675.6438,359.2813 675.6438,358.8906 C675.6438,358.4375 675.2531,358.0469 674.7844,358.0469 C674.5656,358.0469 674.3625,358.125 674.175,358.3125 C673.7219,358.7969 673.7219,358.7969 673.5344,358.8906 C673.1125,359.1563 672.425,359.2813 671.6594,359.2813 C669.6125,359.2813 668.3156,358.1875 668.3156,356.4844 L668.3156,355.3906 C668.3156,353.6094 669.5656,352.2969 671.3,352.2969 C671.8781,352.2969 672.4875,352.4531 672.9563,352.7031 C673.4406,352.9844 673.6125,353.2031 673.7063,353.6094 C673.7688,354.0156 673.8,354.1406 673.9406,354.2656 C674.0813,354.4063 674.3156,354.5156 674.5344,354.5156 C674.8,354.5156 675.0656,354.375 675.2375,354.1563 C675.3469,354 675.3781,353.8125 675.3781,353.3906 L675.3781,351.9688 C675.3781,351.5313 675.3625,351.4063 675.2688,351.25 C675.1125,350.9844 674.8313,350.8438 674.5344,350.8438 C674.2375,350.8438 674.0344,350.9375 673.8156,351.25 L673.6438,351.1719 Z "/><text fill="#000000" font-family="sans-serif" font-size="12" lengthAdjust="spacingAndGlyphs" textLength="68" x="690.7" y="359.6543">Plataforma</text><line style="stroke: #A80036; stroke-width: 1.5;" x1="633" x2="785" y1="371.5" y2="371.5"/><text fill="#000000" font-family="sans-serif" font-size="11" lengthAdjust="spacingAndGlyphs" textLength="70" x="638" y="385.7104">-designacao</text><line style="stroke: #A80036; stroke-width: 1.5;" x1="633" x2="785" y1="392.3047" y2="392.3047"/><text fill="#000000" font-family="sans-serif" font-size="11" lengthAdjust="spacingAndGlyphs" textLength="124" x="638" y="406.5151">+getRegistoAnuncio()</text><text fill="#000000" font-family="sans-serif" font-size="11" lengthAdjust="spacingAndGlyphs" textLength="142" x="638" y="419.3198">+getRegistoFreelancer()</text><!--MD5=[a322db5a7ec64d2ff8f2d6cf1831dcec]
class CompetenciaTecnica--><rect fill="#FEFECE" filter="url(#f1jm1wpaqp1dlk)" height="112.0234" id="CompetenciaTecnica" style="stroke: #A80036; stroke-width: 1.5;" width="169" x="3227" y="232.5"/><ellipse cx="3245.6" cy="248.5" fill="#ADD1B2" rx="11" ry="11" style="stroke: #A80036; stroke-width: 1.0;"/><path d="M3247.9438,244.1719 C3247.0063,243.7344 3246.4125,243.5938 3245.5375,243.5938 C3242.9125,243.5938 3240.9125,245.6719 3240.9125,248.3906 L3240.9125,249.5156 C3240.9125,252.0938 3243.0219,253.9844 3245.9125,253.9844 C3247.1313,253.9844 3248.2875,253.6875 3249.0375,253.1406 C3249.6156,252.7344 3249.9438,252.2813 3249.9438,251.8906 C3249.9438,251.4375 3249.5531,251.0469 3249.0844,251.0469 C3248.8656,251.0469 3248.6625,251.125 3248.475,251.3125 C3248.0219,251.7969 3248.0219,251.7969 3247.8344,251.8906 C3247.4125,252.1563 3246.725,252.2813 3245.9594,252.2813 C3243.9125,252.2813 3242.6156,251.1875 3242.6156,249.4844 L3242.6156,248.3906 C3242.6156,246.6094 3243.8656,245.2969 3245.6,245.2969 C3246.1781,245.2969 3246.7875,245.4531 3247.2563,245.7031 C3247.7406,245.9844 3247.9125,246.2031 3248.0063,246.6094 C3248.0688,247.0156 3248.1,247.1406 3248.2406,247.2656 C3248.3813,247.4063 3248.6156,247.5156 3248.8344,247.5156 C3249.1,247.5156 3249.3656,247.375 3249.5375,247.1563 C3249.6469,247 3249.6781,246.8125 3249.6781,246.3906 L3249.6781,244.9688 C3249.6781,244.5313 3249.6625,244.4063 3249.5688,244.25 C3249.4125,243.9844 3249.1313,243.8438 3248.8344,243.8438 C3248.5375,243.8438 3248.3344,243.9375 3248.1156,244.25 L3247.9438,244.1719 Z "/><text fill="#000000" font-family="sans-serif" font-size="12" lengthAdjust="spacingAndGlyphs" textLength="129" x="3260.4" y="252.6543">CompetenciaTecnica</text><line style="stroke: #A80036; stroke-width: 1.5;" x1="3228" x2="3395" y1="264.5" y2="264.5"/><text fill="#000000" font-family="sans-serif" font-size="11" lengthAdjust="spacingAndGlyphs" textLength="41" x="3233" y="278.7104">-codigo</text><text fill="#000000" font-family="sans-serif" font-size="11" lengthAdjust="spacingAndGlyphs" textLength="68" x="3233" y="291.5151">-descBreve</text><text fill="#000000" font-family="sans-serif" font-size="11" lengthAdjust="spacingAndGlyphs" textLength="91" x="3233" y="304.3198">-descDetalhada</text><text fill="#000000" font-family="sans-serif" font-size="11" lengthAdjust="spacingAndGlyphs" textLength="96" x="3233" y="317.1245">-grauProficiencia</text><line style="stroke: #A80036; stroke-width: 1.5;" x1="3228" x2="3395" y1="323.7188" y2="323.7188"/><text fill="#000000" font-family="sans-serif" font-size="11" lengthAdjust="spacingAndGlyphs" textLength="157" x="3233" y="337.9292">+getListaGrauProficiencia()</text><!--MD5=[380d12a68ed0046a60f31008a02875d0]
class AplicacaoPOT--><rect fill="#FEFECE" filter="url(#f1jm1wpaqp1dlk)" height="73.6094" id="AplicacaoPOT" style="stroke: #A80036; stroke-width: 1.5;" width="132" x="643" y="460.5"/><ellipse cx="664.75" cy="476.5" fill="#ADD1B2" rx="11" ry="11" style="stroke: #A80036; stroke-width: 1.0;"/><path d="M667.0938,472.1719 C666.1563,471.7344 665.5625,471.5938 664.6875,471.5938 C662.0625,471.5938 660.0625,473.6719 660.0625,476.3906 L660.0625,477.5156 C660.0625,480.0938 662.1719,481.9844 665.0625,481.9844 C666.2813,481.9844 667.4375,481.6875 668.1875,481.1406 C668.7656,480.7344 669.0938,480.2813 669.0938,479.8906 C669.0938,479.4375 668.7031,479.0469 668.2344,479.0469 C668.0156,479.0469 667.8125,479.125 667.625,479.3125 C667.1719,479.7969 667.1719,479.7969 666.9844,479.8906 C666.5625,480.1563 665.875,480.2813 665.1094,480.2813 C663.0625,480.2813 661.7656,479.1875 661.7656,477.4844 L661.7656,476.3906 C661.7656,474.6094 663.0156,473.2969 664.75,473.2969 C665.3281,473.2969 665.9375,473.4531 666.4063,473.7031 C666.8906,473.9844 667.0625,474.2031 667.1563,474.6094 C667.2188,475.0156 667.25,475.1406 667.3906,475.2656 C667.5313,475.4063 667.7656,475.5156 667.9844,475.5156 C668.25,475.5156 668.5156,475.375 668.6875,475.1563 C668.7969,475 668.8281,474.8125 668.8281,474.3906 L668.8281,472.9688 C668.8281,472.5313 668.8125,472.4063 668.7188,472.25 C668.5625,471.9844 668.2813,471.8438 667.9844,471.8438 C667.6875,471.8438 667.4844,471.9375 667.2656,472.25 L667.0938,472.1719 Z "/><text fill="#000000" font-family="sans-serif" font-size="12" lengthAdjust="spacingAndGlyphs" textLength="85" x="680.25" y="480.6543">AplicacaoPOT</text><line style="stroke: #A80036; stroke-width: 1.5;" x1="644" x2="774" y1="492.5" y2="492.5"/><line style="stroke: #A80036; stroke-width: 1.5;" x1="644" x2="774" y1="500.5" y2="500.5"/><text fill="#000000" font-family="sans-serif" font-size="11" lengthAdjust="spacingAndGlyphs" textLength="120" x="649" y="514.7104">+static getInstance()</text><text fill="#000000" font-family="sans-serif" font-size="11" lengthAdjust="spacingAndGlyphs" textLength="109" x="649" y="527.5151">+getSessaoAtual()</text><!--MD5=[6559d866213c6b3fd003379aeba85775]
class Organização--><rect fill="#FEFECE" filter="url(#f1jm1wpaqp1dlk)" height="124.8281" id="Organização" style="stroke: #A80036; stroke-width: 1.5;" width="302" x="889" y="151"/><ellipse cx="996.25" cy="167" fill="#ADD1B2" rx="11" ry="11" style="stroke: #A80036; stroke-width: 1.0;"/><path d="M998.5938,162.6719 C997.6563,162.2344 997.0625,162.0938 996.1875,162.0938 C993.5625,162.0938 991.5625,164.1719 991.5625,166.8906 L991.5625,168.0156 C991.5625,170.5938 993.6719,172.4844 996.5625,172.4844 C997.7813,172.4844 998.9375,172.1875 999.6875,171.6406 C1000.2656,171.2344 1000.5938,170.7813 1000.5938,170.3906 C1000.5938,169.9375 1000.2031,169.5469 999.7344,169.5469 C999.5156,169.5469 999.3125,169.625 999.125,169.8125 C998.6719,170.2969 998.6719,170.2969 998.4844,170.3906 C998.0625,170.6563 997.375,170.7813 996.6094,170.7813 C994.5625,170.7813 993.2656,169.6875 993.2656,167.9844 L993.2656,166.8906 C993.2656,165.1094 994.5156,163.7969 996.25,163.7969 C996.8281,163.7969 997.4375,163.9531 997.9063,164.2031 C998.3906,164.4844 998.5625,164.7031 998.6563,165.1094 C998.7188,165.5156 998.75,165.6406 998.8906,165.7656 C999.0313,165.9063 999.2656,166.0156 999.4844,166.0156 C999.75,166.0156 1000.0156,165.875 1000.1875,165.6563 C1000.2969,165.5 1000.3281,165.3125 1000.3281,164.8906 L1000.3281,163.4688 C1000.3281,163.0313 1000.3125,162.9063 1000.2188,162.75 C1000.0625,162.4844 999.7813,162.3438 999.4844,162.3438 C999.1875,162.3438 998.9844,162.4375 998.7656,162.75 L998.5938,162.6719 Z "/><text fill="#000000" font-family="sans-serif" font-size="12" lengthAdjust="spacingAndGlyphs" textLength="79" x="1016.75" y="171.1543">Organização</text><line style="stroke: #A80036; stroke-width: 1.5;" x1="890" x2="1190" y1="183" y2="183"/><text fill="#000000" font-family="sans-serif" font-size="11" lengthAdjust="spacingAndGlyphs" textLength="58" x="895" y="197.2104">-string NIF</text><text fill="#000000" font-family="sans-serif" font-size="11" lengthAdjust="spacingAndGlyphs" textLength="87" x="895" y="210.0151">-string website</text><text fill="#000000" font-family="sans-serif" font-size="11" lengthAdjust="spacingAndGlyphs" textLength="90" x="895" y="222.8198">-string telefone</text><text fill="#000000" font-family="sans-serif" font-size="11" lengthAdjust="spacingAndGlyphs" textLength="74" x="895" y="235.6245">-string nome</text><text fill="#000000" font-family="sans-serif" font-size="11" lengthAdjust="spacingAndGlyphs" textLength="73" x="895" y="248.4292">-string email</text><line style="stroke: #A80036; stroke-width: 1.5;" x1="890" x2="1190" y1="255.0234" y2="255.0234"/><text fill="#000000" font-family="sans-serif" font-size="11" lengthAdjust="spacingAndGlyphs" textLength="290" x="895" y="269.2339">+Organização(NIF,website, telefone, nome, email)</text><!--MD5=[7e1ce8ab2bf669717f28e918f4971b9a]
class Categoria--><rect fill="#FEFECE" filter="url(#f1jm1wpaqp1dlk)" height="86.4141" id="Categoria" style="stroke: #A80036; stroke-width: 1.5;" width="202" x="2819" y="168.5"/><ellipse cx="2884.75" cy="184.5" fill="#ADD1B2" rx="11" ry="11" style="stroke: #A80036; stroke-width: 1.0;"/><path d="M2887.0938,180.1719 C2886.1563,179.7344 2885.5625,179.5938 2884.6875,179.5938 C2882.0625,179.5938 2880.0625,181.6719 2880.0625,184.3906 L2880.0625,185.5156 C2880.0625,188.0938 2882.1719,189.9844 2885.0625,189.9844 C2886.2813,189.9844 2887.4375,189.6875 2888.1875,189.1406 C2888.7656,188.7344 2889.0938,188.2813 2889.0938,187.8906 C2889.0938,187.4375 2888.7031,187.0469 2888.2344,187.0469 C2888.0156,187.0469 2887.8125,187.125 2887.625,187.3125 C2887.1719,187.7969 2887.1719,187.7969 2886.9844,187.8906 C2886.5625,188.1563 2885.875,188.2813 2885.1094,188.2813 C2883.0625,188.2813 2881.7656,187.1875 2881.7656,185.4844 L2881.7656,184.3906 C2881.7656,182.6094 2883.0156,181.2969 2884.75,181.2969 C2885.3281,181.2969 2885.9375,181.4531 2886.4063,181.7031 C2886.8906,181.9844 2887.0625,182.2031 2887.1563,182.6094 C2887.2188,183.0156 2887.25,183.1406 2887.3906,183.2656 C2887.5313,183.4063 2887.7656,183.5156 2887.9844,183.5156 C2888.25,183.5156 2888.5156,183.375 2888.6875,183.1563 C2888.7969,183 2888.8281,182.8125 2888.8281,182.3906 L2888.8281,180.9688 C2888.8281,180.5313 2888.8125,180.4063 2888.7188,180.25 C2888.5625,179.9844 2888.2813,179.8438 2887.9844,179.8438 C2887.6875,179.8438 2887.4844,179.9375 2887.2656,180.25 L2887.0938,180.1719 Z "/><text fill="#000000" font-family="sans-serif" font-size="12" lengthAdjust="spacingAndGlyphs" textLength="62" x="2905.25" y="188.6543">Categoria</text><line style="stroke: #A80036; stroke-width: 1.5;" x1="2820" x2="3020" y1="200.5" y2="200.5"/><text fill="#000000" font-family="sans-serif" font-size="11" lengthAdjust="spacingAndGlyphs" textLength="14" x="2825" y="214.7104">-id</text><text fill="#000000" font-family="sans-serif" font-size="11" lengthAdjust="spacingAndGlyphs" textLength="60" x="2825" y="227.5151">-descricao</text><line style="stroke: #A80036; stroke-width: 1.5;" x1="2820" x2="3020" y1="234.1094" y2="234.1094"/><text fill="#000000" font-family="sans-serif" font-size="11" lengthAdjust="spacingAndGlyphs" textLength="190" x="2825" y="248.3198">+getListCompetenciasTecnicas()</text><!--MD5=[5989a2e3174efcfc62cf38168ac2ffc8]
class RegistoFreelancer--><rect fill="#FEFECE" filter="url(#f1jm1wpaqp1dlk)" height="60.8047" id="RegistoFreelancer" style="stroke: #A80036; stroke-width: 1.5;" width="217" x="1221" y="383"/><ellipse cx="1268.25" cy="399" fill="#ADD1B2" rx="11" ry="11" style="stroke: #A80036; stroke-width: 1.0;"/><path d="M1270.5938,394.6719 C1269.6563,394.2344 1269.0625,394.0938 1268.1875,394.0938 C1265.5625,394.0938 1263.5625,396.1719 1263.5625,398.8906 L1263.5625,400.0156 C1263.5625,402.5938 1265.6719,404.4844 1268.5625,404.4844 C1269.7813,404.4844 1270.9375,404.1875 1271.6875,403.6406 C1272.2656,403.2344 1272.5938,402.7813 1272.5938,402.3906 C1272.5938,401.9375 1272.2031,401.5469 1271.7344,401.5469 C1271.5156,401.5469 1271.3125,401.625 1271.125,401.8125 C1270.6719,402.2969 1270.6719,402.2969 1270.4844,402.3906 C1270.0625,402.6563 1269.375,402.7813 1268.6094,402.7813 C1266.5625,402.7813 1265.2656,401.6875 1265.2656,399.9844 L1265.2656,398.8906 C1265.2656,397.1094 1266.5156,395.7969 1268.25,395.7969 C1268.8281,395.7969 1269.4375,395.9531 1269.9063,396.2031 C1270.3906,396.4844 1270.5625,396.7031 1270.6563,397.1094 C1270.7188,397.5156 1270.75,397.6406 1270.8906,397.7656 C1271.0313,397.9063 1271.2656,398.0156 1271.4844,398.0156 C1271.75,398.0156 1272.0156,397.875 1272.1875,397.6563 C1272.2969,397.5 1272.3281,397.3125 1272.3281,396.8906 L1272.3281,395.4688 C1272.3281,395.0313 1272.3125,394.9063 1272.2188,394.75 C1272.0625,394.4844 1271.7813,394.3438 1271.4844,394.3438 C1271.1875,394.3438 1270.9844,394.4375 1270.7656,394.75 L1270.5938,394.6719 Z "/><text fill="#000000" font-family="sans-serif" font-size="12" lengthAdjust="spacingAndGlyphs" textLength="114" x="1288.75" y="403.1543">RegistoFreelancer</text><line style="stroke: #A80036; stroke-width: 1.5;" x1="1222" x2="1437" y1="415" y2="415"/><line style="stroke: #A80036; stroke-width: 1.5;" x1="1222" x2="1437" y1="423" y2="423"/><text fill="#000000" font-family="sans-serif" font-size="11" lengthAdjust="spacingAndGlyphs" textLength="205" x="1227" y="437.2104">+getFreelancerByEmail(emailUtiliz)</text><!--MD5=[d04b607798738b5a80618641aa4c1381]
class RegistoAnuncio--><rect fill="#FEFECE" filter="url(#f1jm1wpaqp1dlk)" height="60.8047" id="RegistoAnuncio" style="stroke: #A80036; stroke-width: 1.5;" width="188" x="1468" y="181"/><ellipse cx="1510.45" cy="197" fill="#ADD1B2" rx="11" ry="11" style="stroke: #A80036; stroke-width: 1.0;"/><path d="M1512.7938,192.6719 C1511.8563,192.2344 1511.2625,192.0938 1510.3875,192.0938 C1507.7625,192.0938 1505.7625,194.1719 1505.7625,196.8906 L1505.7625,198.0156 C1505.7625,200.5938 1507.8719,202.4844 1510.7625,202.4844 C1511.9813,202.4844 1513.1375,202.1875 1513.8875,201.6406 C1514.4656,201.2344 1514.7938,200.7813 1514.7938,200.3906 C1514.7938,199.9375 1514.4031,199.5469 1513.9344,199.5469 C1513.7156,199.5469 1513.5125,199.625 1513.325,199.8125 C1512.8719,200.2969 1512.8719,200.2969 1512.6844,200.3906 C1512.2625,200.6563 1511.575,200.7813 1510.8094,200.7813 C1508.7625,200.7813 1507.4656,199.6875 1507.4656,197.9844 L1507.4656,196.8906 C1507.4656,195.1094 1508.7156,193.7969 1510.45,193.7969 C1511.0281,193.7969 1511.6375,193.9531 1512.1063,194.2031 C1512.5906,194.4844 1512.7625,194.7031 1512.8563,195.1094 C1512.9188,195.5156 1512.95,195.6406 1513.0906,195.7656 C1513.2313,195.9063 1513.4656,196.0156 1513.6844,196.0156 C1513.95,196.0156 1514.2156,195.875 1514.3875,195.6563 C1514.4969,195.5 1514.5281,195.3125 1514.5281,194.8906 L1514.5281,193.4688 C1514.5281,193.0313 1514.5125,192.9063 1514.4188,192.75 C1514.2625,192.4844 1513.9813,192.3438 1513.6844,192.3438 C1513.3875,192.3438 1513.1844,192.4375 1512.9656,192.75 L1512.7938,192.6719 Z "/><text fill="#000000" font-family="sans-serif" font-size="12" lengthAdjust="spacingAndGlyphs" textLength="95" x="1530.55" y="201.1543">RegistoAnuncio</text><line style="stroke: #A80036; stroke-width: 1.5;" x1="1469" x2="1655" y1="213" y2="213"/><line style="stroke: #A80036; stroke-width: 1.5;" x1="1469" x2="1655" y1="221" y2="221"/><text fill="#000000" font-family="sans-serif" font-size="11" lengthAdjust="spacingAndGlyphs" textLength="176" x="1474" y="235.2104">+getListAnunciosDisponiveis()</text><!--MD5=[b0f240be72c8ea8a063442502d85fc08]
class CaraterCT--><rect fill="#FEFECE" filter="url(#f1jm1wpaqp1dlk)" height="60.8047" id="CaraterCT" style="stroke: #A80036; stroke-width: 1.5;" width="158" x="3232.5" y="120"/><ellipse cx="3275.4" cy="136" fill="#ADD1B2" rx="11" ry="11" style="stroke: #A80036; stroke-width: 1.0;"/><path d="M3277.7438,131.6719 C3276.8063,131.2344 3276.2125,131.0938 3275.3375,131.0938 C3272.7125,131.0938 3270.7125,133.1719 3270.7125,135.8906 L3270.7125,137.0156 C3270.7125,139.5938 3272.8219,141.4844 3275.7125,141.4844 C3276.9313,141.4844 3278.0875,141.1875 3278.8375,140.6406 C3279.4156,140.2344 3279.7438,139.7813 3279.7438,139.3906 C3279.7438,138.9375 3279.3531,138.5469 3278.8844,138.5469 C3278.6656,138.5469 3278.4625,138.625 3278.275,138.8125 C3277.8219,139.2969 3277.8219,139.2969 3277.6344,139.3906 C3277.2125,139.6563 3276.525,139.7813 3275.7594,139.7813 C3273.7125,139.7813 3272.4156,138.6875 3272.4156,136.9844 L3272.4156,135.8906 C3272.4156,134.1094 3273.6656,132.7969 3275.4,132.7969 C3275.9781,132.7969 3276.5875,132.9531 3277.0563,133.2031 C3277.5406,133.4844 3277.7125,133.7031 3277.8063,134.1094 C3277.8688,134.5156 3277.9,134.6406 3278.0406,134.7656 C3278.1813,134.9063 3278.4156,135.0156 3278.6344,135.0156 C3278.9,135.0156 3279.1656,134.875 3279.3375,134.6563 C3279.4469,134.5 3279.4781,134.3125 3279.4781,133.8906 L3279.4781,132.4688 C3279.4781,132.0313 3279.4625,131.9063 3279.3688,131.75 C3279.2125,131.4844 3278.9313,131.3438 3278.6344,131.3438 C3278.3375,131.3438 3278.1344,131.4375 3277.9156,131.75 L3277.7438,131.6719 Z "/><text fill="#000000" font-family="sans-serif" font-size="12" lengthAdjust="spacingAndGlyphs" textLength="64" x="3295.6" y="140.1543">CaraterCT</text><line style="stroke: #A80036; stroke-width: 1.5;" x1="3233.5" x2="3389.5" y1="152" y2="152"/><text fill="#000000" font-family="sans-serif" font-size="11" lengthAdjust="spacingAndGlyphs" textLength="146" x="3238.5" y="166.2104">-boolean obrigatoriedade</text><line style="stroke: #A80036; stroke-width: 1.5;" x1="3233.5" x2="3389.5" y1="172.8047" y2="172.8047"/><!--MD5=[475c5b924ed41035684e2831311827d2]
class Candidatura--><rect fill="#FEFECE" filter="url(#f1jm1wpaqp1dlk)" height="124.8281" id="Candidatura" style="stroke: #A80036; stroke-width: 1.5;" width="340" x="2750" y="8"/><ellipse cx="2877.75" cy="24" fill="#ADD1B2" rx="11" ry="11" style="stroke: #A80036; stroke-width: 1.0;"/><path d="M2880.0938,19.6719 C2879.1563,19.2344 2878.5625,19.0938 2877.6875,19.0938 C2875.0625,19.0938 2873.0625,21.1719 2873.0625,23.8906 L2873.0625,25.0156 C2873.0625,27.5938 2875.1719,29.4844 2878.0625,29.4844 C2879.2813,29.4844 2880.4375,29.1875 2881.1875,28.6406 C2881.7656,28.2344 2882.0938,27.7813 2882.0938,27.3906 C2882.0938,26.9375 2881.7031,26.5469 2881.2344,26.5469 C2881.0156,26.5469 2880.8125,26.625 2880.625,26.8125 C2880.1719,27.2969 2880.1719,27.2969 2879.9844,27.3906 C2879.5625,27.6563 2878.875,27.7813 2878.1094,27.7813 C2876.0625,27.7813 2874.7656,26.6875 2874.7656,24.9844 L2874.7656,23.8906 C2874.7656,22.1094 2876.0156,20.7969 2877.75,20.7969 C2878.3281,20.7969 2878.9375,20.9531 2879.4063,21.2031 C2879.8906,21.4844 2880.0625,21.7031 2880.1563,22.1094 C2880.2188,22.5156 2880.25,22.6406 2880.3906,22.7656 C2880.5313,22.9063 2880.7656,23.0156 2880.9844,23.0156 C2881.25,23.0156 2881.5156,22.875 2881.6875,22.6563 C2881.7969,22.5 2881.8281,22.3125 2881.8281,21.8906 L2881.8281,20.4688 C2881.8281,20.0313 2881.8125,19.9063 2881.7188,19.75 C2881.5625,19.4844 2881.2813,19.3438 2880.9844,19.3438 C2880.6875,19.3438 2880.4844,19.4375 2880.2656,19.75 L2880.0938,19.6719 Z "/><text fill="#000000" font-family="sans-serif" font-size="12" lengthAdjust="spacingAndGlyphs" textLength="76" x="2898.25" y="28.1543">Candidatura</text><line style="stroke: #A80036; stroke-width: 1.5;" x1="2751" x2="3089" y1="40" y2="40"/><text fill="#000000" font-family="sans-serif" font-size="11" lengthAdjust="spacingAndGlyphs" textLength="130" x="2756" y="54.2104">-Date dataCandidatura</text><text fill="#000000" font-family="sans-serif" font-size="11" lengthAdjust="spacingAndGlyphs" textLength="141" x="2756" y="67.0151">-Double valorPretendido</text><text fill="#000000" font-family="sans-serif" font-size="11" lengthAdjust="spacingAndGlyphs" textLength="101" x="2756" y="79.8198">-Integer numDias</text><text fill="#000000" font-family="sans-serif" font-size="11" lengthAdjust="spacingAndGlyphs" textLength="138" x="2756" y="92.6245">-String txtApresentacao</text><text fill="#000000" font-family="sans-serif" font-size="11" lengthAdjust="spacingAndGlyphs" textLength="114" x="2756" y="105.4292">-String txtMotivacao</text><line style="stroke: #A80036; stroke-width: 1.5;" x1="2751" x2="3089" y1="112.0234" y2="112.0234"/><text fill="#000000" font-family="sans-serif" font-size="11" lengthAdjust="spacingAndGlyphs" textLength="328" x="2756" y="126.2339">+novaCandidatura(valor,numDias,textoApres,textoMotiv)</text><!--MD5=[5524571f9a52e9d48fc650f9abc383c5]
class ListaCandidatura--><rect fill="#FEFECE" filter="url(#f1jm1wpaqp1dlk)" height="73.6094" id="ListaCandidatura" style="stroke: #A80036; stroke-width: 1.5;" width="340" x="2239" y="33.5"/><ellipse cx="2352.25" cy="49.5" fill="#ADD1B2" rx="11" ry="11" style="stroke: #A80036; stroke-width: 1.0;"/><path d="M2354.5938,45.1719 C2353.6563,44.7344 2353.0625,44.5938 2352.1875,44.5938 C2349.5625,44.5938 2347.5625,46.6719 2347.5625,49.3906 L2347.5625,50.5156 C2347.5625,53.0938 2349.6719,54.9844 2352.5625,54.9844 C2353.7813,54.9844 2354.9375,54.6875 2355.6875,54.1406 C2356.2656,53.7344 2356.5938,53.2813 2356.5938,52.8906 C2356.5938,52.4375 2356.2031,52.0469 2355.7344,52.0469 C2355.5156,52.0469 2355.3125,52.125 2355.125,52.3125 C2354.6719,52.7969 2354.6719,52.7969 2354.4844,52.8906 C2354.0625,53.1563 2353.375,53.2813 2352.6094,53.2813 C2350.5625,53.2813 2349.2656,52.1875 2349.2656,50.4844 L2349.2656,49.3906 C2349.2656,47.6094 2350.5156,46.2969 2352.25,46.2969 C2352.8281,46.2969 2353.4375,46.4531 2353.9063,46.7031 C2354.3906,46.9844 2354.5625,47.2031 2354.6563,47.6094 C2354.7188,48.0156 2354.75,48.1406 2354.8906,48.2656 C2355.0313,48.4063 2355.2656,48.5156 2355.4844,48.5156 C2355.75,48.5156 2356.0156,48.375 2356.1875,48.1563 C2356.2969,48 2356.3281,47.8125 2356.3281,47.3906 L2356.3281,45.9688 C2356.3281,45.5313 2356.3125,45.4063 2356.2188,45.25 C2356.0625,44.9844 2355.7813,44.8438 2355.4844,44.8438 C2355.1875,44.8438 2354.9844,44.9375 2354.7656,45.25 L2354.5938,45.1719 Z "/><text fill="#000000" font-family="sans-serif" font-size="12" lengthAdjust="spacingAndGlyphs" textLength="105" x="2372.75" y="53.6543">ListaCandidatura</text><line style="stroke: #A80036; stroke-width: 1.5;" x1="2240" x2="2578" y1="65.5" y2="65.5"/><line style="stroke: #A80036; stroke-width: 1.5;" x1="2240" x2="2578" y1="73.5" y2="73.5"/><text fill="#000000" font-family="sans-serif" font-size="11" lengthAdjust="spacingAndGlyphs" textLength="328" x="2245" y="87.7104">+novaCandidatura(valor,numDias,textoApres,textoMotiv)</text><text fill="#000000" font-family="sans-serif" font-size="11" lengthAdjust="spacingAndGlyphs" textLength="152" x="2245" y="100.5151">-validaCandidatura(candid)</text><!--MD5=[0d4fe674cc1d46ec0fc990086e50801a]
class GrauProficiencia--><rect fill="#FEFECE" filter="url(#f1jm1wpaqp1dlk)" height="73.6094" id="GrauProficiencia" style="stroke: #A80036; stroke-width: 1.5;" width="133" x="3245" y="396.5"/><ellipse cx="3260" cy="412.5" fill="#ADD1B2" rx="11" ry="11" style="stroke: #A80036; stroke-width: 1.0;"/><path d="M3262.3438,408.1719 C3261.4063,407.7344 3260.8125,407.5938 3259.9375,407.5938 C3257.3125,407.5938 3255.3125,409.6719 3255.3125,412.3906 L3255.3125,413.5156 C3255.3125,416.0938 3257.4219,417.9844 3260.3125,417.9844 C3261.5313,417.9844 3262.6875,417.6875 3263.4375,417.1406 C3264.0156,416.7344 3264.3438,416.2813 3264.3438,415.8906 C3264.3438,415.4375 3263.9531,415.0469 3263.4844,415.0469 C3263.2656,415.0469 3263.0625,415.125 3262.875,415.3125 C3262.4219,415.7969 3262.4219,415.7969 3262.2344,415.8906 C3261.8125,416.1563 3261.125,416.2813 3260.3594,416.2813 C3258.3125,416.2813 3257.0156,415.1875 3257.0156,413.4844 L3257.0156,412.3906 C3257.0156,410.6094 3258.2656,409.2969 3260,409.2969 C3260.5781,409.2969 3261.1875,409.4531 3261.6563,409.7031 C3262.1406,409.9844 3262.3125,410.2031 3262.4063,410.6094 C3262.4688,411.0156 3262.5,411.1406 3262.6406,411.2656 C3262.7813,411.4063 3263.0156,411.5156 3263.2344,411.5156 C3263.5,411.5156 3263.7656,411.375 3263.9375,411.1563 C3264.0469,411 3264.0781,410.8125 3264.0781,410.3906 L3264.0781,408.9688 C3264.0781,408.5313 3264.0625,408.4063 3263.9688,408.25 C3263.8125,407.9844 3263.5313,407.8438 3263.2344,407.8438 C3262.9375,407.8438 3262.7344,407.9375 3262.5156,408.25 L3262.3438,408.1719 Z "/><text fill="#000000" font-family="sans-serif" font-size="12" lengthAdjust="spacingAndGlyphs" textLength="101" x="3274" y="416.6543">GrauProficiencia</text><line style="stroke: #A80036; stroke-width: 1.5;" x1="3246" x2="3377" y1="428.5" y2="428.5"/><text fill="#000000" font-family="sans-serif" font-size="11" lengthAdjust="spacingAndGlyphs" textLength="30" x="3251" y="442.7104">-grau</text><text fill="#000000" font-family="sans-serif" font-size="11" lengthAdjust="spacingAndGlyphs" textLength="70" x="3251" y="455.5151">-designação</text><line style="stroke: #A80036; stroke-width: 1.5;" x1="3246" x2="3377" y1="462.1094" y2="462.1094"/><!--MD5=[2d9585745789f8f497655ee56b7dd6a2]
class GrauMinimoExigivel--><rect fill="#FEFECE" filter="url(#f1jm1wpaqp1dlk)" height="73.6094" id="GrauMinimoExigivel" style="stroke: #A80036; stroke-width: 1.5;" width="153" x="3235" y="522.5"/><ellipse cx="3251.35" cy="538.5" fill="#ADD1B2" rx="11" ry="11" style="stroke: #A80036; stroke-width: 1.0;"/><path d="M3253.6938,534.1719 C3252.7563,533.7344 3252.1625,533.5938 3251.2875,533.5938 C3248.6625,533.5938 3246.6625,535.6719 3246.6625,538.3906 L3246.6625,539.5156 C3246.6625,542.0938 3248.7719,543.9844 3251.6625,543.9844 C3252.8813,543.9844 3254.0375,543.6875 3254.7875,543.1406 C3255.3656,542.7344 3255.6938,542.2813 3255.6938,541.8906 C3255.6938,541.4375 3255.3031,541.0469 3254.8344,541.0469 C3254.6156,541.0469 3254.4125,541.125 3254.225,541.3125 C3253.7719,541.7969 3253.7719,541.7969 3253.5844,541.8906 C3253.1625,542.1563 3252.475,542.2813 3251.7094,542.2813 C3249.6625,542.2813 3248.3656,541.1875 3248.3656,539.4844 L3248.3656,538.3906 C3248.3656,536.6094 3249.6156,535.2969 3251.35,535.2969 C3251.9281,535.2969 3252.5375,535.4531 3253.0063,535.7031 C3253.4906,535.9844 3253.6625,536.2031 3253.7563,536.6094 C3253.8188,537.0156 3253.85,537.1406 3253.9906,537.2656 C3254.1313,537.4063 3254.3656,537.5156 3254.5844,537.5156 C3254.85,537.5156 3255.1156,537.375 3255.2875,537.1563 C3255.3969,537 3255.4281,536.8125 3255.4281,536.3906 L3255.4281,534.9688 C3255.4281,534.5313 3255.4125,534.4063 3255.3188,534.25 C3255.1625,533.9844 3254.8813,533.8438 3254.5844,533.8438 C3254.2875,533.8438 3254.0844,533.9375 3253.8656,534.25 L3253.6938,534.1719 Z "/><text fill="#000000" font-family="sans-serif" font-size="12" lengthAdjust="spacingAndGlyphs" textLength="118" x="3265.65" y="542.6543">GrauMinimoExigivel</text><line style="stroke: #A80036; stroke-width: 1.5;" x1="3236" x2="3387" y1="554.5" y2="554.5"/><text fill="#000000" font-family="sans-serif" font-size="11" lengthAdjust="spacingAndGlyphs" textLength="37" x="3241" y="568.7104">-graus</text><text fill="#000000" font-family="sans-serif" font-size="11" lengthAdjust="spacingAndGlyphs" textLength="141" x="3241" y="581.5151">+getGrauMinimoExigivel</text><line style="stroke: #A80036; stroke-width: 1.5;" x1="3236" x2="3387" y1="588.1094" y2="588.1094"/><!--MD5=[1f687b5315377fe49fca59b457947463]
class Freelancer--><rect fill="#FEFECE" filter="url(#f1jm1wpaqp1dlk)" height="112.0234" id="Freelancer" style="stroke: #A80036; stroke-width: 1.5;" width="144" x="1686" y="357.5"/><ellipse cx="1721.7" cy="373.5" fill="#ADD1B2" rx="11" ry="11" style="stroke: #A80036; stroke-width: 1.0;"/><path d="M1724.0438,369.1719 C1723.1063,368.7344 1722.5125,368.5938 1721.6375,368.5938 C1719.0125,368.5938 1717.0125,370.6719 1717.0125,373.3906 L1717.0125,374.5156 C1717.0125,377.0938 1719.1219,378.9844 1722.0125,378.9844 C1723.2313,378.9844 1724.3875,378.6875 1725.1375,378.1406 C1725.7156,377.7344 1726.0438,377.2813 1726.0438,376.8906 C1726.0438,376.4375 1725.6531,376.0469 1725.1844,376.0469 C1724.9656,376.0469 1724.7625,376.125 1724.575,376.3125 C1724.1219,376.7969 1724.1219,376.7969 1723.9344,376.8906 C1723.5125,377.1563 1722.825,377.2813 1722.0594,377.2813 C1720.0125,377.2813 1718.7156,376.1875 1718.7156,374.4844 L1718.7156,373.3906 C1718.7156,371.6094 1719.9656,370.2969 1721.7,370.2969 C1722.2781,370.2969 1722.8875,370.4531 1723.3563,370.7031 C1723.8406,370.9844 1724.0125,371.2031 1724.1063,371.6094 C1724.1688,372.0156 1724.2,372.1406 1724.3406,372.2656 C1724.4813,372.4063 1724.7156,372.5156 1724.9344,372.5156 C1725.2,372.5156 1725.4656,372.375 1725.6375,372.1563 C1725.7469,372 1725.7781,371.8125 1725.7781,371.3906 L1725.7781,369.9688 C1725.7781,369.5313 1725.7625,369.4063 1725.6688,369.25 C1725.5125,368.9844 1725.2313,368.8438 1724.9344,368.8438 C1724.6375,368.8438 1724.4344,368.9375 1724.2156,369.25 L1724.0438,369.1719 Z "/><text fill="#000000" font-family="sans-serif" font-size="12" lengthAdjust="spacingAndGlyphs" textLength="66" x="1740.3" y="377.6543">Freelancer</text><line style="stroke: #A80036; stroke-width: 1.5;" x1="1687" x2="1829" y1="389.5" y2="389.5"/><text fill="#000000" font-family="sans-serif" font-size="11" lengthAdjust="spacingAndGlyphs" textLength="75" x="1692" y="403.7104">-String nome</text><text fill="#000000" font-family="sans-serif" font-size="11" lengthAdjust="spacingAndGlyphs" textLength="59" x="1692" y="416.5151">-String NIF</text><text fill="#000000" font-family="sans-serif" font-size="11" lengthAdjust="spacingAndGlyphs" textLength="91" x="1692" y="429.3198">-String telefone</text><text fill="#000000" font-family="sans-serif" font-size="11" lengthAdjust="spacingAndGlyphs" textLength="74" x="1692" y="442.1245">-String email</text><line style="stroke: #A80036; stroke-width: 1.5;" x1="1687" x2="1829" y1="448.7188" y2="448.7188"/><text fill="#000000" font-family="sans-serif" font-size="11" lengthAdjust="spacingAndGlyphs" textLength="132" x="1692" y="462.9292">+getReconhecimento()</text><!--MD5=[1d8aa98091123bff90ff3eeff52b11fd]
class Reconhecimento--><rect fill="#FEFECE" filter="url(#f1jm1wpaqp1dlk)" height="99.2188" id="Reconhecimento" style="stroke: #A80036; stroke-width: 1.5;" width="168" x="2041" y="364"/><ellipse cx="2070.85" cy="380" fill="#ADD1B2" rx="11" ry="11" style="stroke: #A80036; stroke-width: 1.0;"/><path d="M2073.1938,375.6719 C2072.2563,375.2344 2071.6625,375.0938 2070.7875,375.0938 C2068.1625,375.0938 2066.1625,377.1719 2066.1625,379.8906 L2066.1625,381.0156 C2066.1625,383.5938 2068.2719,385.4844 2071.1625,385.4844 C2072.3813,385.4844 2073.5375,385.1875 2074.2875,384.6406 C2074.8656,384.2344 2075.1938,383.7813 2075.1938,383.3906 C2075.1938,382.9375 2074.8031,382.5469 2074.3344,382.5469 C2074.1156,382.5469 2073.9125,382.625 2073.725,382.8125 C2073.2719,383.2969 2073.2719,383.2969 2073.0844,383.3906 C2072.6625,383.6563 2071.975,383.7813 2071.2094,383.7813 C2069.1625,383.7813 2067.8656,382.6875 2067.8656,380.9844 L2067.8656,379.8906 C2067.8656,378.1094 2069.1156,376.7969 2070.85,376.7969 C2071.4281,376.7969 2072.0375,376.9531 2072.5063,377.2031 C2072.9906,377.4844 2073.1625,377.7031 2073.2563,378.1094 C2073.3188,378.5156 2073.35,378.6406 2073.4906,378.7656 C2073.6313,378.9063 2073.8656,379.0156 2074.0844,379.0156 C2074.35,379.0156 2074.6156,378.875 2074.7875,378.6563 C2074.8969,378.5 2074.9281,378.3125 2074.9281,377.8906 L2074.9281,376.4688 C2074.9281,376.0313 2074.9125,375.9063 2074.8188,375.75 C2074.6625,375.4844 2074.3813,375.3438 2074.0844,375.3438 C2073.7875,375.3438 2073.5844,375.4375 2073.3656,375.75 L2073.1938,375.6719 Z "/><text fill="#000000" font-family="sans-serif" font-size="12" lengthAdjust="spacingAndGlyphs" textLength="103" x="2088.15" y="384.1543">Reconhecimento</text><line style="stroke: #A80036; stroke-width: 1.5;" x1="2042" x2="2208" y1="396" y2="396"/><text fill="#000000" font-family="sans-serif" font-size="11" lengthAdjust="spacingAndGlyphs" textLength="108" x="2047" y="410.2104">-String designacao</text><text fill="#000000" font-family="sans-serif" font-size="11" lengthAdjust="spacingAndGlyphs" textLength="67" x="2047" y="423.0151">-String data</text><line style="stroke: #A80036; stroke-width: 1.5;" x1="2042" x2="2208" y1="429.6094" y2="429.6094"/><text fill="#000000" font-family="sans-serif" font-size="11" lengthAdjust="spacingAndGlyphs" textLength="156" x="2047" y="443.8198">+getCompetenciaTecnica()</text><text fill="#000000" font-family="sans-serif" font-size="11" lengthAdjust="spacingAndGlyphs" textLength="130" x="2047" y="456.6245">+getGrauProficiencia()</text><!--MD5=[1e13576e8c070e32200b62ceaa1f39ec]
class SessaoUtilizador--><rect fill="#FEFECE" filter="url(#f1jm1wpaqp1dlk)" height="60.8047" id="SessaoUtilizador" style="stroke: #A80036; stroke-width: 1.5;" width="137" x="640.5" y="570"/><ellipse cx="655.5" cy="586" fill="#ADD1B2" rx="11" ry="11" style="stroke: #A80036; stroke-width: 1.0;"/><path d="M657.8438,581.6719 C656.9063,581.2344 656.3125,581.0938 655.4375,581.0938 C652.8125,581.0938 650.8125,583.1719 650.8125,585.8906 L650.8125,587.0156 C650.8125,589.5938 652.9219,591.4844 655.8125,591.4844 C657.0313,591.4844 658.1875,591.1875 658.9375,590.6406 C659.5156,590.2344 659.8438,589.7813 659.8438,589.3906 C659.8438,588.9375 659.4531,588.5469 658.9844,588.5469 C658.7656,588.5469 658.5625,588.625 658.375,588.8125 C657.9219,589.2969 657.9219,589.2969 657.7344,589.3906 C657.3125,589.6563 656.625,589.7813 655.8594,589.7813 C653.8125,589.7813 652.5156,588.6875 652.5156,586.9844 L652.5156,585.8906 C652.5156,584.1094 653.7656,582.7969 655.5,582.7969 C656.0781,582.7969 656.6875,582.9531 657.1563,583.2031 C657.6406,583.4844 657.8125,583.7031 657.9063,584.1094 C657.9688,584.5156 658,584.6406 658.1406,584.7656 C658.2813,584.9063 658.5156,585.0156 658.7344,585.0156 C659,585.0156 659.2656,584.875 659.4375,584.6563 C659.5469,584.5 659.5781,584.3125 659.5781,583.8906 L659.5781,582.4688 C659.5781,582.0313 659.5625,581.9063 659.4688,581.75 C659.3125,581.4844 659.0313,581.3438 658.7344,581.3438 C658.4375,581.3438 658.2344,581.4375 658.0156,581.75 L657.8438,581.6719 Z "/><text fill="#000000" font-family="sans-serif" font-size="12" lengthAdjust="spacingAndGlyphs" textLength="105" x="669.5" y="590.1543">SessaoUtilizador</text><line style="stroke: #A80036; stroke-width: 1.5;" x1="641.5" x2="776.5" y1="602" y2="602"/><line style="stroke: #A80036; stroke-width: 1.5;" x1="641.5" x2="776.5" y1="610" y2="610"/><text fill="#000000" font-family="sans-serif" font-size="11" lengthAdjust="spacingAndGlyphs" textLength="121" x="646.5" y="624.2104">+getEmailUtilizador()</text><!--MD5=[19db0db7353a4bf63eefc676e5ba9b80]
class Anuncio--><rect fill="#FEFECE" filter="url(#f1jm1wpaqp1dlk)" height="112.0234" id="Anuncio" style="stroke: #A80036; stroke-width: 1.5;" width="151" x="1860" y="155.5"/><ellipse cx="1907.75" cy="171.5" fill="#ADD1B2" rx="11" ry="11" style="stroke: #A80036; stroke-width: 1.0;"/><path d="M1910.0938,167.1719 C1909.1563,166.7344 1908.5625,166.5938 1907.6875,166.5938 C1905.0625,166.5938 1903.0625,168.6719 1903.0625,171.3906 L1903.0625,172.5156 C1903.0625,175.0938 1905.1719,176.9844 1908.0625,176.9844 C1909.2813,176.9844 1910.4375,176.6875 1911.1875,176.1406 C1911.7656,175.7344 1912.0938,175.2813 1912.0938,174.8906 C1912.0938,174.4375 1911.7031,174.0469 1911.2344,174.0469 C1911.0156,174.0469 1910.8125,174.125 1910.625,174.3125 C1910.1719,174.7969 1910.1719,174.7969 1909.9844,174.8906 C1909.5625,175.1563 1908.875,175.2813 1908.1094,175.2813 C1906.0625,175.2813 1904.7656,174.1875 1904.7656,172.4844 L1904.7656,171.3906 C1904.7656,169.6094 1906.0156,168.2969 1907.75,168.2969 C1908.3281,168.2969 1908.9375,168.4531 1909.4063,168.7031 C1909.8906,168.9844 1910.0625,169.2031 1910.1563,169.6094 C1910.2188,170.0156 1910.25,170.1406 1910.3906,170.2656 C1910.5313,170.4063 1910.7656,170.5156 1910.9844,170.5156 C1911.25,170.5156 1911.5156,170.375 1911.6875,170.1563 C1911.7969,170 1911.8281,169.8125 1911.8281,169.3906 L1911.8281,167.9688 C1911.8281,167.5313 1911.8125,167.4063 1911.7188,167.25 C1911.5625,166.9844 1911.2813,166.8438 1910.9844,166.8438 C1910.6875,166.8438 1910.4844,166.9375 1910.2656,167.25 L1910.0938,167.1719 Z "/><text fill="#000000" font-family="sans-serif" font-size="12" lengthAdjust="spacingAndGlyphs" textLength="47" x="1928.25" y="175.6543">Anuncio</text><line style="stroke: #A80036; stroke-width: 1.5;" x1="1861" x2="2010" y1="187.5" y2="187.5"/><text fill="#000000" font-family="sans-serif" font-size="11" lengthAdjust="spacingAndGlyphs" textLength="107" x="1866" y="201.7104">-String periodoPub</text><text fill="#000000" font-family="sans-serif" font-size="11" lengthAdjust="spacingAndGlyphs" textLength="115" x="1866" y="214.5151">-String peridooCand</text><text fill="#000000" font-family="sans-serif" font-size="11" lengthAdjust="spacingAndGlyphs" textLength="137" x="1866" y="227.3198">-String periodoSeriacao</text><line style="stroke: #A80036; stroke-width: 1.5;" x1="1861" x2="2010" y1="233.9141" y2="233.9141"/><text fill="#000000" font-family="sans-serif" font-size="11" lengthAdjust="spacingAndGlyphs" textLength="139" x="1866" y="248.1245">-addCandidatura(candid)</text><text fill="#000000" font-family="sans-serif" font-size="11" lengthAdjust="spacingAndGlyphs" textLength="74" x="1866" y="260.9292">+getTarefa()</text><!--MD5=[27c2d4bbe9f7b9d3b0ea2797cc54308a]
class Tarefa--><rect fill="#FEFECE" filter="url(#f1jm1wpaqp1dlk)" height="137.6328" id="Tarefa" style="stroke: #A80036; stroke-width: 1.5;" width="142" x="2338" y="142.5"/><ellipse cx="2384.75" cy="158.5" fill="#ADD1B2" rx="11" ry="11" style="stroke: #A80036; stroke-width: 1.0;"/><path d="M2387.0938,154.1719 C2386.1563,153.7344 2385.5625,153.5938 2384.6875,153.5938 C2382.0625,153.5938 2380.0625,155.6719 2380.0625,158.3906 L2380.0625,159.5156 C2380.0625,162.0938 2382.1719,163.9844 2385.0625,163.9844 C2386.2813,163.9844 2387.4375,163.6875 2388.1875,163.1406 C2388.7656,162.7344 2389.0938,162.2813 2389.0938,161.8906 C2389.0938,161.4375 2388.7031,161.0469 2388.2344,161.0469 C2388.0156,161.0469 2387.8125,161.125 2387.625,161.3125 C2387.1719,161.7969 2387.1719,161.7969 2386.9844,161.8906 C2386.5625,162.1563 2385.875,162.2813 2385.1094,162.2813 C2383.0625,162.2813 2381.7656,161.1875 2381.7656,159.4844 L2381.7656,158.3906 C2381.7656,156.6094 2383.0156,155.2969 2384.75,155.2969 C2385.3281,155.2969 2385.9375,155.4531 2386.4063,155.7031 C2386.8906,155.9844 2387.0625,156.2031 2387.1563,156.6094 C2387.2188,157.0156 2387.25,157.1406 2387.3906,157.2656 C2387.5313,157.4063 2387.7656,157.5156 2387.9844,157.5156 C2388.25,157.5156 2388.5156,157.375 2388.6875,157.1563 C2388.7969,157 2388.8281,156.8125 2388.8281,156.3906 L2388.8281,154.9688 C2388.8281,154.5313 2388.8125,154.4063 2388.7188,154.25 C2388.5625,153.9844 2388.2813,153.8438 2387.9844,153.8438 C2387.6875,153.8438 2387.4844,153.9375 2387.2656,154.25 L2387.0938,154.1719 Z "/><text fill="#000000" font-family="sans-serif" font-size="12" lengthAdjust="spacingAndGlyphs" textLength="40" x="2405.25" y="162.6543">Tarefa</text><line style="stroke: #A80036; stroke-width: 1.5;" x1="2339" x2="2479" y1="174.5" y2="174.5"/><text fill="#000000" font-family="sans-serif" font-size="11" lengthAdjust="spacingAndGlyphs" textLength="90" x="2344" y="188.7104">-String refUnica</text><text fill="#000000" font-family="sans-serif" font-size="11" lengthAdjust="spacingAndGlyphs" textLength="108" x="2344" y="201.5151">-String designacao</text><text fill="#000000" font-family="sans-serif" font-size="11" lengthAdjust="spacingAndGlyphs" textLength="84" x="2344" y="214.3198">-String descInf</text><text fill="#000000" font-family="sans-serif" font-size="11" lengthAdjust="spacingAndGlyphs" textLength="91" x="2344" y="227.1245">-String descTec</text><text fill="#000000" font-family="sans-serif" font-size="11" lengthAdjust="spacingAndGlyphs" textLength="96" x="2344" y="239.9292">-Integer duracao</text><text fill="#000000" font-family="sans-serif" font-size="11" lengthAdjust="spacingAndGlyphs" textLength="80" x="2344" y="252.7339">-Double custo</text><line style="stroke: #A80036; stroke-width: 1.5;" x1="2339" x2="2479" y1="259.3281" y2="259.3281"/><text fill="#000000" font-family="sans-serif" font-size="11" lengthAdjust="spacingAndGlyphs" textLength="130" x="2344" y="273.5386">+getCategoriaTarefa()</text><!--MD5=[8281e942cfe19eb10a542fb5901726e8]
link EfetuarCandidaturaUI to EfetuarCandidaturaController--><path d="M170.305,497.5 C187.496,497.5 206.268,497.5 225.431,497.5 " fill="none" id="EfetuarCandidaturaUI-&gt;EfetuarCandidaturaController" style="stroke: #A80036; stroke-width: 1.0; stroke-dasharray: 7.0,7.0;"/><polygon fill="#A80036" points="230.846,497.5,221.846,493.5,225.846,497.5,221.846,501.5,230.846,497.5" style="stroke: #A80036; stroke-width: 1.0;"/><!--MD5=[cfb51fdb70c5194bcf32d3318b41bcae]
link EfetuarCandidaturaController to Plataforma--><path d="M533.992,447.895 C565.644,436 598.519,423.645 627.059,412.919 " fill="none" id="EfetuarCandidaturaController-&gt;Plataforma" style="stroke: #A80036; stroke-width: 1.0; stroke-dasharray: 7.0,7.0;"/><polygon fill="#A80036" points="631.967,411.074,622.1352,410.4944,627.2864,412.8323,624.9485,417.9834,631.967,411.074" style="stroke: #A80036; stroke-width: 1.0;"/><!--MD5=[57332eb46e6bbe985261627fd31632ad]
link EfetuarCandidaturaController to AplicacaoPOT--><path d="M571.11,497.5 C594.556,497.5 617.492,497.5 637.682,497.5 " fill="none" id="EfetuarCandidaturaController-&gt;AplicacaoPOT" style="stroke: #A80036; stroke-width: 1.0; stroke-dasharray: 7.0,7.0;"/><polygon fill="#A80036" points="642.754,497.5,633.754,493.5,637.754,497.5,633.754,501.5,642.754,497.5" style="stroke: #A80036; stroke-width: 1.0;"/><!--MD5=[aff73e1f55748a22e3dbc8c8608a5f9f]
link EfetuarCandidaturaController to SessaoUtilizador--><path d="M549.174,547.039 C579.155,557.1305 609.434,567.3226 635.399,576.0623 " fill="none" id="EfetuarCandidaturaController-&gt;SessaoUtilizador" style="stroke: #A80036; stroke-width: 1.0; stroke-dasharray: 7.0,7.0;"/><polygon fill="#A80036" points="640.195,577.6769,632.9421,571.0139,635.4564,576.0812,630.3891,578.5956,640.195,577.6769" style="stroke: #A80036; stroke-width: 1.0;"/><!--MD5=[957336f8f7652c1733534e96e2968a5f]
link Plataforma to RegistoFreelancer--><path d="M786.15,386.317 C893.795,391.712 1091.2,401.606 1215.83,407.853 " fill="none" id="Plataforma-&gt;RegistoFreelancer" style="stroke: #A80036; stroke-width: 1.0;"/><polygon fill="#A80036" points="1220.97,408.111,1212.1876,403.6535,1215.9766,407.8539,1211.7762,411.6429,1220.97,408.111" style="stroke: #A80036; stroke-width: 1.0;"/><text fill="#000000" font-family="sans-serif" font-size="13" lengthAdjust="spacingAndGlyphs" textLength="41" x="817" y="384.5669">possui</text><text fill="#000000" font-family="sans-serif" font-size="13" lengthAdjust="spacingAndGlyphs" textLength="8" x="793.8846" y="399.4491">1</text><text fill="#000000" font-family="sans-serif" font-size="13" lengthAdjust="spacingAndGlyphs" textLength="8" x="1205.0577" y="420.3379">1</text><!--MD5=[bfccd8e890448f4cee1f17ba82daa446]
link Plataforma to Organização--><path d="M786.306,343.303 C823.76,324.064 869.875,300.376 912.413,278.525 " fill="none" id="Plataforma-&gt;Organização" style="stroke: #A80036; stroke-width: 1.0;"/><polygon fill="#A80036" points="917.048,276.144,907.2147,276.6981,912.6004,278.4285,910.87,283.8142,917.048,276.144" style="stroke: #A80036; stroke-width: 1.0;"/><text fill="#000000" font-family="sans-serif" font-size="13" lengthAdjust="spacingAndGlyphs" textLength="41" x="817" y="304.5669">possui</text><text fill="#000000" font-family="sans-serif" font-size="13" lengthAdjust="spacingAndGlyphs" textLength="8" x="794.0555" y="352.3354">1</text><text fill="#000000" font-family="sans-serif" font-size="13" lengthAdjust="spacingAndGlyphs" textLength="8" x="895.1626" y="295.8996">1</text><!--MD5=[c1cd072380b952d1168028559a782a35]
link Organização to RegistoAnuncio--><path d="M1191.06,212.923 C1278.53,212.586 1386.37,212.172 1462.99,211.877 " fill="none" id="Organização-&gt;RegistoAnuncio" style="stroke: #A80036; stroke-width: 1.0;"/><polygon fill="#A80036" points="1467.99,211.858,1458.9786,207.8837,1462.99,211.8723,1459.0015,215.8837,1467.99,211.858" style="stroke: #A80036; stroke-width: 1.0;"/><text fill="#000000" font-family="sans-serif" font-size="13" lengthAdjust="spacingAndGlyphs" textLength="41" x="1309" y="208.5669">possui</text><text fill="#000000" font-family="sans-serif" font-size="13" lengthAdjust="spacingAndGlyphs" textLength="8" x="1199.0553" y="225.3547">1</text><text fill="#000000" font-family="sans-serif" font-size="13" lengthAdjust="spacingAndGlyphs" textLength="21" x="1438.9885" y="224.5391">1..*</text><!--MD5=[55f954b55e54745b7c08c873f2d7d50c]
link RegistoAnuncio to Anuncio--><path d="M1656.27,211.5 C1717.4,211.5 1796.47,211.5 1854.69,211.5 " fill="none" id="RegistoAnuncio-&gt;Anuncio" style="stroke: #A80036; stroke-width: 1.0;"/><polygon fill="#A80036" points="1859.9,211.5,1850.9,207.5,1854.9,211.5,1850.9,215.5,1859.9,211.5" style="stroke: #A80036; stroke-width: 1.0;"/><text fill="#000000" font-family="sans-serif" font-size="13" lengthAdjust="spacingAndGlyphs" textLength="41" x="1737.5" y="207.5669">possui</text><text fill="#000000" font-family="sans-serif" font-size="13" lengthAdjust="spacingAndGlyphs" textLength="8" x="1664.1009" y="224.1776">1</text><text fill="#000000" font-family="sans-serif" font-size="13" lengthAdjust="spacingAndGlyphs" textLength="7" x="1845.1136" y="224.3106">*</text><!--MD5=[439a6ad1de0b5aa57a973cae1bf36ce5]
link Anuncio to Tarefa--><path d="M2011.21,211.5 C2099.17,211.5 2244.43,211.5 2332.67,211.5 " fill="none" id="Anuncio-&gt;Tarefa" style="stroke: #A80036; stroke-width: 1.0;"/><polygon fill="#A80036" points="2337.87,211.5,2328.87,207.5,2332.87,211.5,2328.87,215.5,2337.87,211.5" style="stroke: #A80036; stroke-width: 1.0;"/><text fill="#000000" font-family="sans-serif" font-size="13" lengthAdjust="spacingAndGlyphs" textLength="46" x="2102" y="207.5669">gerado</text><text fill="#000000" font-family="sans-serif" font-size="13" lengthAdjust="spacingAndGlyphs" textLength="22" x="2018.9326" y="224.2397">0..1</text><text fill="#000000" font-family="sans-serif" font-size="13" lengthAdjust="spacingAndGlyphs" textLength="7" x="2323.1738" y="224.3661">*</text><!--MD5=[ef6c7296f3ccb3330d24b2759b1ff579]
link Anuncio to ListaCandidatura--><path d="M2011.21,189.158 C2083.08,167.666 2193.19,134.737 2279.2,109.016 " fill="none" id="Anuncio-&gt;ListaCandidatura" style="stroke: #A80036; stroke-width: 1.0;"/><polygon fill="#A80036" points="2284.06,107.565,2274.2888,106.3308,2279.2725,109.0071,2276.5962,113.9908,2284.06,107.565" style="stroke: #A80036; stroke-width: 1.0;"/><text fill="#000000" font-family="sans-serif" font-size="13" lengthAdjust="spacingAndGlyphs" textLength="27" x="2111.5" y="129.5669">tem</text><text fill="#000000" font-family="sans-serif" font-size="13" lengthAdjust="spacingAndGlyphs" textLength="8" x="2019.0565" y="199.7693">1</text><text fill="#000000" font-family="sans-serif" font-size="13" lengthAdjust="spacingAndGlyphs" textLength="21" x="2240.6278" y="127.0563">1..*</text><!--MD5=[1cd1e36eff7549f94055b646415c3dcf]
link ListaCandidatura to Candidatura--><path d="M2579.14,70.5 C2632.24,70.5 2690.96,70.5 2744.44,70.5 " fill="none" id="ListaCandidatura-&gt;Candidatura" style="stroke: #A80036; stroke-width: 1.0;"/><polygon fill="#A80036" points="2749.59,70.5,2740.59,66.5,2744.59,70.5,2740.59,74.5,2749.59,70.5" style="stroke: #A80036; stroke-width: 1.0;"/><text fill="#000000" font-family="sans-serif" font-size="13" lengthAdjust="spacingAndGlyphs" textLength="27" x="2651" y="66.5669">tem</text><text fill="#000000" font-family="sans-serif" font-size="13" lengthAdjust="spacingAndGlyphs" textLength="8" x="2587.0307" y="82.9186">1</text><text fill="#000000" font-family="sans-serif" font-size="13" lengthAdjust="spacingAndGlyphs" textLength="7" x="2735.2532" y="82.8897">*</text><!--MD5=[cc2561a0285988b367253361d2d1973d]
link Tarefa to Categoria--><path d="M2480.24,211.5 C2566.6,211.5 2713.96,211.5 2813.84,211.5 " fill="none" id="Tarefa-&gt;Categoria" style="stroke: #A80036; stroke-width: 1.0;"/><polygon fill="#A80036" points="2818.86,211.5,2809.86,207.5,2813.86,211.5,2809.86,215.5,2818.86,211.5" style="stroke: #A80036; stroke-width: 1.0;"/><text fill="#000000" font-family="sans-serif" font-size="13" lengthAdjust="spacingAndGlyphs" textLength="109" x="2610" y="207.5669">enquadra-se em</text><text fill="#000000" font-family="sans-serif" font-size="13" lengthAdjust="spacingAndGlyphs" textLength="8" x="2487.9991" y="224.3661">1</text><text fill="#000000" font-family="sans-serif" font-size="13" lengthAdjust="spacingAndGlyphs" textLength="8" x="2803.1388" y="224.1073">1</text><!--MD5=[356637b2f958ae72e05476dfd0749f83]
link Categoria to CaraterCT--><path d="M3021.05,195.831 C3084.96,185.822 3166.85,172.997 3227.21,163.545 " fill="none" id="Categoria-&gt;CaraterCT" style="stroke: #A80036; stroke-width: 1.0;"/><polygon fill="#A80036" points="3232.25,162.755,3222.7406,160.1915,3227.3099,163.5264,3223.9749,168.0957,3232.25,162.755" style="stroke: #A80036; stroke-width: 1.0;"/><text fill="#000000" font-family="sans-serif" font-size="13" lengthAdjust="spacingAndGlyphs" textLength="75" x="3121" y="165.5669">tem/requer</text><text fill="#000000" font-family="sans-serif" font-size="13" lengthAdjust="spacingAndGlyphs" textLength="8" x="3029.0929" y="207.2617">1</text><text fill="#000000" font-family="sans-serif" font-size="13" lengthAdjust="spacingAndGlyphs" textLength="7" x="3217.6215" y="176.6582">*</text><!--MD5=[c75634cbdcfa2b68969b4225848e5f92]
link CaraterCT to CompetenciaTecnica--><path d="M3311.5,181.255 C3311.5,194.779 3311.5,211.167 3311.5,227.019 " fill="none" id="CaraterCT-&gt;CompetenciaTecnica" style="stroke: #A80036; stroke-width: 1.0;"/><polygon fill="#A80036" points="3311.5,232.37,3315.5,223.37,3311.5,227.37,3307.5,223.37,3311.5,232.37" style="stroke: #A80036; stroke-width: 1.0;"/><text fill="#000000" font-family="sans-serif" font-size="13" lengthAdjust="spacingAndGlyphs" textLength="75" x="3262.5" y="211.3169">referente a</text><text fill="#000000" font-family="sans-serif" font-size="13" lengthAdjust="spacingAndGlyphs" textLength="7" x="3303.8109" y="200.8856">*</text><text fill="#000000" font-family="sans-serif" font-size="13" lengthAdjust="spacingAndGlyphs" textLength="8" x="3302.9875" y="221.2913">1</text><!--MD5=[0d731ff285a62a08178b23be6cceb109]
link CompetenciaTecnica to GrauProficiencia--><path d="M3311.5,344.598 C3311.5,359.987 3311.5,376.417 3311.5,390.912 " fill="none" id="CompetenciaTecnica-&gt;GrauProficiencia" style="stroke: #A80036; stroke-width: 1.0;"/><polygon fill="#A80036" points="3311.5,396.159,3315.5,387.159,3311.5,391.159,3307.5,387.159,3311.5,396.159" style="stroke: #A80036; stroke-width: 1.0;"/><text fill="#000000" font-family="sans-serif" font-size="13" lengthAdjust="spacingAndGlyphs" textLength="41" x="3279.5" y="375.0669">possui</text><text fill="#000000" font-family="sans-serif" font-size="13" lengthAdjust="spacingAndGlyphs" textLength="8" x="3303.0125" y="364.4226">1</text><text fill="#000000" font-family="sans-serif" font-size="13" lengthAdjust="spacingAndGlyphs" textLength="21" x="3288.6953" y="385.5638">1..*</text><!--MD5=[a9498e5471478d1d7a7feaf6fb5e2aef]
link GrauProficiencia to GrauMinimoExigivel--><path d="M3311.5,470.793 C3311.5,485.419 3311.5,502.277 3311.5,517.343 " fill="none" id="GrauProficiencia-&gt;GrauMinimoExigivel" style="stroke: #A80036; stroke-width: 1.0;"/><polygon fill="#A80036" points="3311.5,522.377,3315.5,513.377,3311.5,517.377,3307.5,513.377,3311.5,522.377" style="stroke: #A80036; stroke-width: 1.0;"/><text fill="#000000" font-family="sans-serif" font-size="13" lengthAdjust="spacingAndGlyphs" textLength="27" x="3286.5" y="501.0669">tem</text><text fill="#000000" font-family="sans-serif" font-size="13" lengthAdjust="spacingAndGlyphs" textLength="8" x="3302.8625" y="490.0405">1</text><text fill="#000000" font-family="sans-serif" font-size="13" lengthAdjust="spacingAndGlyphs" textLength="8" x="3302.7875" y="511.542">1</text><!--MD5=[95795e0b4ecb0b567ae2ce3910745252]
link RegistoFreelancer to Freelancer--><path d="M1438.12,413.5 C1513.76,413.5 1613.12,413.5 1680.69,413.5 " fill="none" id="RegistoFreelancer-&gt;Freelancer" style="stroke: #A80036; stroke-width: 1.0;"/><polygon fill="#A80036" points="1685.91,413.5,1676.91,409.5,1680.91,413.5,1676.91,417.5,1685.91,413.5" style="stroke: #A80036; stroke-width: 1.0;"/><text fill="#000000" font-family="sans-serif" font-size="13" lengthAdjust="spacingAndGlyphs" textLength="41" x="1541.5" y="409.5669">possui</text><text fill="#000000" font-family="sans-serif" font-size="13" lengthAdjust="spacingAndGlyphs" textLength="8" x="1446.0386" y="426.1058">1</text><text fill="#000000" font-family="sans-serif" font-size="13" lengthAdjust="spacingAndGlyphs" textLength="7" x="1671.1148" y="426.346">*</text><!--MD5=[7fbeb7bcd2a7737111d998de4a14bf4d]
link Freelancer to Reconhecimento--><path d="M1830.24,413.5 C1888.96,413.5 1972.54,413.5 2035.54,413.5 " fill="none" id="Freelancer-&gt;Reconhecimento" style="stroke: #A80036; stroke-width: 1.0;"/><polygon fill="#A80036" points="2040.8,413.5,2031.8,409.5,2035.8,413.5,2031.8,417.5,2040.8,413.5" style="stroke: #A80036; stroke-width: 1.0;"/><text fill="#000000" font-family="sans-serif" font-size="13" lengthAdjust="spacingAndGlyphs" textLength="27" x="1922" y="409.5669">tem</text><text fill="#000000" font-family="sans-serif" font-size="13" lengthAdjust="spacingAndGlyphs" textLength="8" x="1838.1023" y="426.346">1</text><text fill="#000000" font-family="sans-serif" font-size="13" lengthAdjust="spacingAndGlyphs" textLength="8" x="2024.9447" y="426.231">1</text><!--MD5=[37c76b693b9cd1bbf25661bba94ed967]
link Reconhecimento to GrauProficiencia--><path d="M2209.29,414.906 C2431.11,418.652 3033.29,428.819 3239.85,432.307 " fill="none" id="Reconhecimento-&gt;GrauProficiencia" style="stroke: #A80036; stroke-width: 1.0;"/><polygon fill="#A80036" points="3244.95,432.393,3236.0199,428.2393,3239.9507,432.3073,3235.8827,436.2381,3244.95,432.393" style="stroke: #A80036; stroke-width: 1.0;"/><text fill="#000000" font-family="sans-serif" font-size="13" lengthAdjust="spacingAndGlyphs" textLength="27" x="2651" y="417.5669">tem</text><text fill="#000000" font-family="sans-serif" font-size="13" lengthAdjust="spacingAndGlyphs" textLength="8" x="2216.8774" y="427.7346">1</text><text fill="#000000" font-family="sans-serif" font-size="13" lengthAdjust="spacingAndGlyphs" textLength="21" x="3216.0042" y="445.1462">1..*</text><!--MD5=[a496269aefa32f784559b8c050829d1a]
@startuml
skinparam classAttributeIconSize 0
left to right direction
class EfetuarCandidaturaUI {
}

class EfetuarCandidaturaController {
  +getListAnunElegiv()
  +novaCandidatura(valor,numDias,textoApres,textoMotiv)
  +registaCategoria()
  -ListAnuncioDisponiveis
}

class Plataforma {
  -designacao
  +getRegistoAnuncio()
  +getRegistoFreelancer()
}

class CompetenciaTecnica {
  -codigo
  -descBreve
  -descDetalhada
  -grauProficiencia
  +getListaGrauProficiencia()
}

class AplicacaoPOT {
   +static getInstance()
   +getSessaoAtual()
}

class Organização {
   -string NIF
   -string website
   -string telefone
   -string nome
   -string email
   +Organização(NIF,website, telefone, nome, email)
}


class Categoria {
  -id
  -descricao
  +getListCompetenciasTecnicas()
}

class RegistoFreelancer {
   +getFreelancerByEmail(emailUtiliz)
}

class RegistoAnuncio {
   +getListAnunciosDisponiveis()
}

class CaraterCT {
   -boolean obrigatoriedade
}

class Candidatura{
  -Date dataCandidatura
  -Double valorPretendido
  -Integer numDias
  -String txtApresentacao
  -String txtMotivacao
   +novaCandidatura(valor,numDias,textoApres,textoMotiv)
}

class ListaCandidatura {
   +novaCandidatura(valor,numDias,textoApres,textoMotiv)
   -validaCandidatura(candid)
}

class GrauProficiencia {
   -grau
   -designação
}

class GrauMinimoExigivel {
   -graus
   +getGrauMinimoExigivel
}

class Freelancer {
  -String nome
  -String NIF
  -String telefone
  -String email
  +getReconhecimento()

}

class Reconhecimento {
   -String designacao
   -String data
   +getCompetenciaTecnica()
   +getGrauProficiencia()
}

class SessaoUtilizador {
   +getEmailUtilizador()
}

class Anuncio {
   -String periodoPub
   -String peridooCand
   -String periodoSeriacao
   -addCandidatura(candid)
   +getTarefa()
}

class Tarefa {
  -String refUnica
  -String designacao
  -String descInf
  -String descTec
  -Integer duracao
  -Double custo
   +getCategoriaTarefa()
}

EfetuarCandidaturaUI ..> EfetuarCandidaturaController
EfetuarCandidaturaController ..> Plataforma
EfetuarCandidaturaController ..> AplicacaoPOT
EfetuarCandidaturaController ..> SessaoUtilizador
Plataforma "1" - -> "1" RegistoFreelancer : possui
Plataforma "1" - -> "1" Organização : possui
Organização "1" - -> "1..*" RegistoAnuncio : possui
RegistoAnuncio "1" - -> "*" Anuncio : possui
Anuncio "0..1" - -> "*" Tarefa : gerado
Anuncio "1" - -> "1..*" ListaCandidatura : tem
ListaCandidatura "1" - -> "*" Candidatura : tem
Tarefa "1" - -> "1" Categoria : enquadra-se em
Categoria "1" - -> "*" CaraterCT : tem/requer
CaraterCT "*" -> "1" CompetenciaTecnica : referente a
CompetenciaTecnica "1" -> "1..*" GrauProficiencia : possui
GrauProficiencia "1" -> "1" GrauMinimoExigivel : tem
RegistoFreelancer "1" - -> "*" Freelancer : possui
Freelancer "1" - -> "1" Reconhecimento : tem
Reconhecimento "1" - -> "1..*" GrauProficiencia : tem
@enduml

PlantUML version 1.2020.09beta15(Unknown compile time)
(GPL source distribution)
Java Runtime: Java(TM) SE Runtime Environment
JVM: Java HotSpot(TM) 64-Bit Server VM
Java Version: 14.0.1+7
Operating System: Linux
Default Encoding: UTF-8
Language: en
Country: US
--></g></svg>