<?xml version="1.0" encoding="UTF-8" standalone="no"?><svg xmlns="http://www.w3.org/2000/svg" xmlns:xlink="http://www.w3.org/1999/xlink" contentScriptType="application/ecmascript" contentStyleType="text/css" height="1332px" preserveAspectRatio="none" style="width:2067px;height:1332px;" version="1.1" viewBox="0 0 2067 1332" width="2067px" zoomAndPan="magnify"><defs><filter height="300%" id="f1ex9hhlk1ayfd" width="300%" x="-1" y="-1"><feGaussianBlur result="blurOut" stdDeviation="2.0"/><feColorMatrix in="blurOut" result="blurOut2" type="matrix" values="0 0 0 0 0 0 0 0 0 0 0 0 0 0 0 0 0 0 .4 0"/><feOffset dx="4.0" dy="4.0" in="blurOut2" result="blurOut3"/><feBlend in="SourceGraphic" in2="blurOut3" mode="normal"/></filter></defs><g><!--MD5=[ecaed46f78f8cfe1e9ce18477649be18]
class Plataforma--><rect fill="#FEFECE" filter="url(#f1ex9hhlk1ayfd)" height="52.8047" id="Plataforma" style="stroke: #A80036; stroke-width: 1.5;" width="120" x="6" y="376.5"/><ellipse cx="30" cy="392.5" fill="#ADD1B2" rx="11" ry="11" style="stroke: #A80036; stroke-width: 1.0;"/><path d="M32.3438,388.1719 C31.4063,387.7344 30.8125,387.5938 29.9375,387.5938 C27.3125,387.5938 25.3125,389.6719 25.3125,392.3906 L25.3125,393.5156 C25.3125,396.0938 27.4219,397.9844 30.3125,397.9844 C31.5313,397.9844 32.6875,397.6875 33.4375,397.1406 C34.0156,396.7344 34.3438,396.2813 34.3438,395.8906 C34.3438,395.4375 33.9531,395.0469 33.4844,395.0469 C33.2656,395.0469 33.0625,395.125 32.875,395.3125 C32.4219,395.7969 32.4219,395.7969 32.2344,395.8906 C31.8125,396.1563 31.125,396.2813 30.3594,396.2813 C28.3125,396.2813 27.0156,395.1875 27.0156,393.4844 L27.0156,392.3906 C27.0156,390.6094 28.2656,389.2969 30,389.2969 C30.5781,389.2969 31.1875,389.4531 31.6563,389.7031 C32.1406,389.9844 32.3125,390.2031 32.4063,390.6094 C32.4688,391.0156 32.5,391.1406 32.6406,391.2656 C32.7813,391.4063 33.0156,391.5156 33.2344,391.5156 C33.5,391.5156 33.7656,391.375 33.9375,391.1563 C34.0469,391 34.0781,390.8125 34.0781,390.3906 L34.0781,388.9688 C34.0781,388.5313 34.0625,388.4063 33.9688,388.25 C33.8125,387.9844 33.5313,387.8438 33.2344,387.8438 C32.9375,387.8438 32.7344,387.9375 32.5156,388.25 L32.3438,388.1719 Z "/><text fill="#000000" font-family="sans-serif" font-size="12" lengthAdjust="spacingAndGlyphs" textLength="68" x="46" y="396.6543">Plataforma</text><line style="stroke: #A80036; stroke-width: 1.5;" x1="7" x2="125" y1="408.5" y2="408.5"/><text fill="#000000" font-family="sans-serif" font-size="11" lengthAdjust="spacingAndGlyphs" textLength="108" x="12" y="422.7104">-String designacao</text><!--MD5=[02456e6632d968d6f68141e5893c6991]
class AreaAtividade--><rect fill="#FEFECE" filter="url(#f1ex9hhlk1ayfd)" height="78.4141" id="AreaAtividade" style="stroke: #A80036; stroke-width: 1.5;" width="141" x="1909" y="52"/><ellipse cx="1933.9" cy="68" fill="#ADD1B2" rx="11" ry="11" style="stroke: #A80036; stroke-width: 1.0;"/><path d="M1936.2438,63.6719 C1935.3063,63.2344 1934.7125,63.0938 1933.8375,63.0938 C1931.2125,63.0938 1929.2125,65.1719 1929.2125,67.8906 L1929.2125,69.0156 C1929.2125,71.5938 1931.3219,73.4844 1934.2125,73.4844 C1935.4313,73.4844 1936.5875,73.1875 1937.3375,72.6406 C1937.9156,72.2344 1938.2438,71.7813 1938.2438,71.3906 C1938.2438,70.9375 1937.8531,70.5469 1937.3844,70.5469 C1937.1656,70.5469 1936.9625,70.625 1936.775,70.8125 C1936.3219,71.2969 1936.3219,71.2969 1936.1344,71.3906 C1935.7125,71.6563 1935.025,71.7813 1934.2594,71.7813 C1932.2125,71.7813 1930.9156,70.6875 1930.9156,68.9844 L1930.9156,67.8906 C1930.9156,66.1094 1932.1656,64.7969 1933.9,64.7969 C1934.4781,64.7969 1935.0875,64.9531 1935.5563,65.2031 C1936.0406,65.4844 1936.2125,65.7031 1936.3063,66.1094 C1936.3688,66.5156 1936.4,66.6406 1936.5406,66.7656 C1936.6813,66.9063 1936.9156,67.0156 1937.1344,67.0156 C1937.4,67.0156 1937.6656,66.875 1937.8375,66.6563 C1937.9469,66.5 1937.9781,66.3125 1937.9781,65.8906 L1937.9781,64.4688 C1937.9781,64.0313 1937.9625,63.9063 1937.8688,63.75 C1937.7125,63.4844 1937.4313,63.3438 1937.1344,63.3438 C1936.8375,63.3438 1936.6344,63.4375 1936.4156,63.75 L1936.2438,63.6719 Z "/><text fill="#000000" font-family="sans-serif" font-size="12" lengthAdjust="spacingAndGlyphs" textLength="87" x="1950.1" y="72.1543">AreaAtividade</text><line style="stroke: #A80036; stroke-width: 1.5;" x1="1910" x2="2049" y1="84" y2="84"/><text fill="#000000" font-family="sans-serif" font-size="11" lengthAdjust="spacingAndGlyphs" textLength="79" x="1915" y="98.2104">-String codigo</text><text fill="#000000" font-family="sans-serif" font-size="11" lengthAdjust="spacingAndGlyphs" textLength="106" x="1915" y="111.0151">-String descBreve</text><text fill="#000000" font-family="sans-serif" font-size="11" lengthAdjust="spacingAndGlyphs" textLength="129" x="1915" y="123.8198">-String descDetalhada</text><!--MD5=[a322db5a7ec64d2ff8f2d6cf1831dcec]
class CompetenciaTecnica--><rect fill="#FEFECE" filter="url(#f1ex9hhlk1ayfd)" height="78.4141" id="CompetenciaTecnica" style="stroke: #A80036; stroke-width: 1.5;" width="161" x="1592" y="149"/><ellipse cx="1607" cy="165" fill="#ADD1B2" rx="11" ry="11" style="stroke: #A80036; stroke-width: 1.0;"/><path d="M1609.3438,160.6719 C1608.4063,160.2344 1607.8125,160.0938 1606.9375,160.0938 C1604.3125,160.0938 1602.3125,162.1719 1602.3125,164.8906 L1602.3125,166.0156 C1602.3125,168.5938 1604.4219,170.4844 1607.3125,170.4844 C1608.5313,170.4844 1609.6875,170.1875 1610.4375,169.6406 C1611.0156,169.2344 1611.3438,168.7813 1611.3438,168.3906 C1611.3438,167.9375 1610.9531,167.5469 1610.4844,167.5469 C1610.2656,167.5469 1610.0625,167.625 1609.875,167.8125 C1609.4219,168.2969 1609.4219,168.2969 1609.2344,168.3906 C1608.8125,168.6563 1608.125,168.7813 1607.3594,168.7813 C1605.3125,168.7813 1604.0156,167.6875 1604.0156,165.9844 L1604.0156,164.8906 C1604.0156,163.1094 1605.2656,161.7969 1607,161.7969 C1607.5781,161.7969 1608.1875,161.9531 1608.6563,162.2031 C1609.1406,162.4844 1609.3125,162.7031 1609.4063,163.1094 C1609.4688,163.5156 1609.5,163.6406 1609.6406,163.7656 C1609.7813,163.9063 1610.0156,164.0156 1610.2344,164.0156 C1610.5,164.0156 1610.7656,163.875 1610.9375,163.6563 C1611.0469,163.5 1611.0781,163.3125 1611.0781,162.8906 L1611.0781,161.4688 C1611.0781,161.0313 1611.0625,160.9063 1610.9688,160.75 C1610.8125,160.4844 1610.5313,160.3438 1610.2344,160.3438 C1609.9375,160.3438 1609.7344,160.4375 1609.5156,160.75 L1609.3438,160.6719 Z "/><text fill="#000000" font-family="sans-serif" font-size="12" lengthAdjust="spacingAndGlyphs" textLength="129" x="1621" y="169.1543">CompetenciaTecnica</text><line style="stroke: #A80036; stroke-width: 1.5;" x1="1593" x2="1752" y1="181" y2="181"/><text fill="#000000" font-family="sans-serif" font-size="11" lengthAdjust="spacingAndGlyphs" textLength="79" x="1598" y="195.2104">-String codigo</text><text fill="#000000" font-family="sans-serif" font-size="11" lengthAdjust="spacingAndGlyphs" textLength="106" x="1598" y="208.0151">-String descBreve</text><text fill="#000000" font-family="sans-serif" font-size="11" lengthAdjust="spacingAndGlyphs" textLength="129" x="1598" y="220.8198">-String descDetalhada</text><!--MD5=[19648b1b60c2baeaefcc79e2077dc295]
class RegimentoAplicavel--><rect fill="#FEFECE" filter="url(#f1ex9hhlk1ayfd)" height="78.4141" id="RegimentoAplicavel" style="stroke: #A80036; stroke-width: 1.5;" width="154" x="1595.5" y="262"/><ellipse cx="1610.5" cy="278" fill="#ADD1B2" rx="11" ry="11" style="stroke: #A80036; stroke-width: 1.0;"/><path d="M1612.8438,273.6719 C1611.9063,273.2344 1611.3125,273.0938 1610.4375,273.0938 C1607.8125,273.0938 1605.8125,275.1719 1605.8125,277.8906 L1605.8125,279.0156 C1605.8125,281.5938 1607.9219,283.4844 1610.8125,283.4844 C1612.0313,283.4844 1613.1875,283.1875 1613.9375,282.6406 C1614.5156,282.2344 1614.8438,281.7813 1614.8438,281.3906 C1614.8438,280.9375 1614.4531,280.5469 1613.9844,280.5469 C1613.7656,280.5469 1613.5625,280.625 1613.375,280.8125 C1612.9219,281.2969 1612.9219,281.2969 1612.7344,281.3906 C1612.3125,281.6563 1611.625,281.7813 1610.8594,281.7813 C1608.8125,281.7813 1607.5156,280.6875 1607.5156,278.9844 L1607.5156,277.8906 C1607.5156,276.1094 1608.7656,274.7969 1610.5,274.7969 C1611.0781,274.7969 1611.6875,274.9531 1612.1563,275.2031 C1612.6406,275.4844 1612.8125,275.7031 1612.9063,276.1094 C1612.9688,276.5156 1613,276.6406 1613.1406,276.7656 C1613.2813,276.9063 1613.5156,277.0156 1613.7344,277.0156 C1614,277.0156 1614.2656,276.875 1614.4375,276.6563 C1614.5469,276.5 1614.5781,276.3125 1614.5781,275.8906 L1614.5781,274.4688 C1614.5781,274.0313 1614.5625,273.9063 1614.4688,273.75 C1614.3125,273.4844 1614.0313,273.3438 1613.7344,273.3438 C1613.4375,273.3438 1613.2344,273.4375 1613.0156,273.75 L1612.8438,273.6719 Z "/><text fill="#000000" font-family="sans-serif" font-size="12" lengthAdjust="spacingAndGlyphs" textLength="122" x="1624.5" y="282.1543">RegimentoAplicavel</text><line style="stroke: #A80036; stroke-width: 1.5;" x1="1596.5" x2="1748.5" y1="294" y2="294"/><text fill="#000000" font-family="sans-serif" font-size="11" lengthAdjust="spacingAndGlyphs" textLength="108" x="1601.5" y="308.2104">-String designacao</text><text fill="#000000" font-family="sans-serif" font-size="11" lengthAdjust="spacingAndGlyphs" textLength="111" x="1601.5" y="321.0151">-String descRegras</text><text fill="#000000" font-family="sans-serif" font-size="11" lengthAdjust="spacingAndGlyphs" textLength="113" x="1601.5" y="333.8198">-String identificador</text><!--MD5=[7e1ce8ab2bf669717f28e918f4971b9a]
class Categoria--><rect fill="#FEFECE" filter="url(#f1ex9hhlk1ayfd)" height="65.6094" id="Categoria" style="stroke: #A80036; stroke-width: 1.5;" width="110" x="914.5" y="147"/><ellipse cx="936.7" cy="163" fill="#ADD1B2" rx="11" ry="11" style="stroke: #A80036; stroke-width: 1.0;"/><path d="M939.0438,158.6719 C938.1063,158.2344 937.5125,158.0938 936.6375,158.0938 C934.0125,158.0938 932.0125,160.1719 932.0125,162.8906 L932.0125,164.0156 C932.0125,166.5938 934.1219,168.4844 937.0125,168.4844 C938.2313,168.4844 939.3875,168.1875 940.1375,167.6406 C940.7156,167.2344 941.0438,166.7813 941.0438,166.3906 C941.0438,165.9375 940.6531,165.5469 940.1844,165.5469 C939.9656,165.5469 939.7625,165.625 939.575,165.8125 C939.1219,166.2969 939.1219,166.2969 938.9344,166.3906 C938.5125,166.6563 937.825,166.7813 937.0594,166.7813 C935.0125,166.7813 933.7156,165.6875 933.7156,163.9844 L933.7156,162.8906 C933.7156,161.1094 934.9656,159.7969 936.7,159.7969 C937.2781,159.7969 937.8875,159.9531 938.3563,160.2031 C938.8406,160.4844 939.0125,160.7031 939.1063,161.1094 C939.1688,161.5156 939.2,161.6406 939.3406,161.7656 C939.4813,161.9063 939.7156,162.0156 939.9344,162.0156 C940.2,162.0156 940.4656,161.875 940.6375,161.6563 C940.7469,161.5 940.7781,161.3125 940.7781,160.8906 L940.7781,159.4688 C940.7781,159.0313 940.7625,158.9063 940.6688,158.75 C940.5125,158.4844 940.2313,158.3438 939.9344,158.3438 C939.6375,158.3438 939.4344,158.4375 939.2156,158.75 L939.0438,158.6719 Z "/><text fill="#000000" font-family="sans-serif" font-size="12" lengthAdjust="spacingAndGlyphs" textLength="62" x="952.3" y="167.1543">Categoria</text><line style="stroke: #A80036; stroke-width: 1.5;" x1="915.5" x2="1023.5" y1="179" y2="179"/><text fill="#000000" font-family="sans-serif" font-size="11" lengthAdjust="spacingAndGlyphs" textLength="52" x="920.5" y="193.2104">-String id</text><text fill="#000000" font-family="sans-serif" font-size="11" lengthAdjust="spacingAndGlyphs" textLength="98" x="920.5" y="206.0151">-String descricao</text><!--MD5=[807977ceb130c090ed5febfb6de2bdea]
class Organizacao--><rect fill="#FEFECE" filter="url(#f1ex9hhlk1ayfd)" height="104.0234" id="Organizacao" style="stroke: #A80036; stroke-width: 1.5;" width="111" x="300" y="634"/><ellipse cx="315" cy="650" fill="#ADD1B2" rx="11" ry="11" style="stroke: #A80036; stroke-width: 1.0;"/><path d="M317.3438,645.6719 C316.4063,645.2344 315.8125,645.0938 314.9375,645.0938 C312.3125,645.0938 310.3125,647.1719 310.3125,649.8906 L310.3125,651.0156 C310.3125,653.5938 312.4219,655.4844 315.3125,655.4844 C316.5313,655.4844 317.6875,655.1875 318.4375,654.6406 C319.0156,654.2344 319.3438,653.7813 319.3438,653.3906 C319.3438,652.9375 318.9531,652.5469 318.4844,652.5469 C318.2656,652.5469 318.0625,652.625 317.875,652.8125 C317.4219,653.2969 317.4219,653.2969 317.2344,653.3906 C316.8125,653.6563 316.125,653.7813 315.3594,653.7813 C313.3125,653.7813 312.0156,652.6875 312.0156,650.9844 L312.0156,649.8906 C312.0156,648.1094 313.2656,646.7969 315,646.7969 C315.5781,646.7969 316.1875,646.9531 316.6563,647.2031 C317.1406,647.4844 317.3125,647.7031 317.4063,648.1094 C317.4688,648.5156 317.5,648.6406 317.6406,648.7656 C317.7813,648.9063 318.0156,649.0156 318.2344,649.0156 C318.5,649.0156 318.7656,648.875 318.9375,648.6563 C319.0469,648.5 319.0781,648.3125 319.0781,647.8906 L319.0781,646.4688 C319.0781,646.0313 319.0625,645.9063 318.9688,645.75 C318.8125,645.4844 318.5313,645.3438 318.2344,645.3438 C317.9375,645.3438 317.7344,645.4375 317.5156,645.75 L317.3438,645.6719 Z "/><text fill="#000000" font-family="sans-serif" font-size="12" lengthAdjust="spacingAndGlyphs" textLength="79" x="329" y="654.1543">Organizacao</text><line style="stroke: #A80036; stroke-width: 1.5;" x1="301" x2="410" y1="666" y2="666"/><text fill="#000000" font-family="sans-serif" font-size="11" lengthAdjust="spacingAndGlyphs" textLength="75" x="306" y="680.2104">-String nome</text><text fill="#000000" font-family="sans-serif" font-size="11" lengthAdjust="spacingAndGlyphs" textLength="59" x="306" y="693.0151">-String NIF</text><text fill="#000000" font-family="sans-serif" font-size="11" lengthAdjust="spacingAndGlyphs" textLength="88" x="306" y="705.8198">-String website</text><text fill="#000000" font-family="sans-serif" font-size="11" lengthAdjust="spacingAndGlyphs" textLength="91" x="306" y="718.6245">-String telefone</text><text fill="#000000" font-family="sans-serif" font-size="11" lengthAdjust="spacingAndGlyphs" textLength="74" x="306" y="731.4292">-String email</text><!--MD5=[ac8682ea5466d223e49472789fb200d2]
class Colaborador--><rect fill="#FEFECE" filter="url(#f1ex9hhlk1ayfd)" height="91.2188" id="Colaborador" style="stroke: #A80036; stroke-width: 1.5;" width="110" x="1617.5" y="614.5"/><ellipse cx="1632.5" cy="630.5" fill="#ADD1B2" rx="11" ry="11" style="stroke: #A80036; stroke-width: 1.0;"/><path d="M1634.8438,626.1719 C1633.9063,625.7344 1633.3125,625.5938 1632.4375,625.5938 C1629.8125,625.5938 1627.8125,627.6719 1627.8125,630.3906 L1627.8125,631.5156 C1627.8125,634.0938 1629.9219,635.9844 1632.8125,635.9844 C1634.0313,635.9844 1635.1875,635.6875 1635.9375,635.1406 C1636.5156,634.7344 1636.8438,634.2813 1636.8438,633.8906 C1636.8438,633.4375 1636.4531,633.0469 1635.9844,633.0469 C1635.7656,633.0469 1635.5625,633.125 1635.375,633.3125 C1634.9219,633.7969 1634.9219,633.7969 1634.7344,633.8906 C1634.3125,634.1563 1633.625,634.2813 1632.8594,634.2813 C1630.8125,634.2813 1629.5156,633.1875 1629.5156,631.4844 L1629.5156,630.3906 C1629.5156,628.6094 1630.7656,627.2969 1632.5,627.2969 C1633.0781,627.2969 1633.6875,627.4531 1634.1563,627.7031 C1634.6406,627.9844 1634.8125,628.2031 1634.9063,628.6094 C1634.9688,629.0156 1635,629.1406 1635.1406,629.2656 C1635.2813,629.4063 1635.5156,629.5156 1635.7344,629.5156 C1636,629.5156 1636.2656,629.375 1636.4375,629.1563 C1636.5469,629 1636.5781,628.8125 1636.5781,628.3906 L1636.5781,626.9688 C1636.5781,626.5313 1636.5625,626.4063 1636.4688,626.25 C1636.3125,625.9844 1636.0313,625.8438 1635.7344,625.8438 C1635.4375,625.8438 1635.2344,625.9375 1635.0156,626.25 L1634.8438,626.1719 Z "/><text fill="#000000" font-family="sans-serif" font-size="12" lengthAdjust="spacingAndGlyphs" textLength="78" x="1646.5" y="634.6543">Colaborador</text><line style="stroke: #A80036; stroke-width: 1.5;" x1="1618.5" x2="1726.5" y1="646.5" y2="646.5"/><text fill="#000000" font-family="sans-serif" font-size="11" lengthAdjust="spacingAndGlyphs" textLength="75" x="1623.5" y="660.7104">-String nome</text><text fill="#000000" font-family="sans-serif" font-size="11" lengthAdjust="spacingAndGlyphs" textLength="80" x="1623.5" y="673.5151">-String funcao</text><text fill="#000000" font-family="sans-serif" font-size="11" lengthAdjust="spacingAndGlyphs" textLength="91" x="1623.5" y="686.3198">-String telefone</text><text fill="#000000" font-family="sans-serif" font-size="11" lengthAdjust="spacingAndGlyphs" textLength="74" x="1623.5" y="699.1245">-String email</text><!--MD5=[dcda844062f930f807532403427d3023]
class EnderecoPostal--><rect fill="#FEFECE" filter="url(#f1ex9hhlk1ayfd)" height="78.4141" id="EnderecoPostal" style="stroke: #A80036; stroke-width: 1.5;" width="129" x="1247.5" y="819"/><ellipse cx="1262.5" cy="835" fill="#ADD1B2" rx="11" ry="11" style="stroke: #A80036; stroke-width: 1.0;"/><path d="M1264.8438,830.6719 C1263.9063,830.2344 1263.3125,830.0938 1262.4375,830.0938 C1259.8125,830.0938 1257.8125,832.1719 1257.8125,834.8906 L1257.8125,836.0156 C1257.8125,838.5938 1259.9219,840.4844 1262.8125,840.4844 C1264.0313,840.4844 1265.1875,840.1875 1265.9375,839.6406 C1266.5156,839.2344 1266.8438,838.7813 1266.8438,838.3906 C1266.8438,837.9375 1266.4531,837.5469 1265.9844,837.5469 C1265.7656,837.5469 1265.5625,837.625 1265.375,837.8125 C1264.9219,838.2969 1264.9219,838.2969 1264.7344,838.3906 C1264.3125,838.6563 1263.625,838.7813 1262.8594,838.7813 C1260.8125,838.7813 1259.5156,837.6875 1259.5156,835.9844 L1259.5156,834.8906 C1259.5156,833.1094 1260.7656,831.7969 1262.5,831.7969 C1263.0781,831.7969 1263.6875,831.9531 1264.1563,832.2031 C1264.6406,832.4844 1264.8125,832.7031 1264.9063,833.1094 C1264.9688,833.5156 1265,833.6406 1265.1406,833.7656 C1265.2813,833.9063 1265.5156,834.0156 1265.7344,834.0156 C1266,834.0156 1266.2656,833.875 1266.4375,833.6563 C1266.5469,833.5 1266.5781,833.3125 1266.5781,832.8906 L1266.5781,831.4688 C1266.5781,831.0313 1266.5625,830.9063 1266.4688,830.75 C1266.3125,830.4844 1266.0313,830.3438 1265.7344,830.3438 C1265.4375,830.3438 1265.2344,830.4375 1265.0156,830.75 L1264.8438,830.6719 Z "/><text fill="#000000" font-family="sans-serif" font-size="12" lengthAdjust="spacingAndGlyphs" textLength="97" x="1276.5" y="839.1543">EnderecoPostal</text><line style="stroke: #A80036; stroke-width: 1.5;" x1="1248.5" x2="1375.5" y1="851" y2="851"/><text fill="#000000" font-family="sans-serif" font-size="11" lengthAdjust="spacingAndGlyphs" textLength="68" x="1253.5" y="865.2104">-String local</text><text fill="#000000" font-family="sans-serif" font-size="11" lengthAdjust="spacingAndGlyphs" textLength="97" x="1253.5" y="878.0151">-String codPostal</text><text fill="#000000" font-family="sans-serif" font-size="11" lengthAdjust="spacingAndGlyphs" textLength="100" x="1253.5" y="890.8198">-String localidade</text><!--MD5=[b0f240be72c8ea8a063442502d85fc08]
class CaraterCT--><rect fill="#FEFECE" filter="url(#f1ex9hhlk1ayfd)" height="52.8047" id="CaraterCT" style="stroke: #A80036; stroke-width: 1.5;" width="129" x="1247.5" y="188.5"/><ellipse cx="1277.35" cy="204.5" fill="#ADD1B2" rx="11" ry="11" style="stroke: #A80036; stroke-width: 1.0;"/><path d="M1279.6938,200.1719 C1278.7563,199.7344 1278.1625,199.5938 1277.2875,199.5938 C1274.6625,199.5938 1272.6625,201.6719 1272.6625,204.3906 L1272.6625,205.5156 C1272.6625,208.0938 1274.7719,209.9844 1277.6625,209.9844 C1278.8813,209.9844 1280.0375,209.6875 1280.7875,209.1406 C1281.3656,208.7344 1281.6938,208.2813 1281.6938,207.8906 C1281.6938,207.4375 1281.3031,207.0469 1280.8344,207.0469 C1280.6156,207.0469 1280.4125,207.125 1280.225,207.3125 C1279.7719,207.7969 1279.7719,207.7969 1279.5844,207.8906 C1279.1625,208.1563 1278.475,208.2813 1277.7094,208.2813 C1275.6625,208.2813 1274.3656,207.1875 1274.3656,205.4844 L1274.3656,204.3906 C1274.3656,202.6094 1275.6156,201.2969 1277.35,201.2969 C1277.9281,201.2969 1278.5375,201.4531 1279.0063,201.7031 C1279.4906,201.9844 1279.6625,202.2031 1279.7563,202.6094 C1279.8188,203.0156 1279.85,203.1406 1279.9906,203.2656 C1280.1313,203.4063 1280.3656,203.5156 1280.5844,203.5156 C1280.85,203.5156 1281.1156,203.375 1281.2875,203.1563 C1281.3969,203 1281.4281,202.8125 1281.4281,202.3906 L1281.4281,200.9688 C1281.4281,200.5313 1281.4125,200.4063 1281.3188,200.25 C1281.1625,199.9844 1280.8813,199.8438 1280.5844,199.8438 C1280.2875,199.8438 1280.0844,199.9375 1279.8656,200.25 L1279.6938,200.1719 Z "/><text fill="#000000" font-family="sans-serif" font-size="12" lengthAdjust="spacingAndGlyphs" textLength="64" x="1294.65" y="208.6543">CaraterCT</text><line style="stroke: #A80036; stroke-width: 1.5;" x1="1248.5" x2="1375.5" y1="220.5" y2="220.5"/><text fill="#000000" font-family="sans-serif" font-size="11" lengthAdjust="spacingAndGlyphs" textLength="117" x="1253.5" y="234.7104">-Boolean obrigatoria</text><!--MD5=[27c2d4bbe9f7b9d3b0ea2797cc54308a]
class Tarefa--><rect fill="#FEFECE" filter="url(#f1ex9hhlk1ayfd)" height="116.8281" id="Tarefa" style="stroke: #A80036; stroke-width: 1.5;" width="129" x="591" y="497.5"/><ellipse cx="631.65" cy="513.5" fill="#ADD1B2" rx="11" ry="11" style="stroke: #A80036; stroke-width: 1.0;"/><path d="M633.9938,509.1719 C633.0563,508.7344 632.4625,508.5938 631.5875,508.5938 C628.9625,508.5938 626.9625,510.6719 626.9625,513.3906 L626.9625,514.5156 C626.9625,517.0938 629.0719,518.9844 631.9625,518.9844 C633.1813,518.9844 634.3375,518.6875 635.0875,518.1406 C635.6656,517.7344 635.9938,517.2813 635.9938,516.8906 C635.9938,516.4375 635.6031,516.0469 635.1344,516.0469 C634.9156,516.0469 634.7125,516.125 634.525,516.3125 C634.0719,516.7969 634.0719,516.7969 633.8844,516.8906 C633.4625,517.1563 632.775,517.2813 632.0094,517.2813 C629.9625,517.2813 628.6656,516.1875 628.6656,514.4844 L628.6656,513.3906 C628.6656,511.6094 629.9156,510.2969 631.65,510.2969 C632.2281,510.2969 632.8375,510.4531 633.3063,510.7031 C633.7906,510.9844 633.9625,511.2031 634.0563,511.6094 C634.1188,512.0156 634.15,512.1406 634.2906,512.2656 C634.4313,512.4063 634.6656,512.5156 634.8844,512.5156 C635.15,512.5156 635.4156,512.375 635.5875,512.1563 C635.6969,512 635.7281,511.8125 635.7281,511.3906 L635.7281,509.9688 C635.7281,509.5313 635.7125,509.4063 635.6188,509.25 C635.4625,508.9844 635.1813,508.8438 634.8844,508.8438 C634.5875,508.8438 634.3844,508.9375 634.1656,509.25 L633.9938,509.1719 Z "/><text fill="#000000" font-family="sans-serif" font-size="12" lengthAdjust="spacingAndGlyphs" textLength="40" x="651.35" y="517.6543">Tarefa</text><line style="stroke: #A80036; stroke-width: 1.5;" x1="592" x2="719" y1="529.5" y2="529.5"/><text fill="#000000" font-family="sans-serif" font-size="11" lengthAdjust="spacingAndGlyphs" textLength="103" x="597" y="543.7104">-String referencia</text><text fill="#000000" font-family="sans-serif" font-size="11" lengthAdjust="spacingAndGlyphs" textLength="108" x="597" y="556.5151">-String designacao</text><text fill="#000000" font-family="sans-serif" font-size="11" lengthAdjust="spacingAndGlyphs" textLength="117" x="597" y="569.3198">-String descInformal</text><text fill="#000000" font-family="sans-serif" font-size="11" lengthAdjust="spacingAndGlyphs" textLength="114" x="597" y="582.1245">-String descTecnica</text><text fill="#000000" font-family="sans-serif" font-size="11" lengthAdjust="spacingAndGlyphs" textLength="114" x="597" y="594.9292">-Integer duracaoEst</text><text fill="#000000" font-family="sans-serif" font-size="11" lengthAdjust="spacingAndGlyphs" textLength="98" x="597" y="607.7339">-Double custoEst</text><!--MD5=[19db0db7353a4bf63eefc676e5ba9b80]
class Anuncio--><rect fill="#FEFECE" filter="url(#f1ex9hhlk1ayfd)" height="78.4141" id="Anuncio" style="stroke: #A80036; stroke-width: 1.5;" width="131" x="904" y="460"/><ellipse cx="942.4" cy="476" fill="#ADD1B2" rx="11" ry="11" style="stroke: #A80036; stroke-width: 1.0;"/><path d="M944.7438,471.6719 C943.8063,471.2344 943.2125,471.0938 942.3375,471.0938 C939.7125,471.0938 937.7125,473.1719 937.7125,475.8906 L937.7125,477.0156 C937.7125,479.5938 939.8219,481.4844 942.7125,481.4844 C943.9313,481.4844 945.0875,481.1875 945.8375,480.6406 C946.4156,480.2344 946.7438,479.7813 946.7438,479.3906 C946.7438,478.9375 946.3531,478.5469 945.8844,478.5469 C945.6656,478.5469 945.4625,478.625 945.275,478.8125 C944.8219,479.2969 944.8219,479.2969 944.6344,479.3906 C944.2125,479.6563 943.525,479.7813 942.7594,479.7813 C940.7125,479.7813 939.4156,478.6875 939.4156,476.9844 L939.4156,475.8906 C939.4156,474.1094 940.6656,472.7969 942.4,472.7969 C942.9781,472.7969 943.5875,472.9531 944.0563,473.2031 C944.5406,473.4844 944.7125,473.7031 944.8063,474.1094 C944.8688,474.5156 944.9,474.6406 945.0406,474.7656 C945.1813,474.9063 945.4156,475.0156 945.6344,475.0156 C945.9,475.0156 946.1656,474.875 946.3375,474.6563 C946.4469,474.5 946.4781,474.3125 946.4781,473.8906 L946.4781,472.4688 C946.4781,472.0313 946.4625,471.9063 946.3688,471.75 C946.2125,471.4844 945.9313,471.3438 945.6344,471.3438 C945.3375,471.3438 945.1344,471.4375 944.9156,471.75 L944.7438,471.6719 Z "/><text fill="#000000" font-family="sans-serif" font-size="12" lengthAdjust="spacingAndGlyphs" textLength="47" x="961.6" y="480.1543">Anuncio</text><line style="stroke: #A80036; stroke-width: 1.5;" x1="905" x2="1034" y1="492" y2="492"/><text fill="#000000" font-family="sans-serif" font-size="11" lengthAdjust="spacingAndGlyphs" textLength="119" x="910" y="506.2104">-Periodo publicitacao</text><text fill="#000000" font-family="sans-serif" font-size="11" lengthAdjust="spacingAndGlyphs" textLength="119" x="910" y="519.0151">-Periodo candidatura</text><text fill="#000000" font-family="sans-serif" font-size="11" lengthAdjust="spacingAndGlyphs" textLength="102" x="910" y="531.8198">-Periodo seriacao</text><!--MD5=[84d1b9922499e034344dac4e4526a697]
class Seriacao--><rect fill="#FEFECE" filter="url(#f1ex9hhlk1ayfd)" height="52.8047" id="Seriacao" style="stroke: #A80036; stroke-width: 1.5;" width="135" x="1244.5" y="352.5"/><ellipse cx="1281.1" cy="368.5" fill="#ADD1B2" rx="11" ry="11" style="stroke: #A80036; stroke-width: 1.0;"/><path d="M1283.4438,364.1719 C1282.5063,363.7344 1281.9125,363.5938 1281.0375,363.5938 C1278.4125,363.5938 1276.4125,365.6719 1276.4125,368.3906 L1276.4125,369.5156 C1276.4125,372.0938 1278.5219,373.9844 1281.4125,373.9844 C1282.6313,373.9844 1283.7875,373.6875 1284.5375,373.1406 C1285.1156,372.7344 1285.4438,372.2813 1285.4438,371.8906 C1285.4438,371.4375 1285.0531,371.0469 1284.5844,371.0469 C1284.3656,371.0469 1284.1625,371.125 1283.975,371.3125 C1283.5219,371.7969 1283.5219,371.7969 1283.3344,371.8906 C1282.9125,372.1563 1282.225,372.2813 1281.4594,372.2813 C1279.4125,372.2813 1278.1156,371.1875 1278.1156,369.4844 L1278.1156,368.3906 C1278.1156,366.6094 1279.3656,365.2969 1281.1,365.2969 C1281.6781,365.2969 1282.2875,365.4531 1282.7563,365.7031 C1283.2406,365.9844 1283.4125,366.2031 1283.5063,366.6094 C1283.5688,367.0156 1283.6,367.1406 1283.7406,367.2656 C1283.8813,367.4063 1284.1156,367.5156 1284.3344,367.5156 C1284.6,367.5156 1284.8656,367.375 1285.0375,367.1563 C1285.1469,367 1285.1781,366.8125 1285.1781,366.3906 L1285.1781,364.9688 C1285.1781,364.5313 1285.1625,364.4063 1285.0688,364.25 C1284.9125,363.9844 1284.6313,363.8438 1284.3344,363.8438 C1284.0375,363.8438 1283.8344,363.9375 1283.6156,364.25 L1283.4438,364.1719 Z "/><text fill="#000000" font-family="sans-serif" font-size="12" lengthAdjust="spacingAndGlyphs" textLength="55" x="1299.9" y="372.6543">Seriacao</text><line style="stroke: #A80036; stroke-width: 1.5;" x1="1245.5" x2="1378.5" y1="384.5" y2="384.5"/><text fill="#000000" font-family="sans-serif" font-size="11" lengthAdjust="spacingAndGlyphs" textLength="123" x="1250.5" y="398.7104">-Date dataRealizacao</text><!--MD5=[475c5b924ed41035684e2831311827d2]
class Candidatura--><rect fill="#FEFECE" filter="url(#f1ex9hhlk1ayfd)" height="104.0234" id="Candidatura" style="stroke: #A80036; stroke-width: 1.5;" width="153" x="1903" y="473"/><ellipse cx="1938.25" cy="489" fill="#ADD1B2" rx="11" ry="11" style="stroke: #A80036; stroke-width: 1.0;"/><path d="M1940.5938,484.6719 C1939.6563,484.2344 1939.0625,484.0938 1938.1875,484.0938 C1935.5625,484.0938 1933.5625,486.1719 1933.5625,488.8906 L1933.5625,490.0156 C1933.5625,492.5938 1935.6719,494.4844 1938.5625,494.4844 C1939.7813,494.4844 1940.9375,494.1875 1941.6875,493.6406 C1942.2656,493.2344 1942.5938,492.7813 1942.5938,492.3906 C1942.5938,491.9375 1942.2031,491.5469 1941.7344,491.5469 C1941.5156,491.5469 1941.3125,491.625 1941.125,491.8125 C1940.6719,492.2969 1940.6719,492.2969 1940.4844,492.3906 C1940.0625,492.6563 1939.375,492.7813 1938.6094,492.7813 C1936.5625,492.7813 1935.2656,491.6875 1935.2656,489.9844 L1935.2656,488.8906 C1935.2656,487.1094 1936.5156,485.7969 1938.25,485.7969 C1938.8281,485.7969 1939.4375,485.9531 1939.9063,486.2031 C1940.3906,486.4844 1940.5625,486.7031 1940.6563,487.1094 C1940.7188,487.5156 1940.75,487.6406 1940.8906,487.7656 C1941.0313,487.9063 1941.2656,488.0156 1941.4844,488.0156 C1941.75,488.0156 1942.0156,487.875 1942.1875,487.6563 C1942.2969,487.5 1942.3281,487.3125 1942.3281,486.8906 L1942.3281,485.4688 C1942.3281,485.0313 1942.3125,484.9063 1942.2188,484.75 C1942.0625,484.4844 1941.7813,484.3438 1941.4844,484.3438 C1941.1875,484.3438 1940.9844,484.4375 1940.7656,484.75 L1940.5938,484.6719 Z "/><text fill="#000000" font-family="sans-serif" font-size="12" lengthAdjust="spacingAndGlyphs" textLength="76" x="1956.75" y="493.1543">Candidatura</text><line style="stroke: #A80036; stroke-width: 1.5;" x1="1904" x2="2055" y1="505" y2="505"/><text fill="#000000" font-family="sans-serif" font-size="11" lengthAdjust="spacingAndGlyphs" textLength="130" x="1909" y="519.2104">-Date dataCandidatura</text><text fill="#000000" font-family="sans-serif" font-size="11" lengthAdjust="spacingAndGlyphs" textLength="141" x="1909" y="532.0151">-Double valorPretendido</text><text fill="#000000" font-family="sans-serif" font-size="11" lengthAdjust="spacingAndGlyphs" textLength="101" x="1909" y="544.8198">-Integer numDias</text><text fill="#000000" font-family="sans-serif" font-size="11" lengthAdjust="spacingAndGlyphs" textLength="138" x="1909" y="557.6245">-String txtApresentacao</text><text fill="#000000" font-family="sans-serif" font-size="11" lengthAdjust="spacingAndGlyphs" textLength="114" x="1909" y="570.4292">-String txtMotivacao</text><!--MD5=[1f687b5315377fe49fca59b457947463]
class Freelancer--><rect fill="#FEFECE" filter="url(#f1ex9hhlk1ayfd)" height="78.4141" id="Freelancer" style="stroke: #A80036; stroke-width: 1.5;" width="103" x="918" y="977"/><ellipse cx="935.25" cy="993" fill="#ADD1B2" rx="11" ry="11" style="stroke: #A80036; stroke-width: 1.0;"/><path d="M937.5938,988.6719 C936.6563,988.2344 936.0625,988.0938 935.1875,988.0938 C932.5625,988.0938 930.5625,990.1719 930.5625,992.8906 L930.5625,994.0156 C930.5625,996.5938 932.6719,998.4844 935.5625,998.4844 C936.7813,998.4844 937.9375,998.1875 938.6875,997.6406 C939.2656,997.2344 939.5938,996.7813 939.5938,996.3906 C939.5938,995.9375 939.2031,995.5469 938.7344,995.5469 C938.5156,995.5469 938.3125,995.625 938.125,995.8125 C937.6719,996.2969 937.6719,996.2969 937.4844,996.3906 C937.0625,996.6563 936.375,996.7813 935.6094,996.7813 C933.5625,996.7813 932.2656,995.6875 932.2656,993.9844 L932.2656,992.8906 C932.2656,991.1094 933.5156,989.7969 935.25,989.7969 C935.8281,989.7969 936.4375,989.9531 936.9063,990.2031 C937.3906,990.4844 937.5625,990.7031 937.6563,991.1094 C937.7188,991.5156 937.75,991.6406 937.8906,991.7656 C938.0313,991.9063 938.2656,992.0156 938.4844,992.0156 C938.75,992.0156 939.0156,991.875 939.1875,991.6563 C939.2969,991.5 939.3281,991.3125 939.3281,990.8906 L939.3281,989.4688 C939.3281,989.0313 939.3125,988.9063 939.2188,988.75 C939.0625,988.4844 938.7813,988.3438 938.4844,988.3438 C938.1875,988.3438 937.9844,988.4375 937.7656,988.75 L937.5938,988.6719 Z "/><text fill="#000000" font-family="sans-serif" font-size="12" lengthAdjust="spacingAndGlyphs" textLength="66" x="949.75" y="997.1543">Freelancer</text><line style="stroke: #A80036; stroke-width: 1.5;" x1="919" x2="1020" y1="1009" y2="1009"/><text fill="#000000" font-family="sans-serif" font-size="11" lengthAdjust="spacingAndGlyphs" textLength="75" x="924" y="1023.2104">-String nome</text><text fill="#000000" font-family="sans-serif" font-size="11" lengthAdjust="spacingAndGlyphs" textLength="74" x="924" y="1036.0151">-String email</text><text fill="#000000" font-family="sans-serif" font-size="11" lengthAdjust="spacingAndGlyphs" textLength="91" x="924" y="1048.8198">-String telefone</text><!--MD5=[7bb95b5cb1c5d9061d1eedf13c97b467]
class Administrativo--><rect fill="#FEFECE" filter="url(#f1ex9hhlk1ayfd)" height="40" id="Administrativo" style="stroke: #A80036; stroke-width: 1.5;" width="120" x="441" y="1216"/><ellipse cx="456" cy="1232" fill="#ADD1B2" rx="11" ry="11" style="stroke: #A80036; stroke-width: 1.0;"/><path d="M458.3438,1227.6719 C457.4063,1227.2344 456.8125,1227.0938 455.9375,1227.0938 C453.3125,1227.0938 451.3125,1229.1719 451.3125,1231.8906 L451.3125,1233.0156 C451.3125,1235.5938 453.4219,1237.4844 456.3125,1237.4844 C457.5313,1237.4844 458.6875,1237.1875 459.4375,1236.6406 C460.0156,1236.2344 460.3438,1235.7813 460.3438,1235.3906 C460.3438,1234.9375 459.9531,1234.5469 459.4844,1234.5469 C459.2656,1234.5469 459.0625,1234.625 458.875,1234.8125 C458.4219,1235.2969 458.4219,1235.2969 458.2344,1235.3906 C457.8125,1235.6563 457.125,1235.7813 456.3594,1235.7813 C454.3125,1235.7813 453.0156,1234.6875 453.0156,1232.9844 L453.0156,1231.8906 C453.0156,1230.1094 454.2656,1228.7969 456,1228.7969 C456.5781,1228.7969 457.1875,1228.9531 457.6563,1229.2031 C458.1406,1229.4844 458.3125,1229.7031 458.4063,1230.1094 C458.4688,1230.5156 458.5,1230.6406 458.6406,1230.7656 C458.7813,1230.9063 459.0156,1231.0156 459.2344,1231.0156 C459.5,1231.0156 459.7656,1230.875 459.9375,1230.6563 C460.0469,1230.5 460.0781,1230.3125 460.0781,1229.8906 L460.0781,1228.4688 C460.0781,1228.0313 460.0625,1227.9063 459.9688,1227.75 C459.8125,1227.4844 459.5313,1227.3438 459.2344,1227.3438 C458.9375,1227.3438 458.7344,1227.4375 458.5156,1227.75 L458.3438,1227.6719 Z "/><text fill="#000000" font-family="sans-serif" font-size="12" lengthAdjust="spacingAndGlyphs" textLength="88" x="470" y="1236.1543">Administrativo</text><line style="stroke: #A80036; stroke-width: 1.5;" x1="442" x2="560" y1="1248" y2="1248"/><!--MD5=[5dd1d6732c071e710b9290b531f2fa3b]
class Utilizador--><rect fill="#FEFECE" filter="url(#f1ex9hhlk1ayfd)" height="78.4141" id="Utilizador" style="stroke: #A80036; stroke-width: 1.5;" width="110" x="1924.5" y="1210"/><ellipse cx="1948.05" cy="1226" fill="#ADD1B2" rx="11" ry="11" style="stroke: #A80036; stroke-width: 1.0;"/><path d="M1950.3938,1221.6719 C1949.4563,1221.2344 1948.8625,1221.0938 1947.9875,1221.0938 C1945.3625,1221.0938 1943.3625,1223.1719 1943.3625,1225.8906 L1943.3625,1227.0156 C1943.3625,1229.5938 1945.4719,1231.4844 1948.3625,1231.4844 C1949.5813,1231.4844 1950.7375,1231.1875 1951.4875,1230.6406 C1952.0656,1230.2344 1952.3938,1229.7813 1952.3938,1229.3906 C1952.3938,1228.9375 1952.0031,1228.5469 1951.5344,1228.5469 C1951.3156,1228.5469 1951.1125,1228.625 1950.925,1228.8125 C1950.4719,1229.2969 1950.4719,1229.2969 1950.2844,1229.3906 C1949.8625,1229.6563 1949.175,1229.7813 1948.4094,1229.7813 C1946.3625,1229.7813 1945.0656,1228.6875 1945.0656,1226.9844 L1945.0656,1225.8906 C1945.0656,1224.1094 1946.3156,1222.7969 1948.05,1222.7969 C1948.6281,1222.7969 1949.2375,1222.9531 1949.7063,1223.2031 C1950.1906,1223.4844 1950.3625,1223.7031 1950.4563,1224.1094 C1950.5188,1224.5156 1950.55,1224.6406 1950.6906,1224.7656 C1950.8313,1224.9063 1951.0656,1225.0156 1951.2844,1225.0156 C1951.55,1225.0156 1951.8156,1224.875 1951.9875,1224.6563 C1952.0969,1224.5 1952.1281,1224.3125 1952.1281,1223.8906 L1952.1281,1222.4688 C1952.1281,1222.0313 1952.1125,1221.9063 1952.0188,1221.75 C1951.8625,1221.4844 1951.5813,1221.3438 1951.2844,1221.3438 C1950.9875,1221.3438 1950.7844,1221.4375 1950.5656,1221.75 L1950.3938,1221.6719 Z "/><text fill="#000000" font-family="sans-serif" font-size="12" lengthAdjust="spacingAndGlyphs" textLength="59" x="1963.95" y="1230.1543">Utilizador</text><line style="stroke: #A80036; stroke-width: 1.5;" x1="1925.5" x2="2033.5" y1="1242" y2="1242"/><text fill="#000000" font-family="sans-serif" font-size="11" lengthAdjust="spacingAndGlyphs" textLength="75" x="1930.5" y="1256.2104">-String nome</text><text fill="#000000" font-family="sans-serif" font-size="11" lengthAdjust="spacingAndGlyphs" textLength="74" x="1930.5" y="1269.0151">-String email</text><text fill="#000000" font-family="sans-serif" font-size="11" lengthAdjust="spacingAndGlyphs" textLength="98" x="1930.5" y="1281.8198">-String password</text><!--MD5=[87602f047bdeda361e6d6669da197818]
class HabilitacaoAcademica--><rect fill="#FEFECE" filter="url(#f1ex9hhlk1ayfd)" height="91.2188" id="HabilitacaoAcademica" style="stroke: #A80036; stroke-width: 1.5;" width="170" x="1227" y="1104.5"/><ellipse cx="1242" cy="1120.5" fill="#ADD1B2" rx="11" ry="11" style="stroke: #A80036; stroke-width: 1.0;"/><path d="M1244.3438,1116.1719 C1243.4063,1115.7344 1242.8125,1115.5938 1241.9375,1115.5938 C1239.3125,1115.5938 1237.3125,1117.6719 1237.3125,1120.3906 L1237.3125,1121.5156 C1237.3125,1124.0938 1239.4219,1125.9844 1242.3125,1125.9844 C1243.5313,1125.9844 1244.6875,1125.6875 1245.4375,1125.1406 C1246.0156,1124.7344 1246.3438,1124.2813 1246.3438,1123.8906 C1246.3438,1123.4375 1245.9531,1123.0469 1245.4844,1123.0469 C1245.2656,1123.0469 1245.0625,1123.125 1244.875,1123.3125 C1244.4219,1123.7969 1244.4219,1123.7969 1244.2344,1123.8906 C1243.8125,1124.1563 1243.125,1124.2813 1242.3594,1124.2813 C1240.3125,1124.2813 1239.0156,1123.1875 1239.0156,1121.4844 L1239.0156,1120.3906 C1239.0156,1118.6094 1240.2656,1117.2969 1242,1117.2969 C1242.5781,1117.2969 1243.1875,1117.4531 1243.6563,1117.7031 C1244.1406,1117.9844 1244.3125,1118.2031 1244.4063,1118.6094 C1244.4688,1119.0156 1244.5,1119.1406 1244.6406,1119.2656 C1244.7813,1119.4063 1245.0156,1119.5156 1245.2344,1119.5156 C1245.5,1119.5156 1245.7656,1119.375 1245.9375,1119.1563 C1246.0469,1119 1246.0781,1118.8125 1246.0781,1118.3906 L1246.0781,1116.9688 C1246.0781,1116.5313 1246.0625,1116.4063 1245.9688,1116.25 C1245.8125,1115.9844 1245.5313,1115.8438 1245.2344,1115.8438 C1244.9375,1115.8438 1244.7344,1115.9375 1244.5156,1116.25 L1244.3438,1116.1719 Z "/><text fill="#000000" font-family="sans-serif" font-size="12" lengthAdjust="spacingAndGlyphs" textLength="138" x="1256" y="1124.6543">HabilitacaoAcademica</text><line style="stroke: #A80036; stroke-width: 1.5;" x1="1228" x2="1396" y1="1136.5" y2="1136.5"/><text fill="#000000" font-family="sans-serif" font-size="11" lengthAdjust="spacingAndGlyphs" textLength="68" x="1233" y="1150.7104">-String grau</text><text fill="#000000" font-family="sans-serif" font-size="11" lengthAdjust="spacingAndGlyphs" textLength="84" x="1233" y="1163.5151">-String desCur</text><text fill="#000000" font-family="sans-serif" font-size="11" lengthAdjust="spacingAndGlyphs" textLength="63" x="1233" y="1176.3198">-String inst</text><text fill="#000000" font-family="sans-serif" font-size="11" lengthAdjust="spacingAndGlyphs" textLength="85" x="1233" y="1189.1245">-Double media</text><!--MD5=[0d4fe674cc1d46ec0fc990086e50801a]
class GrauProficiencia--><rect fill="#FEFECE" filter="url(#f1ex9hhlk1ayfd)" height="65.6094" id="GrauProficiencia" style="stroke: #A80036; stroke-width: 1.5;" width="133" x="1913" y="165"/><ellipse cx="1928" cy="181" fill="#ADD1B2" rx="11" ry="11" style="stroke: #A80036; stroke-width: 1.0;"/><path d="M1930.3438,176.6719 C1929.4063,176.2344 1928.8125,176.0938 1927.9375,176.0938 C1925.3125,176.0938 1923.3125,178.1719 1923.3125,180.8906 L1923.3125,182.0156 C1923.3125,184.5938 1925.4219,186.4844 1928.3125,186.4844 C1929.5313,186.4844 1930.6875,186.1875 1931.4375,185.6406 C1932.0156,185.2344 1932.3438,184.7813 1932.3438,184.3906 C1932.3438,183.9375 1931.9531,183.5469 1931.4844,183.5469 C1931.2656,183.5469 1931.0625,183.625 1930.875,183.8125 C1930.4219,184.2969 1930.4219,184.2969 1930.2344,184.3906 C1929.8125,184.6563 1929.125,184.7813 1928.3594,184.7813 C1926.3125,184.7813 1925.0156,183.6875 1925.0156,181.9844 L1925.0156,180.8906 C1925.0156,179.1094 1926.2656,177.7969 1928,177.7969 C1928.5781,177.7969 1929.1875,177.9531 1929.6563,178.2031 C1930.1406,178.4844 1930.3125,178.7031 1930.4063,179.1094 C1930.4688,179.5156 1930.5,179.6406 1930.6406,179.7656 C1930.7813,179.9063 1931.0156,180.0156 1931.2344,180.0156 C1931.5,180.0156 1931.7656,179.875 1931.9375,179.6563 C1932.0469,179.5 1932.0781,179.3125 1932.0781,178.8906 L1932.0781,177.4688 C1932.0781,177.0313 1932.0625,176.9063 1931.9688,176.75 C1931.8125,176.4844 1931.5313,176.3438 1931.2344,176.3438 C1930.9375,176.3438 1930.7344,176.4375 1930.5156,176.75 L1930.3438,176.6719 Z "/><text fill="#000000" font-family="sans-serif" font-size="12" lengthAdjust="spacingAndGlyphs" textLength="101" x="1942" y="185.1543">GrauProficiencia</text><line style="stroke: #A80036; stroke-width: 1.5;" x1="1914" x2="2045" y1="197" y2="197"/><text fill="#000000" font-family="sans-serif" font-size="11" lengthAdjust="spacingAndGlyphs" textLength="68" x="1919" y="211.2104">-String grau</text><text fill="#000000" font-family="sans-serif" font-size="11" lengthAdjust="spacingAndGlyphs" textLength="108" x="1919" y="224.0151">-String designacao</text><!--MD5=[1d8aa98091123bff90ff3eeff52b11fd]
class Reconhecimento--><rect fill="#FEFECE" filter="url(#f1ex9hhlk1ayfd)" height="65.6094" id="Reconhecimento" style="stroke: #A80036; stroke-width: 1.5;" width="192" x="1216" y="932"/><ellipse cx="1256.65" cy="948" fill="#ADD1B2" rx="11" ry="11" style="stroke: #A80036; stroke-width: 1.0;"/><path d="M1258.9938,943.6719 C1258.0563,943.2344 1257.4625,943.0938 1256.5875,943.0938 C1253.9625,943.0938 1251.9625,945.1719 1251.9625,947.8906 L1251.9625,949.0156 C1251.9625,951.5938 1254.0719,953.4844 1256.9625,953.4844 C1258.1813,953.4844 1259.3375,953.1875 1260.0875,952.6406 C1260.6656,952.2344 1260.9938,951.7813 1260.9938,951.3906 C1260.9938,950.9375 1260.6031,950.5469 1260.1344,950.5469 C1259.9156,950.5469 1259.7125,950.625 1259.525,950.8125 C1259.0719,951.2969 1259.0719,951.2969 1258.8844,951.3906 C1258.4625,951.6563 1257.775,951.7813 1257.0094,951.7813 C1254.9625,951.7813 1253.6656,950.6875 1253.6656,948.9844 L1253.6656,947.8906 C1253.6656,946.1094 1254.9156,944.7969 1256.65,944.7969 C1257.2281,944.7969 1257.8375,944.9531 1258.3063,945.2031 C1258.7906,945.4844 1258.9625,945.7031 1259.0563,946.1094 C1259.1188,946.5156 1259.15,946.6406 1259.2906,946.7656 C1259.4313,946.9063 1259.6656,947.0156 1259.8844,947.0156 C1260.15,947.0156 1260.4156,946.875 1260.5875,946.6563 C1260.6969,946.5 1260.7281,946.3125 1260.7281,945.8906 L1260.7281,944.4688 C1260.7281,944.0313 1260.7125,943.9063 1260.6188,943.75 C1260.4625,943.4844 1260.1813,943.3438 1259.8844,943.3438 C1259.5875,943.3438 1259.3844,943.4375 1259.1656,943.75 L1258.9938,943.6719 Z "/><text fill="#000000" font-family="sans-serif" font-size="12" lengthAdjust="spacingAndGlyphs" textLength="103" x="1276.35" y="952.1543">Reconhecimento</text><line style="stroke: #A80036; stroke-width: 1.5;" x1="1217" x2="1407" y1="964" y2="964"/><text fill="#000000" font-family="sans-serif" font-size="11" lengthAdjust="spacingAndGlyphs" textLength="62" x="1222" y="978.2104">-Date date</text><text fill="#000000" font-family="sans-serif" font-size="11" lengthAdjust="spacingAndGlyphs" textLength="180" x="1222" y="991.0151">-CompetenciaTecnica compTec</text><!--MD5=[716bba0e94eea125d5a66a891f2c3c34]
class Classificacao--><rect fill="#FEFECE" filter="url(#f1ex9hhlk1ayfd)" height="52.8047" id="Classificacao" style="stroke: #A80036; stroke-width: 1.5;" width="114" x="1615.5" y="388.5"/><ellipse cx="1630.5" cy="404.5" fill="#ADD1B2" rx="11" ry="11" style="stroke: #A80036; stroke-width: 1.0;"/><path d="M1632.8438,400.1719 C1631.9063,399.7344 1631.3125,399.5938 1630.4375,399.5938 C1627.8125,399.5938 1625.8125,401.6719 1625.8125,404.3906 L1625.8125,405.5156 C1625.8125,408.0938 1627.9219,409.9844 1630.8125,409.9844 C1632.0313,409.9844 1633.1875,409.6875 1633.9375,409.1406 C1634.5156,408.7344 1634.8438,408.2813 1634.8438,407.8906 C1634.8438,407.4375 1634.4531,407.0469 1633.9844,407.0469 C1633.7656,407.0469 1633.5625,407.125 1633.375,407.3125 C1632.9219,407.7969 1632.9219,407.7969 1632.7344,407.8906 C1632.3125,408.1563 1631.625,408.2813 1630.8594,408.2813 C1628.8125,408.2813 1627.5156,407.1875 1627.5156,405.4844 L1627.5156,404.3906 C1627.5156,402.6094 1628.7656,401.2969 1630.5,401.2969 C1631.0781,401.2969 1631.6875,401.4531 1632.1563,401.7031 C1632.6406,401.9844 1632.8125,402.2031 1632.9063,402.6094 C1632.9688,403.0156 1633,403.1406 1633.1406,403.2656 C1633.2813,403.4063 1633.5156,403.5156 1633.7344,403.5156 C1634,403.5156 1634.2656,403.375 1634.4375,403.1563 C1634.5469,403 1634.5781,402.8125 1634.5781,402.3906 L1634.5781,400.9688 C1634.5781,400.5313 1634.5625,400.4063 1634.4688,400.25 C1634.3125,399.9844 1634.0313,399.8438 1633.7344,399.8438 C1633.4375,399.8438 1633.2344,399.9375 1633.0156,400.25 L1632.8438,400.1719 Z "/><text fill="#000000" font-family="sans-serif" font-size="12" lengthAdjust="spacingAndGlyphs" textLength="82" x="1644.5" y="408.6543">Classificacao</text><line style="stroke: #A80036; stroke-width: 1.5;" x1="1616.5" x2="1728.5" y1="420.5" y2="420.5"/><text fill="#000000" font-family="sans-serif" font-size="11" lengthAdjust="spacingAndGlyphs" textLength="94" x="1621.5" y="434.7104">-Integer posicao</text><ellipse cx="1312" cy="151" fill="#000000" rx="2" ry="2" style="stroke: none; stroke-width: 1.0;"/><!--MD5=[718b46c9a1975c175f4073d63ce5ccba]
link Plataforma to AreaAtividade--><path d="M73.2735,376.42 C95.3179,290.38 177.645,25 354.5,25 C354.5,25 354.5,25 1673.5,25 C1763.16,25 1785.89,33.77 1873,55 C1884.75,57.86 1897.05,61.48 1908.94,65.3 " fill="none" id="Plataforma-AreaAtividade" style="stroke: #A80036; stroke-width: 1.0;"/><text fill="#000000" font-family="sans-serif" font-size="13" lengthAdjust="spacingAndGlyphs" textLength="41" x="942.5" y="21.0669">possui</text><polygon fill="#000000" points="986.5,15.0664,992.5,18.0664,986.5,21.0664,986.5,15.0664" style="stroke: #000000; stroke-width: 1.0;"/><text fill="#000000" font-family="sans-serif" font-size="13" lengthAdjust="spacingAndGlyphs" textLength="8" x="66.0305" y="365.6438">1</text><text fill="#000000" font-family="sans-serif" font-size="13" lengthAdjust="spacingAndGlyphs" textLength="7" x="1893.8397" y="75.3609">*</text><!--MD5=[a77d152358ce76c19672aacd9fb0ada1]
link Plataforma to CompetenciaTecnica--><path d="M108.979,376.303 C163.392,344.321 262.259,295 354.5,295 C354.5,295 354.5,295 1126.5,295 C1294.52,295 1486.31,245.43 1591.67,213.77 " fill="none" id="Plataforma-CompetenciaTecnica" style="stroke: #A80036; stroke-width: 1.0;"/><text fill="#000000" font-family="sans-serif" font-size="13" lengthAdjust="spacingAndGlyphs" textLength="41" x="785" y="291.0669">possui</text><polygon fill="#000000" points="829,285.0664,835,288.0664,829,291.0664,829,285.0664" style="stroke: #000000; stroke-width: 1.0;"/><text fill="#000000" font-family="sans-serif" font-size="13" lengthAdjust="spacingAndGlyphs" textLength="8" x="109.9926" y="365.4998">1</text><text fill="#000000" font-family="sans-serif" font-size="13" lengthAdjust="spacingAndGlyphs" textLength="7" x="1576.8958" y="228.891">*</text><!--MD5=[1c2ad462e362697fcdc859a6327d55c7]
link Plataforma to Organizacao--><path d="M94.0473,429.624 C141.434,476.269 240.25,573.538 301.618,633.945 " fill="none" id="Plataforma-Organizacao" style="stroke: #A80036; stroke-width: 1.0;"/><text fill="#000000" font-family="sans-serif" font-size="13" lengthAdjust="spacingAndGlyphs" textLength="99" x="157" y="490.0669">tem registadas</text><polygon fill="#000000" points="259,484.0664,265,487.0664,259,490.0664,259,484.0664" style="stroke: #000000; stroke-width: 1.0;"/><text fill="#000000" font-family="sans-serif" font-size="13" lengthAdjust="spacingAndGlyphs" textLength="8" x="91.3076" y="449.1914">1</text><text fill="#000000" font-family="sans-serif" font-size="13" lengthAdjust="spacingAndGlyphs" textLength="7" x="286.9073" y="623.0165">*</text><!--MD5=[39c0de7668d8063a4eb96c23050b3de2]
link Plataforma to Freelancer--><path d="M74.9408,429.744 C87.8839,470.788 116.146,550.769 156,610 C251.884,752.502 288.354,792.263 441,871 C603.91,955.031 821,994.773 917.983,1009.245 " fill="none" id="Plataforma-Freelancer" style="stroke: #A80036; stroke-width: 1.0;"/><text fill="#000000" font-family="sans-serif" font-size="13" lengthAdjust="spacingAndGlyphs" textLength="54" x="467.5" y="867.0669">tem/usa</text><polygon fill="#000000" points="524.5,861.0664,530.5,864.0664,524.5,867.0664,524.5,861.0664" style="stroke: #000000; stroke-width: 1.0;"/><text fill="#000000" font-family="sans-serif" font-size="13" lengthAdjust="spacingAndGlyphs" textLength="8" x="68.0216" y="449.3377">1</text><text fill="#000000" font-family="sans-serif" font-size="13" lengthAdjust="spacingAndGlyphs" textLength="7" x="902.9024" y="1021.4007">*</text><!--MD5=[b585ec1f109bee2e6a0accf9e50b3199]
link Plataforma to Administrativo--><path d="M68.7423,429.686 C75.5222,527.675 102.4584,866.733 156,959 C229.506,1085.671 384.817,1177.519 458.947,1215.994 " fill="none" id="Plataforma-Administrativo" style="stroke: #A80036; stroke-width: 1.0;"/><text fill="#000000" font-family="sans-serif" font-size="13" lengthAdjust="spacingAndGlyphs" textLength="27" x="193" y="955.0669">tem</text><polygon fill="#000000" points="202,964.1328,205,970.1328,208,964.1328,202,964.1328" style="stroke: #000000; stroke-width: 1.0;"/><text fill="#000000" font-family="sans-serif" font-size="13" lengthAdjust="spacingAndGlyphs" textLength="8" x="60.4672" y="449.267">1</text><text fill="#000000" font-family="sans-serif" font-size="13" lengthAdjust="spacingAndGlyphs" textLength="7" x="438.5658" y="1205.0005">*</text><!--MD5=[cb8556493ec2c94f9603162dd119feba]
link Plataforma to Categoria--><path d="M76.5405,376.428 C89.353,344.978 115.326,293.76 156,269 C404.635,117.65 776.474,151.7 914.447,171.22 " fill="none" id="Plataforma-Categoria" style="stroke: #A80036; stroke-width: 1.0;"/><text fill="#000000" font-family="sans-serif" font-size="13" lengthAdjust="spacingAndGlyphs" textLength="41" x="474" y="153.0669">possui</text><polygon fill="#000000" points="518,147.0664,524,150.0664,518,153.0664,518,147.0664" style="stroke: #000000; stroke-width: 1.0;"/><text fill="#000000" font-family="sans-serif" font-size="13" lengthAdjust="spacingAndGlyphs" textLength="8" x="80.0847" y="365.2298">1</text><text fill="#000000" font-family="sans-serif" font-size="13" lengthAdjust="spacingAndGlyphs" textLength="7" x="899.5789" y="183.1501">*</text><!--MD5=[567db691f9836c63f305bad1024cbc66]
link Organizacao to Colaborador--><path d="M411.05,704.743 C420.922,707.572 431.195,710.156 441,712 C643.777,750.137 697.807,738.439 904,746 C1196.46,756.724 1280.57,801.267 1562,721 C1581.04,715.569 1600.38,706.291 1617.4,696.587 " fill="none" id="Organizacao-Colaborador" style="stroke: #A80036; stroke-width: 1.0;"/><text fill="#000000" font-family="sans-serif" font-size="13" lengthAdjust="spacingAndGlyphs" textLength="27" x="949.5" y="742.0669">tem</text><polygon fill="#000000" points="979.5,736.0664,985.5,739.0664,979.5,742.0664,979.5,736.0664" style="stroke: #000000; stroke-width: 1.0;"/><text fill="#000000" font-family="sans-serif" font-size="13" lengthAdjust="spacingAndGlyphs" textLength="8" x="419.052" y="720.3436">1</text><text fill="#000000" font-family="sans-serif" font-size="13" lengthAdjust="spacingAndGlyphs" textLength="14" x="1595.4434" y="714.297">1..</text><!--MD5=[567db691f9836c63f305bad1024cbc66]
link Organizacao to Colaborador--><path d="M411.33,684.916 C625.449,680.682 1403.92,665.291 1617.16,661.074 " fill="none" id="Organizacao-Colaborador-1" style="stroke: #A80036; stroke-width: 1.0;"/><text fill="#000000" font-family="sans-serif" font-size="13" lengthAdjust="spacingAndGlyphs" textLength="73" x="926.5" y="668.0669">tem gestor</text><polygon fill="#000000" points="1002.5,662.0664,1008.5,665.0664,1002.5,668.0664,1002.5,662.0664" style="stroke: #000000; stroke-width: 1.0;"/><text fill="#000000" font-family="sans-serif" font-size="13" lengthAdjust="spacingAndGlyphs" textLength="8" x="418.9957" y="697.812">1</text><text fill="#000000" font-family="sans-serif" font-size="13" lengthAdjust="spacingAndGlyphs" textLength="8" x="1601.5571" y="674.2339">1</text><!--MD5=[ca49ec1e86bb5e8c049c02c54bfc3088]
link Organizacao to EnderecoPostal--><path d="M411.322,703.544 C421.165,706.501 431.358,709.438 441,712 C644.831,766.164 695.853,782.005 904,816 C1024.58,835.694 1166.86,847.883 1247.24,853.763 " fill="none" id="Organizacao-EnderecoPostal" style="stroke: #A80036; stroke-width: 1.0;"/><text fill="#000000" font-family="sans-serif" font-size="13" lengthAdjust="spacingAndGlyphs" textLength="89" x="761" y="784.0669">localizada em</text><polygon fill="#000000" points="853,778.0664,859,781.0664,853,784.0664,853,778.0664" style="stroke: #000000; stroke-width: 1.0;"/><text fill="#000000" font-family="sans-serif" font-size="13" lengthAdjust="spacingAndGlyphs" textLength="8" x="418.9867" y="714.5962">1</text><text fill="#000000" font-family="sans-serif" font-size="13" lengthAdjust="spacingAndGlyphs" textLength="8" x="1231.2896" y="866.1909">1</text><!--MD5=[cf2deab2ed1f09cef5b70f58ef028e55]
link Organizacao to Tarefa--><path d="M411.158,662.156 C461.902,640.019 537.447,607.064 590.88,583.754 " fill="none" id="Organizacao-Tarefa" style="stroke: #A80036; stroke-width: 1.0;"/><text fill="#000000" font-family="sans-serif" font-size="13" lengthAdjust="spacingAndGlyphs" textLength="41" x="474" y="594.0669">possui</text><polygon fill="#000000" points="518,588.0664,524,591.0664,518,594.0664,518,588.0664" style="stroke: #000000; stroke-width: 1.0;"/><text fill="#000000" font-family="sans-serif" font-size="13" lengthAdjust="spacingAndGlyphs" textLength="8" x="419.1745" y="672.034">1</text><text fill="#000000" font-family="sans-serif" font-size="13" lengthAdjust="spacingAndGlyphs" textLength="7" x="576.0036" y="599.9148">*</text><!--MD5=[e538c9efa8de58386edc6206f3c58807]
link CompetenciaTecnica to AreaAtividade--><path d="M1753.13,172.01 C1790.06,163.7 1834.25,152.44 1873,139 C1884.79,134.91 1897.05,129.99 1908.87,124.87 " fill="none" id="CompetenciaTecnica-AreaAtividade" style="stroke: #A80036; stroke-width: 1.0;"/><text fill="#000000" font-family="sans-serif" font-size="13" lengthAdjust="spacingAndGlyphs" textLength="75" x="1784" y="135.0669">referente a</text><polygon fill="#000000" points="1862,129.0664,1868,132.0664,1862,135.0664,1862,129.0664" style="stroke: #000000; stroke-width: 1.0;"/><text fill="#000000" font-family="sans-serif" font-size="13" lengthAdjust="spacingAndGlyphs" textLength="7" x="1760.8857" y="183.2813">*</text><text fill="#000000" font-family="sans-serif" font-size="13" lengthAdjust="spacingAndGlyphs" textLength="8" x="1893.1738" y="141.1887">1</text><!--MD5=[0d731ff285a62a08178b23be6cceb109]
link CompetenciaTecnica to GrauProficiencia--><path d="M1753.28,196.14 C1763.28,196.91 1773.37,197.56 1783,198 C1826.23,199.97 1874.89,199.98 1912.85,199.49 " fill="none" id="CompetenciaTecnica-GrauProficiencia" style="stroke: #A80036; stroke-width: 1.0;"/><text fill="#000000" font-family="sans-serif" font-size="13" lengthAdjust="spacingAndGlyphs" textLength="50" x="1796.5" y="194.0669">contm</text><polygon fill="#000000" points="1849.5,188.0664,1855.5,191.0664,1849.5,194.0664,1849.5,188.0664" style="stroke: #000000; stroke-width: 1.0;"/><text fill="#000000" font-family="sans-serif" font-size="13" lengthAdjust="spacingAndGlyphs" textLength="8" x="1761.0957" y="209.6357">1</text><text fill="#000000" font-family="sans-serif" font-size="13" lengthAdjust="spacingAndGlyphs" textLength="21" x="1883.8939" y="212.511">1..*</text><!--MD5=[333932e5e4606ec9852f0cecc179b212]
link Categoria to AreaAtividade--><path d="M1024.72,151.14 C1037.59,145.48 1051.51,140.28 1065,137 C1372.24,62.25 1754.2,75.95 1908.76,85.73 " fill="none" id="Categoria-AreaAtividade" style="stroke: #A80036; stroke-width: 1.0;"/><text fill="#000000" font-family="sans-serif" font-size="13" lengthAdjust="spacingAndGlyphs" textLength="109" x="1439" y="75.0669">enquadra-se em</text><polygon fill="#000000" points="1551,69.0664,1557,72.0664,1551,75.0664,1551,69.0664" style="stroke: #000000; stroke-width: 1.0;"/><text fill="#000000" font-family="sans-serif" font-size="13" lengthAdjust="spacingAndGlyphs" textLength="8" x="1032.6777" y="160.3718">1</text><text fill="#000000" font-family="sans-serif" font-size="13" lengthAdjust="spacingAndGlyphs" textLength="8" x="1893.0524" y="98.0124">1</text><!--MD5=[e24ddf6ff597bdb4f1bd758428ddaa69]
link Categoria to apoint1713--><path d="M1024.83,175.37 C1116.46,167.57 1293.39,152.5 1309.78,151.1 " fill="none" id="Categoria-apoint1713" style="stroke: #A80036; stroke-width: 1.0;"/><text fill="#000000" font-family="sans-serif" font-size="13" lengthAdjust="spacingAndGlyphs" textLength="44" x="1097" y="158.0669">requer</text><polygon fill="#000000" points="1144,152.0664,1150,155.0664,1144,158.0664,1144,152.0664" style="stroke: #000000; stroke-width: 1.0;"/><text fill="#000000" font-family="sans-serif" font-size="13" lengthAdjust="spacingAndGlyphs" textLength="8" x="1032.4317" y="187.8381">1</text><!--MD5=[c771c50f8cd875d385090be1ce79953c]
link apoint1713 to CompetenciaTecnica--><path d="M1314.03,151.11 C1328.44,152.59 1491.1,169.38 1591.97,179.79 " fill="none" id="apoint1713-CompetenciaTecnica" style="stroke: #A80036; stroke-width: 1.0;"/><text fill="#000000" font-family="sans-serif" font-size="13" lengthAdjust="spacingAndGlyphs" textLength="7" x="1576.9609" y="191.7758">*</text><!--MD5=[628e817d6f4eeb9aad2f617e4eddd16d]
link apoint1713 to CaraterCT--><path d="M1312,153.02 C1312,164.68 1312,176.34 1312,188 " fill="none" id="apoint1713-CaraterCT" style="stroke: #A80036; stroke-width: 1.0; stroke-dasharray: 7.0,7.0;"/><!--MD5=[cc2561a0285988b367253361d2d1973d]
link Tarefa to Categoria--><path d="M660.523,497.358 C667.981,433.903 689.267,333.803 750,274 C791.165,233.47 821.152,258.34 874,235 C888.065,228.79 902.69,221 916.113,213.26 " fill="none" id="Tarefa-Categoria" style="stroke: #A80036; stroke-width: 1.0;"/><polygon fill="#000000" points="801,229,804,223,807,229,801,229" style="stroke: #000000; stroke-width: 1.0;"/><text fill="#000000" font-family="sans-serif" font-size="13" lengthAdjust="spacingAndGlyphs" textLength="109" x="751" y="244.0669">enquadra-se em</text><text fill="#000000" font-family="sans-serif" font-size="13" lengthAdjust="spacingAndGlyphs" textLength="8" x="652.6477" y="486.3824">1</text><text fill="#000000" font-family="sans-serif" font-size="13" lengthAdjust="spacingAndGlyphs" textLength="8" x="898.6083" y="232.1211">1</text><!--MD5=[ebe0b2adceebb6ee2636cb1948c7c8a9]
link Tarefa to Colaborador--><path d="M720.377,562.545 C906.184,581.583 1444.2,636.71 1617.22,654.438 " fill="none" id="Tarefa-Colaborador" style="stroke: #A80036; stroke-width: 1.0;"/><text fill="#000000" font-family="sans-serif" font-size="13" lengthAdjust="spacingAndGlyphs" textLength="106" x="1066" y="594.0669">especificada por</text><polygon fill="#000000" points="1175,588.0664,1181,591.0664,1175,594.0664,1175,588.0664" style="stroke: #000000; stroke-width: 1.0;"/><text fill="#000000" font-family="sans-serif" font-size="13" lengthAdjust="spacingAndGlyphs" textLength="7" x="727.8557" y="576.1647">*</text><text fill="#000000" font-family="sans-serif" font-size="13" lengthAdjust="spacingAndGlyphs" textLength="8" x="1601.6248" y="649.8258">1</text><!--MD5=[35fae5763b5ac085aad1a803f88e2b95]
link Tarefa to Anuncio--><path d="M720.014,544.396 C773.555,534.615 849.843,520.678 903.735,510.832 " fill="none" id="Tarefa-Anuncio" style="stroke: #A80036; stroke-width: 1.0;"/><text fill="#000000" font-family="sans-serif" font-size="13" lengthAdjust="spacingAndGlyphs" textLength="30" x="790.5" y="513.0669">gera</text><polygon fill="#000000" points="823.5,507.0664,829.5,510.0664,823.5,513.0664,823.5,507.0664" style="stroke: #000000; stroke-width: 1.0;"/><text fill="#000000" font-family="sans-serif" font-size="13" lengthAdjust="spacingAndGlyphs" textLength="8" x="727.9359" y="556.006">1</text><text fill="#000000" font-family="sans-serif" font-size="13" lengthAdjust="spacingAndGlyphs" textLength="22" x="873.8186" y="524.878">0..1</text><!--MD5=[6a7c57800a31452a20aa2f5037e36afb]
link Freelancer to Utilizador--><path d="M993.416,1055.113 C1010.51,1081.687 1035.86,1116.198 1065,1140 C1122.73,1187.158 1143.75,1194.649 1216,1213 C1474.5,1278.6608 1797.8,1263.3335 1924.26,1253.7743 " fill="none" id="Freelancer-Utilizador" style="stroke: #A80036; stroke-width: 1.0;"/><text fill="#000000" font-family="sans-serif" font-size="13" lengthAdjust="spacingAndGlyphs" textLength="69" x="1459" y="1247.0669">atua como</text><polygon fill="#000000" points="1531,1241.0664,1537,1244.0664,1531,1247.0664,1531,1241.0664" style="stroke: #000000; stroke-width: 1.0;"/><text fill="#000000" font-family="sans-serif" font-size="13" lengthAdjust="spacingAndGlyphs" textLength="22" x="973.7167" y="1075.4578">0..1</text><text fill="#000000" font-family="sans-serif" font-size="13" lengthAdjust="spacingAndGlyphs" textLength="8" x="1908.6699" y="1267.3958">1</text><!--MD5=[b8422db8e85907663c841d4c41f19cc1]
link Freelancer to EnderecoPostal--><path d="M1021.19,983.477 C1035.15,975.063 1050.45,966.32 1065,959 C1125.32,928.652 1197,900.015 1247.38,881.04 " fill="none" id="Freelancer-EnderecoPostal" style="stroke: #A80036; stroke-width: 1.0;"/><text fill="#000000" font-family="sans-serif" font-size="13" lengthAdjust="spacingAndGlyphs" textLength="50" x="1094" y="901.0669">contm</text><polygon fill="#000000" points="1147,895.0664,1153,898.0664,1147,901.0664,1147,895.0664" style="stroke: #000000; stroke-width: 1.0;"/><text fill="#000000" font-family="sans-serif" font-size="13" lengthAdjust="spacingAndGlyphs" textLength="8" x="1029.0214" y="992.0053">1</text><text fill="#000000" font-family="sans-serif" font-size="13" lengthAdjust="spacingAndGlyphs" textLength="8" x="1231.4458" y="896.6218">1</text><!--MD5=[7a59ad2cb29ff6e914b8672ce881fef8]
link Freelancer to HabilitacaoAcademica--><path d="M1009.43,1055.113 C1025.46,1069.253 1044.95,1084.145 1065,1094 C1115.71,1118.929 1177.78,1132.954 1226.88,1140.734 " fill="none" id="Freelancer-HabilitacaoAcademica" style="stroke: #A80036; stroke-width: 1.0;"/><text fill="#000000" font-family="sans-serif" font-size="13" lengthAdjust="spacingAndGlyphs" textLength="50" x="1094" y="1090.0669">contm</text><polygon fill="#000000" points="1147,1084.0664,1153,1087.0664,1147,1090.0664,1147,1084.0664" style="stroke: #000000; stroke-width: 1.0;"/><text fill="#000000" font-family="sans-serif" font-size="13" lengthAdjust="spacingAndGlyphs" textLength="8" x="1007.8253" y="1075.4578">1</text><text fill="#000000" font-family="sans-serif" font-size="13" lengthAdjust="spacingAndGlyphs" textLength="21" x="1197.9615" y="1152.6511">1..*</text><!--MD5=[7fbeb7bcd2a7737111d998de4a14bf4d]
link Freelancer to Reconhecimento--><path d="M1021.11,1008.42 C1072.33,1000.748 1152.78,988.699 1215.94,979.238 " fill="none" id="Freelancer-Reconhecimento" style="stroke: #A80036; stroke-width: 1.0;"/><text fill="#000000" font-family="sans-serif" font-size="13" lengthAdjust="spacingAndGlyphs" textLength="50" x="1094" y="980.0669">contm</text><polygon fill="#000000" points="1147,974.0664,1153,977.0664,1147,980.0664,1147,974.0664" style="stroke: #000000; stroke-width: 1.0;"/><text fill="#000000" font-family="sans-serif" font-size="13" lengthAdjust="spacingAndGlyphs" textLength="8" x="1028.9302" y="1020.4559">1</text><text fill="#000000" font-family="sans-serif" font-size="13" lengthAdjust="spacingAndGlyphs" textLength="8" x="1199.9665" y="993.058">1</text><!--MD5=[3e4842a9a39f581fdf016dfd12392cbc]
link Freelancer to Candidatura--><path d="M1021.34,1026.99 C1104.98,1042.699 1275.57,1064.648 1408,1016 C1649.64,927.235 1857.22,684.325 1940.07,577.074 " fill="none" id="Freelancer-Candidatura" style="stroke: #A80036; stroke-width: 1.0;"/><text fill="#000000" font-family="sans-serif" font-size="13" lengthAdjust="spacingAndGlyphs" textLength="50" x="1468.5" y="934.0669">contm</text><polygon fill="#000000" points="1521.5,928.0664,1527.5,931.0664,1521.5,934.0664,1521.5,928.0664" style="stroke: #000000; stroke-width: 1.0;"/><text fill="#000000" font-family="sans-serif" font-size="13" lengthAdjust="spacingAndGlyphs" textLength="8" x="1028.8435" y="1041.5226">1</text><text fill="#000000" font-family="sans-serif" font-size="13" lengthAdjust="spacingAndGlyphs" textLength="8" x="1926.2341" y="597.1535">1</text><!--MD5=[4acb55c95f695e24b0193d5697296d13]
link Reconhecimento to CompetenciaTecnica--><path d="M1393.1,931.639 C1398.83,926.776 1403.94,921.255 1408,915 C1464.35,828.124 1371.98,529.773 1438,450 C1474.29,406.152 1523.41,459.84 1562,418 C1614.9,360.635 1550.53,311.11 1592,245 C1596.06,238.53 1601.15,232.57 1606.78,227.14 " fill="none" id="Reconhecimento-CompetenciaTecnica" style="stroke: #A80036; stroke-width: 1.0;"/><polygon fill="#000000" points="1489,412,1492,406,1495,412,1489,412" style="stroke: #000000; stroke-width: 1.0;"/><text fill="#000000" font-family="sans-serif" font-size="13" lengthAdjust="spacingAndGlyphs" textLength="50" x="1468.5" y="427.0669">contm</text><text fill="#000000" font-family="sans-serif" font-size="13" lengthAdjust="spacingAndGlyphs" textLength="8" x="1399.7972" y="920.9667">1</text><text fill="#000000" font-family="sans-serif" font-size="13" lengthAdjust="spacingAndGlyphs" textLength="21" x="1596.9439" y="247.4896">1..*</text><!--MD5=[22ab75f887ca251f11fce1d8db3a0e76]
link Anuncio to Seriacao--><path d="M1026.65,459.945 C1038.91,452.571 1052.09,445.468 1065,440 C1123.35,415.291 1193.89,399.079 1244.45,389.623 " fill="none" id="Anuncio-Seriacao" style="stroke: #A80036; stroke-width: 1.0;"/><text fill="#000000" font-family="sans-serif" font-size="13" lengthAdjust="spacingAndGlyphs" textLength="57" x="1090.5" y="398.0669">espoleta</text><polygon fill="#000000" points="1150.5,392.0664,1156.5,395.0664,1150.5,398.0664,1150.5,392.0664" style="stroke: #000000; stroke-width: 1.0;"/><text fill="#000000" font-family="sans-serif" font-size="13" lengthAdjust="spacingAndGlyphs" textLength="8" x="1027.7852" y="448.9861">1</text><text fill="#000000" font-family="sans-serif" font-size="13" lengthAdjust="spacingAndGlyphs" textLength="22" x="1214.3495" y="403.5757">0..1</text><!--MD5=[0a535575571876f6213287bf563a867d]
link Anuncio to Colaborador--><path d="M1035.02,504.434 C1145.37,515.068 1376.4,543.207 1562,605 C1580.67,611.216 1600.14,620.121 1617.4,628.96 " fill="none" id="Anuncio-Colaborador" style="stroke: #A80036; stroke-width: 1.0;"/><text fill="#000000" font-family="sans-serif" font-size="13" lengthAdjust="spacingAndGlyphs" textLength="86" x="1262.5" y="523.0669">publicado por</text><polygon fill="#000000" points="1351.5,517.0664,1357.5,520.0664,1351.5,523.0664,1351.5,517.0664" style="stroke: #000000; stroke-width: 1.0;"/><text fill="#000000" font-family="sans-serif" font-size="13" lengthAdjust="spacingAndGlyphs" textLength="7" x="1043.0004" y="517.9801">*</text><text fill="#000000" font-family="sans-serif" font-size="13" lengthAdjust="spacingAndGlyphs" textLength="8" x="1601.4584" y="620.8423">1</text><!--MD5=[27b52c98fcb5387c047ce09b42fcb62d]
link Anuncio to Candidatura--><path d="M1035.23,490.46 C1045.18,489.438 1055.35,488.56 1065,488 C1118.69,484.886 1132.25,486.307 1186,488 C1284.81,491.113 1317.9,461.31 1408,502 C1425.19,509.761 1420.58,524.784 1438,532 C1488.92,553.09 1506.89,532.463 1562,532 C1681.14,530.999 1819.43,528.387 1902.88,526.653 " fill="none" id="Anuncio-Candidatura" style="stroke: #A80036; stroke-width: 1.0;"/><text fill="#000000" font-family="sans-serif" font-size="13" lengthAdjust="spacingAndGlyphs" textLength="47" x="1470" y="528.0669">recebe</text><polygon fill="#000000" points="1520,522.0664,1526,525.0664,1520,528.0664,1520,522.0664" style="stroke: #000000; stroke-width: 1.0;"/><text fill="#000000" font-family="sans-serif" font-size="13" lengthAdjust="spacingAndGlyphs" textLength="8" x="1042.8567" y="485.7571">1</text><text fill="#000000" font-family="sans-serif" font-size="13" lengthAdjust="spacingAndGlyphs" textLength="21" x="1874.1209" y="539.54">0..*</text><!--MD5=[8ed215fd44dac0fc70bd4855b8d5f44f]
link Seriacao to Colaborador--><path d="M1342.86,405.716 C1367.03,426.112 1402.72,453.587 1438,471 C1489.46,496.4 1515.16,473.839 1562,507 C1600.79,534.463 1630.86,580.132 1649.59,614.441 " fill="none" id="Seriacao-Colaborador" style="stroke: #A80036; stroke-width: 1.0;"/><text fill="#000000" font-family="sans-serif" font-size="13" lengthAdjust="spacingAndGlyphs" textLength="84" x="1451.5" y="467.0669">realizada por</text><polygon fill="#000000" points="1538.5,461.0664,1544.5,464.0664,1538.5,467.0664,1538.5,461.0664" style="stroke: #000000; stroke-width: 1.0;"/><text fill="#000000" font-family="sans-serif" font-size="13" lengthAdjust="spacingAndGlyphs" textLength="8" x="1340.7356" y="425.3035">1</text><text fill="#000000" font-family="sans-serif" font-size="13" lengthAdjust="spacingAndGlyphs" textLength="7" x="1638.546" y="603.3767">*</text><!--MD5=[0bbbffdd91c5ada4c15cfe16870f099c]
link Seriacao to RegimentoAplicavel--><path d="M1379.59,364.512 C1440.74,351.206 1531.31,331.501 1595.32,317.57 " fill="none" id="Seriacao-RegimentoAplicavel" style="stroke: #A80036; stroke-width: 1.0;"/><text fill="#000000" font-family="sans-serif" font-size="13" lengthAdjust="spacingAndGlyphs" textLength="37" x="1475" y="322.0669">aplica</text><polygon fill="#000000" points="1515,316.0664,1521,319.0664,1515,322.0664,1515,316.0664" style="stroke: #000000; stroke-width: 1.0;"/><text fill="#000000" font-family="sans-serif" font-size="13" lengthAdjust="spacingAndGlyphs" textLength="8" x="1387.4202" y="375.8325">1</text><text fill="#000000" font-family="sans-serif" font-size="13" lengthAdjust="spacingAndGlyphs" textLength="8" x="1579.5825" y="331.9177">1</text><!--MD5=[dded47ab3944ec5102ef6333735e9a58]
link Seriacao to Classificacao--><path d="M1379.55,380.175 C1429.84,381.685 1500.48,385.131 1562,393 C1579.5,395.239 1598.4,398.666 1615.48,402.153 " fill="none" id="Seriacao-Classificacao" style="stroke: #A80036; stroke-width: 1.0;"/><text fill="#000000" font-family="sans-serif" font-size="13" lengthAdjust="spacingAndGlyphs" textLength="30" x="1478.5" y="378.0669">gera</text><polygon fill="#000000" points="1511.5,372.0664,1517.5,375.0664,1511.5,378.0664,1511.5,372.0664" style="stroke: #000000; stroke-width: 1.0;"/><text fill="#000000" font-family="sans-serif" font-size="13" lengthAdjust="spacingAndGlyphs" textLength="8" x="1387.3758" y="393.2087">1</text><text fill="#000000" font-family="sans-serif" font-size="13" lengthAdjust="spacingAndGlyphs" textLength="7" x="1600.3476" y="413.5234">*</text><!--MD5=[471b8c6ff5fcf31b4b6fb9b4f947344d]
link Classificacao to Candidatura--><path d="M1729.8,435.304 C1778.51,452.872 1849.35,478.423 1902.98,497.764 " fill="none" id="Classificacao-Candidatura" style="stroke: #A80036; stroke-width: 1.0;"/><text fill="#000000" font-family="sans-serif" font-size="13" lengthAdjust="spacingAndGlyphs" textLength="75" x="1784" y="452.0669">referente a</text><polygon fill="#000000" points="1862,446.0664,1868,449.0664,1862,452.0664,1862,446.0664" style="stroke: #000000; stroke-width: 1.0;"/><text fill="#000000" font-family="sans-serif" font-size="13" lengthAdjust="spacingAndGlyphs" textLength="22" x="1737.6972" y="450.6047">0..1</text><text fill="#000000" font-family="sans-serif" font-size="13" lengthAdjust="spacingAndGlyphs" textLength="8" x="1887.0538" y="507.8935">1</text><!--MD5=[83793280d21cff2204dcf19c1386ed48]
link Administrativo to Utilizador--><path d="M546.263,1256.0134 C605.35,1280.8588 713.852,1320 811,1320 C811,1320 811,1320 1673.5,1320 C1763.21,1320 1863.98,1290.5051 1924.29,1269.5361 " fill="none" id="Administrativo-Utilizador" style="stroke: #A80036; stroke-width: 1.0;"/><text fill="#000000" font-family="sans-serif" font-size="13" lengthAdjust="spacingAndGlyphs" textLength="69" x="1084.5" y="1316.0669">atua como</text><polygon fill="#000000" points="1156.5,1310.0664,1162.5,1313.0664,1156.5,1316.0664,1156.5,1310.0664" style="stroke: #000000; stroke-width: 1.0;"/><text fill="#000000" font-family="sans-serif" font-size="13" lengthAdjust="spacingAndGlyphs" textLength="22" x="534.3278" y="1276.1819">0..1</text><text fill="#000000" font-family="sans-serif" font-size="13" lengthAdjust="spacingAndGlyphs" textLength="8" x="1908.3337" y="1285.3514">1</text><!--MD5=[bcb5794e8184ce78d304f04a5beabbc0]
link Colaborador to Utilizador--><path d="M1697.18,705.728 C1755.26,817.898 1904.01,1105.152 1958.29,1209.968 " fill="none" id="Colaborador-Utilizador" style="stroke: #A80036; stroke-width: 1.0;"/><text fill="#000000" font-family="sans-serif" font-size="13" lengthAdjust="spacingAndGlyphs" textLength="69" x="1787" y="880.0669">atua como</text><polygon fill="#000000" points="1817,889.1328,1820,895.1328,1823,889.1328,1817,889.1328" style="stroke: #000000; stroke-width: 1.0;"/><text fill="#000000" font-family="sans-serif" font-size="13" lengthAdjust="spacingAndGlyphs" textLength="22" x="1677.2748" y="725.9389">0..1</text><text fill="#000000" font-family="sans-serif" font-size="13" lengthAdjust="spacingAndGlyphs" textLength="8" x="1945.957" y="1199.013">1</text><!--MD5=[93f81fb3df1b8fe168493b8d19088eb6]
@startuml
skinparam classAttributeIconSize 0
hide methods
left to right direction

class Plataforma {
  -String designacao
}

class AreaAtividade {
  -String codigo
  -String descBreve
  -String descDetalhada

}

class CompetenciaTecnica {
  -String codigo
  -String descBreve
  -String descDetalhada
}

class RegimentoAplicavel {
  -String designacao
  -String descRegras
  -String identificador
}

class Categoria {
  -String id
  -String descricao
}

class Organizacao {
  -String nome
  -String NIF
  -String website
  -String telefone
  -String email
}

class Colaborador {
  -String nome
  -String funcao
  -String telefone
  -String email
}

class EnderecoPostal {
  -String local
  -String codPostal
  -String localidade
}

class CaraterCT {
  -Boolean obrigatoria
}

class Tarefa {
  -String referencia
  -String designacao
  -String descInformal
  -String descTecnica
  -Integer duracaoEst
  -Double custoEst
}

class Anuncio {
  -Periodo publicitacao
  -Periodo candidatura
  -Periodo seriacao
}

class Seriacao {
  -Date dataRealizacao
}

class Candidatura {
  -Date dataCandidatura
  -Double valorPretendido
  -Integer numDias
  -String txtApresentacao
  -String txtMotivacao
}

class Freelancer {
  -String nome
  -String email
  -String telefone
}

class Administrativo {

}

class Utilizador {
  -String nome
  -String email
  -String password
}

class HabilitacaoAcademica{
  -String grau
  -String desCur
  -String inst
  -Double media
}

class GrauProficiencia{
  -String grau
  -String designacao
}

class Reconhecimento{
  -Date date
  -CompetenciaTecnica compTec
}

class Classificacao {
  -Integer posicao
}


Plataforma "1" - - "*" AreaAtividade : possui >
Plataforma "1" - - "*" CompetenciaTecnica : possui >
Plataforma "1" - - "*" Organizacao : tem registadas >
Plataforma "1" - - "*" Freelancer : tem/usa  >
Plataforma "1" - - "*" Administrativo : tem  >
Plataforma "1" - - "*" Categoria : possui >

Organizacao "1" - - "1.." Colaborador: tem >
Organizacao "1" - - "1" Colaborador: tem gestor >
Organizacao "1" - - "1" EnderecoPostal: localizada em >
Organizacao "1" - - "*" Tarefa: possui >

CompetenciaTecnica "*" - - "1" AreaAtividade : referente a >
CompetenciaTecnica "1" - - "1..*" GrauProficiencia: contm >

Categoria "1" - - "1" AreaAtividade: enquadra-se em >
Categoria "1" - - "*" CompetenciaTecnica: requer >
(Categoria, CompetenciaTecnica) .. CaraterCT

Tarefa "1" - - "1" Categoria: enquadra-se em >
Tarefa "*" - - "1" Colaborador: especificada por >
Tarefa "1" - - "0..1" Anuncio: gera >

Freelancer "0..1" - - "1" Utilizador: atua como >
Freelancer "1" - - "1" EnderecoPostal: contm >
Freelancer "1" - - "1..*" HabilitacaoAcademica: contm >
Freelancer "1" - - "1" Reconhecimento: contm >
Freelancer "1" - - "1" Candidatura: contm >

Reconhecimento"1" - - "1..*" CompetenciaTecnica: contm >

Anuncio "1" - - "0..1" Seriacao: espoleta >
Anuncio "*" - - "1" Colaborador: publicado por >
Anuncio "1" - - "0..*" Candidatura: recebe >

Seriacao "1" - - "*" Colaborador: realizada por >
Seriacao "1" - - "1" RegimentoAplicavel: aplica >
Seriacao "1" - - "*" Classificacao: gera >

Classificacao "0..1" - - "1" Candidatura: referente a >

Administrativo "0..1" - - "1" Utilizador: atua como >
Colaborador "0..1" - - "1" Utilizador: atua como >
@enduml

PlantUML version 1.2020.09beta15(Unknown compile time)
(GPL source distribution)
Java Runtime: Java(TM) SE Runtime Environment
JVM: Java HotSpot(TM) 64-Bit Server VM
Java Version: 14.0.1+7
Operating System: Linux
Default Encoding: UTF-8
Language: en
Country: US
--></g></svg>