<?xml version="1.0" encoding="UTF-8" standalone="no"?><svg xmlns="http://www.w3.org/2000/svg" xmlns:xlink="http://www.w3.org/1999/xlink" contentScriptType="application/ecmascript" contentStyleType="text/css" height="253px" preserveAspectRatio="none" style="width:2787px;height:253px;" version="1.1" viewBox="0 0 2787 253" width="2787px" zoomAndPan="magnify"><defs><filter height="300%" id="f148xsrhh1v3lj" width="300%" x="-1" y="-1"><feGaussianBlur result="blurOut" stdDeviation="2.0"/><feColorMatrix in="blurOut" result="blurOut2" type="matrix" values="0 0 0 0 0 0 0 0 0 0 0 0 0 0 0 0 0 0 .4 0"/><feOffset dx="4.0" dy="4.0" in="blurOut2" result="blurOut3"/><feBlend in="SourceGraphic" in2="blurOut3" mode="normal"/></filter></defs><g><!--MD5=[0bfb800381222a5cbed3ab1e0ace5066]
class AtualizarCandidaturaUI--><rect fill="#FEFECE" filter="url(#f148xsrhh1v3lj)" height="48" id="AtualizarCandidaturaUI" style="stroke: #A80036; stroke-width: 1.5;" width="166" x="6" y="59"/><ellipse cx="21" cy="75" fill="#ADD1B2" rx="11" ry="11" style="stroke: #A80036; stroke-width: 1.0;"/><path d="M23.3438,70.6719 C22.4063,70.2344 21.8125,70.0938 20.9375,70.0938 C18.3125,70.0938 16.3125,72.1719 16.3125,74.8906 L16.3125,76.0156 C16.3125,78.5938 18.4219,80.4844 21.3125,80.4844 C22.5313,80.4844 23.6875,80.1875 24.4375,79.6406 C25.0156,79.2344 25.3438,78.7813 25.3438,78.3906 C25.3438,77.9375 24.9531,77.5469 24.4844,77.5469 C24.2656,77.5469 24.0625,77.625 23.875,77.8125 C23.4219,78.2969 23.4219,78.2969 23.2344,78.3906 C22.8125,78.6563 22.125,78.7813 21.3594,78.7813 C19.3125,78.7813 18.0156,77.6875 18.0156,75.9844 L18.0156,74.8906 C18.0156,73.1094 19.2656,71.7969 21,71.7969 C21.5781,71.7969 22.1875,71.9531 22.6563,72.2031 C23.1406,72.4844 23.3125,72.7031 23.4063,73.1094 C23.4688,73.5156 23.5,73.6406 23.6406,73.7656 C23.7813,73.9063 24.0156,74.0156 24.2344,74.0156 C24.5,74.0156 24.7656,73.875 24.9375,73.6563 C25.0469,73.5 25.0781,73.3125 25.0781,72.8906 L25.0781,71.4688 C25.0781,71.0313 25.0625,70.9063 24.9688,70.75 C24.8125,70.4844 24.5313,70.3438 24.2344,70.3438 C23.9375,70.3438 23.7344,70.4375 23.5156,70.75 L23.3438,70.6719 Z "/><text fill="#000000" font-family="sans-serif" font-size="12" lengthAdjust="spacingAndGlyphs" textLength="134" x="35" y="79.1543">AtualizarCandidaturaUI</text><line style="stroke: #A80036; stroke-width: 1.5;" x1="7" x2="171" y1="91" y2="91"/><line style="stroke: #A80036; stroke-width: 1.5;" x1="7" x2="171" y1="99" y2="99"/><!--MD5=[ca470ea33269f6259cfee06b58b8936f]
class AtualizarCandidaturaController--><rect fill="#FEFECE" filter="url(#f148xsrhh1v3lj)" height="112.0234" id="AtualizarCandidaturaController" style="stroke: #A80036; stroke-width: 1.5;" width="356" x="233" y="27"/><ellipse cx="316.25" cy="43" fill="#ADD1B2" rx="11" ry="11" style="stroke: #A80036; stroke-width: 1.0;"/><path d="M318.5938,38.6719 C317.6563,38.2344 317.0625,38.0938 316.1875,38.0938 C313.5625,38.0938 311.5625,40.1719 311.5625,42.8906 L311.5625,44.0156 C311.5625,46.5938 313.6719,48.4844 316.5625,48.4844 C317.7813,48.4844 318.9375,48.1875 319.6875,47.6406 C320.2656,47.2344 320.5938,46.7813 320.5938,46.3906 C320.5938,45.9375 320.2031,45.5469 319.7344,45.5469 C319.5156,45.5469 319.3125,45.625 319.125,45.8125 C318.6719,46.2969 318.6719,46.2969 318.4844,46.3906 C318.0625,46.6563 317.375,46.7813 316.6094,46.7813 C314.5625,46.7813 313.2656,45.6875 313.2656,43.9844 L313.2656,42.8906 C313.2656,41.1094 314.5156,39.7969 316.25,39.7969 C316.8281,39.7969 317.4375,39.9531 317.9063,40.2031 C318.3906,40.4844 318.5625,40.7031 318.6563,41.1094 C318.7188,41.5156 318.75,41.6406 318.8906,41.7656 C319.0313,41.9063 319.2656,42.0156 319.4844,42.0156 C319.75,42.0156 320.0156,41.875 320.1875,41.6563 C320.2969,41.5 320.3281,41.3125 320.3281,40.8906 L320.3281,39.4688 C320.3281,39.0313 320.3125,38.9063 320.2188,38.75 C320.0625,38.4844 319.7813,38.3438 319.4844,38.3438 C319.1875,38.3438 318.9844,38.4375 318.7656,38.75 L318.5938,38.6719 Z "/><text fill="#000000" font-family="sans-serif" font-size="12" lengthAdjust="spacingAndGlyphs" textLength="181" x="336.75" y="47.1543">AtualizarCandidaturaController</text><line style="stroke: #A80036; stroke-width: 1.5;" x1="234" x2="588" y1="59" y2="59"/><line style="stroke: #A80036; stroke-width: 1.5;" x1="234" x2="588" y1="67" y2="67"/><text fill="#000000" font-family="sans-serif" font-size="11" lengthAdjust="spacingAndGlyphs" textLength="216" x="239" y="81.2104">+getAnunciosElegiveisDoFreelancer()</text><text fill="#000000" font-family="sans-serif" font-size="11" lengthAdjust="spacingAndGlyphs" textLength="344" x="239" y="94.0151">+getDadosDaCandidatura(valorPrt, nrDias,txtApres, txtMotiv)</text><text fill="#000000" font-family="sans-serif" font-size="11" lengthAdjust="spacingAndGlyphs" textLength="330" x="239" y="106.8198">+guardaDadosNaoSelecionados (DadosNaoSelecionados)</text><text fill="#000000" font-family="sans-serif" font-size="11" lengthAdjust="spacingAndGlyphs" textLength="309" x="239" y="119.6245">+setCandidaturaDosDadosSelecionados(NovosDados)</text><text fill="#000000" font-family="sans-serif" font-size="11" lengthAdjust="spacingAndGlyphs" textLength="230" x="239" y="132.4292">+atualizaCandidatura(cand,novosDados)</text><!--MD5=[ecaed46f78f8cfe1e9ce18477649be18]
class Plataforma--><rect fill="#FEFECE" filter="url(#f148xsrhh1v3lj)" height="86.4141" id="Plataforma" style="stroke: #A80036; stroke-width: 1.5;" width="157" x="650" y="40"/><ellipse cx="693.35" cy="56" fill="#ADD1B2" rx="11" ry="11" style="stroke: #A80036; stroke-width: 1.0;"/><path d="M695.6938,51.6719 C694.7563,51.2344 694.1625,51.0938 693.2875,51.0938 C690.6625,51.0938 688.6625,53.1719 688.6625,55.8906 L688.6625,57.0156 C688.6625,59.5938 690.7719,61.4844 693.6625,61.4844 C694.8813,61.4844 696.0375,61.1875 696.7875,60.6406 C697.3656,60.2344 697.6938,59.7813 697.6938,59.3906 C697.6938,58.9375 697.3031,58.5469 696.8344,58.5469 C696.6156,58.5469 696.4125,58.625 696.225,58.8125 C695.7719,59.2969 695.7719,59.2969 695.5844,59.3906 C695.1625,59.6563 694.475,59.7813 693.7094,59.7813 C691.6625,59.7813 690.3656,58.6875 690.3656,56.9844 L690.3656,55.8906 C690.3656,54.1094 691.6156,52.7969 693.35,52.7969 C693.9281,52.7969 694.5375,52.9531 695.0063,53.2031 C695.4906,53.4844 695.6625,53.7031 695.7563,54.1094 C695.8188,54.5156 695.85,54.6406 695.9906,54.7656 C696.1313,54.9063 696.3656,55.0156 696.5844,55.0156 C696.85,55.0156 697.1156,54.875 697.2875,54.6563 C697.3969,54.5 697.4281,54.3125 697.4281,53.8906 L697.4281,52.4688 C697.4281,52.0313 697.4125,51.9063 697.3188,51.75 C697.1625,51.4844 696.8813,51.3438 696.5844,51.3438 C696.2875,51.3438 696.0844,51.4375 695.8656,51.75 L695.6938,51.6719 Z "/><text fill="#000000" font-family="sans-serif" font-size="12" lengthAdjust="spacingAndGlyphs" textLength="62" x="713.65" y="60.1543">Plataforma</text><line style="stroke: #A80036; stroke-width: 1.5;" x1="651" x2="806" y1="72" y2="72"/><text fill="#000000" font-family="sans-serif" font-size="11" lengthAdjust="spacingAndGlyphs" textLength="106" x="656" y="86.2104">-String designacao</text><line style="stroke: #A80036; stroke-width: 1.5;" x1="651" x2="806" y1="92.8047" y2="92.8047"/><text fill="#000000" font-family="sans-serif" font-size="11" lengthAdjust="spacingAndGlyphs" textLength="145" x="656" y="107.0151">+getRegistoFreelancers()</text><text fill="#000000" font-family="sans-serif" font-size="11" lengthAdjust="spacingAndGlyphs" textLength="129" x="656" y="119.8198">+getRegistoAnuncios()</text><!--MD5=[5989a2e3174efcfc62cf38168ac2ffc8]
class RegistoFreelancer--><rect fill="#FEFECE" filter="url(#f148xsrhh1v3lj)" height="60.8047" id="RegistoFreelancer" style="stroke: #A80036; stroke-width: 1.5;" width="187" x="982.5" y="8.5"/><ellipse cx="1017.75" cy="24.5" fill="#ADD1B2" rx="11" ry="11" style="stroke: #A80036; stroke-width: 1.0;"/><path d="M1020.0938,20.1719 C1019.1563,19.7344 1018.5625,19.5938 1017.6875,19.5938 C1015.0625,19.5938 1013.0625,21.6719 1013.0625,24.3906 L1013.0625,25.5156 C1013.0625,28.0938 1015.1719,29.9844 1018.0625,29.9844 C1019.2813,29.9844 1020.4375,29.6875 1021.1875,29.1406 C1021.7656,28.7344 1022.0938,28.2813 1022.0938,27.8906 C1022.0938,27.4375 1021.7031,27.0469 1021.2344,27.0469 C1021.0156,27.0469 1020.8125,27.125 1020.625,27.3125 C1020.1719,27.7969 1020.1719,27.7969 1019.9844,27.8906 C1019.5625,28.1563 1018.875,28.2813 1018.1094,28.2813 C1016.0625,28.2813 1014.7656,27.1875 1014.7656,25.4844 L1014.7656,24.3906 C1014.7656,22.6094 1016.0156,21.2969 1017.75,21.2969 C1018.3281,21.2969 1018.9375,21.4531 1019.4063,21.7031 C1019.8906,21.9844 1020.0625,22.2031 1020.1563,22.6094 C1020.2188,23.0156 1020.25,23.1406 1020.3906,23.2656 C1020.5313,23.4063 1020.7656,23.5156 1020.9844,23.5156 C1021.25,23.5156 1021.5156,23.375 1021.6875,23.1563 C1021.7969,23 1021.8281,22.8125 1021.8281,22.3906 L1021.8281,20.9688 C1021.8281,20.5313 1021.8125,20.4063 1021.7188,20.25 C1021.5625,19.9844 1021.2813,19.8438 1020.9844,19.8438 C1020.6875,19.8438 1020.4844,19.9375 1020.2656,20.25 L1020.0938,20.1719 Z "/><text fill="#000000" font-family="sans-serif" font-size="12" lengthAdjust="spacingAndGlyphs" textLength="110" x="1036.25" y="28.6543">RegistoFreelancer</text><line style="stroke: #A80036; stroke-width: 1.5;" x1="983.5" x2="1168.5" y1="40.5" y2="40.5"/><line style="stroke: #A80036; stroke-width: 1.5;" x1="983.5" x2="1168.5" y1="48.5" y2="48.5"/><text fill="#000000" font-family="sans-serif" font-size="11" lengthAdjust="spacingAndGlyphs" textLength="175" x="988.5" y="62.7104">+getFreelancerByEmail(email)</text><!--MD5=[a7dddfa65532da486ef518ad0cedfd89]
class RegistoAnuncios--><rect fill="#FEFECE" filter="url(#f148xsrhh1v3lj)" height="73.6094" id="RegistoAnuncios" style="stroke: #A80036; stroke-width: 1.5;" width="332" x="910" y="130"/><ellipse cx="1022.25" cy="146" fill="#ADD1B2" rx="11" ry="11" style="stroke: #A80036; stroke-width: 1.0;"/><path d="M1024.5938,141.6719 C1023.6563,141.2344 1023.0625,141.0938 1022.1875,141.0938 C1019.5625,141.0938 1017.5625,143.1719 1017.5625,145.8906 L1017.5625,147.0156 C1017.5625,149.5938 1019.6719,151.4844 1022.5625,151.4844 C1023.7813,151.4844 1024.9375,151.1875 1025.6875,150.6406 C1026.2656,150.2344 1026.5938,149.7813 1026.5938,149.3906 C1026.5938,148.9375 1026.2031,148.5469 1025.7344,148.5469 C1025.5156,148.5469 1025.3125,148.625 1025.125,148.8125 C1024.6719,149.2969 1024.6719,149.2969 1024.4844,149.3906 C1024.0625,149.6563 1023.375,149.7813 1022.6094,149.7813 C1020.5625,149.7813 1019.2656,148.6875 1019.2656,146.9844 L1019.2656,145.8906 C1019.2656,144.1094 1020.5156,142.7969 1022.25,142.7969 C1022.8281,142.7969 1023.4375,142.9531 1023.9063,143.2031 C1024.3906,143.4844 1024.5625,143.7031 1024.6563,144.1094 C1024.7188,144.5156 1024.75,144.6406 1024.8906,144.7656 C1025.0313,144.9063 1025.2656,145.0156 1025.4844,145.0156 C1025.75,145.0156 1026.0156,144.875 1026.1875,144.6563 C1026.2969,144.5 1026.3281,144.3125 1026.3281,143.8906 L1026.3281,142.4688 C1026.3281,142.0313 1026.3125,141.9063 1026.2188,141.75 C1026.0625,141.4844 1025.7813,141.3438 1025.4844,141.3438 C1025.1875,141.3438 1024.9844,141.4375 1024.7656,141.75 L1024.5938,141.6719 Z "/><text fill="#000000" font-family="sans-serif" font-size="12" lengthAdjust="spacingAndGlyphs" textLength="99" x="1042.75" y="150.1543">RegistoAnuncios</text><line style="stroke: #A80036; stroke-width: 1.5;" x1="911" x2="1241" y1="162" y2="162"/><line style="stroke: #A80036; stroke-width: 1.5;" x1="911" x2="1241" y1="170" y2="170"/><text fill="#000000" font-family="sans-serif" font-size="11" lengthAdjust="spacingAndGlyphs" textLength="243" x="916" y="184.2104">+getAnunciosElegiveisDoFreelancer(freel)</text><text fill="#000000" font-family="sans-serif" font-size="11" lengthAdjust="spacingAndGlyphs" textLength="320" x="916" y="197.0151">+getCandidaturasValidadasDoFreelancerByEmail(email)</text><!--MD5=[1f687b5315377fe49fca59b457947463]
class Freelancer--><rect fill="#FEFECE" filter="url(#f148xsrhh1v3lj)" height="99.2188" id="Freelancer" style="stroke: #A80036; stroke-width: 1.5;" width="102" x="2674" y="31.5"/><ellipse cx="2691.25" cy="47.5" fill="#ADD1B2" rx="11" ry="11" style="stroke: #A80036; stroke-width: 1.0;"/><path d="M2693.5938,43.1719 C2692.6563,42.7344 2692.0625,42.5938 2691.1875,42.5938 C2688.5625,42.5938 2686.5625,44.6719 2686.5625,47.3906 L2686.5625,48.5156 C2686.5625,51.0938 2688.6719,52.9844 2691.5625,52.9844 C2692.7813,52.9844 2693.9375,52.6875 2694.6875,52.1406 C2695.2656,51.7344 2695.5938,51.2813 2695.5938,50.8906 C2695.5938,50.4375 2695.2031,50.0469 2694.7344,50.0469 C2694.5156,50.0469 2694.3125,50.125 2694.125,50.3125 C2693.6719,50.7969 2693.6719,50.7969 2693.4844,50.8906 C2693.0625,51.1563 2692.375,51.2813 2691.6094,51.2813 C2689.5625,51.2813 2688.2656,50.1875 2688.2656,48.4844 L2688.2656,47.3906 C2688.2656,45.6094 2689.5156,44.2969 2691.25,44.2969 C2691.8281,44.2969 2692.4375,44.4531 2692.9063,44.7031 C2693.3906,44.9844 2693.5625,45.2031 2693.6563,45.6094 C2693.7188,46.0156 2693.75,46.1406 2693.8906,46.2656 C2694.0313,46.4063 2694.2656,46.5156 2694.4844,46.5156 C2694.75,46.5156 2695.0156,46.375 2695.1875,46.1563 C2695.2969,46 2695.3281,45.8125 2695.3281,45.3906 L2695.3281,43.9688 C2695.3281,43.5313 2695.3125,43.4063 2695.2188,43.25 C2695.0625,42.9844 2694.7813,42.8438 2694.4844,42.8438 C2694.1875,42.8438 2693.9844,42.9375 2693.7656,43.25 L2693.5938,43.1719 Z "/><text fill="#000000" font-family="sans-serif" font-size="12" lengthAdjust="spacingAndGlyphs" textLength="65" x="2705.75" y="51.6543">Freelancer</text><line style="stroke: #A80036; stroke-width: 1.5;" x1="2675" x2="2775" y1="63.5" y2="63.5"/><text fill="#000000" font-family="sans-serif" font-size="11" lengthAdjust="spacingAndGlyphs" textLength="74" x="2680" y="77.7104">-String nome</text><text fill="#000000" font-family="sans-serif" font-size="11" lengthAdjust="spacingAndGlyphs" textLength="58" x="2680" y="90.5151">-String NIF</text><text fill="#000000" font-family="sans-serif" font-size="11" lengthAdjust="spacingAndGlyphs" textLength="90" x="2680" y="103.3198">-String telefone</text><text fill="#000000" font-family="sans-serif" font-size="11" lengthAdjust="spacingAndGlyphs" textLength="73" x="2680" y="116.1245">-String email</text><line style="stroke: #A80036; stroke-width: 1.5;" x1="2675" x2="2775" y1="122.7188" y2="122.7188"/><!--MD5=[19db0db7353a4bf63eefc676e5ba9b80]
class Anuncio--><rect fill="#FEFECE" filter="url(#f148xsrhh1v3lj)" height="124.8281" id="Anuncio" style="stroke: #A80036; stroke-width: 1.5;" width="246" x="1349" y="104.5"/><ellipse cx="1444.25" cy="120.5" fill="#ADD1B2" rx="11" ry="11" style="stroke: #A80036; stroke-width: 1.0;"/><path d="M1446.5938,116.1719 C1445.6563,115.7344 1445.0625,115.5938 1444.1875,115.5938 C1441.5625,115.5938 1439.5625,117.6719 1439.5625,120.3906 L1439.5625,121.5156 C1439.5625,124.0938 1441.6719,125.9844 1444.5625,125.9844 C1445.7813,125.9844 1446.9375,125.6875 1447.6875,125.1406 C1448.2656,124.7344 1448.5938,124.2813 1448.5938,123.8906 C1448.5938,123.4375 1448.2031,123.0469 1447.7344,123.0469 C1447.5156,123.0469 1447.3125,123.125 1447.125,123.3125 C1446.6719,123.7969 1446.6719,123.7969 1446.4844,123.8906 C1446.0625,124.1563 1445.375,124.2813 1444.6094,124.2813 C1442.5625,124.2813 1441.2656,123.1875 1441.2656,121.4844 L1441.2656,120.3906 C1441.2656,118.6094 1442.5156,117.2969 1444.25,117.2969 C1444.8281,117.2969 1445.4375,117.4531 1445.9063,117.7031 C1446.3906,117.9844 1446.5625,118.2031 1446.6563,118.6094 C1446.7188,119.0156 1446.75,119.1406 1446.8906,119.2656 C1447.0313,119.4063 1447.2656,119.5156 1447.4844,119.5156 C1447.75,119.5156 1448.0156,119.375 1448.1875,119.1563 C1448.2969,119 1448.3281,118.8125 1448.3281,118.3906 L1448.3281,116.9688 C1448.3281,116.5313 1448.3125,116.4063 1448.2188,116.25 C1448.0625,115.9844 1447.7813,115.8438 1447.4844,115.8438 C1447.1875,115.8438 1446.9844,115.9375 1446.7656,116.25 L1446.5938,116.1719 Z "/><text fill="#000000" font-family="sans-serif" font-size="12" lengthAdjust="spacingAndGlyphs" textLength="47" x="1464.75" y="124.6543">Anuncio</text><line style="stroke: #A80036; stroke-width: 1.5;" x1="1350" x2="1594" y1="136.5" y2="136.5"/><text fill="#000000" font-family="sans-serif" font-size="11" lengthAdjust="spacingAndGlyphs" textLength="110" x="1355" y="150.7104">-Period publicitacao</text><text fill="#000000" font-family="sans-serif" font-size="11" lengthAdjust="spacingAndGlyphs" textLength="109" x="1355" y="163.5151">-Period candidatura</text><text fill="#000000" font-family="sans-serif" font-size="11" lengthAdjust="spacingAndGlyphs" textLength="91" x="1355" y="176.3198">-Period seriacao</text><line style="stroke: #A80036; stroke-width: 1.5;" x1="1350" x2="1594" y1="182.9141" y2="182.9141"/><text fill="#000000" font-family="sans-serif" font-size="11" lengthAdjust="spacingAndGlyphs" textLength="175" x="1355" y="197.1245">-aceitaCandidaturaAtualizada()</text><text fill="#000000" font-family="sans-serif" font-size="11" lengthAdjust="spacingAndGlyphs" textLength="154" x="1355" y="209.9292">-éFreelancerElegivel(freel)</text><text fill="#000000" font-family="sans-serif" font-size="11" lengthAdjust="spacingAndGlyphs" textLength="234" x="1355" y="222.7339">+atualizaCandidatura(cand, novosDados)</text><!--MD5=[ced2a86ae8bdfec1c757b7c305a75b1d]
class ListaCandidaturas--><rect fill="#FEFECE" filter="url(#f148xsrhh1v3lj)" height="86.4141" id="ListaCandidaturas" style="stroke: #A80036; stroke-width: 1.5;" width="290" x="1698" y="124"/><ellipse cx="1786.25" cy="140" fill="#ADD1B2" rx="11" ry="11" style="stroke: #A80036; stroke-width: 1.0;"/><path d="M1788.5938,135.6719 C1787.6563,135.2344 1787.0625,135.0938 1786.1875,135.0938 C1783.5625,135.0938 1781.5625,137.1719 1781.5625,139.8906 L1781.5625,141.0156 C1781.5625,143.5938 1783.6719,145.4844 1786.5625,145.4844 C1787.7813,145.4844 1788.9375,145.1875 1789.6875,144.6406 C1790.2656,144.2344 1790.5938,143.7813 1790.5938,143.3906 C1790.5938,142.9375 1790.2031,142.5469 1789.7344,142.5469 C1789.5156,142.5469 1789.3125,142.625 1789.125,142.8125 C1788.6719,143.2969 1788.6719,143.2969 1788.4844,143.3906 C1788.0625,143.6563 1787.375,143.7813 1786.6094,143.7813 C1784.5625,143.7813 1783.2656,142.6875 1783.2656,140.9844 L1783.2656,139.8906 C1783.2656,138.1094 1784.5156,136.7969 1786.25,136.7969 C1786.8281,136.7969 1787.4375,136.9531 1787.9063,137.2031 C1788.3906,137.4844 1788.5625,137.7031 1788.6563,138.1094 C1788.7188,138.5156 1788.75,138.6406 1788.8906,138.7656 C1789.0313,138.9063 1789.2656,139.0156 1789.4844,139.0156 C1789.75,139.0156 1790.0156,138.875 1790.1875,138.6563 C1790.2969,138.5 1790.3281,138.3125 1790.3281,137.8906 L1790.3281,136.4688 C1790.3281,136.0313 1790.3125,135.9063 1790.2188,135.75 C1790.0625,135.4844 1789.7813,135.3438 1789.4844,135.3438 C1789.1875,135.3438 1788.9844,135.4375 1788.7656,135.75 L1788.5938,135.6719 Z "/><text fill="#000000" font-family="sans-serif" font-size="12" lengthAdjust="spacingAndGlyphs" textLength="105" x="1806.75" y="144.1543">ListaCandidaturas</text><line style="stroke: #A80036; stroke-width: 1.5;" x1="1699" x2="1987" y1="156" y2="156"/><line style="stroke: #A80036; stroke-width: 1.5;" x1="1699" x2="1987" y1="164" y2="164"/><text fill="#000000" font-family="sans-serif" font-size="11" lengthAdjust="spacingAndGlyphs" textLength="205" x="1704" y="178.2104">+getCandidaturaById(candidaturaid)</text><text fill="#000000" font-family="sans-serif" font-size="11" lengthAdjust="spacingAndGlyphs" textLength="278" x="1704" y="191.0151">-validaCandidaturaAtualizada(cand, novosDados)</text><text fill="#000000" font-family="sans-serif" font-size="11" lengthAdjust="spacingAndGlyphs" textLength="229" x="1704" y="203.8198">-atualizaCandidatura(cand, novosDados)</text><!--MD5=[475c5b924ed41035684e2831311827d2]
class Candidatura--><rect fill="#FEFECE" filter="url(#f148xsrhh1v3lj)" height="150.4375" id="Candidatura" style="stroke: #A80036; stroke-width: 1.5;" width="356" x="2095" y="92"/><ellipse cx="2233.25" cy="108" fill="#ADD1B2" rx="11" ry="11" style="stroke: #A80036; stroke-width: 1.0;"/><path d="M2235.5938,103.6719 C2234.6563,103.2344 2234.0625,103.0938 2233.1875,103.0938 C2230.5625,103.0938 2228.5625,105.1719 2228.5625,107.8906 L2228.5625,109.0156 C2228.5625,111.5938 2230.6719,113.4844 2233.5625,113.4844 C2234.7813,113.4844 2235.9375,113.1875 2236.6875,112.6406 C2237.2656,112.2344 2237.5938,111.7813 2237.5938,111.3906 C2237.5938,110.9375 2237.2031,110.5469 2236.7344,110.5469 C2236.5156,110.5469 2236.3125,110.625 2236.125,110.8125 C2235.6719,111.2969 2235.6719,111.2969 2235.4844,111.3906 C2235.0625,111.6563 2234.375,111.7813 2233.6094,111.7813 C2231.5625,111.7813 2230.2656,110.6875 2230.2656,108.9844 L2230.2656,107.8906 C2230.2656,106.1094 2231.5156,104.7969 2233.25,104.7969 C2233.8281,104.7969 2234.4375,104.9531 2234.9063,105.2031 C2235.3906,105.4844 2235.5625,105.7031 2235.6563,106.1094 C2235.7188,106.5156 2235.75,106.6406 2235.8906,106.7656 C2236.0313,106.9063 2236.2656,107.0156 2236.4844,107.0156 C2236.75,107.0156 2237.0156,106.875 2237.1875,106.6563 C2237.2969,106.5 2237.3281,106.3125 2237.3281,105.8906 L2237.3281,104.4688 C2237.3281,104.0313 2237.3125,103.9063 2237.2188,103.75 C2237.0625,103.4844 2236.7813,103.3438 2236.4844,103.3438 C2236.1875,103.3438 2235.9844,103.4375 2235.7656,103.75 L2235.5938,103.6719 Z "/><text fill="#000000" font-family="sans-serif" font-size="12" lengthAdjust="spacingAndGlyphs" textLength="71" x="2253.75" y="112.1543">Candidatura</text><line style="stroke: #A80036; stroke-width: 1.5;" x1="2096" x2="2450" y1="124" y2="124"/><text fill="#000000" font-family="sans-serif" font-size="11" lengthAdjust="spacingAndGlyphs" textLength="129" x="2101" y="138.2104">-Date dataCandidatura</text><text fill="#000000" font-family="sans-serif" font-size="11" lengthAdjust="spacingAndGlyphs" textLength="138" x="2101" y="151.0151">-Double valorPretendido</text><text fill="#000000" font-family="sans-serif" font-size="11" lengthAdjust="spacingAndGlyphs" textLength="99" x="2101" y="163.8198">-Integer numDias</text><text fill="#000000" font-family="sans-serif" font-size="11" lengthAdjust="spacingAndGlyphs" textLength="135" x="2101" y="176.6245">-String txtApresentacao</text><text fill="#000000" font-family="sans-serif" font-size="11" lengthAdjust="spacingAndGlyphs" textLength="113" x="2101" y="189.4292">-String txtMotivacao</text><line style="stroke: #A80036; stroke-width: 1.5;" x1="2096" x2="2450" y1="196.0234" y2="196.0234"/><text fill="#000000" font-family="sans-serif" font-size="11" lengthAdjust="spacingAndGlyphs" textLength="344" x="2101" y="210.2339">+getDadosDaCandidatura(valorPrt, nrDias,txtApres, txtMotiv)</text><text fill="#000000" font-family="sans-serif" font-size="11" lengthAdjust="spacingAndGlyphs" textLength="330" x="2101" y="223.0386">+guardaDadosNaoSelecionados (DadosNaoSelecionados)</text><text fill="#000000" font-family="sans-serif" font-size="11" lengthAdjust="spacingAndGlyphs" textLength="291" x="2101" y="235.8433">+setCandidaturaDoDadoSelecionado(NovosDados)</text><!--MD5=[a7d37200392db59e1062d19eb44ec116]
link AtualizarCandidaturaUI to AtualizarCandidaturaController--><path d="M172.408,83 C189.589,83 208.344,83 227.54,83 " fill="none" id="AtualizarCandidaturaUI-&gt;AtualizarCandidaturaController" style="stroke: #A80036; stroke-width: 1.0; stroke-dasharray: 7.0,7.0;"/><polygon fill="#A80036" points="232.965,83,223.965,79,227.965,83,223.965,87,232.965,83" style="stroke: #A80036; stroke-width: 1.0;"/><!--MD5=[609afa99c3a65e177684690d3234d242]
link AtualizarCandidaturaController to Plataforma--><path d="M589.117,83 C608.339,83 627.171,83 644.449,83 " fill="none" id="AtualizarCandidaturaController-&gt;Plataforma" style="stroke: #A80036; stroke-width: 1.0; stroke-dasharray: 7.0,7.0;"/><polygon fill="#A80036" points="649.759,83,640.759,79,644.759,83,640.759,87,649.759,83" style="stroke: #A80036; stroke-width: 1.0;"/><!--MD5=[6f0af87639fa8ce0774d6a14d41af6a6]
link AtualizarCandidaturaController to RegistoFreelancer--><path d="M589.137,33.257 C609.525,29.05 630.125,25.467 650,23 C761.537,9.157 890.693,17.433 977.081,26.418 " fill="none" id="AtualizarCandidaturaController-&gt;RegistoFreelancer" style="stroke: #A80036; stroke-width: 1.0; stroke-dasharray: 7.0,7.0;"/><polygon fill="#A80036" points="982.193,26.956,973.6606,22.0368,977.2204,26.4332,972.8241,29.993,982.193,26.956" style="stroke: #A80036; stroke-width: 1.0;"/><!--MD5=[30109b041b9d5504fad9667d9cb7d6ca]
link AtualizarCandidaturaController to RegistoAnuncios--><path d="M589.257,132.498 C609.623,136.972 630.185,140.955 650,144 C733.347,156.8085 826.841,162.768 904.873,165.4395 " fill="none" id="AtualizarCandidaturaController-&gt;RegistoAnuncios" style="stroke: #A80036; stroke-width: 1.0; stroke-dasharray: 7.0,7.0;"/><polygon fill="#A80036" points="909.99,165.6108,901.1287,161.3122,904.9928,165.4437,900.8613,169.3077,909.99,165.6108" style="stroke: #A80036; stroke-width: 1.0;"/><!--MD5=[463821f61fd53759657c2ac769a7e835]
link Plataforma to RegistoAnuncios--><path d="M807.037,101.851 C839.787,109.814 879.176,119.39 917.55,128.72 " fill="none" id="Plataforma-&gt;RegistoAnuncios" style="stroke: #A80036; stroke-width: 1.0;"/><polygon fill="#A80036" points="922.712,129.975,914.9119,123.9618,917.8536,128.7936,913.0217,131.7352,922.712,129.975" style="stroke: #A80036; stroke-width: 1.0;"/><text fill="#000000" font-family="sans-serif" font-size="13" lengthAdjust="spacingAndGlyphs" textLength="41" x="838" y="106.0669">possui</text><text fill="#000000" font-family="sans-serif" font-size="13" lengthAdjust="spacingAndGlyphs" textLength="8" x="814.9038" y="116.4161">1</text><text fill="#000000" font-family="sans-serif" font-size="13" lengthAdjust="spacingAndGlyphs" textLength="8" x="893.5764" y="121.094">1</text><!--MD5=[957336f8f7652c1733534e96e2968a5f]
link Plataforma to RegistoFreelancer--><path d="M807.037,73.126 C857.341,66.719 923.311,58.318 977.205,51.454 " fill="none" id="Plataforma-&gt;RegistoFreelancer" style="stroke: #A80036; stroke-width: 1.0;"/><polygon fill="#A80036" points="982.382,50.795,972.9489,47.9636,977.422,51.4264,973.9592,55.8995,982.382,50.795" style="stroke: #A80036; stroke-width: 1.0;"/><text fill="#000000" font-family="sans-serif" font-size="13" lengthAdjust="spacingAndGlyphs" textLength="41" x="838" y="60.0669">possui</text><text fill="#000000" font-family="sans-serif" font-size="13" lengthAdjust="spacingAndGlyphs" textLength="8" x="814.9038" y="84.9532">1</text><text fill="#000000" font-family="sans-serif" font-size="13" lengthAdjust="spacingAndGlyphs" textLength="8" x="966.6031" y="64.4125">1</text><!--MD5=[2903b91671052adea6f5e59eb6d59b42]
link RegistoAnuncios to Anuncio--><path d="M1242.09,167 C1276.1,167 1311.41,167 1343.82,167 " fill="none" id="RegistoAnuncios-&gt;Anuncio" style="stroke: #A80036; stroke-width: 1.0;"/><polygon fill="#A80036" points="1349,167,1340,163,1344,167,1340,171,1349,167" style="stroke: #A80036; stroke-width: 1.0;"/><text fill="#000000" font-family="sans-serif" font-size="13" lengthAdjust="spacingAndGlyphs" textLength="45" x="1273" y="163.0669">agrega</text><text fill="#000000" font-family="sans-serif" font-size="13" lengthAdjust="spacingAndGlyphs" textLength="8" x="1249.7972" y="179.4186">1</text><text fill="#000000" font-family="sans-serif" font-size="13" lengthAdjust="spacingAndGlyphs" textLength="7" x="1333.8961" y="179.5571">*</text><!--MD5=[936379bbb1fbe67f1148bc2fdcd3e3c1]
link Anuncio to ListaCandidaturas--><path d="M1595.1,167 C1626.28,167 1660.15,167 1692.52,167 " fill="none" id="Anuncio-&gt;ListaCandidaturas" style="stroke: #A80036; stroke-width: 1.0;"/><polygon fill="#A80036" points="1697.7,167,1688.7,163,1692.7,167,1688.7,171,1697.7,167" style="stroke: #A80036; stroke-width: 1.0;"/><text fill="#000000" font-family="sans-serif" font-size="13" lengthAdjust="spacingAndGlyphs" textLength="41" x="1626" y="163.0669">possui</text><text fill="#000000" font-family="sans-serif" font-size="13" lengthAdjust="spacingAndGlyphs" textLength="8" x="1602.8452" y="179.5332">1</text><text fill="#000000" font-family="sans-serif" font-size="13" lengthAdjust="spacingAndGlyphs" textLength="8" x="1682.0017" y="179.4464">1</text><!--MD5=[b3c62d3bd372a34b7ee6d6af17619677]
link ListaCandidaturas to Candidatura--><path d="M1988.01,167 C2020.63,167 2055.7,167 2089.67,167 " fill="none" id="ListaCandidaturas-&gt;Candidatura" style="stroke: #A80036; stroke-width: 1.0;"/><polygon fill="#A80036" points="2094.68,167,2085.68,163,2089.68,167,2085.68,171,2094.68,167" style="stroke: #A80036; stroke-width: 1.0;"/><text fill="#000000" font-family="sans-serif" font-size="13" lengthAdjust="spacingAndGlyphs" textLength="45" x="2019" y="163.0669">agrega</text><text fill="#000000" font-family="sans-serif" font-size="13" lengthAdjust="spacingAndGlyphs" textLength="8" x="1996.159" y="179.4694">1</text><text fill="#000000" font-family="sans-serif" font-size="13" lengthAdjust="spacingAndGlyphs" textLength="7" x="2080.0095" y="179.3769">*</text><!--MD5=[a66e767a4304f5fa76db98d7839a7a61]
link Candidatura to Freelancer--><path d="M2451.21,133.134 C2528.88,118.29 2614.52,101.922 2668.75,91.559 " fill="none" id="Candidatura-&gt;Freelancer" style="stroke: #A80036; stroke-width: 1.0;"/><polygon fill="#A80036" points="2673.9,90.575,2664.3073,88.3435,2668.9897,91.5176,2665.8155,96.2,2673.9,90.575" style="stroke: #A80036; stroke-width: 1.0;"/><text fill="#000000" font-family="sans-serif" font-size="13" lengthAdjust="spacingAndGlyphs" textLength="148" x="2482" y="93.0669">realizada/removida por</text><polygon fill="#000000" points="2633,87.0664,2639,90.0664,2633,93.0664,2633,87.0664" style="stroke: #000000; stroke-width: 1.0;"/><text fill="#000000" font-family="sans-serif" font-size="13" lengthAdjust="spacingAndGlyphs" textLength="7" x="2458.8759" y="144.0822">*</text><text fill="#000000" font-family="sans-serif" font-size="13" lengthAdjust="spacingAndGlyphs" textLength="8" x="2658.1516" y="105.037">1</text><!--MD5=[95795e0b4ecb0b567ae2ce3910745252]
link RegistoFreelancer to Freelancer--><path d="M1169.74,39 C1249.59,39 1367.88,39 1471,39 C1471,39 1471,39 2274,39 C2416.9,39 2584.23,60.257 2668.9,72.525 " fill="none" id="RegistoFreelancer-&gt;Freelancer" style="stroke: #A80036; stroke-width: 1.0;"/><polygon fill="#A80036" points="2673.86,73.248,2665.5386,67.9797,2668.9133,72.5197,2664.3734,75.8944,2673.86,73.248" style="stroke: #A80036; stroke-width: 1.0;"/><text fill="#000000" font-family="sans-serif" font-size="13" lengthAdjust="spacingAndGlyphs" textLength="45" x="1820.5" y="35.0669">agrega</text><text fill="#000000" font-family="sans-serif" font-size="13" lengthAdjust="spacingAndGlyphs" textLength="8" x="1177.5287" y="51.6776">1</text><text fill="#000000" font-family="sans-serif" font-size="13" lengthAdjust="spacingAndGlyphs" textLength="7" x="2658.8348" y="85.2716">*</text><!--MD5=[e8dd36ace498a9f2b115571a735e2617]
@startuml
skinparam classAttributeIconSize 0
left to right direction

class AtualizarCandidaturaUI {
}

class AtualizarCandidaturaController {
  +getAnunciosElegiveisDoFreelancer()
  +getDadosDaCandidatura(valorPrt, nrDias,txtApres, txtMotiv)
  +guardaDadosNaoSelecionados (DadosNaoSelecionados)
  +setCandidaturaDosDadosSelecionados(NovosDados)
  +atualizaCandidatura(cand,novosDados)
}

class Plataforma {
  -String designacao
  +getRegistoFreelancers()
  +getRegistoAnuncios()
}

class RegistoFreelancer
{
 +getFreelancerByEmail(email)
}

class RegistoAnuncios
{
  +getAnunciosElegiveisDoFreelancer(freel)
  +getCandidaturasValidadasDoFreelancerByEmail(email)
}

class Freelancer {
    -String nome
    -String NIF
    -String telefone
    -String email
}

class Anuncio
{
  -Period publicitacao
  -Period candidatura
  -Period seriacao
  -aceitaCandidaturaAtualizada()
  -éFreelancerElegivel(freel)
  +atualizaCandidatura(cand, novosDados)
}

class ListaCandidaturas
{
  +getCandidaturaById(candidaturaid)
  -validaCandidaturaAtualizada(cand, novosDados)
  -atualizaCandidatura(cand, novosDados)
}

class Candidatura
{
  -Date dataCandidatura
  -Double valorPretendido
  -Integer numDias
  -String txtApresentacao
  -String txtMotivacao
  +getDadosDaCandidatura(valorPrt, nrDias,txtApres, txtMotiv)
  +guardaDadosNaoSelecionados (DadosNaoSelecionados)
  +setCandidaturaDoDadoSelecionado(NovosDados)

}

AtualizarCandidaturaUI ..> AtualizarCandidaturaController 
AtualizarCandidaturaController ..> Plataforma
AtualizarCandidaturaController ..> RegistoFreelancer
AtualizarCandidaturaController ..> RegistoAnuncios

Plataforma "1" - -> "1" RegistoAnuncios : possui
Plataforma "1" - -> "1" RegistoFreelancer : possui

RegistoAnuncios "1" - -> "*" Anuncio : agrega
Anuncio "1" - -> "1" ListaCandidaturas : possui
ListaCandidaturas "1" - -> "*" Candidatura : agrega

Candidatura "*" - -> "1"  Freelancer: realizada/removida por >

RegistoFreelancer "1" - -> "*" Freelancer: agrega
@enduml

PlantUML version 1.2020.10(Sun May 17 09:48:49 UTC 2020)
(GPL source distribution)
Java Runtime: Java(TM) SE Runtime Environment
JVM: Java HotSpot(TM) 64-Bit Server VM
Operating System: Linux
Default Encoding: UTF-8
Language: en
Country: US
--></g></svg>