<?xml version="1.0" encoding="UTF-8" standalone="no"?><svg xmlns="http://www.w3.org/2000/svg" xmlns:xlink="http://www.w3.org/1999/xlink" contentScriptType="application/ecmascript" contentStyleType="text/css" height="1159px" preserveAspectRatio="none" style="width:1450px;height:1159px;" version="1.1" viewBox="0 0 1450 1159" width="1450px" zoomAndPan="magnify"><defs><filter height="300%" id="f19az372sh98hr" width="300%" x="-1" y="-1"><feGaussianBlur result="blurOut" stdDeviation="2.0"/><feColorMatrix in="blurOut" result="blurOut2" type="matrix" values="0 0 0 0 0 0 0 0 0 0 0 0 0 0 0 0 0 0 .4 0"/><feOffset dx="4.0" dy="4.0" in="blurOut2" result="blurOut3"/><feBlend in="SourceGraphic" in2="blurOut3" mode="normal"/></filter></defs><g><!--MD5=[380d12a68ed0046a60f31008a02875d0]
class AplicacaoPOT--><rect fill="#FEFECE" filter="url(#f19az372sh98hr)" height="73.6094" id="AplicacaoPOT" style="stroke: #A80036; stroke-width: 1.5;" width="130" x="6" y="46"/><ellipse cx="28.65" cy="62" fill="#ADD1B2" rx="11" ry="11" style="stroke: #A80036; stroke-width: 1.0;"/><path d="M30.9938,57.6719 C30.0563,57.2344 29.4625,57.0938 28.5875,57.0938 C25.9625,57.0938 23.9625,59.1719 23.9625,61.8906 L23.9625,63.0156 C23.9625,65.5938 26.0719,67.4844 28.9625,67.4844 C30.1813,67.4844 31.3375,67.1875 32.0875,66.6406 C32.6656,66.2344 32.9938,65.7813 32.9938,65.3906 C32.9938,64.9375 32.6031,64.5469 32.1344,64.5469 C31.9156,64.5469 31.7125,64.625 31.525,64.8125 C31.0719,65.2969 31.0719,65.2969 30.8844,65.3906 C30.4625,65.6563 29.775,65.7813 29.0094,65.7813 C26.9625,65.7813 25.6656,64.6875 25.6656,62.9844 L25.6656,61.8906 C25.6656,60.1094 26.9156,58.7969 28.65,58.7969 C29.2281,58.7969 29.8375,58.9531 30.3063,59.2031 C30.7906,59.4844 30.9625,59.7031 31.0563,60.1094 C31.1188,60.5156 31.15,60.6406 31.2906,60.7656 C31.4313,60.9063 31.6656,61.0156 31.8844,61.0156 C32.15,61.0156 32.4156,60.875 32.5875,60.6563 C32.6969,60.5 32.7281,60.3125 32.7281,59.8906 L32.7281,58.4688 C32.7281,58.0313 32.7125,57.9063 32.6188,57.75 C32.4625,57.4844 32.1813,57.3438 31.8844,57.3438 C31.5875,57.3438 31.3844,57.4375 31.1656,57.75 L30.9938,57.6719 Z "/><text fill="#000000" font-family="sans-serif" font-size="12" lengthAdjust="spacingAndGlyphs" textLength="81" x="44.35" y="66.1543">AplicacaoPOT</text><line style="stroke: #A80036; stroke-width: 1.5;" x1="7" x2="135" y1="78" y2="78"/><line style="stroke: #A80036; stroke-width: 1.5;" x1="7" x2="135" y1="86" y2="86"/><text fill="#000000" font-family="sans-serif" font-size="11" lengthAdjust="spacingAndGlyphs" textLength="118" x="12" y="100.2104">+static getInstance()</text><text fill="#000000" font-family="sans-serif" font-size="11" lengthAdjust="spacingAndGlyphs" textLength="107" x="12" y="113.0151">+getSessaoAtual()</text><!--MD5=[1e13576e8c070e32200b62ceaa1f39ec]
class SessaoUtilizador--><rect fill="#FEFECE" filter="url(#f19az372sh98hr)" height="60.8047" id="SessaoUtilizador" style="stroke: #A80036; stroke-width: 1.5;" width="134" x="171" y="52.5"/><ellipse cx="186" cy="68.5" fill="#ADD1B2" rx="11" ry="11" style="stroke: #A80036; stroke-width: 1.0;"/><path d="M188.3438,64.1719 C187.4063,63.7344 186.8125,63.5938 185.9375,63.5938 C183.3125,63.5938 181.3125,65.6719 181.3125,68.3906 L181.3125,69.5156 C181.3125,72.0938 183.4219,73.9844 186.3125,73.9844 C187.5313,73.9844 188.6875,73.6875 189.4375,73.1406 C190.0156,72.7344 190.3438,72.2813 190.3438,71.8906 C190.3438,71.4375 189.9531,71.0469 189.4844,71.0469 C189.2656,71.0469 189.0625,71.125 188.875,71.3125 C188.4219,71.7969 188.4219,71.7969 188.2344,71.8906 C187.8125,72.1563 187.125,72.2813 186.3594,72.2813 C184.3125,72.2813 183.0156,71.1875 183.0156,69.4844 L183.0156,68.3906 C183.0156,66.6094 184.2656,65.2969 186,65.2969 C186.5781,65.2969 187.1875,65.4531 187.6563,65.7031 C188.1406,65.9844 188.3125,66.2031 188.4063,66.6094 C188.4688,67.0156 188.5,67.1406 188.6406,67.2656 C188.7813,67.4063 189.0156,67.5156 189.2344,67.5156 C189.5,67.5156 189.7656,67.375 189.9375,67.1563 C190.0469,67 190.0781,66.8125 190.0781,66.3906 L190.0781,64.9688 C190.0781,64.5313 190.0625,64.4063 189.9688,64.25 C189.8125,63.9844 189.5313,63.8438 189.2344,63.8438 C188.9375,63.8438 188.7344,63.9375 188.5156,64.25 L188.3438,64.1719 Z "/><text fill="#000000" font-family="sans-serif" font-size="12" lengthAdjust="spacingAndGlyphs" textLength="102" x="200" y="72.6543">SessaoUtilizador</text><line style="stroke: #A80036; stroke-width: 1.5;" x1="172" x2="304" y1="84.5" y2="84.5"/><line style="stroke: #A80036; stroke-width: 1.5;" x1="172" x2="304" y1="92.5" y2="92.5"/><text fill="#000000" font-family="sans-serif" font-size="11" lengthAdjust="spacingAndGlyphs" textLength="120" x="177" y="106.7104">+getEmailUtilizador()</text><!--MD5=[84d1b9922499e034344dac4e4526a697]
class Seriacao--><rect fill="#FEFECE" filter="url(#f19az372sh98hr)" height="60.8047" id="Seriacao" style="stroke: #A80036; stroke-width: 1.5;" width="155" x="1015.5" y="923.5"/><ellipse cx="1062.25" cy="939.5" fill="#ADD1B2" rx="11" ry="11" style="stroke: #A80036; stroke-width: 1.0;"/><path d="M1064.5938,935.1719 C1063.6563,934.7344 1063.0625,934.5938 1062.1875,934.5938 C1059.5625,934.5938 1057.5625,936.6719 1057.5625,939.3906 L1057.5625,940.5156 C1057.5625,943.0938 1059.6719,944.9844 1062.5625,944.9844 C1063.7813,944.9844 1064.9375,944.6875 1065.6875,944.1406 C1066.2656,943.7344 1066.5938,943.2813 1066.5938,942.8906 C1066.5938,942.4375 1066.2031,942.0469 1065.7344,942.0469 C1065.5156,942.0469 1065.3125,942.125 1065.125,942.3125 C1064.6719,942.7969 1064.6719,942.7969 1064.4844,942.8906 C1064.0625,943.1563 1063.375,943.2813 1062.6094,943.2813 C1060.5625,943.2813 1059.2656,942.1875 1059.2656,940.4844 L1059.2656,939.3906 C1059.2656,937.6094 1060.5156,936.2969 1062.25,936.2969 C1062.8281,936.2969 1063.4375,936.4531 1063.9063,936.7031 C1064.3906,936.9844 1064.5625,937.2031 1064.6563,937.6094 C1064.7188,938.0156 1064.75,938.1406 1064.8906,938.2656 C1065.0313,938.4063 1065.2656,938.5156 1065.4844,938.5156 C1065.75,938.5156 1066.0156,938.375 1066.1875,938.1563 C1066.2969,938 1066.3281,937.8125 1066.3281,937.3906 L1066.3281,935.9688 C1066.3281,935.5313 1066.3125,935.4063 1066.2188,935.25 C1066.0625,934.9844 1065.7813,934.8438 1065.4844,934.8438 C1065.1875,934.8438 1064.9844,934.9375 1064.7656,935.25 L1064.5938,935.1719 Z "/><text fill="#000000" font-family="sans-serif" font-size="12" lengthAdjust="spacingAndGlyphs" textLength="53" x="1082.75" y="943.6543">Seriacao</text><line style="stroke: #A80036; stroke-width: 1.5;" x1="1016.5" x2="1169.5" y1="955.5" y2="955.5"/><text fill="#000000" font-family="sans-serif" font-size="11" font-weight="bold" lengthAdjust="spacingAndGlyphs" textLength="143" x="1021.5" y="969.7104">-Date dataRealizacao</text><line style="stroke: #A80036; stroke-width: 1.5;" x1="1016.5" x2="1169.5" y1="976.3047" y2="976.3047"/><!--MD5=[807977ceb130c090ed5febfb6de2bdea]
class Organizacao--><rect fill="#FEFECE" filter="url(#f19az372sh98hr)" height="137.6328" id="Organizacao" style="stroke: #A80036; stroke-width: 1.5;" width="266" x="491" y="455"/><ellipse cx="581.75" cy="471" fill="#ADD1B2" rx="11" ry="11" style="stroke: #A80036; stroke-width: 1.0;"/><path d="M584.0938,466.6719 C583.1563,466.2344 582.5625,466.0938 581.6875,466.0938 C579.0625,466.0938 577.0625,468.1719 577.0625,470.8906 L577.0625,472.0156 C577.0625,474.5938 579.1719,476.4844 582.0625,476.4844 C583.2813,476.4844 584.4375,476.1875 585.1875,475.6406 C585.7656,475.2344 586.0938,474.7813 586.0938,474.3906 C586.0938,473.9375 585.7031,473.5469 585.2344,473.5469 C585.0156,473.5469 584.8125,473.625 584.625,473.8125 C584.1719,474.2969 584.1719,474.2969 583.9844,474.3906 C583.5625,474.6563 582.875,474.7813 582.1094,474.7813 C580.0625,474.7813 578.7656,473.6875 578.7656,471.9844 L578.7656,470.8906 C578.7656,469.1094 580.0156,467.7969 581.75,467.7969 C582.3281,467.7969 582.9375,467.9531 583.4063,468.2031 C583.8906,468.4844 584.0625,468.7031 584.1563,469.1094 C584.2188,469.5156 584.25,469.6406 584.3906,469.7656 C584.5313,469.9063 584.7656,470.0156 584.9844,470.0156 C585.25,470.0156 585.5156,469.875 585.6875,469.6563 C585.7969,469.5 585.8281,469.3125 585.8281,468.8906 L585.8281,467.4688 C585.8281,467.0313 585.8125,466.9063 585.7188,466.75 C585.5625,466.4844 585.2813,466.3438 584.9844,466.3438 C584.6875,466.3438 584.4844,466.4375 584.2656,466.75 L584.0938,466.6719 Z "/><text fill="#000000" font-family="sans-serif" font-size="12" lengthAdjust="spacingAndGlyphs" textLength="76" x="602.25" y="475.1543">Organizacao</text><line style="stroke: #A80036; stroke-width: 1.5;" x1="492" x2="756" y1="487" y2="487"/><text fill="#000000" font-family="sans-serif" font-size="11" lengthAdjust="spacingAndGlyphs" textLength="74" x="497" y="501.2104">-String nome</text><text fill="#000000" font-family="sans-serif" font-size="11" lengthAdjust="spacingAndGlyphs" textLength="58" x="497" y="514.0151">-String NIF</text><text fill="#000000" font-family="sans-serif" font-size="11" lengthAdjust="spacingAndGlyphs" textLength="86" x="497" y="526.8198">-String website</text><text fill="#000000" font-family="sans-serif" font-size="11" lengthAdjust="spacingAndGlyphs" textLength="90" x="497" y="539.6245">-String telefone</text><text fill="#000000" font-family="sans-serif" font-size="11" lengthAdjust="spacingAndGlyphs" textLength="73" x="497" y="552.4292">-String email</text><line style="stroke: #A80036; stroke-width: 1.5;" x1="492" x2="756" y1="559.0234" y2="559.0234"/><text fill="#000000" font-family="sans-serif" font-size="11" lengthAdjust="spacingAndGlyphs" textLength="178" x="497" y="573.2339">+ListaTarefas getListaTarefas()</text><text fill="#000000" font-family="sans-serif" font-size="11" lengthAdjust="spacingAndGlyphs" textLength="254" x="497" y="586.0386">+Colaborador getColaboradorByEmail(email)</text><!--MD5=[0b8c11e89e8561660fecfc719ed33ad4]
class ListaTarefas--><rect fill="#FEFECE" filter="url(#f19az372sh98hr)" height="73.6094" id="ListaTarefas" style="stroke: #A80036; stroke-width: 1.5;" width="256" x="489" y="702"/><ellipse cx="576.75" cy="718" fill="#ADD1B2" rx="11" ry="11" style="stroke: #A80036; stroke-width: 1.0;"/><path d="M579.0938,713.6719 C578.1563,713.2344 577.5625,713.0938 576.6875,713.0938 C574.0625,713.0938 572.0625,715.1719 572.0625,717.8906 L572.0625,719.0156 C572.0625,721.5938 574.1719,723.4844 577.0625,723.4844 C578.2813,723.4844 579.4375,723.1875 580.1875,722.6406 C580.7656,722.2344 581.0938,721.7813 581.0938,721.3906 C581.0938,720.9375 580.7031,720.5469 580.2344,720.5469 C580.0156,720.5469 579.8125,720.625 579.625,720.8125 C579.1719,721.2969 579.1719,721.2969 578.9844,721.3906 C578.5625,721.6563 577.875,721.7813 577.1094,721.7813 C575.0625,721.7813 573.7656,720.6875 573.7656,718.9844 L573.7656,717.8906 C573.7656,716.1094 575.0156,714.7969 576.75,714.7969 C577.3281,714.7969 577.9375,714.9531 578.4063,715.2031 C578.8906,715.4844 579.0625,715.7031 579.1563,716.1094 C579.2188,716.5156 579.25,716.6406 579.3906,716.7656 C579.5313,716.9063 579.7656,717.0156 579.9844,717.0156 C580.25,717.0156 580.5156,716.875 580.6875,716.6563 C580.7969,716.5 580.8281,716.3125 580.8281,715.8906 L580.8281,714.4688 C580.8281,714.0313 580.8125,713.9063 580.7188,713.75 C580.5625,713.4844 580.2813,713.3438 579.9844,713.3438 C579.6875,713.3438 579.4844,713.4375 579.2656,713.75 L579.0938,713.6719 Z "/><text fill="#000000" font-family="sans-serif" font-size="12" lengthAdjust="spacingAndGlyphs" textLength="72" x="597.25" y="722.1543">ListaTarefas</text><line style="stroke: #A80036; stroke-width: 1.5;" x1="490" x2="744" y1="734" y2="734"/><line style="stroke: #A80036; stroke-width: 1.5;" x1="490" x2="744" y1="742" y2="742"/><text fill="#000000" font-family="sans-serif" font-size="11" lengthAdjust="spacingAndGlyphs" textLength="224" x="495" y="756.2104">+List&lt;Tarefa&gt; getTarefaParaPublicar(c)</text><text fill="#000000" font-family="sans-serif" font-size="11" lengthAdjust="spacingAndGlyphs" textLength="244" x="495" y="769.0151">+Tarefa getTarefaParaPublicarByRef(ref, c)</text><!--MD5=[27c2d4bbe9f7b9d3b0ea2797cc54308a]
class Tarefa--><rect fill="#FEFECE" filter="url(#f19az372sh98hr)" height="137.6328" id="Tarefa" style="stroke: #A80036; stroke-width: 1.5;" width="126" x="670" y="885"/><ellipse cx="710.2" cy="901" fill="#ADD1B2" rx="11" ry="11" style="stroke: #A80036; stroke-width: 1.0;"/><path d="M712.5438,896.6719 C711.6063,896.2344 711.0125,896.0938 710.1375,896.0938 C707.5125,896.0938 705.5125,898.1719 705.5125,900.8906 L705.5125,902.0156 C705.5125,904.5938 707.6219,906.4844 710.5125,906.4844 C711.7313,906.4844 712.8875,906.1875 713.6375,905.6406 C714.2156,905.2344 714.5438,904.7813 714.5438,904.3906 C714.5438,903.9375 714.1531,903.5469 713.6844,903.5469 C713.4656,903.5469 713.2625,903.625 713.075,903.8125 C712.6219,904.2969 712.6219,904.2969 712.4344,904.3906 C712.0125,904.6563 711.325,904.7813 710.5594,904.7813 C708.5125,904.7813 707.2156,903.6875 707.2156,901.9844 L707.2156,900.8906 C707.2156,899.1094 708.4656,897.7969 710.2,897.7969 C710.7781,897.7969 711.3875,897.9531 711.8563,898.2031 C712.3406,898.4844 712.5125,898.7031 712.6063,899.1094 C712.6688,899.5156 712.7,899.6406 712.8406,899.7656 C712.9813,899.9063 713.2156,900.0156 713.4344,900.0156 C713.7,900.0156 713.9656,899.875 714.1375,899.6563 C714.2469,899.5 714.2781,899.3125 714.2781,898.8906 L714.2781,897.4688 C714.2781,897.0313 714.2625,896.9063 714.1688,896.75 C714.0125,896.4844 713.7313,896.3438 713.4344,896.3438 C713.1375,896.3438 712.9344,896.4375 712.7156,896.75 L712.5438,896.6719 Z "/><text fill="#000000" font-family="sans-serif" font-size="12" lengthAdjust="spacingAndGlyphs" textLength="38" x="729.8" y="905.1543">Tarefa</text><line style="stroke: #A80036; stroke-width: 1.5;" x1="671" x2="795" y1="917" y2="917"/><text fill="#000000" font-family="sans-serif" font-size="11" lengthAdjust="spacingAndGlyphs" textLength="100" x="676" y="931.2104">-String referencia</text><text fill="#000000" font-family="sans-serif" font-size="11" lengthAdjust="spacingAndGlyphs" textLength="106" x="676" y="944.0151">-String designacao</text><text fill="#000000" font-family="sans-serif" font-size="11" lengthAdjust="spacingAndGlyphs" textLength="114" x="676" y="956.8198">-String descInformal</text><text fill="#000000" font-family="sans-serif" font-size="11" lengthAdjust="spacingAndGlyphs" textLength="112" x="676" y="969.6245">-String descTecnica</text><text fill="#000000" font-family="sans-serif" font-size="11" lengthAdjust="spacingAndGlyphs" textLength="111" x="676" y="982.4292">-Integer duracaoEst</text><text fill="#000000" font-family="sans-serif" font-size="11" lengthAdjust="spacingAndGlyphs" textLength="96" x="676" y="995.2339">-Double custoEst</text><line style="stroke: #A80036; stroke-width: 1.5;" x1="671" x2="795" y1="1001.8281" y2="1001.8281"/><text fill="#000000" font-family="sans-serif" font-size="11" lengthAdjust="spacingAndGlyphs" textLength="82" x="676" y="1016.0386">+publicar(anu)</text><!--MD5=[ecaed46f78f8cfe1e9ce18477649be18]
class Plataforma--><rect fill="#FEFECE" filter="url(#f19az372sh98hr)" height="150.4375" id="Plataforma" style="stroke: #A80036; stroke-width: 1.5;" width="314" x="774" y="8"/><ellipse cx="895.75" cy="24" fill="#ADD1B2" rx="11" ry="11" style="stroke: #A80036; stroke-width: 1.0;"/><path d="M898.0938,19.6719 C897.1563,19.2344 896.5625,19.0938 895.6875,19.0938 C893.0625,19.0938 891.0625,21.1719 891.0625,23.8906 L891.0625,25.0156 C891.0625,27.5938 893.1719,29.4844 896.0625,29.4844 C897.2813,29.4844 898.4375,29.1875 899.1875,28.6406 C899.7656,28.2344 900.0938,27.7813 900.0938,27.3906 C900.0938,26.9375 899.7031,26.5469 899.2344,26.5469 C899.0156,26.5469 898.8125,26.625 898.625,26.8125 C898.1719,27.2969 898.1719,27.2969 897.9844,27.3906 C897.5625,27.6563 896.875,27.7813 896.1094,27.7813 C894.0625,27.7813 892.7656,26.6875 892.7656,24.9844 L892.7656,23.8906 C892.7656,22.1094 894.0156,20.7969 895.75,20.7969 C896.3281,20.7969 896.9375,20.9531 897.4063,21.2031 C897.8906,21.4844 898.0625,21.7031 898.1563,22.1094 C898.2188,22.5156 898.25,22.6406 898.3906,22.7656 C898.5313,22.9063 898.7656,23.0156 898.9844,23.0156 C899.25,23.0156 899.5156,22.875 899.6875,22.6563 C899.7969,22.5 899.8281,22.3125 899.8281,21.8906 L899.8281,20.4688 C899.8281,20.0313 899.8125,19.9063 899.7188,19.75 C899.5625,19.4844 899.2813,19.3438 898.9844,19.3438 C898.6875,19.3438 898.4844,19.4375 898.2656,19.75 L898.0938,19.6719 Z "/><text fill="#000000" font-family="sans-serif" font-size="12" lengthAdjust="spacingAndGlyphs" textLength="62" x="916.25" y="28.1543">Plataforma</text><line style="stroke: #A80036; stroke-width: 1.5;" x1="775" x2="1087" y1="40" y2="40"/><text fill="#000000" font-family="sans-serif" font-size="11" font-weight="bold" lengthAdjust="spacingAndGlyphs" textLength="93" x="780" y="54.2104">-Integer delay</text><text fill="#000000" font-family="sans-serif" font-size="11" font-weight="bold" lengthAdjust="spacingAndGlyphs" textLength="119" x="780" y="67.0151">-Integer intervalo</text><text fill="#000000" font-family="sans-serif" font-size="11" lengthAdjust="spacingAndGlyphs" textLength="106" x="780" y="79.8198">-String designacao</text><line style="stroke: #A80036; stroke-width: 1.5;" x1="775" x2="1087" y1="86.4141" y2="86.4141"/><text fill="#000000" font-family="sans-serif" font-size="11" lengthAdjust="spacingAndGlyphs" textLength="280" x="780" y="100.6245">+RegistoOrganizacoes getRegistoOrganizacoes()</text><text fill="#000000" font-family="sans-serif" font-size="11" lengthAdjust="spacingAndGlyphs" textLength="302" x="780" y="113.4292">+RegistoTipoRegimento getRegistoTiposRegimento()</text><text fill="#000000" font-family="sans-serif" font-size="11" lengthAdjust="spacingAndGlyphs" textLength="226" x="780" y="126.2339">+RegistoAnuncios getRegistoAnuncios()</text><text fill="#000000" font-family="sans-serif" font-size="11" font-weight="bold" lengthAdjust="spacingAndGlyphs" textLength="78" x="780" y="139.0386">+getDelay()</text><text fill="#000000" font-family="sans-serif" font-size="11" font-weight="bold" lengthAdjust="spacingAndGlyphs" textLength="103" x="780" y="151.8433">+getIntervalo()</text><!--MD5=[599021b52fcbb267fdd1ae8c4feac18d]
class RegistoTiposRegimento--><rect fill="#FEFECE" filter="url(#f19az372sh98hr)" height="73.6094" id="RegistoTiposRegimento" style="stroke: #A80036; stroke-width: 1.5;" width="303" x="1136.5" y="338.5"/><ellipse cx="1212.75" cy="354.5" fill="#ADD1B2" rx="11" ry="11" style="stroke: #A80036; stroke-width: 1.0;"/><path d="M1215.0938,350.1719 C1214.1563,349.7344 1213.5625,349.5938 1212.6875,349.5938 C1210.0625,349.5938 1208.0625,351.6719 1208.0625,354.3906 L1208.0625,355.5156 C1208.0625,358.0938 1210.1719,359.9844 1213.0625,359.9844 C1214.2813,359.9844 1215.4375,359.6875 1216.1875,359.1406 C1216.7656,358.7344 1217.0938,358.2813 1217.0938,357.8906 C1217.0938,357.4375 1216.7031,357.0469 1216.2344,357.0469 C1216.0156,357.0469 1215.8125,357.125 1215.625,357.3125 C1215.1719,357.7969 1215.1719,357.7969 1214.9844,357.8906 C1214.5625,358.1563 1213.875,358.2813 1213.1094,358.2813 C1211.0625,358.2813 1209.7656,357.1875 1209.7656,355.4844 L1209.7656,354.3906 C1209.7656,352.6094 1211.0156,351.2969 1212.75,351.2969 C1213.3281,351.2969 1213.9375,351.4531 1214.4063,351.7031 C1214.8906,351.9844 1215.0625,352.2031 1215.1563,352.6094 C1215.2188,353.0156 1215.25,353.1406 1215.3906,353.2656 C1215.5313,353.4063 1215.7656,353.5156 1215.9844,353.5156 C1216.25,353.5156 1216.5156,353.375 1216.6875,353.1563 C1216.7969,353 1216.8281,352.8125 1216.8281,352.3906 L1216.8281,350.9688 C1216.8281,350.5313 1216.8125,350.4063 1216.7188,350.25 C1216.5625,349.9844 1216.2813,349.8438 1215.9844,349.8438 C1215.6875,349.8438 1215.4844,349.9375 1215.2656,350.25 L1215.0938,350.1719 Z "/><text fill="#000000" font-family="sans-serif" font-size="12" lengthAdjust="spacingAndGlyphs" textLength="142" x="1233.25" y="358.6543">RegistoTiposRegimento</text><line style="stroke: #A80036; stroke-width: 1.5;" x1="1137.5" x2="1438.5" y1="370.5" y2="370.5"/><line style="stroke: #A80036; stroke-width: 1.5;" x1="1137.5" x2="1438.5" y1="378.5" y2="378.5"/><text fill="#000000" font-family="sans-serif" font-size="11" lengthAdjust="spacingAndGlyphs" textLength="255" x="1142.5" y="392.7104">+List&lt;TipoRegimento&gt; getTiposRegimento()</text><text fill="#000000" font-family="sans-serif" font-size="11" lengthAdjust="spacingAndGlyphs" textLength="291" x="1142.5" y="405.5151">+TipoRegimento getTipoRegimentoByDesc(desTR)</text><!--MD5=[548bd8e9f0dc9261535ca7b7174ac939]
class RegistoOrganizacoes--><rect fill="#FEFECE" filter="url(#f19az372sh98hr)" height="60.8047" id="RegistoOrganizacoes" style="stroke: #A80036; stroke-width: 1.5;" width="325" x="498.5" y="235"/><ellipse cx="592.25" cy="251" fill="#ADD1B2" rx="11" ry="11" style="stroke: #A80036; stroke-width: 1.0;"/><path d="M594.5938,246.6719 C593.6563,246.2344 593.0625,246.0938 592.1875,246.0938 C589.5625,246.0938 587.5625,248.1719 587.5625,250.8906 L587.5625,252.0156 C587.5625,254.5938 589.6719,256.4844 592.5625,256.4844 C593.7813,256.4844 594.9375,256.1875 595.6875,255.6406 C596.2656,255.2344 596.5938,254.7813 596.5938,254.3906 C596.5938,253.9375 596.2031,253.5469 595.7344,253.5469 C595.5156,253.5469 595.3125,253.625 595.125,253.8125 C594.6719,254.2969 594.6719,254.2969 594.4844,254.3906 C594.0625,254.6563 593.375,254.7813 592.6094,254.7813 C590.5625,254.7813 589.2656,253.6875 589.2656,251.9844 L589.2656,250.8906 C589.2656,249.1094 590.5156,247.7969 592.25,247.7969 C592.8281,247.7969 593.4375,247.9531 593.9063,248.2031 C594.3906,248.4844 594.5625,248.7031 594.6563,249.1094 C594.7188,249.5156 594.75,249.6406 594.8906,249.7656 C595.0313,249.9063 595.2656,250.0156 595.4844,250.0156 C595.75,250.0156 596.0156,249.875 596.1875,249.6563 C596.2969,249.5 596.3281,249.3125 596.3281,248.8906 L596.3281,247.4688 C596.3281,247.0313 596.3125,246.9063 596.2188,246.75 C596.0625,246.4844 595.7813,246.3438 595.4844,246.3438 C595.1875,246.3438 594.9844,246.4375 594.7656,246.75 L594.5938,246.6719 Z "/><text fill="#000000" font-family="sans-serif" font-size="12" lengthAdjust="spacingAndGlyphs" textLength="129" x="612.75" y="255.1543">RegistoOrganizacoes</text><line style="stroke: #A80036; stroke-width: 1.5;" x1="499.5" x2="822.5" y1="267" y2="267"/><line style="stroke: #A80036; stroke-width: 1.5;" x1="499.5" x2="822.5" y1="275" y2="275"/><text fill="#000000" font-family="sans-serif" font-size="11" lengthAdjust="spacingAndGlyphs" textLength="313" x="504.5" y="289.2104">+Organizacao getOrganizacaoByEmailUtilizador(email)</text><!--MD5=[a7dddfa65532da486ef518ad0cedfd89]
class RegistoAnuncios--><rect fill="#FEFECE" filter="url(#f19az372sh98hr)" height="99.2188" id="RegistoAnuncios" style="stroke: #A80036; stroke-width: 1.5;" width="401" x="730.5" y="326"/><ellipse cx="877.25" cy="342" fill="#ADD1B2" rx="11" ry="11" style="stroke: #A80036; stroke-width: 1.0;"/><path d="M879.5938,337.6719 C878.6563,337.2344 878.0625,337.0938 877.1875,337.0938 C874.5625,337.0938 872.5625,339.1719 872.5625,341.8906 L872.5625,343.0156 C872.5625,345.5938 874.6719,347.4844 877.5625,347.4844 C878.7813,347.4844 879.9375,347.1875 880.6875,346.6406 C881.2656,346.2344 881.5938,345.7813 881.5938,345.3906 C881.5938,344.9375 881.2031,344.5469 880.7344,344.5469 C880.5156,344.5469 880.3125,344.625 880.125,344.8125 C879.6719,345.2969 879.6719,345.2969 879.4844,345.3906 C879.0625,345.6563 878.375,345.7813 877.6094,345.7813 C875.5625,345.7813 874.2656,344.6875 874.2656,342.9844 L874.2656,341.8906 C874.2656,340.1094 875.5156,338.7969 877.25,338.7969 C877.8281,338.7969 878.4375,338.9531 878.9063,339.2031 C879.3906,339.4844 879.5625,339.7031 879.6563,340.1094 C879.7188,340.5156 879.75,340.6406 879.8906,340.7656 C880.0313,340.9063 880.2656,341.0156 880.4844,341.0156 C880.75,341.0156 881.0156,340.875 881.1875,340.6563 C881.2969,340.5 881.3281,340.3125 881.3281,339.8906 L881.3281,338.4688 C881.3281,338.0313 881.3125,337.9063 881.2188,337.75 C881.0625,337.4844 880.7813,337.3438 880.4844,337.3438 C880.1875,337.3438 879.9844,337.4375 879.7656,337.75 L879.5938,337.6719 Z "/><text fill="#000000" font-family="sans-serif" font-size="12" lengthAdjust="spacingAndGlyphs" textLength="99" x="897.75" y="346.1543">RegistoAnuncios</text><line style="stroke: #A80036; stroke-width: 1.5;" x1="731.5" x2="1130.5" y1="358" y2="358"/><line style="stroke: #A80036; stroke-width: 1.5;" x1="731.5" x2="1130.5" y1="366" y2="366"/><text fill="#000000" font-family="sans-serif" font-size="11" lengthAdjust="spacingAndGlyphs" textLength="389" x="736.5" y="380.2104">+novoAnuncio(c,tarefa,dtIniP,dtFimP,dtIniC,dtFimC,dtIniS,dtFimS,regT)</text><text fill="#000000" font-family="sans-serif" font-size="11" lengthAdjust="spacingAndGlyphs" textLength="117" x="736.5" y="393.0151">+validaAnuncio(anu)</text><text fill="#000000" font-family="sans-serif" font-size="11" lengthAdjust="spacingAndGlyphs" textLength="122" x="736.5" y="405.8198">+registaAnuncio(anu)</text><text fill="#000000" font-family="sans-serif" font-size="11" lengthAdjust="spacingAndGlyphs" textLength="99" x="736.5" y="418.6245">-addAnuncio(anu)</text><!--MD5=[19db0db7353a4bf63eefc676e5ba9b80]
class Anuncio--><rect fill="#FEFECE" filter="url(#f19az372sh98hr)" height="137.6328" id="Anuncio" style="stroke: #A80036; stroke-width: 1.5;" width="377" x="780.5" y="670"/><ellipse cx="941.25" cy="686" fill="#ADD1B2" rx="11" ry="11" style="stroke: #A80036; stroke-width: 1.0;"/><path d="M943.5938,681.6719 C942.6563,681.2344 942.0625,681.0938 941.1875,681.0938 C938.5625,681.0938 936.5625,683.1719 936.5625,685.8906 L936.5625,687.0156 C936.5625,689.5938 938.6719,691.4844 941.5625,691.4844 C942.7813,691.4844 943.9375,691.1875 944.6875,690.6406 C945.2656,690.2344 945.5938,689.7813 945.5938,689.3906 C945.5938,688.9375 945.2031,688.5469 944.7344,688.5469 C944.5156,688.5469 944.3125,688.625 944.125,688.8125 C943.6719,689.2969 943.6719,689.2969 943.4844,689.3906 C943.0625,689.6563 942.375,689.7813 941.6094,689.7813 C939.5625,689.7813 938.2656,688.6875 938.2656,686.9844 L938.2656,685.8906 C938.2656,684.1094 939.5156,682.7969 941.25,682.7969 C941.8281,682.7969 942.4375,682.9531 942.9063,683.2031 C943.3906,683.4844 943.5625,683.7031 943.6563,684.1094 C943.7188,684.5156 943.75,684.6406 943.8906,684.7656 C944.0313,684.9063 944.2656,685.0156 944.4844,685.0156 C944.75,685.0156 945.0156,684.875 945.1875,684.6563 C945.2969,684.5 945.3281,684.3125 945.3281,683.8906 L945.3281,682.4688 C945.3281,682.0313 945.3125,681.9063 945.2188,681.75 C945.0625,681.4844 944.7813,681.3438 944.4844,681.3438 C944.1875,681.3438 943.9844,681.4375 943.7656,681.75 L943.5938,681.6719 Z "/><text fill="#000000" font-family="sans-serif" font-size="12" lengthAdjust="spacingAndGlyphs" textLength="47" x="961.75" y="690.1543">Anuncio</text><line style="stroke: #A80036; stroke-width: 1.5;" x1="781.5" x2="1156.5" y1="702" y2="702"/><text fill="#000000" font-family="sans-serif" font-size="11" lengthAdjust="spacingAndGlyphs" textLength="142" x="786.5" y="716.2104">-Date dtInicioPublicitacao</text><text fill="#000000" font-family="sans-serif" font-size="11" lengthAdjust="spacingAndGlyphs" textLength="133" x="786.5" y="729.0151">-Date dtFimPublicitacao</text><text fill="#000000" font-family="sans-serif" font-size="11" lengthAdjust="spacingAndGlyphs" textLength="144" x="786.5" y="741.8198">-Date dtInicioCandidatura</text><text fill="#000000" font-family="sans-serif" font-size="11" lengthAdjust="spacingAndGlyphs" textLength="135" x="786.5" y="754.6245">-Date dtFimCandidatura</text><text fill="#000000" font-family="sans-serif" font-size="11" lengthAdjust="spacingAndGlyphs" textLength="126" x="786.5" y="767.4292">-Date dtInicioSeriacao</text><text fill="#000000" font-family="sans-serif" font-size="11" lengthAdjust="spacingAndGlyphs" textLength="117" x="786.5" y="780.2339">-Date dtFimSeriacao</text><line style="stroke: #A80036; stroke-width: 1.5;" x1="781.5" x2="1156.5" y1="786.8281" y2="786.8281"/><text fill="#000000" font-family="sans-serif" font-size="11" lengthAdjust="spacingAndGlyphs" textLength="365" x="786.5" y="801.0386">+Anuncio(c, tarefa,dtIniP,dtFimP,dtIniC,dtFimC,dtIniS,dtFimS,regT)</text><!--MD5=[49160b288b1e83d57ecadd2105b8a895]
class PublicarTarefaController--><rect fill="#FEFECE" filter="url(#f19az372sh98hr)" height="112.0234" id="PublicarTarefaController" style="stroke: #A80036; stroke-width: 1.5;" width="364" x="340" y="27"/><ellipse cx="446.25" cy="43" fill="#ADD1B2" rx="11" ry="11" style="stroke: #A80036; stroke-width: 1.0;"/><path d="M448.5938,38.6719 C447.6563,38.2344 447.0625,38.0938 446.1875,38.0938 C443.5625,38.0938 441.5625,40.1719 441.5625,42.8906 L441.5625,44.0156 C441.5625,46.5938 443.6719,48.4844 446.5625,48.4844 C447.7813,48.4844 448.9375,48.1875 449.6875,47.6406 C450.2656,47.2344 450.5938,46.7813 450.5938,46.3906 C450.5938,45.9375 450.2031,45.5469 449.7344,45.5469 C449.5156,45.5469 449.3125,45.625 449.125,45.8125 C448.6719,46.2969 448.6719,46.2969 448.4844,46.3906 C448.0625,46.6563 447.375,46.7813 446.6094,46.7813 C444.5625,46.7813 443.2656,45.6875 443.2656,43.9844 L443.2656,42.8906 C443.2656,41.1094 444.5156,39.7969 446.25,39.7969 C446.8281,39.7969 447.4375,39.9531 447.9063,40.2031 C448.3906,40.4844 448.5625,40.7031 448.6563,41.1094 C448.7188,41.5156 448.75,41.6406 448.8906,41.7656 C449.0313,41.9063 449.2656,42.0156 449.4844,42.0156 C449.75,42.0156 450.0156,41.875 450.1875,41.6563 C450.2969,41.5 450.3281,41.3125 450.3281,40.8906 L450.3281,39.4688 C450.3281,39.0313 450.3125,38.9063 450.2188,38.75 C450.0625,38.4844 449.7813,38.3438 449.4844,38.3438 C449.1875,38.3438 448.9844,38.4375 448.7656,38.75 L448.5938,38.6719 Z "/><text fill="#000000" font-family="sans-serif" font-size="12" lengthAdjust="spacingAndGlyphs" textLength="143" x="466.75" y="47.1543">PublicarTarefaController</text><line style="stroke: #A80036; stroke-width: 1.5;" x1="341" x2="703" y1="59" y2="59"/><line style="stroke: #A80036; stroke-width: 1.5;" x1="341" x2="703" y1="67" y2="67"/><text fill="#000000" font-family="sans-serif" font-size="11" lengthAdjust="spacingAndGlyphs" textLength="146" x="346" y="81.2104">+getTarefasParaPublicar()</text><text fill="#000000" font-family="sans-serif" font-size="11" lengthAdjust="spacingAndGlyphs" textLength="125" x="346" y="94.0151">+selecionaTarefa(ref)</text><text fill="#000000" font-family="sans-serif" font-size="11" lengthAdjust="spacingAndGlyphs" textLength="128" x="346" y="106.8198">+getTiposRegimento()</text><text fill="#000000" font-family="sans-serif" font-size="11" lengthAdjust="spacingAndGlyphs" textLength="352" x="346" y="119.6245">+novoAnuncio(dtIniP,dtFimP,dtIniC,dtFimC,dtIniS,dtFimS,desTR)</text><text fill="#000000" font-family="sans-serif" font-size="11" lengthAdjust="spacingAndGlyphs" textLength="101" x="346" y="132.4292">+registaAnuncio()</text><!--MD5=[3e7906673e6ec71b773ae6790252fa25]
class PublicarTarefaUI--><rect fill="#FEFECE" filter="url(#f19az372sh98hr)" height="48" id="PublicarTarefaUI" style="stroke: #A80036; stroke-width: 1.5;" width="128" x="7" y="241.5"/><ellipse cx="22" cy="257.5" fill="#ADD1B2" rx="11" ry="11" style="stroke: #A80036; stroke-width: 1.0;"/><path d="M24.3438,253.1719 C23.4063,252.7344 22.8125,252.5938 21.9375,252.5938 C19.3125,252.5938 17.3125,254.6719 17.3125,257.3906 L17.3125,258.5156 C17.3125,261.0938 19.4219,262.9844 22.3125,262.9844 C23.5313,262.9844 24.6875,262.6875 25.4375,262.1406 C26.0156,261.7344 26.3438,261.2813 26.3438,260.8906 C26.3438,260.4375 25.9531,260.0469 25.4844,260.0469 C25.2656,260.0469 25.0625,260.125 24.875,260.3125 C24.4219,260.7969 24.4219,260.7969 24.2344,260.8906 C23.8125,261.1563 23.125,261.2813 22.3594,261.2813 C20.3125,261.2813 19.0156,260.1875 19.0156,258.4844 L19.0156,257.3906 C19.0156,255.6094 20.2656,254.2969 22,254.2969 C22.5781,254.2969 23.1875,254.4531 23.6563,254.7031 C24.1406,254.9844 24.3125,255.2031 24.4063,255.6094 C24.4688,256.0156 24.5,256.1406 24.6406,256.2656 C24.7813,256.4063 25.0156,256.5156 25.2344,256.5156 C25.5,256.5156 25.7656,256.375 25.9375,256.1563 C26.0469,256 26.0781,255.8125 26.0781,255.3906 L26.0781,253.9688 C26.0781,253.5313 26.0625,253.4063 25.9688,253.25 C25.8125,252.9844 25.5313,252.8438 25.2344,252.8438 C24.9375,252.8438 24.7344,252.9375 24.5156,253.25 L24.3438,253.1719 Z "/><text fill="#000000" font-family="sans-serif" font-size="12" lengthAdjust="spacingAndGlyphs" textLength="96" x="36" y="261.6543">PublicarTarefaUI</text><line style="stroke: #A80036; stroke-width: 1.5;" x1="8" x2="134" y1="273.5" y2="273.5"/><line style="stroke: #A80036; stroke-width: 1.5;" x1="8" x2="134" y1="281.5" y2="281.5"/><path d="M170.5,245.5 L170.5,285.7656 L445.5,285.7656 L445.5,255.5 L435.5,245.5 L170.5,245.5 " fill="#FBFB77" filter="url(#f19az372sh98hr)" style="stroke: #A80036; stroke-width: 1.0;"/><path d="M435.5,245.5 L435.5,255.5 L445.5,255.5 L435.5,245.5 " fill="#FBFB77" style="stroke: #A80036; stroke-width: 1.0;"/><text fill="#000000" font-family="sans-serif" font-size="13" lengthAdjust="spacingAndGlyphs" textLength="183" x="176.5" y="262.5669">Por questões de legibilidade,</text><text fill="#000000" font-family="sans-serif" font-size="13" lengthAdjust="spacingAndGlyphs" textLength="254" x="176.5" y="277.6997">omitiu-se as dependência entre classes</text><!--MD5=[d0e9f237fb3c72e1245c36c562ad52c4]
class TipoRegimento--><rect fill="#FEFECE" filter="url(#f19az372sh98hr)" height="48" id="TipoRegimento" style="stroke: #A80036; stroke-width: 1.5;" width="122" x="1215" y="930"/><ellipse cx="1230" cy="946" fill="#ADD1B2" rx="11" ry="11" style="stroke: #A80036; stroke-width: 1.0;"/><path d="M1232.3438,941.6719 C1231.4063,941.2344 1230.8125,941.0938 1229.9375,941.0938 C1227.3125,941.0938 1225.3125,943.1719 1225.3125,945.8906 L1225.3125,947.0156 C1225.3125,949.5938 1227.4219,951.4844 1230.3125,951.4844 C1231.5313,951.4844 1232.6875,951.1875 1233.4375,950.6406 C1234.0156,950.2344 1234.3438,949.7813 1234.3438,949.3906 C1234.3438,948.9375 1233.9531,948.5469 1233.4844,948.5469 C1233.2656,948.5469 1233.0625,948.625 1232.875,948.8125 C1232.4219,949.2969 1232.4219,949.2969 1232.2344,949.3906 C1231.8125,949.6563 1231.125,949.7813 1230.3594,949.7813 C1228.3125,949.7813 1227.0156,948.6875 1227.0156,946.9844 L1227.0156,945.8906 C1227.0156,944.1094 1228.2656,942.7969 1230,942.7969 C1230.5781,942.7969 1231.1875,942.9531 1231.6563,943.2031 C1232.1406,943.4844 1232.3125,943.7031 1232.4063,944.1094 C1232.4688,944.5156 1232.5,944.6406 1232.6406,944.7656 C1232.7813,944.9063 1233.0156,945.0156 1233.2344,945.0156 C1233.5,945.0156 1233.7656,944.875 1233.9375,944.6563 C1234.0469,944.5 1234.0781,944.3125 1234.0781,943.8906 L1234.0781,942.4688 C1234.0781,942.0313 1234.0625,941.9063 1233.9688,941.75 C1233.8125,941.4844 1233.5313,941.3438 1233.2344,941.3438 C1232.9375,941.3438 1232.7344,941.4375 1232.5156,941.75 L1232.3438,941.6719 Z "/><text fill="#000000" font-family="sans-serif" font-size="12" lengthAdjust="spacingAndGlyphs" textLength="90" x="1244" y="950.1543">TipoRegimento</text><line style="stroke: #A80036; stroke-width: 1.5;" x1="1216" x2="1336" y1="962" y2="962"/><line style="stroke: #A80036; stroke-width: 1.5;" x1="1216" x2="1336" y1="970" y2="970"/><!--MD5=[ac8682ea5466d223e49472789fb200d2]
class Colaborador--><rect fill="#FEFECE" filter="url(#f19az372sh98hr)" height="48" id="Colaborador" style="stroke: #A80036; stroke-width: 1.5;" width="107" x="766.5" y="1100"/><ellipse cx="781.5" cy="1116" fill="#ADD1B2" rx="11" ry="11" style="stroke: #A80036; stroke-width: 1.0;"/><path d="M783.8438,1111.6719 C782.9063,1111.2344 782.3125,1111.0938 781.4375,1111.0938 C778.8125,1111.0938 776.8125,1113.1719 776.8125,1115.8906 L776.8125,1117.0156 C776.8125,1119.5938 778.9219,1121.4844 781.8125,1121.4844 C783.0313,1121.4844 784.1875,1121.1875 784.9375,1120.6406 C785.5156,1120.2344 785.8438,1119.7813 785.8438,1119.3906 C785.8438,1118.9375 785.4531,1118.5469 784.9844,1118.5469 C784.7656,1118.5469 784.5625,1118.625 784.375,1118.8125 C783.9219,1119.2969 783.9219,1119.2969 783.7344,1119.3906 C783.3125,1119.6563 782.625,1119.7813 781.8594,1119.7813 C779.8125,1119.7813 778.5156,1118.6875 778.5156,1116.9844 L778.5156,1115.8906 C778.5156,1114.1094 779.7656,1112.7969 781.5,1112.7969 C782.0781,1112.7969 782.6875,1112.9531 783.1563,1113.2031 C783.6406,1113.4844 783.8125,1113.7031 783.9063,1114.1094 C783.9688,1114.5156 784,1114.6406 784.1406,1114.7656 C784.2813,1114.9063 784.5156,1115.0156 784.7344,1115.0156 C785,1115.0156 785.2656,1114.875 785.4375,1114.6563 C785.5469,1114.5 785.5781,1114.3125 785.5781,1113.8906 L785.5781,1112.4688 C785.5781,1112.0313 785.5625,1111.9063 785.4688,1111.75 C785.3125,1111.4844 785.0313,1111.3438 784.7344,1111.3438 C784.4375,1111.3438 784.2344,1111.4375 784.0156,1111.75 L783.8438,1111.6719 Z "/><text fill="#000000" font-family="sans-serif" font-size="12" lengthAdjust="spacingAndGlyphs" textLength="75" x="795.5" y="1120.1543">Colaborador</text><line style="stroke: #A80036; stroke-width: 1.5;" x1="767.5" x2="872.5" y1="1132" y2="1132"/><line style="stroke: #A80036; stroke-width: 1.5;" x1="767.5" x2="872.5" y1="1140" y2="1140"/><!--MD5=[463821f61fd53759657c2ac769a7e835]
link Plataforma to RegistoAnuncios--><path d="M931,158.057 C931,208.72 931,274.736 931,320.475 " fill="none" id="Plataforma-&gt;RegistoAnuncios" style="stroke: #A80036; stroke-width: 1.0;"/><polygon fill="#A80036" points="931,325.671,935,316.671,931,320.671,927,316.671,931,325.671" style="stroke: #A80036; stroke-width: 1.0;"/><text fill="#000000" font-family="sans-serif" font-size="13" lengthAdjust="spacingAndGlyphs" textLength="26" x="932" y="201.0669">tem</text><text fill="#000000" font-family="sans-serif" font-size="13" lengthAdjust="spacingAndGlyphs" textLength="8" x="922.5875" y="178.6219">1</text><text fill="#000000" font-family="sans-serif" font-size="13" lengthAdjust="spacingAndGlyphs" textLength="8" x="922.4625" y="315.0285">1</text><!--MD5=[f32982808aff924d3e77e68c8e585416]
link Plataforma to RegistoTiposRegimento--><path d="M1022.01,158.057 C1091.21,214.364 1183.71,289.636 1239.41,334.958 " fill="none" id="Plataforma-&gt;RegistoTiposRegimento" style="stroke: #A80036; stroke-width: 1.0;"/><polygon fill="#A80036" points="1243.35,338.168,1238.8953,329.3842,1239.4723,335.0115,1233.8449,335.5886,1243.35,338.168" style="stroke: #A80036; stroke-width: 1.0;"/><text fill="#000000" font-family="sans-serif" font-size="13" lengthAdjust="spacingAndGlyphs" textLength="26" x="1080" y="201.0669">tem</text><text fill="#000000" font-family="sans-serif" font-size="13" lengthAdjust="spacingAndGlyphs" textLength="8" x="1022.9829" y="178.6219">1</text><text fill="#000000" font-family="sans-serif" font-size="13" lengthAdjust="spacingAndGlyphs" textLength="8" x="1226.6842" y="327.2958">1</text><!--MD5=[f474418f0299e5a3deeeaebedb6f44d3]
link Plataforma to RegistoOrganizacoes--><path d="M820.012,158.198 C781.611,183.869 740.532,211.331 709.748,231.911 " fill="none" id="Plataforma-&gt;RegistoOrganizacoes" style="stroke: #A80036; stroke-width: 1.0;"/><polygon fill="#A80036" points="705.282,234.897,714.9873,233.2214,709.439,232.1186,710.5418,226.5702,705.282,234.897" style="stroke: #A80036; stroke-width: 1.0;"/><text fill="#000000" font-family="sans-serif" font-size="13" lengthAdjust="spacingAndGlyphs" textLength="26" x="772" y="201.0669">tem</text><text fill="#000000" font-family="sans-serif" font-size="13" lengthAdjust="spacingAndGlyphs" textLength="8" x="800.6929" y="178.3905">1</text><text fill="#000000" font-family="sans-serif" font-size="13" lengthAdjust="spacingAndGlyphs" textLength="8" x="705.5902" y="224.139">1</text><!--MD5=[2903b91671052adea6f5e59eb6d59b42]
link RegistoAnuncios to Anuncio--><path d="M936.125,425.253 C942.594,486.797 953.782,593.231 961.286,664.618 " fill="none" id="RegistoAnuncios-&gt;Anuncio" style="stroke: #A80036; stroke-width: 1.0;"/><polygon fill="#A80036" points="961.82,669.696,964.857,660.3271,961.2972,664.7234,956.9008,661.1636,961.82,669.696" style="stroke: #A80036; stroke-width: 1.0;"/><text fill="#000000" font-family="sans-serif" font-size="13" lengthAdjust="spacingAndGlyphs" textLength="53" x="954" y="528.5669">publicita</text><text fill="#000000" font-family="sans-serif" font-size="13" lengthAdjust="spacingAndGlyphs" textLength="8" x="928.2832" y="445.3651">1</text><text fill="#000000" font-family="sans-serif" font-size="13" lengthAdjust="spacingAndGlyphs" textLength="7" x="953.7186" y="658.8683">*</text><!--MD5=[91ce51344d2c82f098c99e096ab9b054]
link RegistoTiposRegimento to TipoRegimento--><path d="M1287.25,412.563 C1285.04,518.77 1278.58,828.935 1276.59,924.582 " fill="none" id="RegistoTiposRegimento-&gt;TipoRegimento" style="stroke: #A80036; stroke-width: 1.0;"/><polygon fill="#A80036" points="1276.48,929.773,1280.6668,920.8584,1276.5843,924.7741,1272.6685,920.6915,1276.48,929.773" style="stroke: #A80036; stroke-width: 1.0;"/><text fill="#000000" font-family="sans-serif" font-size="13" lengthAdjust="spacingAndGlyphs" textLength="49" x="1283" y="636.0669">suporta</text><text fill="#000000" font-family="sans-serif" font-size="13" lengthAdjust="spacingAndGlyphs" textLength="8" x="1278.4633" y="432.054">1</text><text fill="#000000" font-family="sans-serif" font-size="13" lengthAdjust="spacingAndGlyphs" textLength="7" x="1268.7439" y="919.1226">*</text><!--MD5=[7846c904d139ffad2e5d1ca294d8e188]
link RegistoOrganizacoes to Organizacao--><path d="M631.262,296.219 C624.237,305.082 617.714,315.306 614,326 C600.344,365.319 601.909,411.709 607.321,449.592 " fill="none" id="RegistoOrganizacoes-&gt;Organizacao" style="stroke: #A80036; stroke-width: 1.0;"/><polygon fill="#A80036" points="608.072,454.642,610.7042,445.1514,607.3363,449.6964,602.7913,446.3285,608.072,454.642" style="stroke: #A80036; stroke-width: 1.0;"/><text fill="#000000" font-family="sans-serif" font-size="13" lengthAdjust="spacingAndGlyphs" textLength="97" x="615" y="380.0669">tem registadas</text><text fill="#000000" font-family="sans-serif" font-size="13" lengthAdjust="spacingAndGlyphs" textLength="8" x="616.6198" y="315.8426">1</text><text fill="#000000" font-family="sans-serif" font-size="13" lengthAdjust="spacingAndGlyphs" textLength="7" x="599.0685" y="443.8087">*</text><!--MD5=[fe36d68e6ccc9fbcf1b4b1ecbcfd2a3f]
link Organizacao to ListaTarefas--><path d="M621.756,593.273 C620.638,627.296 619.323,667.319 618.359,696.643 " fill="none" id="Organizacao-&gt;ListaTarefas" style="stroke: #A80036; stroke-width: 1.0;"/><polygon fill="#A80036" points="618.183,701.99,622.4791,693.1275,618.3487,696.9927,614.4835,692.8624,618.183,701.99" style="stroke: #A80036; stroke-width: 1.0;"/><text fill="#000000" font-family="sans-serif" font-size="13" lengthAdjust="spacingAndGlyphs" textLength="26" x="622" y="636.0669">tem</text><text fill="#000000" font-family="sans-serif" font-size="13" lengthAdjust="spacingAndGlyphs" textLength="8" x="613.1609" y="612.6811">1</text><text fill="#000000" font-family="sans-serif" font-size="13" lengthAdjust="spacingAndGlyphs" textLength="8" x="609.6636" y="690.8986">1</text><!--MD5=[d258da2d5a47e4c990d61ccbbbe86ed7]
link ListaTarefas to Tarefa--><path d="M611.106,776.199 C608.947,799.763 609.388,830.548 621,855 C631.047,876.156 648.021,894.616 665.756,909.638 " fill="none" id="ListaTarefas-&gt;Tarefa" style="stroke: #A80036; stroke-width: 1.0;"/><polygon fill="#A80036" points="669.791,912.987,665.42,904.1612,665.9435,909.7938,660.3109,910.3173,669.791,912.987" style="stroke: #A80036; stroke-width: 1.0;"/><text fill="#000000" font-family="sans-serif" font-size="13" lengthAdjust="spacingAndGlyphs" textLength="41" x="622" y="851.0669">possui</text><text fill="#000000" font-family="sans-serif" font-size="13" lengthAdjust="spacingAndGlyphs" textLength="8" x="601.4673" y="795.7125">1</text><text fill="#000000" font-family="sans-serif" font-size="13" lengthAdjust="spacingAndGlyphs" textLength="7" x="655.0778" y="904.4735">*</text><!--MD5=[ebe0b2adceebb6ee2636cb1948c7c8a9]
link Tarefa to Colaborador--><path d="M740.981,1023.098 C744.835,1039.238 750.544,1055.8577 759,1070 C764.816,1079.7268 773.036,1088.5923 781.562,1096.1716 " fill="none" id="Tarefa-&gt;Colaborador" style="stroke: #A80036; stroke-width: 1.0;"/><polygon fill="#A80036" points="785.764,1099.7872,781.5512,1090.8848,781.9741,1096.5258,776.333,1096.9487,785.764,1099.7872" style="stroke: #A80036; stroke-width: 1.0;"/><text fill="#000000" font-family="sans-serif" font-size="13" lengthAdjust="spacingAndGlyphs" textLength="105" x="760" y="1066.0669">especificada por</text><text fill="#000000" font-family="sans-serif" font-size="13" lengthAdjust="spacingAndGlyphs" textLength="7" x="734.4221" y="1042.7296">*</text><text fill="#000000" font-family="sans-serif" font-size="13" lengthAdjust="spacingAndGlyphs" textLength="8" x="767.966" y="1088.7447">1</text><!--MD5=[439a6ad1de0b5aa57a973cae1bf36ce5]
link Anuncio to Tarefa--><path d="M780.396,805.5 C739.361,820.608 707.083,833.572 704,838 C695.384,850.372 694.07,865.075 696.584,879.764 " fill="none" id="Anuncio-&gt;Tarefa" style="stroke: #A80036; stroke-width: 1.0;"/><polygon fill="#A80036" points="697.579,884.741,699.7374,875.1316,696.599,879.838,691.8925,876.6996,697.579,884.741" style="stroke: #A80036; stroke-width: 1.0;"/><text fill="#000000" font-family="sans-serif" font-size="13" lengthAdjust="spacingAndGlyphs" textLength="53" x="705" y="851.0669">publicita</text><text fill="#000000" font-family="sans-serif" font-size="13" lengthAdjust="spacingAndGlyphs" textLength="24" x="748.5599" y="804.8813">0..1</text><text fill="#000000" font-family="sans-serif" font-size="13" lengthAdjust="spacingAndGlyphs" textLength="8" x="685.5137" y="873.9179">1</text><!--MD5=[4eb4fec7757cdb084f5153b8189a0ca2]
reverse link Anuncio to Tarefa--><path d="M830.402,811.202 C819.197,819.498 808.538,828.444 799,838 C785.503,851.523 773.82,868.366 764.194,884.954 " fill="none" id="Anuncio&lt;-Tarefa" style="stroke: #A80036; stroke-width: 1.0;"/><polygon fill="#A80036" points="834.553,808.175,824.9242,810.2453,830.5129,811.1208,829.6375,816.7095,834.553,808.175" style="stroke: #A80036; stroke-width: 1.0;"/><text fill="#000000" font-family="sans-serif" font-size="13" lengthAdjust="spacingAndGlyphs" textLength="65" x="800" y="851.0669">dá origem</text><text fill="#000000" font-family="sans-serif" font-size="13" lengthAdjust="spacingAndGlyphs" textLength="24" x="796.1371" y="827.8142">0..1</text><text fill="#000000" font-family="sans-serif" font-size="13" lengthAdjust="spacingAndGlyphs" textLength="8" x="758.9984" y="874.1529">1</text><!--MD5=[22ab75f887ca251f11fce1d8db3a0e76]
link Anuncio to Seriacao--><path d="M1008.75,808.273 C1030.2,845.119 1055.74,889.003 1073.04,918.713 " fill="none" id="Anuncio-&gt;Seriacao" style="stroke: #A80036; stroke-width: 1.0;"/><polygon fill="#A80036" points="1075.74,923.357,1074.676,913.5658,1073.2276,919.0341,1067.7593,917.5857,1075.74,923.357" style="stroke: #A80036; stroke-width: 1.0;"/><text fill="#000000" font-family="sans-serif" font-size="13" lengthAdjust="spacingAndGlyphs" textLength="55" x="1035" y="851.0669">espoleta</text><text fill="#000000" font-family="sans-serif" font-size="13" lengthAdjust="spacingAndGlyphs" textLength="24" x="987.3905" y="827.6811">0..1</text><text fill="#000000" font-family="sans-serif" font-size="13" lengthAdjust="spacingAndGlyphs" textLength="8" x="1063.3551" y="912.5907">1</text><!--MD5=[3fb03004f687adcfc695220fdd65ad26]
link Anuncio to TipoRegimento--><path d="M1075.33,808.159 C1111.47,831.918 1151.85,859.118 1188,885 C1206.52,898.263 1226.67,913.747 1243,926.586 " fill="none" id="Anuncio-&gt;TipoRegimento" style="stroke: #A80036; stroke-width: 1.0;"/><polygon fill="#A80036" points="1247.07,929.79,1242.4826,921.0748,1243.1449,926.6927,1237.5269,927.355,1247.07,929.79" style="stroke: #A80036; stroke-width: 1.0;"/><text fill="#000000" font-family="sans-serif" font-size="13" lengthAdjust="spacingAndGlyphs" textLength="74" x="1141" y="851.0669">rege-se por</text><text fill="#000000" font-family="sans-serif" font-size="13" lengthAdjust="spacingAndGlyphs" textLength="7" x="1078.4523" y="827.7966">*</text><text fill="#000000" font-family="sans-serif" font-size="13" lengthAdjust="spacingAndGlyphs" textLength="8" x="1230.6317" y="918.7482">1</text><!--MD5=[0a535575571876f6213287bf563a867d]
link Anuncio to Colaborador--><path d="M938.457,808.076 C928.459,832.062 917.903,859.423 910,885 C885.165,965.373 909.189,995.564 870,1070 C865.037,1079.4268 857.928,1088.3873 850.622,1096.1679 " fill="none" id="Anuncio-&gt;Colaborador" style="stroke: #A80036; stroke-width: 1.0;"/><polygon fill="#A80036" points="847.028,1099.8896,856.1571,1096.1936,850.5011,1096.2927,850.402,1090.6367,847.028,1099.8896" style="stroke: #A80036; stroke-width: 1.0;"/><text fill="#000000" font-family="sans-serif" font-size="13" lengthAdjust="spacingAndGlyphs" textLength="86" x="911" y="958.5669">publicado por</text><text fill="#000000" font-family="sans-serif" font-size="13" lengthAdjust="spacingAndGlyphs" textLength="7" x="928.1059" y="827.7055">*</text><text fill="#000000" font-family="sans-serif" font-size="13" lengthAdjust="spacingAndGlyphs" textLength="8" x="844.9289" y="1088.8733">1</text><!--MD5=[01d175ae3b9e282c6925e8b717808735]
link AplicacaoPOT to SessaoUtilizador--><!--MD5=[ff8748d0e3f605a25aa15a5b627abf1c]
link SessaoUtilizador to PublicarTarefaController--><!--MD5=[98c9c7d1b81ab94a71ad39589b0eb291]
link AplicacaoPOT to PublicarTarefaUI--><!--MD5=[a2117bbd801075da4fcf4c65408a8464]
link PublicarTarefaUI to N1--><!--MD5=[2a78367239d35c3f5c687d1a148a722d]
@startuml
skinparam classAttributeIconSize 0

class AplicacaoPOT
{
  +static getInstance()
  +getSessaoAtual()
}

class SessaoUtilizador
{
  +getEmailUtilizador()
}

class Seriacao
{
  **-Date dataRealizacao**
}
class Organizacao {
  -String nome
  -String NIF
  -String website
  -String telefone
  -String email
  +ListaTarefas getListaTarefas()
  +Colaborador getColaboradorByEmail(email)
}

class ListaTarefas {
  +List<Tarefa> getTarefaParaPublicar(c)
  +Tarefa getTarefaParaPublicarByRef(ref, c)
}

class Tarefa {
  -String referencia
  -String designacao
  -String descInformal
  -String descTecnica
  -Integer duracaoEst
  -Double custoEst
  +publicar(anu)
}

class Plataforma {
  **-Integer delay**
  **-Integer intervalo**
  -String designacao
  +RegistoOrganizacoes getRegistoOrganizacoes()
  +RegistoTipoRegimento getRegistoTiposRegimento()
  +RegistoAnuncios getRegistoAnuncios()
  **+getDelay()**
  **+getIntervalo()**
}

class RegistoTiposRegimento {
  +List<TipoRegimento> getTiposRegimento()
  +TipoRegimento getTipoRegimentoByDesc(desTR)
}

class RegistoOrganizacoes {
  +Organizacao getOrganizacaoByEmailUtilizador(email)
}

class RegistoAnuncios {
  +novoAnuncio(c,tarefa,dtIniP,dtFimP,dtIniC,dtFimC,dtIniS,dtFimS,regT)
  +validaAnuncio(anu)
  +registaAnuncio(anu)
  -addAnuncio(anu)
}

class Anuncio {
  -Date dtInicioPublicitacao
  -Date dtFimPublicitacao
  -Date dtInicioCandidatura
  -Date dtFimCandidatura
  -Date dtInicioSeriacao
  -Date dtFimSeriacao
  +Anuncio(c, tarefa,dtIniP,dtFimP,dtIniC,dtFimC,dtIniS,dtFimS,regT)
}

class PublicarTarefaController {
  +getTarefasParaPublicar()
  +selecionaTarefa(ref)
  +getTiposRegimento()
  +novoAnuncio(dtIniP,dtFimP,dtIniC,dtFimC,dtIniS,dtFimS,desTR)
  +registaAnuncio()
}

class PublicarTarefaUI {
}

note "Por questões de legibilidade, \nomitiu-se as dependência entre classes" as N1

Plataforma "1" - -> "1" RegistoAnuncios : tem
Plataforma "1" - -> "1" RegistoTiposRegimento : tem
Plataforma "1" - -> "1" RegistoOrganizacoes : tem

RegistoAnuncios "1" - -> "*" Anuncio : publicita
RegistoTiposRegimento "1" - -> "*" TipoRegimento : suporta
RegistoOrganizacoes "1" - -> "*" Organizacao : tem registadas

Organizacao "1" - -> "1" ListaTarefas: tem
ListaTarefas "1" - -> "*" Tarefa: possui

Tarefa "*" - -> "1" Colaborador: especificada por

Anuncio "0..1" - -> "1" Tarefa: publicita
Anuncio "0..1" - -> "1" Seriacao: espoleta
Anuncio "0..1" <- - "1" Tarefa: dá origem
Anuncio "*" - -> "1" TipoRegimento: rege-se por
Anuncio "*" - -> "1" Colaborador: publicado por
@enduml

PlantUML version 1.2020.10(Sun May 17 09:48:49 UTC 2020)
(GPL source distribution)
Java Runtime: Java(TM) SE Runtime Environment
JVM: Java HotSpot(TM) 64-Bit Server VM
Operating System: Linux
Default Encoding: UTF-8
Language: en
Country: US
--></g></svg>